<svg width="26" height="26" viewBox="0 0 26 26" fill="none" xmlns="http://www.w3.org/2000/svg">
<g clip-path="url(#clip0_41418_8802)">
<mask id="mask0_41418_8802" style="mask-type:alpha" maskUnits="userSpaceOnUse" x="0" y="0" width="26" height="26">
<rect width="26" height="26" fill="#D9D9D9"/>
</mask>
<g mask="url(#mask0_41418_8802)">
<path d="M8.70418 19.4375H11.8292V18.4792H9.6625V17.2708H11.8292V14.1459H8.70418V15.1042H10.8708V16.3125H8.70418V19.4375ZM16.3708 19.4375H17.3292V14.1459H16.3708V16.3125H15.1625V14.1459H14.2042V17.2708H16.3708V19.4375ZM22.4958 11.8875V20.5208C22.4958 21.0681 22.3062 21.5313 21.9271 21.9104C21.5479 22.2896 21.0847 22.4792 20.5375 22.4792H5.49584C4.94863 22.4792 4.48544 22.2896 4.10627 21.9104C3.72711 21.5313 3.53752 21.0681 3.53752 20.5208V11.8667C3.10141 11.5083 2.77397 11.0434 2.55521 10.4719C2.33647 9.90036 2.33195 9.28335 2.54167 8.62086L3.63751 5.04169C3.78196 4.58614 4.0271 4.21878 4.37293 3.93961C4.71877 3.66045 5.13196 3.52087 5.61251 3.52087H20.4C20.8806 3.52087 21.291 3.65421 21.6312 3.92087C21.9715 4.18753 22.2194 4.55419 22.375 5.02086L23.4917 8.62086C23.7014 9.28335 23.6969 9.89828 23.4781 10.4656C23.2594 11.033 22.9319 11.507 22.4958 11.8875ZM15.4 11.1042C15.9917 11.1042 16.4365 10.9233 16.7344 10.5615C17.0323 10.1997 17.1542 9.81115 17.1 9.39587L16.4417 5.14582H13.8292V9.42501C13.8292 9.88057 13.9833 10.2743 14.2917 10.6063C14.6 10.9382 14.9694 11.1042 15.4 11.1042ZM10.525 11.1042C11.0236 11.1042 11.4281 10.9382 11.7386 10.6063C12.049 10.2743 12.2042 9.88057 12.2042 9.42501V5.14582H9.59165L8.93331 9.43753C8.87499 9.82225 8.99583 10.1962 9.29582 10.5594C9.59583 10.9226 10.0056 11.1042 10.525 11.1042ZM5.70416 11.1042C6.10555 11.1042 6.4507 10.9643 6.73961 10.6844C7.0285 10.4045 7.20697 10.0528 7.27502 9.6292L7.91254 5.14582H5.61251C5.49445 5.14582 5.40069 5.17187 5.33125 5.22396C5.26179 5.27605 5.2097 5.35418 5.17498 5.45836L4.13333 8.98334C3.99026 9.44863 4.05761 9.91843 4.3354 10.3927C4.61318 10.867 5.06944 11.1042 5.70416 11.1042ZM20.3292 11.1042C20.9153 11.1042 21.3639 10.874 21.675 10.4136C21.9861 9.95315 22.0611 9.4764 21.9 8.98334L20.8042 5.43751C20.7695 5.33335 20.7174 5.25869 20.6479 5.21353C20.5785 5.16839 20.4847 5.14582 20.3667 5.14582H18.1208L18.7583 9.6292C18.8264 10.0528 19.0048 10.4045 19.2937 10.6844C19.5826 10.9643 19.9278 11.1042 20.3292 11.1042ZM5.49584 20.8542H20.5375C20.6347 20.8542 20.7146 20.823 20.7771 20.7604C20.8396 20.6979 20.8709 20.6181 20.8709 20.5208V12.6333C20.7528 12.6764 20.6542 12.7031 20.575 12.7135C20.4959 12.7239 20.4139 12.7292 20.3292 12.7292C19.8417 12.7292 19.4128 12.641 19.0427 12.4646C18.6726 12.2882 18.3139 12.0056 17.9667 11.6167C17.6625 11.9555 17.3028 12.2257 16.8875 12.4271C16.4722 12.6285 15.9986 12.7292 15.4667 12.7292C15.0069 12.7292 14.5736 12.6337 14.1667 12.4427C13.7597 12.2517 13.3764 11.9764 13.0167 11.6167C12.6819 11.9764 12.3028 12.2517 11.8792 12.4427C11.4556 12.6337 11.0264 12.7292 10.5917 12.7292C10.1028 12.7292 9.64445 12.6406 9.21668 12.4635C8.78889 12.2865 8.41249 12.0042 8.08749 11.6167C7.63193 12.0722 7.21214 12.3715 6.82812 12.5146C6.4441 12.6576 6.06944 12.7292 5.70416 12.7292C5.61945 12.7292 5.53195 12.7239 5.44167 12.7135C5.35137 12.7031 5.25832 12.6764 5.16249 12.6333V20.5208C5.16249 20.6181 5.19374 20.6979 5.25623 20.7604C5.31874 20.823 5.39861 20.8542 5.49584 20.8542Z" fill="#4A2F64"/>
</g>
</g>
<defs>
<clipPath id="clip0_41418_8802">
<rect width="26" height="26" fill="white"/>
</clipPath>
</defs>
</svg>
