<svg width="18" height="18" viewBox="0 0 18 18" fill="none" xmlns="http://www.w3.org/2000/svg">
<circle cx="9" cy="9" r="8.325" stroke="white" stroke-width="1.35"/>
<path d="M9.00422 6.05677C9.67256 6.05677 10.2155 5.51387 10.2155 4.84552C10.2155 4.17718 9.67256 3.63428 9.00422 3.63428C8.33587 3.63428 7.79297 4.17718 7.79297 4.84552C7.79297 5.51387 8.33587 6.05677 9.00422 6.05677Z" fill="white"/>
<path d="M12.8079 6.07397L12.797 6.07613L12.7884 6.07829L12.7235 6.09776C12.3212 6.21672 10.3681 6.76611 8.99027 6.76611C7.71197 6.76611 5.93403 6.29026 5.36518 6.12804C5.30894 6.10641 5.25054 6.08694 5.19214 6.0718C4.78118 5.96365 4.5 6.3811 4.5 6.76178C4.5 7.1403 4.83958 7.31982 5.18133 7.4496V7.45608L7.24045 8.09848C7.45025 8.17851 7.50649 8.2607 7.53461 8.33208C7.62329 8.56135 7.55191 9.01557 7.52812 9.17346L7.40267 10.1468L6.70836 13.9601L6.70187 13.9925L6.69755 14.0206C6.6478 14.3688 6.90303 14.7084 7.38969 14.7084C7.81363 14.7084 8.0018 14.4164 8.08183 14.0185C8.08183 14.0185 8.68746 10.6097 8.99027 10.6097C9.29308 10.6097 9.91601 14.0185 9.91601 14.0185C9.9982 14.4164 10.1842 14.7084 10.6081 14.7084C11.0948 14.7084 11.3522 14.3688 11.3003 14.0185C11.296 13.9882 11.2895 13.9601 11.283 13.9298L10.58 10.1511L10.4546 9.17779C10.3637 8.6111 10.4373 8.42292 10.4611 8.37966C10.4611 8.37966 10.4632 8.3775 10.4632 8.37534C10.487 8.33208 10.593 8.23474 10.8417 8.14174L12.7733 7.4669C12.7841 7.46474 12.797 7.46041 12.8079 7.45608C13.1539 7.32631 13.5 7.14678 13.5 6.76611C13.5 6.38543 13.2188 5.96582 12.8079 6.07397Z" fill="white"/>
</svg>
