<svg width="36" height="36" viewBox="0 0 36 36" fill="none" xmlns="http://www.w3.org/2000/svg">
<mask id="mask0_1_720" style="mask-type:alpha" maskUnits="userSpaceOnUse" x="0" y="0" width="36" height="36">
<rect width="36" height="36" fill="#D9D9D9"/>
</mask>
<g mask="url(#mask0_1_720)">
<path d="M12.2884 9.4327C11.5307 9.4327 10.8798 9.16059 10.3356 8.61636C9.79134 8.07214 9.51923 7.42119 9.51923 6.66351C9.51923 5.90581 9.79134 5.25485 10.3356 4.71062C10.8798 4.1664 11.5307 3.89429 12.2884 3.89429C13.0461 3.89429 13.6971 4.1664 14.2413 4.71062C14.7855 5.25485 15.0576 5.90581 15.0576 6.66351C15.0576 7.42119 14.7855 8.07214 14.2413 8.61636C13.6971 9.16059 13.0461 9.4327 12.2884 9.4327ZM21 29.25H11.7C10.9423 29.25 10.2534 28.9922 9.63323 28.4768C9.01303 27.9615 8.62505 27.3249 8.4693 26.5673L5.27892 10.5H7.575L10.7885 26.5384C10.8173 26.6538 10.887 26.7596 10.9976 26.8558C11.1082 26.9519 11.2212 27 11.3366 27H21V29.25ZM28.9327 32.5384L24.8423 25.5H14.2154C13.5769 25.5 13.0274 25.3077 12.5668 24.9231C12.1063 24.5385 11.8058 24.0365 11.6654 23.4173L9.95772 15.1904C9.71157 14.0769 9.96877 13.1082 10.7293 12.2842C11.4899 11.4601 12.3981 11.0481 13.4538 11.0481C14.2423 11.0481 14.9615 11.2841 15.6115 11.7563C16.2615 12.2284 16.6769 12.8712 16.8576 13.6846L18.5942 21.75H23.8154C24.2731 21.75 24.6981 21.8683 25.0904 22.1049C25.4827 22.3414 25.8019 22.6654 26.048 23.077L30.8942 31.4134L28.9327 32.5384Z" fill="#12121C"/>
</g>
</svg>
