<svg width="33" height="16" viewBox="0 0 33 16" fill="none" xmlns="http://www.w3.org/2000/svg">
<path d="M6.92871 11.2656C6.68161 11.7655 6.54983 12.4136 6.54981 13.249C6.54981 14.2283 6.4943 15.1003 6.49414 15.8682H2.73099e-07V14.3477C-0.000214308 13.8919 0.126026 13.4446 0.365235 13.0566C0.599822 12.6714 0.959072 12.3763 1.38281 12.2217C2.15698 11.8899 2.9659 11.6444 3.79395 11.4902C4.62586 11.3287 5.47188 11.249 6.31934 11.251C6.52261 11.251 6.7258 11.2561 6.92871 11.2656Z" fill="black"/>
<path d="M26.5547 11.251C27.3869 11.251 28.2174 11.3307 29.0342 11.4902C29.8569 11.6518 30.6616 11.897 31.4346 12.2217C31.8565 12.3794 32.2139 12.6737 32.4512 13.0566C32.687 13.4456 32.8099 13.8928 32.8057 14.3477V15.8682H26.4766C26.5302 15.1003 26.5088 14.2283 26.5088 13.249C26.5088 12.4089 26.3747 11.7588 26.125 11.2578C26.2682 11.2535 26.4114 11.2506 26.5547 11.251Z" fill="black"/>
<path d="M6.29688 4.28418C6.68643 4.27607 7.07374 4.34866 7.43359 4.49805C7.79358 4.64756 8.11937 4.87052 8.38867 5.15234C8.6676 5.41898 8.88867 5.74092 9.03809 6.09668C9.18734 6.45224 9.2617 6.83512 9.25684 7.2207C9.26138 7.61153 9.1877 8.00003 9.04102 8.3623C8.89423 8.72458 8.67664 9.05452 8.40137 9.33203C8.12598 9.60954 7.79771 9.82985 7.43652 9.97949C7.07533 10.1291 6.68781 10.2056 6.29688 10.2041C5.905 10.2088 5.516 10.1348 5.15332 9.98633C4.79058 9.83779 4.46165 9.6171 4.18555 9.33887C3.90953 9.06067 3.69161 8.73 3.5459 8.36621C3.40027 8.00246 3.32923 7.61245 3.33691 7.2207C3.33852 6.83384 3.41603 6.45061 3.56543 6.09375C3.71499 5.73675 3.93423 5.41228 4.20898 5.13965C4.48376 4.86711 4.80984 4.65062 5.16797 4.50391C5.52609 4.35729 5.9099 4.28268 6.29688 4.28418Z" fill="black"/>
<path d="M26.5312 4.28418C26.9209 4.27604 27.309 4.3486 27.6689 4.49805C28.0288 4.6475 28.3538 4.87069 28.623 5.15234C28.902 5.41895 29.123 5.74095 29.2725 6.09668C29.4218 6.45228 29.4961 6.83507 29.4912 7.2207C29.4958 7.61151 29.423 8.00005 29.2764 8.3623C29.1296 8.72454 28.912 9.05454 28.6367 9.33203C28.3613 9.60954 28.0331 9.82985 27.6719 9.97949C27.3106 10.1291 26.9223 10.2056 26.5312 10.2041C26.1395 10.2087 25.7503 10.1348 25.3877 9.98633C25.0252 9.83779 24.6959 9.61697 24.4199 9.33887C24.1441 9.06076 23.9269 8.72982 23.7812 8.36621C23.6356 8.00245 23.5636 7.61246 23.5713 7.2207C23.5729 6.83376 23.6513 6.45067 23.8008 6.09375C23.9503 5.73671 24.1686 5.41231 24.4434 5.13965C24.7182 4.86696 25.0441 4.65068 25.4023 4.50391C25.7605 4.35719 26.1442 4.28275 26.5312 4.28418Z" fill="black"/>
<path d="M16.4025 7.6631C15.3117 7.6631 14.3779 7.28797 13.6012 6.53772C12.8243 5.78728 12.4359 4.88522 12.4359 3.83155C12.4359 2.77787 12.8243 1.87591 13.6012 1.12565C14.3779 0.375218 15.3117 0 16.4025 0C17.4934 0 18.4271 0.375218 19.2038 1.12565C19.9807 1.87591 20.3692 2.77787 20.3692 3.83155C20.3692 4.88522 19.9807 5.78728 19.2038 6.53772C18.4271 7.28797 17.4934 7.6631 16.4025 7.6631ZM7.90253 16V13.5661C7.90253 13.0301 8.05326 12.5336 8.35473 12.0768C8.65619 11.6199 9.05909 11.2687 9.56343 11.0231C10.6835 10.4927 11.8136 10.0949 12.9535 9.82956C14.0935 9.56427 15.2431 9.43163 16.4025 9.43163C17.5619 9.43163 18.7116 9.56427 19.8515 9.82956C20.9915 10.0949 22.1215 10.4927 23.2416 11.0231C23.746 11.2687 24.1489 11.6199 24.4503 12.0768C24.7518 12.5336 24.9025 13.0301 24.9025 13.5661V16H7.90253ZM9.60253 14.3579H23.2025V13.5661C23.2025 13.3445 23.136 13.1392 23.0031 12.9504C22.8701 12.7617 22.6896 12.6077 22.4616 12.4884C21.4851 12.0239 20.4894 11.6719 19.4747 11.4325C18.4598 11.1933 17.4357 11.0737 16.4025 11.0737C15.3693 11.0737 14.3452 11.1933 13.3303 11.4325C12.3156 11.6719 11.32 12.0239 10.3434 12.4884C10.1155 12.6077 9.93497 12.7617 9.80199 12.9504C9.66902 13.1392 9.60253 13.3445 9.60253 13.5661V14.3579ZM16.4025 6.021C17.0259 6.021 17.5595 5.80662 18.0034 5.37785C18.4473 4.94908 18.6692 4.43365 18.6692 3.83155C18.6692 3.22945 18.4473 2.71401 18.0034 2.28524C17.5595 1.85648 17.0259 1.64209 16.4025 1.64209C15.7792 1.64209 15.2456 1.85648 14.8017 2.28524C14.3578 2.71401 14.1359 3.22945 14.1359 3.83155C14.1359 4.43365 14.3578 4.94908 14.8017 5.37785C15.2456 5.80662 15.7792 6.021 16.4025 6.021Z" fill="black"/>
</svg>
