<svg width="36" height="36" viewBox="0 0 36 36" fill="none" xmlns="http://www.w3.org/2000/svg">
<mask id="mask0_11877_11307" style="mask-type:alpha" maskUnits="userSpaceOnUse" x="0" y="0" width="36" height="36">
<rect width="36" height="36" fill="#D9D9D9"/>
</mask>
<g mask="url(#mask0_11877_11307)">
<path d="M6.17306 32.2504V15.9234H3.75V8.1062H11.5068C11.2952 7.86197 11.1514 7.58693 11.0755 7.28108C10.9995 6.97526 10.9616 6.65413 10.9616 6.31771C10.9616 5.19593 11.3542 4.24242 12.1394 3.45717C12.9247 2.67192 13.8782 2.2793 15 2.2793C15.575 2.2793 16.1077 2.39997 16.598 2.64132C17.0884 2.88267 17.5269 3.20527 17.9134 3.60912C18.3 3.18987 18.7384 2.86342 19.2288 2.62977C19.7192 2.39612 20.2519 2.2793 20.8269 2.2793C21.9487 2.2793 22.9022 2.67192 23.6874 3.45717C24.4727 4.24242 24.8653 5.19593 24.8653 6.31771C24.8653 6.65041 24.8235 6.96676 24.7398 7.26676C24.6562 7.56676 24.5163 7.84657 24.3201 8.1062H32.2499V15.9234H29.8269V32.2504H6.17306ZM20.8269 4.52922C20.3201 4.52922 19.8954 4.70062 19.5526 5.04342C19.2098 5.38622 19.0384 5.81098 19.0384 6.31771C19.0384 6.82446 19.2098 7.24922 19.5526 7.592C19.8954 7.9348 20.3201 8.1062 20.8269 8.1062C21.3336 8.1062 21.7584 7.9348 22.1012 7.592C22.444 7.24922 22.6154 6.82446 22.6154 6.31771C22.6154 5.81098 22.444 5.38622 22.1012 5.04342C21.7584 4.70062 21.3336 4.52922 20.8269 4.52922ZM13.2115 6.31771C13.2115 6.82446 13.3829 7.24922 13.7257 7.592C14.0685 7.9348 14.4932 8.1062 15 8.1062C15.5067 8.1062 15.9315 7.9348 16.2743 7.592C16.6171 7.24922 16.7885 6.82446 16.7885 6.31771C16.7885 5.81098 16.6171 5.38622 16.2743 5.04342C15.9315 4.70062 15.5067 4.52922 15 4.52922C14.4932 4.52922 14.0685 4.70062 13.7257 5.04342C13.3829 5.38622 13.2115 5.81098 13.2115 6.31771ZM5.99996 10.3562V13.6735H16.875V10.3562H5.99996ZM16.875 30.0004V15.9234H8.42299V30.0004H16.875ZM19.1249 30.0004H27.5769V15.9234H19.1249V30.0004ZM30 13.6735V10.3562H19.1249V13.6735H30Z" fill="url(#paint0_linear_11877_11307)"/>
</g>
<defs>
<linearGradient id="paint0_linear_11877_11307" x1="18" y1="2.2793" x2="18" y2="32.2504" gradientUnits="userSpaceOnUse">
<stop stop-color="#D3A63E"/>
<stop offset="1" stop-color="#F0CD7C"/>
</linearGradient>
</defs>
</svg>
