<svg width="24" height="24" viewBox="0 0 24 24" fill="none" xmlns="http://www.w3.org/2000/svg">
<path d="M3.75 21.5C2.71417 21.5 1.83017 21.134 1.098 20.402C0.366 19.6698 0 18.7858 0 17.75C0 16.8063 0.312167 15.9839 0.9365 15.2828C1.56083 14.5814 2.34483 14.1743 3.2885 14.0615H3.654L2.5115 13.0962H0.59625C0.424417 13.0962 0.282083 13.0398 0.16925 12.927C0.0564167 12.8142 0 12.6718 0 12.5C0 12.3282 0.0564167 12.1858 0.16925 12.073C0.282083 11.9602 0.424417 11.9038 0.59625 11.9038H4.01925L6.73075 13.5193L10.477 12.1155C10.5808 12.0822 10.6863 12.0546 10.7933 12.0328C10.9003 12.0109 11.0108 12 11.125 12H14.4193L12.5615 9.61525C12.5295 9.57692 12.4927 9.54808 12.451 9.52875C12.4093 9.50958 12.3628 9.5 12.3115 9.5H10.75C10.5372 9.5 10.359 9.42817 10.2155 9.2845C10.0718 9.141 10 8.96283 10 8.75C10 8.53717 10.0718 8.359 10.2155 8.2155C10.359 8.07183 10.5372 8 10.75 8H12.3058C12.5904 8 12.8574 8.06283 13.1068 8.1885C13.3561 8.31417 13.5628 8.484 13.727 8.698L15.1693 10.5462L17.6885 9.44225C17.8423 9.37825 17.9872 9.38983 18.123 9.477C18.259 9.56417 18.327 9.68975 18.327 9.85375V11.0673C18.327 11.1878 18.2818 11.2932 18.1913 11.3837C18.1009 11.4741 17.9955 11.5193 17.875 11.5193H15.95L18.1423 14.3577C18.3923 14.2321 18.6528 14.1411 18.924 14.0848C19.1952 14.0283 19.4705 14 19.75 14C20.7858 14 21.6698 14.366 22.402 15.098C23.134 15.8302 23.5 16.7142 23.5 17.75C23.5 18.7858 23.134 19.6698 22.402 20.402C21.6698 21.134 20.7858 21.5 19.75 21.5C18.7142 21.5 17.8302 21.134 17.098 20.402C16.366 19.6698 16 18.7858 16 17.75C16 17.2872 16.0856 16.8448 16.2568 16.423C16.4279 16.0013 16.668 15.6167 16.977 15.2692L16.1308 14.2077L12.9057 19.0885C12.8224 19.209 12.7153 19.3077 12.5845 19.3845C12.4538 19.4615 12.3116 19.5 12.1578 19.5H10.1827C10.0686 19.5 9.96217 19.4823 9.8635 19.447C9.76483 19.4118 9.677 19.3558 9.6 19.2788L7.5 17.4615V17.9038C7.44867 18.9089 7.06208 19.7596 6.34025 20.4557C5.61858 21.1519 4.75517 21.5 3.75 21.5ZM3.75 20C4.377 20 4.90875 19.7817 5.34525 19.3453C5.78175 18.9088 6 18.377 6 17.75C6 17.123 5.78175 16.5913 5.34525 16.1547C4.90875 15.7183 4.377 15.5 3.75 15.5C3.123 15.5 2.59125 15.7183 2.15475 16.1547C1.71825 16.5913 1.5 17.123 1.5 17.75C1.5 18.377 1.71825 18.9088 2.15475 19.3453C2.59125 19.7817 3.123 20 3.75 20ZM19.75 20C20.377 20 20.9088 19.7817 21.3453 19.3453C21.7817 18.9088 22 18.377 22 17.75C22 17.123 21.7817 16.5913 21.3453 16.1547C20.9088 15.7183 20.377 15.5 19.75 15.5C19.123 15.5 18.5912 15.7183 18.1548 16.1547C17.7183 16.5913 17.5 17.123 17.5 17.75C17.5 18.377 17.7183 18.9088 18.1548 19.3453C18.5912 19.7817 19.123 20 19.75 20ZM11.8348 18L14.8115 13.5H11.0615L7.01925 15.0037L10.4038 18H11.8348Z" fill="#42265E"/>
<path d="M3 4.9375C3 5.92517 3.28467 6.88258 3.854 7.80975C4.42333 8.73692 5.195 9.365 6.169 9.694C6.244 9.72733 6.31525 9.74817 6.38275 9.7565C6.45008 9.76483 6.52125 9.769 6.59625 9.769C6.67108 9.769 6.74225 9.76483 6.80975 9.7565C6.87725 9.74817 6.94842 9.72733 7.02325 9.694C7.99742 9.36583 8.76908 8.73808 9.33825 7.81075C9.90742 6.88342 10.192 5.92617 10.192 4.939V3.48075C10.192 3.22558 10.124 2.98925 9.988 2.77175C9.852 2.55408 9.67067 2.38525 9.444 2.26525L7.20375 1.14025C7.00942 1.04675 6.80758 1 6.59825 1C6.38908 1 6.18575 1.04675 5.98825 1.14025L3.7475 2.266C3.5235 2.386 3.34292 2.5545 3.20575 2.7715C3.06858 2.9885 3 3.22417 3 3.4785V4.9375Z" fill="#42265E"/>
</svg>
