<svg width="20" height="20" viewBox="0 0 20 20" fill="none" xmlns="http://www.w3.org/2000/svg">
<path d="M3.59044 17.0833C3.16947 17.0833 2.81315 16.9375 2.52148 16.6458C2.22982 16.3542 2.08398 15.9978 2.08398 15.5769V6.92312C2.08398 6.50215 2.22982 6.14583 2.52148 5.85417C2.81315 5.5625 3.16947 5.41667 3.59044 5.41667H7.08398V4.00646C7.08398 3.58549 7.22982 3.22917 7.52148 2.9375C7.81315 2.64583 8.16947 2.5 8.59044 2.5H11.4109C11.8318 2.5 12.1882 2.64583 12.4798 2.9375C12.7715 3.22917 12.9173 3.58549 12.9173 4.00646V5.41667H16.4109C16.8318 5.41667 17.1882 5.5625 17.4798 5.85417C17.7715 6.14583 17.9173 6.50215 17.9173 6.92312V15.5769C17.9173 15.9978 17.7715 16.3542 17.4798 16.6458C17.1882 16.9375 16.8318 17.0833 16.4109 17.0833H3.59044ZM8.33398 5.41667H11.6673V4.00646C11.6673 3.94229 11.6406 3.88354 11.5871 3.83021C11.5338 3.77674 11.475 3.75 11.4109 3.75H8.59044C8.52628 3.75 8.46753 3.77674 8.41419 3.83021C8.36072 3.88354 8.33398 3.94229 8.33398 4.00646V5.41667ZM16.6673 12.2917H12.084V12.9967C12.084 13.2115 12.0121 13.3908 11.8684 13.5344C11.7247 13.6781 11.5455 13.75 11.3307 13.75H8.67065C8.45579 13.75 8.27655 13.6781 8.13294 13.5344C7.98919 13.3908 7.91732 13.2115 7.91732 12.9967V12.2917H3.33398V15.5769C3.33398 15.641 3.36072 15.6998 3.41419 15.7531C3.46753 15.8066 3.52628 15.8333 3.59044 15.8333H16.4109C16.475 15.8333 16.5338 15.8066 16.5871 15.7531C16.6406 15.6998 16.6673 15.641 16.6673 15.5769V12.2917ZM9.16732 12.5H10.834V10.8333H9.16732V12.5ZM3.33398 11.0417H7.91732V10.3367C7.91732 10.1218 7.98919 9.94257 8.13294 9.79896C8.27655 9.65521 8.45579 9.58333 8.67065 9.58333H11.3307C11.5455 9.58333 11.7247 9.65521 11.8684 9.79896C12.0121 9.94257 12.084 10.1218 12.084 10.3367V11.0417H16.6673V6.92312C16.6673 6.85896 16.6406 6.80021 16.5871 6.74687C16.5338 6.6934 16.475 6.66667 16.4109 6.66667H3.59044C3.52628 6.66667 3.46753 6.6934 3.41419 6.74687C3.36072 6.80021 3.33398 6.85896 3.33398 6.92312V11.0417Z" fill="#4A2F64"/>
</svg>
