<svg width="24" height="24" viewBox="0 0 24 24" fill="none" xmlns="http://www.w3.org/2000/svg">
<path d="M4 16.7888V18.6925C4 18.7695 4.03208 18.84 4.09625 18.904C4.16025 18.9682 4.23075 19.0003 4.30775 19.0003H19.6923C19.7693 19.0003 19.8398 18.9682 19.9038 18.904C19.9679 18.84 20 18.7695 20 18.6925V16.7888H4ZM4.30775 6.51953H7.075C6.99167 6.36953 6.9295 6.2112 6.8885 6.04453C6.8475 5.87786 6.827 5.70286 6.827 5.51953C6.827 4.82086 7.069 4.22953 7.553 3.74553C8.037 3.26153 8.62833 3.01953 9.327 3.01953C9.74617 3.01953 10.1339 3.12845 10.4902 3.34628C10.8466 3.56411 11.1575 3.8347 11.423 4.15803L11.9808 4.90428L12.5385 4.15803C12.7937 3.8222 13.1025 3.54845 13.465 3.33678C13.8277 3.12528 14.2182 3.01953 14.6367 3.01953C15.3341 3.01953 15.9247 3.26153 16.4085 3.74553C16.8925 4.22953 17.1345 4.82086 17.1345 5.51953C17.1345 5.70286 17.1156 5.87786 17.0778 6.04453C17.0399 6.2112 16.9762 6.36953 16.8865 6.51953H19.6923C20.1974 6.51953 20.625 6.69453 20.975 7.04453C21.325 7.39453 21.5 7.82211 21.5 8.32728V18.6925C21.5 19.1977 21.325 19.6253 20.975 19.9753C20.625 20.3253 20.1974 20.5003 19.6923 20.5003H4.30775C3.80258 20.5003 3.375 20.3253 3.025 19.9753C2.675 19.6253 2.5 19.1977 2.5 18.6925V8.32728C2.5 7.82211 2.675 7.39453 3.025 7.04453C3.375 6.69453 3.80258 6.51953 4.30775 6.51953ZM4 14.2118H20V8.32728C20 8.25028 19.9679 8.17978 19.9038 8.11578C19.8398 8.05161 19.7693 8.01953 19.6923 8.01953H14.2268L15.823 10.2138C15.9448 10.3894 15.9939 10.5744 15.9703 10.7685C15.9464 10.9627 15.8467 11.1207 15.671 11.2425C15.4955 11.3644 15.3106 11.4109 15.1163 11.382C14.9221 11.3532 14.7641 11.256 14.6423 11.0905L11.9808 7.47728L9.31925 11.0905C9.19742 11.256 9.03942 11.3532 8.84525 11.382C8.65108 11.4109 8.46617 11.3644 8.2905 11.2425C8.11483 11.1207 8.01258 10.9627 7.98375 10.7685C7.95492 10.5744 8.00133 10.3894 8.123 10.2138L9.704 8.01953H4.30775C4.23075 8.01953 4.16025 8.05161 4.09625 8.11578C4.03208 8.17978 4 8.25028 4 8.32728V14.2118ZM9.327 6.51953C9.61033 6.51953 9.84783 6.4237 10.0395 6.23203C10.2312 6.04036 10.327 5.80286 10.327 5.51953C10.327 5.2362 10.2312 4.9987 10.0395 4.80703C9.84783 4.61536 9.61033 4.51953 9.327 4.51953C9.04367 4.51953 8.80617 4.61536 8.6145 4.80703C8.42283 4.9987 8.327 5.2362 8.327 5.51953C8.327 5.80286 8.42283 6.04036 8.6145 6.23203C8.80617 6.4237 9.04367 6.51953 9.327 6.51953ZM14.6345 6.51953C14.9178 6.51953 15.1553 6.4237 15.347 6.23203C15.5387 6.04036 15.6345 5.80286 15.6345 5.51953C15.6345 5.2362 15.5387 4.9987 15.347 4.80703C15.1553 4.61536 14.9178 4.51953 14.6345 4.51953C14.3512 4.51953 14.1137 4.61536 13.922 4.80703C13.7303 4.9987 13.6345 5.2362 13.6345 5.51953C13.6345 5.80286 13.7303 6.04036 13.922 6.23203C14.1137 6.4237 14.3512 6.51953 14.6345 6.51953Z" fill="#E3E3E3"/>
</svg>
