<svg width="24" height="24" viewBox="0 0 24 24" fill="none" xmlns="http://www.w3.org/2000/svg">
<path d="M12 21.9328C11.8025 21.9328 11.6134 21.9026 11.4328 21.8423C11.2519 21.7821 11.0795 21.6917 10.9155 21.571L5.223 17.302C4.99867 17.1378 4.82208 16.9269 4.69325 16.6693C4.56442 16.4116 4.5 16.1404 4.5 15.8558V4.30775C4.5 3.80258 4.675 3.375 5.025 3.025C5.375 2.675 5.80258 2.5 6.30775 2.5H17.6923C18.1974 2.5 18.625 2.675 18.975 3.025C19.325 3.375 19.5 3.80258 19.5 4.30775V15.8558C19.5 16.1404 19.4356 16.4116 19.3068 16.6693C19.1779 16.9269 19.0013 17.1378 18.777 17.302L13.0845 21.571C12.9205 21.6917 12.7481 21.7821 12.5673 21.8423C12.3866 21.9026 12.1975 21.9328 12 21.9328ZM11.8173 20.3652C11.8686 20.4102 11.9295 20.4328 12 20.4328C12.0705 20.4328 12.1314 20.4102 12.1828 20.3652L17.875 16.0962C17.9135 16.0641 17.9439 16.0272 17.9663 15.9855C17.9888 15.9438 18 15.8974 18 15.8462V4.30775C18 4.23075 17.9679 4.16025 17.9038 4.09625C17.8398 4.03208 17.7692 4 17.6923 4H6.30775C6.23075 4 6.16025 4.03208 6.09625 4.09625C6.03208 4.16025 6 4.23075 6 4.30775V15.8462C6 15.8974 6.01125 15.9438 6.03375 15.9855C6.05608 16.0272 6.0865 16.0641 6.125 16.0962L11.8173 20.3652ZM10.95 12.5155L9.35775 10.923C9.20892 10.7743 9.03483 10.701 8.8355 10.703C8.63617 10.7048 8.45892 10.7782 8.30375 10.923C8.14875 11.0782 8.06867 11.2564 8.0635 11.4578C8.05833 11.6589 8.13333 11.8371 8.2885 11.9923L10.3173 14.0213C10.4981 14.2019 10.709 14.2923 10.95 14.2923C11.191 14.2923 11.4019 14.2019 11.5827 14.0213L15.727 9.877C15.8757 9.72817 15.949 9.55408 15.947 9.35475C15.9452 9.15542 15.8718 8.97817 15.727 8.823C15.5718 8.668 15.3936 8.58792 15.1923 8.58275C14.9911 8.57758 14.8129 8.65258 14.6578 8.80775L10.95 12.5155ZM11.8173 4H6H18H11.8173Z" fill="#E3E3E3"/>
</svg>
