<svg width="24" height="24" viewBox="0 0 24 24" fill="none" xmlns="http://www.w3.org/2000/svg">
<path d="M4.25 21.5C4.0375 21.5 3.85942 21.4281 3.71575 21.2843C3.57192 21.1404 3.5 20.9622 3.5 20.7498C3.5 20.5371 3.57192 20.359 3.71575 20.2155C3.85942 20.0718 4.0375 20 4.25 20H19.75C19.9625 20 20.1406 20.0719 20.2843 20.2157C20.4281 20.3596 20.5 20.5378 20.5 20.7502C20.5 20.9629 20.4281 21.141 20.2843 21.2845C20.1406 21.4282 19.9625 21.5 19.75 21.5H4.25ZM4.25 15.6635C4.0375 15.6635 3.85942 15.5916 3.71575 15.4478C3.57192 15.3039 3.5 15.1257 3.5 14.913C3.5 14.7005 3.57192 14.5224 3.71575 14.3787C3.85942 14.2353 4.0375 14.1635 4.25 14.1635H19.75C19.9625 14.1635 20.1406 14.2354 20.2843 14.3793C20.4281 14.5231 20.5 14.7013 20.5 14.9137C20.5 15.1264 20.4281 15.3045 20.2843 15.448C20.1406 15.5917 19.9625 15.6635 19.75 15.6635H4.25ZM4.25 9.8365C4.0375 9.8365 3.85942 9.76458 3.71575 9.62075C3.57192 9.47692 3.5 9.29875 3.5 9.08625C3.5 8.87358 3.57192 8.6955 3.71575 8.552C3.85942 8.40833 4.0375 8.3365 4.25 8.3365H19.75C19.9625 8.3365 20.1406 8.40842 20.2843 8.55225C20.4281 8.69608 20.5 8.87433 20.5 9.087C20.5 9.2995 20.4281 9.47758 20.2843 9.62125C20.1406 9.76475 19.9625 9.8365 19.75 9.8365H4.25ZM4.25 4C4.0375 4 3.85942 3.92808 3.71575 3.78425C3.57192 3.64042 3.5 3.46225 3.5 3.24975C3.5 3.03708 3.57192 2.859 3.71575 2.7155C3.85942 2.57183 4.0375 2.5 4.25 2.5H19.75C19.9625 2.5 20.1406 2.57192 20.2843 2.71575C20.4281 2.85958 20.5 3.03775 20.5 3.25025C20.5 3.46292 20.4281 3.641 20.2843 3.7845C20.1406 3.92817 19.9625 4 19.75 4H4.25Z" fill="white"/>
</svg>
