<svg width="24" height="24" viewBox="0 0 24 24" fill="none" xmlns="http://www.w3.org/2000/svg">
<path d="M6 12.9998H4H16H6ZM4.82575 21.4998C4.53175 21.4998 4.28217 21.3969 4.077 21.1913C3.87183 20.9856 3.76925 20.7359 3.76925 20.442V18.7768C3.40392 18.5229 3.101 18.1643 2.8605 17.7008C2.62017 17.2373 2.5 16.7729 2.5 16.3075V6.99978C2.5 5.75111 3.11442 4.86361 4.34325 4.33728C5.57208 3.81094 7.48975 3.53503 10.0963 3.50953C10.3114 3.50953 10.4917 3.58044 10.6372 3.72228C10.7829 3.86411 10.8558 4.03994 10.8558 4.24978C10.8558 4.46494 10.7875 4.64536 10.651 4.79103C10.5145 4.93653 10.3398 5.00928 10.127 5.00928C8.32817 5.02211 6.96758 5.13878 6.04525 5.35928C5.12275 5.57994 4.53333 5.88319 4.277 6.26903H9.3655C9.578 6.26903 9.75608 6.34094 9.89975 6.48478C10.0436 6.62861 10.1155 6.80678 10.1155 7.01928C10.1155 7.23194 10.0436 7.41003 9.89975 7.55353C9.75608 7.69719 9.578 7.76903 9.3655 7.76903H4V11.4998H12.977C13.1905 11.4998 13.3663 11.5717 13.5045 11.7155C13.6425 11.8594 13.7115 12.0375 13.7115 12.25C13.7115 12.4627 13.6397 12.6408 13.496 12.7843C13.3522 12.9279 13.174 12.9998 12.9615 12.9998H4V15.9998C4 16.5498 4.19583 17.0206 4.5875 17.4123C4.97917 17.8039 5.45 17.9998 6 17.9998H14C14.55 17.9998 15.0208 17.8039 15.4125 17.4123C15.8042 17.0206 16 16.5498 16 15.9998V14.4575C16 14.245 16.0719 14.0669 16.2158 13.923C16.3596 13.7794 16.5378 13.7075 16.7503 13.7075C16.9629 13.7075 17.141 13.7794 17.2845 13.923C17.4282 14.0669 17.5 14.245 17.5 14.4575V16.3075C17.5 16.7729 17.3798 17.2373 17.1395 17.7008C16.899 18.1643 16.5961 18.5229 16.2308 18.7768V20.442C16.2308 20.7359 16.1278 20.9856 15.922 21.1913C15.716 21.3969 15.466 21.4998 15.172 21.4998C14.8778 21.4998 14.6282 21.3969 14.423 21.1913C14.218 20.9856 14.1155 20.7359 14.1155 20.442V19.4998H5.8845V20.442C5.8845 20.7359 5.78158 20.9856 5.57575 21.1913C5.36992 21.3969 5.11992 21.4998 4.82575 21.4998ZM6.50225 16.8075C6.86608 16.8075 7.17458 16.6801 7.42775 16.4253C7.68108 16.1706 7.80775 15.8614 7.80775 15.4975C7.80775 15.1337 7.68033 14.8252 7.4255 14.572C7.17083 14.3187 6.86158 14.192 6.49775 14.192C6.13392 14.192 5.82542 14.3194 5.57225 14.5743C5.31892 14.8289 5.19225 15.1382 5.19225 15.502C5.19225 15.8659 5.31967 16.1744 5.5745 16.4275C5.82917 16.6809 6.13842 16.8075 6.50225 16.8075ZM13.5023 16.8075C13.8661 16.8075 14.1746 16.6801 14.4277 16.4253C14.6811 16.1706 14.8077 15.8614 14.8077 15.4975C14.8077 15.1337 14.6803 14.8252 14.4255 14.572C14.1708 14.3187 13.8616 14.192 13.4977 14.192C13.1339 14.192 12.8254 14.3194 12.5723 14.5743C12.3189 14.8289 12.1923 15.1382 12.1923 15.502C12.1923 15.8659 12.3197 16.1744 12.5745 16.4275C12.8292 16.6809 13.1384 16.8075 13.5023 16.8075Z" fill="#42265E"/>
<path d="M12.1923 6.66797C12.1923 7.65564 12.4769 8.61305 13.0463 9.54022C13.6156 10.4674 14.3873 11.0955 15.3613 11.4245C15.4363 11.4578 15.5075 11.4786 15.575 11.487C15.6423 11.4953 15.7135 11.4995 15.7885 11.4995C15.8633 11.4995 15.9345 11.4953 16.002 11.487C16.0695 11.4786 16.1407 11.4578 16.2155 11.4245C17.1897 11.0963 17.9613 10.4686 18.5305 9.54122C19.0997 8.61389 19.3843 7.65664 19.3843 6.66947V5.21122C19.3843 4.95605 19.3162 4.71972 19.1802 4.50222C19.0442 4.28455 18.8629 4.11572 18.6362 3.99572L16.396 2.87072C16.2017 2.77722 15.9998 2.73047 15.7905 2.73047C15.5813 2.73047 15.378 2.77722 15.1805 2.87072L12.9398 3.99647C12.7158 4.11647 12.5352 4.28497 12.398 4.50197C12.2608 4.71897 12.1923 4.95464 12.1923 5.20897V6.66797Z" fill="#42265E"/>
</svg>
