<svg width="36" height="36" viewBox="0 0 36 36" fill="none" xmlns="http://www.w3.org/2000/svg">
<path d="M16.425 19.5982L14.0366 17.2094C13.8134 16.9864 13.5523 16.8725 13.2533 16.8678C12.9543 16.863 12.6884 16.9769 12.4556 17.2094C12.2231 17.4422 12.1069 17.7095 12.1069 18.0115C12.1069 18.3133 12.2231 18.5805 12.4556 18.8133L15.4759 21.8568C15.7471 22.1278 16.0635 22.2633 16.425 22.2633C16.7865 22.2633 17.1029 22.1278 17.3741 21.8568L23.5905 15.6404C23.8135 15.4172 23.9274 15.1522 23.9321 14.8454C23.9369 14.5389 23.823 14.2693 23.5905 14.0365C23.3578 13.8038 23.0904 13.6874 22.7884 13.6874C22.4866 13.6874 22.2194 13.8038 21.9866 14.0365L16.425 19.5982ZM18 32.0564C17.8443 32.0564 17.6914 32.0439 17.5414 32.0189C17.3914 31.9939 17.2461 31.9564 17.1056 31.9064C13.9424 30.7814 11.4256 28.7868 9.55538 25.9225C7.68512 23.058 6.75 19.9672 6.75 16.6499V9.89428C6.75 9.32678 6.9145 8.81478 7.2435 8.35828C7.57225 7.90153 7.99525 7.57028 8.5125 7.36453L17.0509 4.17703C17.3721 4.06153 17.6885 4.00378 18 4.00378C18.3115 4.00378 18.6279 4.06153 18.9491 4.17703L27.4875 7.36453C28.0048 7.57028 28.4278 7.90153 28.7565 8.35828C29.0855 8.81478 29.25 9.32678 29.25 9.89428V16.6499C29.25 19.9672 28.3149 23.058 26.4446 25.9225C24.5744 28.7868 22.0576 30.7814 18.8944 31.9064C18.7539 31.9564 18.6086 31.9939 18.4586 32.0189C18.3086 32.0439 18.1558 32.0564 18 32.0564ZM18 29.8499C20.6 29.0249 22.75 27.3749 24.45 24.8999C26.15 22.4249 27 19.6749 27 16.6499V9.87966C27 9.78366 26.9735 9.69716 26.9205 9.62016C26.8678 9.54316 26.7933 9.48541 26.697 9.44691L18.1586 6.25941C18.1106 6.24016 18.0578 6.23053 18 6.23053C17.9423 6.23053 17.8894 6.24016 17.8414 6.25941L9.303 9.44691C9.20675 9.48541 9.13225 9.54316 9.0795 9.62016C9.0265 9.69716 9 9.78366 9 9.87966V16.6499C9 19.6749 9.85 22.4249 11.55 24.8999C13.25 27.3749 15.4 29.0249 18 29.8499Z" fill="#12121C"/>
</svg>
