<svg width="31" height="24" viewBox="0 0 31 24" fill="none" xmlns="http://www.w3.org/2000/svg">
<path d="M25.83 2.25C26.4267 2.25 26.999 2.48705 27.421 2.90901C27.8429 3.33097 28.08 3.90326 28.08 4.5V19.5C28.08 20.0967 27.8429 20.669 27.421 21.091C26.999 21.5129 26.4267 21.75 25.83 21.75H4.5C3.90326 21.75 3.33097 21.5129 2.90901 21.091C2.48705 20.669 2.25 20.0967 2.25 19.5V4.5C2.25 3.90326 2.48705 3.33097 2.90901 2.90901C3.33097 2.48705 3.90326 2.25 4.5 2.25H25.83ZM25.83 0H4.5C3.30653 0 2.16193 0.474106 1.31802 1.31802C0.474106 2.16193 0 3.30653 0 4.5V19.5C0 20.6935 0.474106 21.8381 1.31802 22.682C2.16193 23.5259 3.30653 24 4.5 24H25.83C27.0235 24 28.1681 23.5259 29.012 22.682C29.8559 21.8381 30.33 20.6935 30.33 19.5V4.5C30.33 3.30653 29.8559 2.16193 29.012 1.31802C28.1681 0.474106 27.0235 0 25.83 0Z" fill="black"/>
<path d="M25.6049 12.4949H4.57495V14.7449H25.6049V12.4949Z" fill="black"/>
<path d="M9.07514 5.18994H4.51514V9.16494H9.07514V5.18994Z" fill="black"/>
</svg>
