<svg width="24" height="24" viewBox="0 0 24 24" fill="none" xmlns="http://www.w3.org/2000/svg">
<path d="M14.2462 16.702C14.3911 16.5673 14.4702 16.4038 14.4837 16.2115C14.4971 16.0192 14.4313 15.8506 14.2865 15.7057L11.3193 12.55L11.3442 12.475H11.5942C12.5328 12.475 13.3042 12.2128 13.9087 11.6885C14.5131 11.1642 14.8692 10.5097 14.977 9.725H15.4693C15.6108 9.725 15.7276 9.67592 15.8197 9.57775C15.9117 9.47958 15.9578 9.36033 15.9578 9.22C15.9578 9.07983 15.9117 8.96358 15.8197 8.87125C15.7276 8.77892 15.6108 8.73275 15.4693 8.73275H14.952C14.902 8.43142 14.8032 8.15225 14.6557 7.89525C14.5082 7.63808 14.3237 7.40117 14.102 7.1845H15.4693C15.6108 7.1845 15.7276 7.13542 15.8197 7.03725C15.9117 6.93908 15.9578 6.81992 15.9578 6.67975C15.9578 6.53942 15.9117 6.42308 15.8197 6.33075C15.7276 6.23842 15.6108 6.19225 15.4693 6.19225H8.623C8.46283 6.19225 8.326 6.24917 8.2125 6.363C8.099 6.47667 8.04225 6.61383 8.04225 6.7745C8.04225 6.93517 8.099 7.06933 8.2125 7.177C8.326 7.28467 8.46283 7.3385 8.623 7.3385H11.5865C12.1288 7.3385 12.5743 7.46608 12.923 7.72125C13.2718 7.97625 13.4962 8.31342 13.5962 8.73275H8.53075C8.38925 8.73275 8.27242 8.78183 8.18025 8.88C8.08825 8.97817 8.04225 9.09742 8.04225 9.23775C8.04225 9.37792 8.08825 9.49417 8.18025 9.5865C8.27242 9.67883 8.38925 9.725 8.53075 9.725H13.6212C13.5341 10.1802 13.3119 10.551 12.9548 10.8375C12.5978 11.124 12.1263 11.2673 11.5402 11.2673H10.3405C10.142 11.2673 9.97025 11.3141 9.82525 11.4078C9.68025 11.5013 9.5725 11.6301 9.502 11.7942C9.4315 11.9584 9.40967 12.1251 9.4365 12.2942C9.4635 12.4634 9.54558 12.6249 9.68275 12.7788L13.2598 16.677C13.3943 16.8218 13.5561 16.8958 13.7452 16.899C13.9342 16.9022 14.1012 16.8365 14.2462 16.702ZM12.0017 21C10.6877 21 9.45267 20.7507 8.2965 20.252C7.14033 19.7533 6.13467 19.0766 5.2795 18.2218C4.42433 17.3669 3.74725 16.3617 3.24825 15.206C2.74942 14.0503 2.5 12.8156 2.5 11.5017C2.5 10.1877 2.74933 8.95267 3.248 7.7965C3.74667 6.64033 4.42342 5.63467 5.27825 4.7795C6.13308 3.92433 7.13833 3.24725 8.294 2.74825C9.44967 2.24942 10.6844 2 11.9983 2C13.3123 2 14.5473 2.24933 15.7035 2.748C16.8597 3.24667 17.8653 3.92342 18.7205 4.77825C19.5757 5.63308 20.2528 6.63833 20.7518 7.794C21.2506 8.94967 21.5 10.1844 21.5 11.4983C21.5 12.8123 21.2507 14.0473 20.752 15.2035C20.2533 16.3597 19.5766 17.3653 18.7218 18.2205C17.8669 19.0757 16.8617 19.7528 15.706 20.2518C14.5503 20.7506 13.3156 21 12.0017 21ZM12 19.5C14.2333 19.5 16.125 18.725 17.675 17.175C19.225 15.625 20 13.7333 20 11.5C20 9.26667 19.225 7.375 17.675 5.825C16.125 4.275 14.2333 3.5 12 3.5C9.76667 3.5 7.875 4.275 6.325 5.825C4.775 7.375 4 9.26667 4 11.5C4 13.7333 4.775 15.625 6.325 17.175C7.875 18.725 9.76667 19.5 12 19.5Z" fill="white"/>
</svg>
