<svg width="24" height="24" viewBox="0 0 24 24" fill="none" xmlns="http://www.w3.org/2000/svg">
<path d="M4.80762 19.25H14.8076C15.0205 19.25 15.1986 19.3218 15.3421 19.4655C15.4858 19.609 15.5576 19.7872 15.5576 20C15.5576 20.2128 15.4858 20.391 15.3421 20.5345C15.1986 20.6782 15.0205 20.75 14.8076 20.75H4.80762C4.59478 20.75 4.41653 20.6782 4.27287 20.5345C4.12937 20.391 4.05762 20.2128 4.05762 20C4.05762 19.7872 4.12937 19.609 4.27287 19.4655C4.41653 19.3218 4.59478 19.25 4.80762 19.25ZM8.58062 14.3115L5.82287 11.5538C5.47803 11.2089 5.30145 10.7862 5.29312 10.2855C5.28478 9.78485 5.45303 9.35893 5.79787 9.00776L6.31137 8.48476L11.6651 13.7885L11.1421 14.3115C10.7973 14.6563 10.3704 14.8288 9.86137 14.8288C9.35237 14.8288 8.92545 14.6563 8.58062 14.3115ZM15.7884 9.66526L10.4846 4.31151L11.0076 3.79801C11.3588 3.45318 11.7847 3.28493 12.2854 3.29326C12.786 3.3016 13.2088 3.47818 13.5536 3.82301L16.3114 6.58076C16.6562 6.9256 16.8286 7.35251 16.8286 7.86151C16.8286 8.37051 16.6562 8.79743 16.3114 9.14226L15.7884 9.66526ZM20.0729 19.127L7.89612 6.95001L8.94987 5.89626L21.1269 18.073C21.2652 18.2115 21.336 18.3856 21.3394 18.5953C21.3425 18.8048 21.2717 18.982 21.1269 19.127C20.9819 19.2718 20.8062 19.3443 20.5999 19.3443C20.3935 19.3443 20.2179 19.2718 20.0729 19.127Z" fill="#42265E"/>
</svg>
