<svg width="24" height="24" viewBox="0 0 24 24" fill="none" xmlns="http://www.w3.org/2000/svg">
<path d="M12 21.3707C11.8962 21.3707 11.7942 21.3624 11.6942 21.3457C11.5942 21.329 11.4974 21.304 11.4037 21.2707C9.29492 20.5207 7.61708 19.1909 6.37025 17.2814C5.12342 15.3718 4.5 13.3112 4.5 11.0997V6.59594C4.5 6.21611 4.60925 5.8742 4.82775 5.5702C5.04608 5.26636 5.3285 5.04611 5.675 4.90945L11.3672 2.78445C11.5814 2.70745 11.7923 2.66895 12 2.66895C12.2077 2.66895 12.4186 2.70745 12.6328 2.78445L18.325 4.90945C18.6715 5.04611 18.9539 5.26636 19.1723 5.5702C19.3908 5.8742 19.5 6.21611 19.5 6.59594V11.0997C19.5 13.3112 18.8766 15.3718 17.6298 17.2814C16.3829 19.1909 14.7051 20.5207 12.5963 21.2707C12.5026 21.304 12.4058 21.329 12.3058 21.3457C12.2058 21.3624 12.1038 21.3707 12 21.3707ZM12 19.8997C13.7333 19.3497 15.1667 18.2497 16.3 16.5997C17.4333 14.9497 18 13.1164 18 11.0997V6.5862C18 6.5222 17.9823 6.46453 17.947 6.41319C17.9118 6.36186 17.8622 6.32336 17.798 6.29769L12.1058 4.17269C12.0738 4.15986 12.0385 4.15345 12 4.15345C11.9615 4.15345 11.9262 4.15986 11.8942 4.17269L6.202 6.29769C6.13783 6.32336 6.08817 6.36186 6.053 6.41319C6.01767 6.46453 6 6.5222 6 6.5862V11.0997C6 13.1164 6.56667 14.9497 7.7 16.5997C8.83333 18.2497 10.2667 19.3497 12 19.8997Z" fill="#42265E"/>
<path d="M12.7935 15.8819L9.64959 12.6057C9.61226 12.5684 9.58288 12.5234 9.56144 12.4708C9.54009 12.4181 9.52941 12.3625 9.52941 12.3038V12.0396C9.52941 11.9155 9.57137 11.8116 9.65528 11.7276C9.73919 11.6437 9.84318 11.6018 9.96724 11.6018H11.25C11.7516 11.6018 12.1969 11.4411 12.5857 11.1198C12.9746 10.7984 13.1891 10.3686 13.2292 9.83037H9.39706C9.28456 9.83037 9.19028 9.79229 9.11422 9.71615C9.03807 9.64 9 9.54563 9 9.43304C9 9.32054 9.03807 9.22626 9.11422 9.15021C9.19028 9.07424 9.28456 9.03625 9.39706 9.03625H13.1213C12.9916 8.67307 12.7578 8.37528 12.4199 8.14287C12.0818 7.91037 11.6919 7.79412 11.25 7.79412H9.39706C9.28456 7.79412 9.19028 7.75604 9.11422 7.6799C9.03807 7.60375 9 7.50943 9 7.39693C9 7.28434 9.03807 7.19006 9.11422 7.11409C9.19028 7.03803 9.28456 7 9.39706 7H14.6912C14.8037 7 14.898 7.03807 14.974 7.11422C15.0502 7.19037 15.0882 7.28469 15.0882 7.39719C15.0882 7.50978 15.0502 7.60406 14.974 7.68003C14.898 7.75609 14.8037 7.79412 14.6912 7.79412H13.1843C13.3724 7.94412 13.537 8.12685 13.6781 8.34232C13.8193 8.55788 13.9147 8.78919 13.9643 9.03625H14.6912C14.8037 9.03625 14.898 9.07432 14.974 9.15047C15.0502 9.22653 15.0882 9.32085 15.0882 9.43344C15.0882 9.54603 15.0502 9.64031 14.974 9.71628C14.898 9.79234 14.8037 9.83037 14.6912 9.83037H14.0314C13.9948 10.5804 13.7063 11.1955 13.1661 11.6756C12.6258 12.1558 11.9871 12.3959 11.25 12.3959H10.5557L13.3676 15.3239C13.4891 15.4509 13.5154 15.5953 13.4465 15.7571C13.3776 15.919 13.2557 16 13.0808 16C13.027 16 12.9755 15.9902 12.9263 15.9705C12.8771 15.9508 12.8329 15.9213 12.7935 15.8819Z" fill="#42265E"/>
</svg>
