<svg width="24" height="24" viewBox="0 0 24 24" fill="none" xmlns="http://www.w3.org/2000/svg">
<path d="M21.7875 13.1849H17.5425V2.78989C17.5425 2.39239 17.22 2.07739 16.83 2.07739H7.185C6.7875 2.07739 6.4725 2.39989 6.4725 2.78989V13.1774H2.2125C1.815 13.1774 1.5 13.4999 1.5 13.8899V21.2024C1.5 21.5999 1.8225 21.9149 2.2125 21.9149H21.78C22.1775 21.9149 22.4925 21.5924 22.4925 21.2024V13.8899C22.4925 13.4924 22.17 13.1774 21.78 13.1774L21.7875 13.1849ZM7.89 13.1849V3.50989H16.11V16.8674H7.89V13.1849ZM21.0675 20.4974H2.9325V14.6174H6.465V16.8749H4.3125V18.3074H19.695V16.8749H17.5425V14.6174H21.075V20.4974H21.0675Z" fill="#12121C"/>
<path d="M11.4375 10.3499H9.32248L9.29248 11.4149L10.965 13.1849L12.18 14.4674H13.68L12.465 13.1849L10.815 11.4374H11.4375C12.735 11.4374 13.8075 10.4699 13.9725 9.22494H14.7075V8.13744H13.89C13.8075 7.87494 13.6875 7.62744 13.53 7.40244H14.7075V6.31494H9.29248V7.40244H11.43C11.97 7.40244 12.45 7.69494 12.705 8.13744H9.29248V9.22494H12.8625C12.705 9.86994 12.12 10.3499 11.43 10.3499H11.4375Z" fill="#12121C"/>
<path d="M14.7075 7.40244H13.53C13.6875 7.62744 13.8075 7.87494 13.89 8.13744H14.7075V9.22494H13.9725C13.8 10.4699 12.7275 11.4374 11.4375 11.4374H10.815L12.465 13.1849L13.68 14.4674H12.18L10.965 13.1849L9.29248 11.4149L9.32248 10.3499H11.4375C12.1275 10.3499 12.7125 9.86994 12.87 9.22494H9.29998V8.13744H12.7125C12.4575 7.69494 11.985 7.40244 11.4375 7.40244H9.29998V6.31494H14.715V7.40244H14.7075Z" fill="#12121C"/>
</svg>
