<svg width="24" height="24" viewBox="0 0 24 24" fill="none" xmlns="http://www.w3.org/2000/svg">
<path d="M7.80848 21.5C7.31148 21.5 6.88598 21.323 6.53198 20.969C6.17798 20.615 6.00098 20.1894 6.00098 19.6923V4.30775C6.00098 3.81058 6.17798 3.385 6.53198 3.031C6.88598 2.677 7.31148 2.5 7.80848 2.5H16.1932C16.6902 2.5 17.1157 2.677 17.4697 3.031C17.8237 3.385 18.0007 3.81058 18.0007 4.30775V19.6923C18.0007 20.1894 17.8237 20.615 17.4697 20.969C17.1157 21.323 16.6902 21.5 16.1932 21.5H7.80848ZM7.50098 11.1598C7.78164 10.9379 8.09023 10.7725 8.42673 10.6635C8.76339 10.5545 9.12148 10.5 9.50098 10.5H14.501C14.8805 10.5 15.2385 10.5545 15.575 10.6635C15.9115 10.7725 16.2201 10.9379 16.501 11.1598V4.30775C16.501 4.21792 16.4721 4.14417 16.4142 4.0865C16.3566 4.02883 16.2829 4 16.1932 4H7.80848C7.71881 4 7.64514 4.02883 7.58748 4.0865C7.52981 4.14417 7.50098 4.21792 7.50098 4.30775V11.1598ZM12.001 9C11.515 9 11.1018 8.82983 10.7615 8.4895C10.4211 8.149 10.251 7.73583 10.251 7.25C10.251 6.76417 10.4211 6.351 10.7615 6.0105C11.1018 5.67017 11.515 5.5 12.001 5.5C12.4868 5.5 12.8999 5.67017 13.2402 6.0105C13.5806 6.351 13.7507 6.76417 13.7507 7.25C13.7507 7.73583 13.5806 8.149 13.2402 8.4895C12.8999 8.82983 12.4868 9 12.001 9ZM7.80848 20H16.1932C16.2829 20 16.3566 19.9712 16.4142 19.9135C16.4721 19.8558 16.501 19.7821 16.501 19.6923V14C16.501 13.45 16.3051 12.9792 15.9135 12.5875C15.5218 12.1958 15.051 12 14.501 12H9.50098C8.95098 12 8.48014 12.1958 8.08848 12.5875C7.69681 12.9792 7.50098 13.45 7.50098 14V19.6923C7.50098 19.7821 7.52981 19.8558 7.58748 19.9135C7.64514 19.9712 7.71881 20 7.80848 20ZM11.251 16.75V18C11.251 18.2125 11.3229 18.3906 11.4667 18.5343C11.6104 18.6781 11.7886 18.75 12.0012 18.75C12.2137 18.75 12.3918 18.6781 12.5355 18.5343C12.679 18.3906 12.7507 18.2125 12.7507 18V16.75H14.001C14.2135 16.75 14.3916 16.6781 14.5352 16.5343C14.6789 16.3904 14.7507 16.2122 14.7507 15.9998C14.7507 15.7871 14.6789 15.609 14.5352 15.4655C14.3916 15.3218 14.2135 15.25 14.001 15.25H12.7507V14C12.7507 13.7875 12.6789 13.6094 12.5352 13.4658C12.3914 13.3219 12.2131 13.25 12.0005 13.25C11.788 13.25 11.6099 13.3219 11.4662 13.4658C11.3227 13.6094 11.251 13.7875 11.251 14V15.25H10.001C9.78848 15.25 9.61031 15.3219 9.46648 15.4658C9.32281 15.6096 9.25098 15.7878 9.25098 16.0003C9.25098 16.2129 9.32281 16.391 9.46648 16.5345C9.61031 16.6782 9.78848 16.75 10.001 16.75H11.251ZM7.80848 20H7.50098H16.501H7.80848Z" fill="#42265E"/>
</svg>
