<svg width="26" height="26" viewBox="0 0 26 26" fill="none" xmlns="http://www.w3.org/2000/svg">
<path d="M16.1506 21.125C13.8812 21.125 11.9589 20.3374 10.3837 18.7623C8.80871 17.1873 8.02122 15.265 8.02122 12.9954C8.02122 10.743 8.80871 8.82646 10.3837 7.24587C11.9589 5.66529 13.8812 4.875 16.1506 4.875C18.4032 4.875 20.3197 5.66529 21.9001 7.24587C23.4807 8.82646 24.271 10.743 24.271 12.9954C24.271 15.265 23.4807 17.1873 21.9001 18.7623C20.3197 20.3374 18.4032 21.125 16.1506 21.125ZM16.146 19.5C17.9515 19.5 19.4862 18.8681 20.7501 17.6042C22.014 16.3403 22.646 14.8056 22.646 13C22.646 11.1944 22.014 9.65972 20.7501 8.39583C19.4862 7.13194 17.9515 6.5 16.146 6.5C14.3404 6.5 12.8057 7.13194 11.5418 8.39583C10.2779 9.65972 9.64595 11.1944 9.64595 13C9.64595 14.8056 10.2779 16.3403 11.5418 17.6042C12.8057 18.8681 14.3404 19.5 16.146 19.5ZM16.9585 12.6812V9.64573C16.9585 9.41552 16.8805 9.2226 16.7247 9.06696C16.5691 8.91114 16.3761 8.83323 16.1457 8.83323C15.9153 8.83323 15.7224 8.91114 15.5669 9.06696C15.4113 9.2226 15.3335 9.41552 15.3335 9.64573V12.9542C15.3335 13.0817 15.3599 13.2052 15.4128 13.3247C15.4655 13.4443 15.5379 13.5503 15.63 13.643L18.1439 16.1666C18.3051 16.3347 18.4965 16.4187 18.7181 16.4187C18.9394 16.4187 19.1341 16.3347 19.3022 16.1666C19.4703 15.9987 19.5544 15.8057 19.5544 15.5875C19.5544 15.3694 19.4703 15.1763 19.3022 15.0082L16.9585 12.6812ZM3.62533 9.47917C3.39512 9.47917 3.2021 9.40126 3.04628 9.24544C2.89065 9.08962 2.81283 8.8966 2.81283 8.6664C2.81283 8.43601 2.89065 8.24308 3.04628 8.08763C3.2021 7.93199 3.39512 7.85417 3.62533 7.85417H6.12539C6.3556 7.85417 6.54852 7.93208 6.70416 8.0879C6.85998 8.24372 6.93789 8.43673 6.93789 8.66694C6.93789 8.89733 6.85998 9.09025 6.70416 9.24571C6.54852 9.40135 6.3556 9.47917 6.12539 9.47917H3.62533ZM2.54199 13.8125C2.31178 13.8125 2.11877 13.7346 1.96295 13.5788C1.80731 13.423 1.72949 13.2299 1.72949 12.9997C1.72949 12.7693 1.80731 12.5764 1.96295 12.421C2.11877 12.2653 2.31178 12.1875 2.54199 12.1875H6.12539C6.3556 12.1875 6.54852 12.2654 6.70416 12.4212C6.85998 12.577 6.93789 12.7701 6.93789 13.0003C6.93789 13.2307 6.85998 13.4236 6.70416 13.579C6.54852 13.7347 6.3556 13.8125 6.12539 13.8125H2.54199ZM3.62533 18.1458C3.39512 18.1458 3.2021 18.0679 3.04628 17.9121C2.89065 17.7563 2.81283 17.5633 2.81283 17.3331C2.81283 17.1027 2.89065 16.9098 3.04628 16.7543C3.2021 16.5987 3.39512 16.5208 3.62533 16.5208H6.12539C6.3556 16.5208 6.54852 16.5987 6.70416 16.7546C6.85998 16.9104 6.93789 17.1034 6.93789 17.3336C6.93789 17.564 6.85998 17.7569 6.70416 17.9124C6.54852 18.068 6.3556 18.1458 6.12539 18.1458H3.62533Z" fill="#4A2F64"/>
</svg>
