<svg width="30" height="27" viewBox="0 0 30 27" fill="none" xmlns="http://www.w3.org/2000/svg">
<path d="M3.95131 20.3184L5.33708 18.9701C4.9251 18.1836 4.68165 17.4907 4.55056 17.06C4.55056 17.06 4.02622 15.3184 4.02622 13.6143C4.02622 7.2285 9.23221 2.02251 15.618 2.02251C17.6405 2.02251 19.5318 2.54686 21.1798 3.44573L22.5655 2.09742C20.5431 0.861463 18.1648 0.168579 15.618 0.168579C8.20225 0.168579 2.17229 6.19854 2.17229 13.6143C2.17229 15.6555 2.77154 17.603 2.77154 17.6218C2.9588 18.221 3.31461 19.2135 3.95131 20.3184Z" fill="black"/>
<path d="M16.1985 8.31455L17.2285 7.30332L18.1086 6.44189H10.6742V8.31455H14.5693C15.0375 8.31455 15.4869 8.42691 15.8614 8.63291L16.1985 8.31455Z" fill="black"/>
<path d="M10.6742 11.6479H12.809L14.7191 9.77527H10.6742V11.6479Z" fill="black"/>
<path d="M28.0337 1.96629L30 0H27.3595L26.7041 0.655431L24.0824 3.22097L22.7341 4.53184L20.5056 6.72285L18.8389 8.33333L18.4644 8.68914L17.3408 9.79401L17.0787 10.0562L15.4307 11.6667L13.221 13.839L10.9925 16.0112L6.29213 20.618L4.94382 21.9288L2.24719 24.5693L0 26.8165H2.64045L3.55805 25.8989L6.17977 23.3146C6.62921 23.7453 7.13483 24.176 7.69663 24.5506C9.96255 26.1236 12.5094 26.7228 14.8876 26.7228C17.3783 26.7228 19.7191 26.0674 21.4981 25.206C23.0712 24.4382 26.8727 22.1536 28.3895 17.6404C28.4457 17.4532 29.0075 15.7491 29.0075 13.6142C29.0075 10.0936 27.6404 6.87266 25.412 4.47566L27.9775 1.96629H28.0337ZM27.191 13.6142C27.191 15.1124 26.8727 16.4607 26.6854 17.0412C25.3933 20.8801 22.0974 22.8652 20.7491 23.5206C19.1948 24.2884 17.1536 24.8502 14.9813 24.8502C13.9513 24.8502 12.9026 24.7191 11.8539 24.4195C10.824 24.1199 9.79401 23.6704 8.82022 22.9963C8.37079 22.6779 7.9588 22.3408 7.58427 21.985L12.3221 17.3408L15.9738 21.1985H18.5393L13.6517 16.03L14.0262 15.6554H14.5693C16.9101 15.6554 18.8577 13.8951 19.1386 11.6292H20.5243V9.75656H20.0375L24.1199 5.76779C26.0112 7.82772 27.1723 10.5805 27.1723 13.5955L27.191 13.6142Z" fill="black"/>
</svg>
