<svg width="25" height="30" viewBox="0 0 25 30" fill="none" xmlns="http://www.w3.org/2000/svg">
<path d="M2.06677 24.221V10.0954H22.8935V21.5421H24.9603V4.27663C24.9603 2.87758 23.8315 1.74881 22.4324 1.74881H20.2305V0H18.1638V1.74881H6.7965V0H4.72973V1.74881H2.52782C1.12878 1.74881 0 2.87758 0 4.27663V24.221C0 25.62 1.13672 26.7488 2.52782 26.7488H3.93482V24.682H2.52782C2.27345 24.6741 2.06677 24.4754 2.06677 24.221ZM2.52782 3.81558H22.4324C22.6868 3.81558 22.8935 4.02226 22.8935 4.27663V8.02862H2.06677V4.27663C2.06677 4.02226 2.27345 3.81558 2.52782 3.81558Z" fill="white"/>
<path d="M10.3736 24.682H6.08105V26.7488H10.3736V24.682Z" fill="white"/>
<path d="M16.8123 24.682H12.5198V26.7488H16.8123V24.682Z" fill="white"/>
<path d="M25.0001 25.7233L24.6662 25.3974L22.8936 23.6168V23.6089H22.8777L22.8538 23.5771L20.9222 21.6454L19.4595 23.1081L21.0335 24.682H18.9587V26.7488H21.0653L19.4595 28.3545L20.9222 29.8171L24.1098 26.6295L25.0001 25.7392V25.7313V25.7233Z" fill="white"/>
<path d="M8.92684 14.9761V13.7043H3.95068V20.2305H9.05402V18.9666H5.53256V17.5278H8.52938V16.3116H5.53256V14.9761H8.92684Z" fill="white"/>
<path d="M14.2608 19.5548L16.1289 16.4308L16.1368 20.2305H17.6233L17.6074 13.7043H16.2879L13.927 17.6947L11.5104 13.7043H10.2068V20.2305H11.6853V16.5103L13.5534 19.5548H14.2608Z" fill="white"/>
<path d="M20.6996 13.7043H19.1018V20.2305H20.6996V13.7043Z" fill="white"/>
</svg>
