<svg width="21" height="19" viewBox="0 0 21 19" fill="none" xmlns="http://www.w3.org/2000/svg">
<path d="M10.2707 17.4807C10.3694 17.4807 10.4697 17.4577 10.5717 17.4115C10.6735 17.3653 10.7539 17.3128 10.8129 17.2538L18.8109 9.25575C19.0366 9.03008 19.2065 8.789 19.3207 8.5325C19.4347 8.27617 19.4917 8.007 19.4917 7.725C19.4917 7.43267 19.4347 7.15125 19.3207 6.88075C19.2065 6.61008 19.0366 6.36708 18.8109 6.15175L14.8109 2.15175C14.5956 1.92608 14.3623 1.761 14.1109 1.6565C13.8598 1.55217 13.588 1.5 13.2957 1.5C13.0137 1.5 12.7429 1.55217 12.4832 1.6565C12.2235 1.761 11.9841 1.92608 11.7649 2.15175L11.1917 2.725L13.0417 4.59025C13.266 4.80442 13.4318 5.04867 13.5389 5.323C13.6459 5.59733 13.6994 5.88192 13.6994 6.17675C13.6994 6.78708 13.4956 7.29608 13.0879 7.70375C12.6803 8.11142 12.1713 8.31525 11.5609 8.31525C11.2661 8.31525 10.9805 8.2665 10.7042 8.169C10.428 8.07167 10.1829 7.91592 9.96869 7.70175L8.29569 6.04425C8.23802 5.98642 8.16427 5.9575 8.07444 5.9575C7.98477 5.9575 7.91111 5.98642 7.85344 6.04425L3.72844 10.169C3.65277 10.2447 3.59602 10.3293 3.55819 10.423C3.52036 10.5165 3.50144 10.6127 3.50144 10.7115C3.50144 10.896 3.56427 11.0537 3.68994 11.1845C3.81561 11.3153 3.97069 11.3808 4.15519 11.3808C4.25402 11.3808 4.35436 11.3577 4.45619 11.3115C4.55819 11.2653 4.63869 11.2128 4.69769 11.1538L7.45519 8.396C7.59369 8.2575 7.76519 8.18408 7.96969 8.17575C8.17419 8.16742 8.35402 8.24083 8.50919 8.396C8.65402 8.54083 8.72644 8.7165 8.72644 8.923C8.72644 9.12933 8.65402 9.30492 8.50919 9.44975L5.76669 12.2075C5.69119 12.2832 5.63452 12.3678 5.59669 12.4615C5.55886 12.555 5.53994 12.6512 5.53994 12.75C5.53994 12.9282 5.60436 13.0817 5.73319 13.2105C5.86202 13.3393 6.01552 13.4038 6.19369 13.4038C6.29252 13.4038 6.39286 13.3807 6.49469 13.3345C6.59669 13.2883 6.67711 13.2358 6.73594 13.1768L9.60919 10.319C9.74769 10.1807 9.91911 10.1073 10.1234 10.099C10.3279 10.0907 10.5078 10.164 10.6629 10.319C10.8078 10.464 10.8802 10.6397 10.8802 10.846C10.8802 11.0523 10.8078 11.228 10.6629 11.373L7.80519 14.246C7.73602 14.305 7.68094 14.3854 7.63994 14.4873C7.59894 14.5892 7.57844 14.6896 7.57844 14.7883C7.57844 14.9666 7.64286 15.1202 7.77169 15.249C7.90052 15.3778 8.05402 15.4423 8.23219 15.4423C8.33086 15.4423 8.42702 15.4233 8.52069 15.3855C8.61419 15.3477 8.69877 15.2909 8.77444 15.2153L11.6477 12.3575C11.786 12.219 11.9574 12.1456 12.1619 12.1372C12.3664 12.1289 12.5463 12.2023 12.7014 12.3575C12.8463 12.5023 12.9187 12.678 12.9187 12.8845C12.9187 13.0908 12.8463 13.2665 12.7014 13.4115L9.82844 16.2845C9.75277 16.3602 9.69602 16.448 9.65819 16.548C9.62036 16.648 9.60144 16.7442 9.60144 16.8365C9.60144 17.021 9.67002 17.1745 9.80719 17.297C9.94436 17.4195 10.0989 17.4807 10.2707 17.4807ZM10.2552 18.9805C9.68986 18.9805 9.19694 18.7844 8.77644 18.3923C8.35594 17.9999 8.13611 17.5114 8.11694 16.9268C7.55027 16.8883 7.07686 16.687 6.69669 16.323C6.31652 15.9588 6.11044 15.4806 6.07844 14.8883C5.48611 14.8499 5.00727 14.6429 4.64194 14.2673C4.27644 13.8916 4.08086 13.4191 4.05519 12.8497C3.46036 12.8114 2.96936 12.5958 2.58219 12.2028C2.19502 11.8098 2.00144 11.3127 2.00144 10.7115C2.00144 10.4167 2.05752 10.1278 2.16969 9.845C2.28186 9.56233 2.44502 9.314 2.65919 9.1L6.79369 4.96525C7.13852 4.62042 7.56286 4.448 8.06669 4.448C8.57069 4.448 8.99511 4.62042 9.33994 4.96525L11.0034 6.62875C11.0623 6.69792 11.1394 6.75308 11.2349 6.79425C11.3306 6.83525 11.4342 6.85575 11.5457 6.85575C11.7277 6.85575 11.8847 6.7955 12.0167 6.675C12.1489 6.5545 12.2149 6.39675 12.2149 6.20175C12.2149 6.09025 12.1944 5.98675 12.1534 5.89125C12.1123 5.79575 12.0571 5.7185 11.9879 5.6595L8.48019 2.15175C8.26486 1.92608 8.02994 1.761 7.77544 1.6565C7.52094 1.55217 7.24752 1.5 6.95519 1.5C6.67319 1.5 6.40561 1.55217 6.15244 1.6565C5.89911 1.761 5.65969 1.92608 5.43419 2.15175L2.14944 5.45175C1.85844 5.74275 1.66294 6.09308 1.56294 6.50275C1.46294 6.91242 1.47319 7.31083 1.59369 7.698C1.63736 7.90433 1.59986 8.09183 1.48119 8.2605C1.36269 8.429 1.20019 8.52992 0.993689 8.56325C0.787356 8.59658 0.598272 8.55658 0.426439 8.44325C0.254606 8.32975 0.152022 8.16975 0.118689 7.96325C-0.0389776 7.32358 -0.0395609 6.68675 0.116939 6.05275C0.273272 5.41875 0.594356 4.85883 1.08019 4.373L4.35519 1.098C4.72969 0.733833 5.13711 0.459833 5.57744 0.275999C6.01777 0.0919994 6.48027 0 6.96494 0C7.44944 0 7.91027 0.0919994 8.34744 0.275999C8.78477 0.459833 9.18544 0.733833 9.54944 1.098L10.1227 1.671L10.6957 1.098C11.07 0.733833 11.4758 0.459833 11.9129 0.275999C12.3501 0.0919994 12.811 0 13.2957 0C13.7804 0 14.2429 0.0919994 14.6832 0.275999C15.1235 0.459833 15.5258 0.733833 15.8899 1.098L19.8649 5.073C20.2289 5.43717 20.5078 5.85158 20.7014 6.31625C20.8949 6.78092 20.9917 7.25558 20.9917 7.74025C20.9917 8.22492 20.8949 8.68583 20.7014 9.123C20.5078 9.56017 20.2289 9.96075 19.8649 10.3247L11.8667 18.3075C11.6462 18.528 11.3979 18.6953 11.1217 18.8095C10.8454 18.9235 10.5565 18.9805 10.2552 18.9805Z" fill="#42265E"/>
</svg>
