<svg width="24" height="24" viewBox="0 0 24 24" fill="none" xmlns="http://www.w3.org/2000/svg">
<path d="M8.375 11.0344C8.375 11.8779 8.79167 12.6846 9.625 13.4544C10.4583 14.2243 11.1512 14.8669 11.7038 15.3824C11.7974 15.4593 11.8987 15.4977 12.0078 15.4977C12.1168 15.4977 12.2171 15.4599 12.3088 15.3842C12.8593 14.8842 13.5496 14.24 14.3798 13.4517C15.2099 12.6632 15.625 11.8574 15.625 11.0344C15.625 10.4921 15.4283 10.0251 15.0348 9.63344C14.6411 9.24178 14.1718 9.04594 13.627 9.04594C13.3025 9.04594 12.9949 9.10995 12.7043 9.23795C12.4136 9.36595 12.1788 9.54295 12 9.76895C11.8192 9.54295 11.5857 9.36595 11.2995 9.23795C11.0133 9.10995 10.7045 9.04594 10.373 9.04594C9.83083 9.04594 9.36225 9.24178 8.96725 9.63344C8.57242 10.0251 8.375 10.4921 8.375 11.0344ZM12 21.3707C11.8962 21.3707 11.7943 21.3624 11.6942 21.3457C11.5942 21.329 11.4974 21.304 11.4037 21.2707C9.29492 20.5207 7.61708 19.1909 6.37025 17.2814C5.12342 15.3718 4.5 13.3112 4.5 11.0997V6.59594C4.5 6.21611 4.60925 5.8742 4.82775 5.5702C5.04608 5.26636 5.3285 5.04611 5.675 4.90945L11.3672 2.78445C11.5814 2.70745 11.7923 2.66895 12 2.66895C12.2077 2.66895 12.4186 2.70745 12.6328 2.78445L18.325 4.90945C18.6715 5.04611 18.9539 5.26636 19.1723 5.5702C19.3908 5.8742 19.5 6.21611 19.5 6.59594V11.0997C19.5 13.3112 18.8766 15.3718 17.6298 17.2814C16.3829 19.1909 14.7051 20.5207 12.5963 21.2707C12.5026 21.304 12.4058 21.329 12.3058 21.3457C12.2058 21.3624 12.1038 21.3707 12 21.3707ZM12 19.8997C13.7333 19.3497 15.1667 18.2497 16.3 16.5997C17.4333 14.9497 18 13.1164 18 11.0997V6.5862C18 6.5222 17.9823 6.46453 17.947 6.41319C17.9118 6.36186 17.8622 6.32336 17.798 6.29769L12.1058 4.17269C12.0738 4.15986 12.0385 4.15345 12 4.15345C11.9615 4.15345 11.9262 4.15986 11.8942 4.17269L6.202 6.29769C6.13783 6.32336 6.08817 6.36186 6.053 6.41319C6.01767 6.46453 6 6.5222 6 6.5862V11.0997C6 13.1164 6.56667 14.9497 7.7 16.5997C8.83333 18.2497 10.2667 19.3497 12 19.8997Z" fill="#E3E3E3"/>
</svg>
