<svg width="20" height="20" viewBox="0 0 20 20" fill="none" xmlns="http://www.w3.org/2000/svg">
<mask id="mask0_37237_113777" style="mask-type:alpha" maskUnits="userSpaceOnUse" x="0" y="0" width="20" height="20">
<rect width="20" height="20" fill="#D9D9D9"/>
</mask>
<g mask="url(#mask0_37237_113777)">
<path d="M1.49805 16.0898V14.2373C1.49805 13.8078 1.60889 13.4245 1.83059 13.0875C2.05227 12.7504 2.34832 12.4881 2.71876 12.3007C3.51071 11.9134 4.30706 11.6147 5.1078 11.4048C5.90855 11.1948 6.78862 11.0899 7.74803 11.0899C8.70743 11.0899 9.5875 11.1948 10.3882 11.4048C11.189 11.6147 11.9853 11.9134 12.7773 12.3007C13.1477 12.4881 13.4438 12.7504 13.6655 13.0875C13.8871 13.4245 13.998 13.8078 13.998 14.2373V16.0898H1.49805ZM15.6647 16.0898V14.1347C15.6647 13.5877 15.5307 13.0664 15.2629 12.5708C14.995 12.0752 14.615 11.6499 14.123 11.295C14.6818 11.3783 15.2122 11.5073 15.7143 11.682C16.2165 11.8567 16.6956 12.0632 17.1518 12.3014C17.5824 12.5311 17.9149 12.8018 18.1494 13.1136C18.3839 13.4253 18.5012 13.7657 18.5012 14.1347V16.0898H15.6647ZM7.74803 9.74367C6.94596 9.74367 6.25933 9.45809 5.68815 8.88692C5.11697 8.31574 4.83138 7.62912 4.83138 6.82705C4.83138 6.02496 5.11697 5.33834 5.68815 4.76717C6.25933 4.19599 6.94596 3.9104 7.74803 3.9104C8.5501 3.9104 9.23672 4.19599 9.8079 4.76717C10.3791 5.33834 10.6647 6.02496 10.6647 6.82705C10.6647 7.62912 10.3791 8.31574 9.8079 8.88692C9.23672 9.45809 8.5501 9.74367 7.74803 9.74367ZM14.9435 6.82705C14.9435 7.62912 14.6579 8.31574 14.0867 8.88692C13.5155 9.45809 12.8289 9.74367 12.0268 9.74367C11.9328 9.74367 11.8132 9.73299 11.6679 9.71163C11.5226 9.69027 11.4029 9.66677 11.3089 9.64113C11.6375 9.24603 11.8901 8.80772 12.0666 8.32619C12.2431 7.84466 12.3313 7.34462 12.3313 6.82605C12.3313 6.30749 12.2413 5.80943 12.0613 5.33186C11.8813 4.8543 11.6305 4.41467 11.3089 4.01296C11.4286 3.97023 11.5482 3.94245 11.6679 3.92963C11.7875 3.91681 11.9072 3.9104 12.0268 3.9104C12.8289 3.9104 13.5155 4.19599 14.0867 4.76717C14.6579 5.33834 14.9435 6.02496 14.9435 6.82705ZM2.74803 14.8398H12.748V14.2373C12.748 14.0631 12.7045 13.9082 12.6174 13.7725C12.5303 13.6368 12.3922 13.5183 12.2032 13.4168C11.5172 13.0631 10.8111 12.7952 10.0846 12.6131C9.35807 12.4309 8.57922 12.3398 7.74803 12.3398C6.91683 12.3398 6.13798 12.4309 5.41148 12.6131C4.685 12.7952 3.9788 13.0631 3.2929 13.4168C3.1038 13.5183 2.96571 13.6368 2.87863 13.7725C2.79156 13.9082 2.74803 14.0631 2.74803 14.2373V14.8398ZM7.74803 8.49371C8.20636 8.49371 8.59872 8.33052 8.92511 8.00413C9.2515 7.67774 9.41469 7.28538 9.41469 6.82705C9.41469 6.36871 9.2515 5.97635 8.92511 5.64996C8.59872 5.32357 8.20636 5.16038 7.74803 5.16038C7.28969 5.16038 6.89733 5.32357 6.57094 5.64996C6.24455 5.97635 6.08136 6.36871 6.08136 6.82705C6.08136 7.28538 6.24455 7.67774 6.57094 8.00413C6.89733 8.33052 7.28969 8.49371 7.74803 8.49371Z" fill="white"/>
</g>
</svg>
