<svg width="24" height="24" viewBox="0 0 24 24" fill="none" xmlns="http://www.w3.org/2000/svg">
<path d="M2.69034 13.6922L2.66699 12.256C5.77284 12.2093 8.88453 11.4854 11.6693 10.166C15.8493 8.18686 18.5232 5.28534 20.0294 3.19531L21.197 4.03599C19.5916 6.2603 16.7367 9.35447 12.2881 11.462C9.31655 12.869 6.00053 13.6396 2.69034 13.6922Z" fill="white"/>
<path d="M4.16173 16.46H2.71973V20.5057H4.16173V16.46Z" fill="white"/>
<path d="M9.94689 14.9131H8.50488V20.5118H9.94689V14.9131Z" fill="white"/>
<path d="M15.6217 12.5312H14.1797V20.5119H15.6217V12.5312Z" fill="white"/>
<path d="M21.3473 10.4824H19.9053V20.5122H21.3473V10.4824Z" fill="white"/>
<path d="M21.3368 8.5439H19.8948V4.61488H15.9658V3.17871H21.3368V8.5439Z" fill="white"/>
</svg>
