<svg width="20" height="20" viewBox="0 0 20 20" fill="none" xmlns="http://www.w3.org/2000/svg">
<mask id="mask0_12175_4767" style="mask-type:alpha" maskUnits="userSpaceOnUse" x="0" y="0" width="20" height="20">
<rect width="20" height="20" fill="#D9D9D9"/>
</mask>
<g mask="url(#mask0_12175_4767)">
<path d="M7.08325 17.0831V15.4165H3.58967C3.16872 15.4165 2.81242 15.2706 2.52075 14.979C2.22909 14.6873 2.08325 14.331 2.08325 13.91V4.42292C2.08325 4.00198 2.22909 3.64567 2.52075 3.354C2.81242 3.06234 3.16872 2.9165 3.58967 2.9165H16.4101C16.8311 2.9165 17.1874 3.06234 17.479 3.354C17.7707 3.64567 17.9165 4.00198 17.9165 4.42292V13.91C17.9165 14.331 17.7707 14.6873 17.479 14.979C17.1874 15.2706 16.8311 15.4165 16.4101 15.4165H12.9165V17.0831H7.08325ZM3.58967 14.1665H16.4101C16.4742 14.1665 16.533 14.1398 16.5864 14.0864C16.6399 14.0329 16.6666 13.9742 16.6666 13.91V4.42292C16.6666 4.35881 16.6399 4.30004 16.5864 4.24661C16.533 4.19319 16.4742 4.16648 16.4101 4.16648H3.58967C3.52556 4.16648 3.46679 4.19319 3.41336 4.24661C3.35994 4.30004 3.33323 4.35881 3.33323 4.42292V13.91C3.33323 13.9742 3.35994 14.0329 3.41336 14.0864C3.46679 14.1398 3.52556 14.1665 3.58967 14.1665Z" fill="white"/>
<path d="M6.31073 7.26157C6.18038 7.39191 6.02119 7.45707 5.83316 7.45707C5.64514 7.45707 5.48595 7.39191 5.3556 7.26157C5.22527 7.13123 5.1601 6.97204 5.1601 6.78401C5.1601 6.59598 5.22527 6.4368 5.3556 6.30645C5.48595 6.17612 5.64514 6.11095 5.83316 6.11095C6.02119 6.11095 6.18038 6.17612 6.31073 6.30645C6.44106 6.4368 6.50623 6.59598 6.50623 6.78401C6.50623 6.97204 6.44106 7.13123 6.31073 7.26157Z" fill="white"/>
<path d="M14.7915 7.40899H7.54791V6.15903H14.7915V7.40899Z" fill="white"/>
<path d="M6.31073 12.2616C6.18038 12.3919 6.02119 12.4571 5.83316 12.4571C5.64514 12.4571 5.48595 12.3919 5.3556 12.2616C5.22527 12.1312 5.1601 11.972 5.1601 11.784C5.1601 11.596 5.22527 11.4368 5.3556 11.3064C5.48595 11.1761 5.64514 11.1109 5.83316 11.1109C6.02119 11.1109 6.18038 11.1761 6.31073 11.3064C6.44106 11.4368 6.50623 11.596 6.50623 11.784C6.50623 11.972 6.44106 12.1312 6.31073 12.2616Z" fill="white"/>
<path d="M14.7915 12.409H7.54791V11.159H14.7915V12.409Z" fill="white"/>
<path d="M6.31073 9.71878C6.18038 9.84911 6.02119 9.91428 5.83316 9.91428C5.64514 9.91428 5.48595 9.84911 5.3556 9.71878C5.22527 9.58843 5.1601 9.42925 5.1601 9.24122C5.1601 9.05319 5.22527 8.894 5.3556 8.76366C5.48595 8.63332 5.64514 8.56816 5.83316 8.56816C6.02119 8.56816 6.18038 8.63332 6.31073 8.76366C6.44106 8.894 6.50623 9.05319 6.50623 9.24122C6.50623 9.42925 6.44106 9.58843 6.31073 9.71878Z" fill="white"/>
<path d="M14.7915 9.8662H7.54791V8.61624H14.7915V9.8662Z" fill="white"/>
</g>
</svg>
