<svg width="15" height="19" viewBox="0 0 15 19" fill="none" xmlns="http://www.w3.org/2000/svg">
<path d="M3.75 9.24995V7.75H11.25V9.24995H3.75ZM3.75 5.24995V3.75H11.25V5.24995H3.75ZM1.49997 11.75H8.99998C9.44484 11.75 9.85637 11.8462 10.2346 12.0385C10.6128 12.2308 10.9339 12.5026 11.198 12.8538L13.5 15.8539V1.8077C13.5 1.71795 13.4711 1.64423 13.4134 1.58653C13.3557 1.52883 13.282 1.49998 13.1922 1.49998H1.8077C1.71795 1.49998 1.64423 1.52883 1.58652 1.58653C1.52882 1.64423 1.49997 1.71795 1.49997 1.8077V11.75ZM1.8077 17.5H12.8673L10.0173 13.7711C9.89165 13.6057 9.74197 13.4775 9.56825 13.3865C9.39453 13.2955 9.20511 13.25 8.99998 13.25H1.49997V17.1923C1.49997 17.282 1.52882 17.3557 1.58652 17.4134C1.64423 17.4711 1.71795 17.5 1.8077 17.5ZM13.1922 19H1.8077C1.30257 19 0.875 18.825 0.525 18.475C0.175 18.125 0 17.6974 0 17.1923V1.8077C0 1.30257 0.175 0.875 0.525 0.525C0.875 0.175 1.30257 0 1.8077 0H13.1922C13.6974 0 14.125 0.175 14.475 0.525C14.825 0.875 15 1.30257 15 1.8077V17.1923C15 17.6974 14.825 18.125 14.475 18.475C14.125 18.825 13.6974 19 13.1922 19Z" fill="#42265E"/>
</svg>
