<svg width="20" height="20" viewBox="0 0 20 20" fill="none" xmlns="http://www.w3.org/2000/svg">
<mask id="mask0_37146_17228" style="mask-type:alpha" maskUnits="userSpaceOnUse" x="0" y="0" width="20" height="20">
<rect width="20" height="20" fill="#D9D9D9"/>
</mask>
<g mask="url(#mask0_37146_17228)">
<path d="M10.0006 17.9167C8.91516 17.9167 7.89086 17.7086 6.92773 17.2925C5.9646 16.8763 5.12458 16.3098 4.40769 15.593C3.69082 14.8761 3.12432 14.0361 2.70819 13.0729C2.29205 12.1098 2.08398 11.0855 2.08398 10C2.08398 8.90601 2.29205 7.87957 2.70819 6.92071C3.12432 5.96185 3.69082 5.12397 4.40769 4.40708C5.12458 3.69021 5.9646 3.12371 6.92773 2.70758C7.89086 2.29144 8.91516 2.08337 10.0006 2.08337C11.0946 2.08337 12.1211 2.29144 13.0799 2.70758C14.0388 3.12371 14.8767 3.69021 15.5936 4.40708C16.3104 5.12397 16.8769 5.96185 17.2931 6.92071C17.7092 7.87957 17.9173 8.90601 17.9173 10C17.9173 11.0855 17.7092 12.1098 17.2931 13.0729C16.8769 14.0361 16.3104 14.8761 15.5936 15.593C14.8767 16.3098 14.0388 16.8763 13.0799 17.2925C12.1211 17.7086 11.0946 17.9167 10.0006 17.9167ZM10.0006 16.6491C10.4259 16.085 10.7838 15.516 11.0744 14.9423C11.365 14.3686 11.6016 13.7415 11.7843 13.0609H8.21696C8.41034 13.7628 8.64966 14.4007 8.93492 14.9744C9.22017 15.5481 9.57541 16.1063 10.0006 16.6491ZM8.38688 16.4199C8.06744 15.9616 7.78057 15.4405 7.5263 14.8566C7.27202 14.2727 7.07437 13.6741 6.93334 13.0609H4.10638C4.54656 13.9263 5.13685 14.6533 5.87723 15.242C6.61764 15.8307 7.45419 16.2233 8.38688 16.4199ZM11.6144 16.4199C12.5471 16.2233 13.3836 15.8307 14.124 15.242C14.8644 14.6533 15.4547 13.9263 15.8949 13.0609H13.0679C12.9002 13.6795 12.6892 14.2807 12.4349 14.8646C12.1806 15.4485 11.9071 15.9669 11.6144 16.4199ZM3.58236 11.8109H6.68013C6.62778 11.5011 6.58986 11.1974 6.56636 10.8999C6.54286 10.6023 6.53111 10.3024 6.53111 10C6.53111 9.69767 6.54286 9.39772 6.56636 9.10017C6.58986 8.80263 6.62778 8.49894 6.68013 8.1891H3.58236C3.50223 8.47223 3.4408 8.76657 3.39807 9.07213C3.35533 9.37768 3.33396 9.68698 3.33396 10C3.33396 10.3131 3.35533 10.6224 3.39807 10.9279C3.4408 11.2335 3.50223 11.5278 3.58236 11.8109ZM7.93011 11.8109H12.0712C12.1235 11.5011 12.1614 11.2001 12.1849 10.9079C12.2084 10.6157 12.2202 10.3131 12.2202 10C12.2202 9.68698 12.2084 9.38436 12.1849 9.09217C12.1614 8.79996 12.1235 8.49894 12.0712 8.1891H7.93011C7.87776 8.49894 7.83983 8.79996 7.81632 9.09217C7.79282 9.38436 7.78107 9.68698 7.78107 10C7.78107 10.3131 7.79282 10.6157 7.81632 10.9079C7.83983 11.2001 7.87776 11.5011 7.93011 11.8109ZM13.3211 11.8109H16.4189C16.499 11.5278 16.5605 11.2335 16.6032 10.9279C16.6459 10.6224 16.6673 10.3131 16.6673 10C16.6673 9.68698 16.6459 9.37768 16.6032 9.07213C16.5605 8.76657 16.499 8.47223 16.4189 8.1891H13.3211C13.3735 8.49894 13.4114 8.80263 13.4349 9.10017C13.4584 9.39772 13.4702 9.69767 13.4702 10C13.4702 10.3024 13.4584 10.6023 13.4349 10.8999C13.4114 11.1974 13.3735 11.5011 13.3211 11.8109ZM13.0679 6.93915H15.8949C15.4494 6.06306 14.8631 5.33602 14.136 4.75802C13.409 4.18003 12.5685 3.78474 11.6144 3.57212C11.9338 4.05717 12.218 4.58762 12.4669 5.16348C12.7159 5.73934 12.9162 6.33123 13.0679 6.93915ZM8.21696 6.93915H11.7843C11.5909 6.24256 11.3476 5.60073 11.0543 5.01365C10.7611 4.42658 10.4098 3.87235 10.0006 3.35098C9.59144 3.87235 9.24021 4.42658 8.94694 5.01365C8.65367 5.60073 8.41034 6.24256 8.21696 6.93915ZM4.10638 6.93915H6.93334C7.08505 6.33123 7.28537 5.73934 7.53432 5.16348C7.78325 4.58762 8.06744 4.05717 8.38688 3.57212C7.42748 3.78474 6.58559 4.18138 5.86121 4.76204C5.13685 5.34271 4.55191 6.06841 4.10638 6.93915Z" fill="white"/>
</g>
</svg>
