<svg width="24" height="24" viewBox="0 0 24 24" fill="none" xmlns="http://www.w3.org/2000/svg">
<mask id="mask0_41972_20508" style="mask-type:alpha" maskUnits="userSpaceOnUse" x="0" y="0" width="24" height="24">
<rect width="24" height="24" fill="#D9D9D9"/>
</mask>
<g mask="url(#mask0_41972_20508)">
<path d="M3.99998 11.6096C3.99998 12.857 4.41985 13.9218 5.2596 14.8039C6.09935 15.6859 7.13973 16.1577 8.38075 16.2192H8.9481L7.30195 14.5635L8.35578 13.5096L11.8365 17L8.35578 20.5L7.30195 19.4461L8.97888 17.75H8.41153C6.75128 17.6884 5.35096 17.0663 4.21058 15.8836C3.07019 14.7009 2.5 13.2814 2.5 11.625C2.5 9.91729 3.09071 8.46954 4.27213 7.28173C5.45353 6.09391 6.89486 5.5 8.59613 5.5H11.8461V6.99998H8.59613C7.32049 6.99998 6.23556 7.44613 5.34133 8.33845C4.44709 9.23075 3.99998 10.3211 3.99998 11.6096ZM14.0385 17.75V16.25H21.5V17.75H14.0385ZM14.0385 12.375V10.875H21.5V12.375H14.0385ZM14.0385 6.99998V5.5H21.5V6.99998H14.0385Z" fill="white"/>
</g>
</svg>
