<svg width="20" height="20" viewBox="0 0 20 20" fill="none" xmlns="http://www.w3.org/2000/svg">
<mask id="mask0_47387_3988" style="mask-type:alpha" maskUnits="userSpaceOnUse" x="0" y="0" width="20" height="20">
<rect width="20" height="20" fill="#D9D9D9"/>
</mask>
<g mask="url(#mask0_47387_3988)">
<path d="M10.0001 11.25C9.41789 11.25 8.92511 11.0483 8.52179 10.645C8.11848 10.2417 7.91683 9.74894 7.91683 9.16669V4.16669C7.91683 3.58444 8.11848 3.09165 8.52179 2.68833C8.92511 2.28503 9.41789 2.08337 10.0001 2.08337C10.5824 2.08337 11.0752 2.28503 11.4785 2.68833C11.8818 3.09165 12.0835 3.58444 12.0835 4.16669V9.16669C12.0835 9.74894 11.8818 10.2417 11.4785 10.645C11.0752 11.0483 10.5824 11.25 10.0001 11.25ZM9.37516 17.2917V14.5449C8.00016 14.3878 6.8578 13.7981 5.94808 12.7756C5.03836 11.7532 4.5835 10.5502 4.5835 9.16669H5.83347C5.83347 10.3195 6.23972 11.3021 7.05222 12.1146C7.86472 12.9271 8.84736 13.3334 10.0001 13.3334C11.1529 13.3334 12.1356 12.9271 12.9481 12.1146C13.7606 11.3021 14.1668 10.3195 14.1668 9.16669H15.4168C15.4168 10.5502 14.9619 11.7532 14.0522 12.7756C13.1425 13.7981 12.0001 14.3878 10.6251 14.5449V17.2917H9.37516ZM10.0001 10C10.2363 10 10.4342 9.92016 10.5939 9.76044C10.7536 9.60072 10.8335 9.4028 10.8335 9.16669V4.16669C10.8335 3.93058 10.7536 3.73266 10.5939 3.57294C10.4342 3.41321 10.2363 3.33335 10.0001 3.33335C9.76403 3.33335 9.56611 3.41321 9.40639 3.57294C9.24667 3.73266 9.16681 3.93058 9.16681 4.16669V9.16669C9.16681 9.4028 9.24667 9.60072 9.40639 9.76044C9.56611 9.92016 9.76403 10 10.0001 10Z" fill="#767676"/>
</g>
</svg>
