<svg width="36" height="36" viewBox="0 0 36 36" fill="none" xmlns="http://www.w3.org/2000/svg">
<mask id="mask0_11650_4156" style="mask-type:alpha" maskUnits="userSpaceOnUse" x="0" y="0" width="36" height="36">
<rect width="36" height="36" fill="#D9D9D9"/>
</mask>
<g mask="url(#mask0_11650_4156)">
<path d="M7.96155 28.5H21V21H28.5V7.96155C28.5 7.82693 28.4567 7.71634 28.3701 7.62979C28.2836 7.54324 28.173 7.49996 28.0384 7.49996H7.96155C7.82693 7.49996 7.71634 7.54324 7.62979 7.62979C7.54324 7.71634 7.49996 7.82693 7.49996 7.96155V28.0384C7.49996 28.173 7.54324 28.2836 7.62979 28.3701C7.71634 28.4567 7.82693 28.5 7.96155 28.5ZM7.96155 30.7499C7.21348 30.7499 6.57454 30.485 6.04474 29.9552C5.51491 29.4254 5.25 28.7865 5.25 28.0384V7.96155C5.25 7.21348 5.51491 6.57454 6.04474 6.04474C6.57454 5.51491 7.21348 5.25 7.96155 5.25H28.0384C28.7865 5.25 29.4254 5.51491 29.9552 6.04474C30.485 6.57454 30.7499 7.21348 30.7499 7.96155V21.9663L21.9663 30.7499H7.96155ZM11.1635 20.5961V18.3461H18V20.5961H11.1635ZM11.1635 14.6249V12.375H24.8364V14.6249H11.1635Z" fill="black"/>
</g>
</svg>
