<svg width="27" height="27" viewBox="0 0 27 27" fill="none" xmlns="http://www.w3.org/2000/svg">
<g clip-path="url(#clip0_37312_119071)">
<path d="M13.3346 5.83333C14.944 5.83333 16.2513 4.52604 16.2513 2.91667C16.2513 1.30729 14.944 0 13.3346 0C11.7253 0 10.418 1.30729 10.418 2.91667C10.418 4.52604 11.7253 5.83333 13.3346 5.83333Z" fill="white"/>
<path d="M22.5013 5.87513L22.4753 5.88034L22.4544 5.88555L22.2982 5.93242C21.3294 6.21888 16.6263 7.5418 13.3086 7.5418C10.2305 7.5418 5.94922 6.39597 4.57943 6.00534C4.44401 5.95326 4.30339 5.90638 4.16276 5.86992C3.17318 5.60951 2.49609 6.61472 2.49609 7.53138C2.49609 8.44284 3.3138 8.87513 4.13672 9.18763V9.20326L9.09505 10.7501C9.60026 10.9428 9.73568 11.1408 9.80338 11.3126C10.0169 11.8647 9.84505 12.9585 9.78776 13.3387L9.48568 15.6824L7.8138 24.8647L7.79818 24.9428L7.78776 25.0105C7.66797 25.8491 8.28255 26.6668 9.45443 26.6668C10.4753 26.6668 10.9284 25.9637 11.1211 25.0053C11.1211 25.0053 12.5794 16.797 13.3086 16.797C14.0378 16.797 15.5378 25.0053 15.5378 25.0053C15.7357 25.9637 16.1836 26.6668 17.2044 26.6668C18.3763 26.6668 18.9961 25.8491 18.8711 25.0053C18.8607 24.9324 18.8451 24.8647 18.8294 24.7918L17.1367 15.6928L16.8346 13.3491C16.6159 11.9845 16.793 11.5314 16.8503 11.4272C16.8503 11.4272 16.8555 11.422 16.8555 11.4168C16.9128 11.3126 17.168 11.0783 17.7669 10.8543L22.418 9.2293C22.444 9.22409 22.4753 9.21367 22.5013 9.20326C23.3346 8.89076 24.168 8.45847 24.168 7.5418C24.168 6.62513 23.4909 5.61472 22.5013 5.87513Z" fill="white"/>
</g>
<defs>
<clipPath id="clip0_37312_119071">
<rect width="26.6667" height="26.6667" fill="white"/>
</clipPath>
</defs>
</svg>
