<svg width="26" height="26" viewBox="0 0 26 26" fill="none" xmlns="http://www.w3.org/2000/svg">
<path d="M15.2248 20.5288C15.4032 20.3629 15.5008 20.1615 15.5174 19.9246C15.5338 19.6877 15.4528 19.4801 15.2744 19.3017L11.6195 15.4145L11.6503 15.3222H11.9582C13.1142 15.3222 14.0645 14.9992 14.8091 14.3534C15.5535 13.7075 15.9921 12.9013 16.125 11.9348H16.7313C16.9056 11.9348 17.0495 11.8744 17.163 11.7534C17.2763 11.6325 17.333 11.4856 17.333 11.3128C17.333 11.1401 17.2763 10.9969 17.163 10.8832C17.0495 10.7695 16.9056 10.7126 16.7313 10.7126H16.0942C16.0326 10.3414 15.9109 9.99756 15.7293 9.681C15.5476 9.36423 15.3202 9.07241 15.0472 8.80553H16.7313C16.9056 8.80553 17.0495 8.74507 17.163 8.62415C17.2763 8.50323 17.333 8.35645 17.333 8.1838C17.333 8.01094 17.2763 7.86764 17.163 7.75391C17.0495 7.64018 16.9056 7.58331 16.7313 7.58331H8.29835C8.10107 7.58331 7.93252 7.65342 7.79271 7.79364C7.65291 7.93365 7.58301 8.1026 7.58301 8.3005C7.58301 8.49841 7.65291 8.66367 7.79271 8.79629C7.93252 8.92891 8.10107 8.99522 8.29835 8.99522H11.9487C12.6167 8.99522 13.1654 9.15237 13.5949 9.46667C14.0246 9.78077 14.301 10.1961 14.4242 10.7126H8.18472C8.01043 10.7126 7.86652 10.7731 7.75299 10.894C7.63967 11.0149 7.58301 11.1618 7.58301 11.3346C7.58301 11.5073 7.63967 11.6505 7.75299 11.7642C7.86652 11.8779 8.01043 11.9348 8.18472 11.9348H14.455C14.3476 12.4955 14.074 12.9522 13.634 13.3051C13.1943 13.658 12.6135 13.8345 11.8917 13.8345H10.4139C10.1694 13.8345 9.95784 13.8922 9.77924 14.0076C9.60063 14.1227 9.46791 14.2814 9.38107 14.4836C9.29423 14.6858 9.26734 14.8911 9.30039 15.0995C9.33365 15.3079 9.43475 15.5068 9.60371 15.6963L14.0097 20.498C14.1754 20.6764 14.3747 20.7676 14.6077 20.7715C14.8405 20.7754 15.0462 20.6945 15.2248 20.5288Z" fill="#4A2F64"/>
<path d="M2.89544 21.1382L5.13727 19.7495C5.83849 20.5537 6.64413 21.2359 7.55417 21.7962C8.46426 22.3563 9.46405 22.7618 10.5535 23.0126C11.9409 23.3321 13.3054 23.369 14.6468 23.1233C15.9883 22.8778 17.2142 22.4076 18.3247 21.7128C19.4352 21.018 20.3941 20.1211 21.2015 19.0221C22.0091 17.9231 22.5726 16.68 22.892 15.2926C23.1429 14.2031 23.2154 13.1266 23.1097 12.0632C23.0038 10.9998 22.7426 9.97696 22.326 8.99467L24.5714 7.58956C24.7646 7.46879 24.8878 7.30084 24.9409 7.08572C24.9939 6.87059 24.9574 6.66227 24.8313 6.46074C24.7053 6.25943 24.5361 6.1343 24.3235 6.08536C24.111 6.03642 23.904 6.07494 23.7027 6.20089L2.02276 19.7658C1.82968 19.8867 1.70724 20.0519 1.65544 20.2616C1.60364 20.4712 1.64071 20.6768 1.76662 20.8783C1.89272 21.0798 2.06204 21.2051 2.27459 21.254C2.48696 21.3029 2.69391 21.2643 2.89544 21.1382ZM10.9182 21.4291C10.0534 21.2299 9.25497 20.9122 8.523 20.4757C7.7912 20.0393 7.13214 19.5035 6.54581 18.8682L20.9175 9.87598C21.2324 10.6811 21.4261 11.5081 21.4985 12.3571C21.5709 13.2062 21.5076 14.0632 21.3084 14.928C20.7696 17.2681 19.4882 19.0714 17.4643 20.3377C15.4404 21.6041 13.2583 21.9679 10.9182 21.4291ZM14.8073 4.53768C15.4321 4.68154 16.0277 4.88777 16.5939 5.15636C17.1602 5.42496 17.6871 5.7537 18.1747 6.1426C18.3597 6.28635 18.5666 6.34993 18.7956 6.33335C19.0247 6.31698 19.2138 6.22907 19.363 6.06962C19.5123 5.9102 19.5801 5.71811 19.5662 5.49333C19.5524 5.26855 19.4584 5.08554 19.2844 4.94429C18.6862 4.46602 18.0448 4.05932 17.3603 3.72422C16.6756 3.38907 15.9461 3.13237 15.172 2.95411C13.7846 2.63467 12.4201 2.59779 11.0787 2.84346C9.73722 3.08895 8.51127 3.5591 7.40081 4.25391C6.29035 4.94872 5.33142 5.84562 4.52402 6.94464C3.71644 8.04361 3.15293 9.28679 2.83349 10.6742C2.6537 11.455 2.5644 12.2283 2.56561 12.994C2.56682 13.7596 2.65423 14.5202 2.82786 15.2758C2.87682 15.4936 3.00196 15.6567 3.20326 15.7649C3.40453 15.8733 3.6095 15.8952 3.81818 15.8306C4.02681 15.7662 4.18858 15.6346 4.30347 15.4357C4.4185 15.2371 4.45182 15.0232 4.40343 14.7939C4.26851 14.1785 4.20055 13.5576 4.19953 12.9311C4.19838 12.3044 4.27089 11.6736 4.41706 11.0388C4.95587 8.69862 6.23725 6.89536 8.26119 5.629C10.2851 4.36264 12.4672 3.99887 14.8073 4.53768Z" fill="#4A2F64"/>
</svg>
