<svg width="20" height="20" viewBox="0 0 20 20" fill="none" xmlns="http://www.w3.org/2000/svg">
<mask id="mask0_37237_113762" style="mask-type:alpha" maskUnits="userSpaceOnUse" x="0" y="0" width="20" height="20">
<rect width="20" height="20" fill="#D9D9D9"/>
</mask>
<g mask="url(#mask0_37237_113762)">
<path d="M7.40769 12.9455L14.7442 11.0032C14.9419 10.953 15.0941 10.8378 15.2009 10.6578C15.3078 10.4778 15.3361 10.2916 15.2859 10.0993C15.2357 9.90703 15.1222 9.76681 14.9453 9.67867C14.7685 9.59053 14.584 9.57156 14.3917 9.62177L12.3179 10.1795L8.98461 7.05448L7.96217 7.29806L9.96217 10.7981L7.81794 11.3301L6.77628 10.5384L6.12884 10.7147L7.40769 12.9455ZM16.4109 16.25H3.5904C3.1748 16.25 2.81984 16.1028 2.52551 15.8084C2.23116 15.5141 2.08398 15.1591 2.08398 14.7435V12.0032C2.55835 11.9124 2.95471 11.6797 3.27309 11.3053C3.59146 10.9308 3.75065 10.4957 3.75065 9.99998C3.75065 9.50424 3.59146 9.06915 3.27309 8.69469C2.95471 8.32022 2.55835 8.08757 2.08398 7.99675V5.25642C2.08398 4.84082 2.23116 4.48585 2.52551 4.19152C2.81984 3.89717 3.1748 3.75 3.5904 3.75H16.4109C16.8265 3.75 17.1814 3.89717 17.4758 4.19152C17.7701 4.48585 17.9173 4.84082 17.9173 5.25642V14.7435C17.9173 15.1591 17.7701 15.5141 17.4758 15.8084C17.1814 16.1028 16.8265 16.25 16.4109 16.25ZM16.4109 15C16.4857 15 16.5471 14.9759 16.5952 14.9279C16.6433 14.8798 16.6673 14.8183 16.6673 14.7435V5.25642C16.6673 5.18163 16.6433 5.12019 16.5952 5.0721C16.5471 5.02402 16.4857 4.99998 16.4109 4.99998H3.5904C3.51561 4.99998 3.45417 5.02402 3.40609 5.0721C3.35801 5.12019 3.33396 5.18163 3.33396 5.25642V7.12498C3.84785 7.43054 4.2541 7.83679 4.55271 8.34373C4.85133 8.85067 5.00063 9.40276 5.00063 9.99998C5.00063 10.5972 4.85133 11.1493 4.55271 11.6562C4.2541 12.1632 3.84785 12.5694 3.33396 12.875V14.7435C3.33396 14.8183 3.35801 14.8798 3.40609 14.9279C3.45417 14.9759 3.51561 15 3.5904 15H16.4109Z" fill="white"/>
</g>
</svg>
