<svg width="36" height="36" viewBox="0 0 36 36" fill="none" xmlns="http://www.w3.org/2000/svg">
<mask id="mask0_18701_4768" style="mask-type:alpha" maskUnits="userSpaceOnUse" x="0" y="0" width="36" height="36">
<rect width="36" height="36" fill="#D9D9D9"/>
</mask>
<g mask="url(#mask0_18701_4768)">
<path d="M11.4952 16.2259C10.1846 16.2259 9.0661 15.7627 8.13967 14.8362C7.21322 13.9098 6.75 12.7913 6.75 11.4807C6.75 10.1702 7.21322 9.05168 8.13967 8.12523C9.0661 7.19881 10.1846 6.7356 11.4952 6.7356C12.8057 6.7356 13.9243 7.19881 14.8507 8.12523C15.7771 9.05168 16.2403 10.1702 16.2403 11.4807C16.2403 12.7913 15.7771 13.9098 14.8507 14.8362C13.9243 15.7627 12.8057 16.2259 11.4952 16.2259ZM11.4943 13.9759C12.1872 13.9759 12.7764 13.7334 13.262 13.2484C13.7476 12.7634 13.9904 12.1745 13.9904 11.4816C13.9904 10.7887 13.7479 10.1995 13.2628 9.71392C12.7778 9.22832 12.1889 8.98552 11.496 8.98552C10.8031 8.98552 10.2139 9.22803 9.72832 9.71306C9.24275 10.1981 8.99996 10.787 8.99996 11.4799C8.99996 12.1728 9.24247 12.762 9.7275 13.2476C10.2125 13.7332 10.8014 13.9759 11.4943 13.9759ZM24.5192 29.2499C23.2086 29.2499 22.0901 28.7867 21.1637 27.8602C20.2372 26.9338 19.774 25.8153 19.774 24.5047C19.774 23.1942 20.2372 22.0757 21.1637 21.1492C22.0901 20.2228 23.2086 19.7596 24.5192 19.7596C25.8297 19.7596 26.9482 20.2228 27.8747 21.1492C28.8011 22.0757 29.2643 23.1942 29.2643 24.5047C29.2643 25.8153 28.8011 26.9338 27.8747 27.8602C26.9482 28.7867 25.8297 29.2499 24.5192 29.2499ZM24.5183 27C25.2112 27 25.8004 26.7574 26.286 26.2724C26.7716 25.7874 27.0144 25.1985 27.0144 24.5056C27.0144 23.8127 26.7719 23.2235 26.2869 22.7379C25.8018 22.2523 25.2129 22.0095 24.52 22.0095C23.8271 22.0095 23.2379 22.252 22.7523 22.7371C22.2668 23.2221 22.024 23.811 22.024 24.5039C22.024 25.1968 22.2665 25.786 22.7515 26.2716C23.2365 26.7572 23.8254 27 24.5183 27ZM8.46056 29.1057L6.89426 27.5394L27.5538 6.87982L29.1201 8.44612L8.46056 29.1057Z" fill="#12121C"/>
</g>
</svg>
