<svg width="24" height="24" viewBox="0 0 24 24" fill="none" xmlns="http://www.w3.org/2000/svg">
<path d="M12 9.82715C11.0375 9.82715 10.2136 9.4844 9.52825 8.7989C8.84275 8.11356 8.5 7.28965 8.5 6.32715C8.5 5.36465 8.84275 4.54065 9.52825 3.85515C10.2136 3.16981 11.0375 2.82715 12 2.82715C12.9625 2.82715 13.7864 3.16981 14.4718 3.85515C15.1573 4.54065 15.5 5.36465 15.5 6.32715C15.5 7.28965 15.1573 8.11356 14.4718 8.7989C13.7864 9.4844 12.9625 9.82715 12 9.82715ZM12 8.32715C12.55 8.32715 13.0208 8.13132 13.4125 7.73965C13.8042 7.34798 14 6.87715 14 6.32715C14 5.77715 13.8042 5.30632 13.4125 4.91465C13.0208 4.52298 12.55 4.32715 12 4.32715C11.45 4.32715 10.9792 4.52298 10.5875 4.91465C10.1958 5.30632 10 5.77715 10 6.32715C10 6.87715 10.1958 7.34798 10.5875 7.73965C10.9792 8.13132 11.45 8.32715 12 8.32715ZM12 11.2501C13.1257 11.2501 14.2019 11.3873 15.2288 11.6616C16.2558 11.936 17.191 12.2834 18.0345 12.7039C18.4925 12.9384 18.8512 13.2643 19.1108 13.6816C19.3702 14.0991 19.5 14.553 19.5 15.0431V19.1731C19.5 19.6783 19.325 20.1059 18.975 20.4559C18.625 20.8059 18.1974 20.9809 17.6923 20.9809H10C9.32317 20.9809 8.75333 20.7495 8.2905 20.2866C7.82767 19.8238 7.59625 19.2539 7.59625 18.5769C7.59625 17.9001 7.82767 17.3302 8.2905 16.8674C8.75333 16.4046 9.32317 16.1731 10 16.1731H12.95L14.4712 13.0366C14.0802 12.938 13.6681 12.8656 13.2348 12.8194C12.8013 12.7732 12.3897 12.7501 12 12.7501C10.9218 12.7501 9.9305 12.88 9.026 13.1396C8.1215 13.3991 7.33592 13.7001 6.66925 14.0424C6.45775 14.1451 6.29333 14.2867 6.176 14.4674C6.05867 14.6482 6 14.8399 6 15.0424V20.2309C6 20.4434 5.92808 20.6215 5.78425 20.7652C5.64042 20.909 5.46225 20.9809 5.24975 20.9809C5.03708 20.9809 4.859 20.909 4.7155 20.7652C4.57183 20.6215 4.5 20.4434 4.5 20.2309V15.0424C4.5 14.5527 4.62975 14.0991 4.88925 13.6816C5.14875 13.2643 5.5075 12.9384 5.9655 12.7039C6.809 12.2834 7.74425 11.936 8.77125 11.6616C9.79808 11.3873 10.8743 11.2501 12 11.2501ZM10 19.4809H11.373L12.2463 17.6731H10C9.75517 17.6731 9.54333 17.7626 9.3645 17.9414C9.18567 18.1202 9.09625 18.3321 9.09625 18.5769C9.09625 18.8219 9.18567 19.0338 9.3645 19.2126C9.54333 19.3915 9.75517 19.4809 10 19.4809ZM13.025 19.4809H17.6923C17.7821 19.4809 17.8558 19.4521 17.9135 19.3944C17.9712 19.3367 18 19.263 18 19.1731V15.0424C18 14.8399 17.9382 14.6482 17.8145 14.4674C17.6907 14.2867 17.5346 14.1451 17.3462 14.0424C17.1397 13.9361 16.9183 13.8319 16.6818 13.7299C16.4453 13.6281 16.2001 13.5303 15.9462 13.4366L13.025 19.4809Z" fill="#42265E"/>
</svg>
