<svg width="20" height="20" viewBox="0 0 20 20" fill="none" xmlns="http://www.w3.org/2000/svg">
<mask id="mask0_37237_113715" style="mask-type:alpha" maskUnits="userSpaceOnUse" x="0" y="0" width="20" height="20">
<rect width="20" height="20" fill="#D9D9D9"/>
</mask>
<g mask="url(#mask0_37237_113715)">
<path d="M9.99998 9.74367C9.19791 9.74367 8.51128 9.45809 7.9401 8.88692C7.36892 8.31574 7.08333 7.62912 7.08333 6.82705C7.08333 6.02496 7.36892 5.33834 7.9401 4.76717C8.51128 4.19599 9.19791 3.9104 9.99998 3.9104C10.802 3.9104 11.4887 4.19599 12.0599 4.76717C12.631 5.33834 12.9166 6.02496 12.9166 6.82705C12.9166 7.62912 12.631 8.31574 12.0599 8.88692C11.4887 9.45809 10.802 9.74367 9.99998 9.74367ZM3.75 16.0898V14.2373C3.75 13.8292 3.86085 13.4512 4.08254 13.1035C4.30422 12.7557 4.60042 12.4884 4.97115 12.3014C5.79487 11.8976 6.6258 11.5947 7.46394 11.3928C8.30208 11.1908 9.14742 11.0899 9.99998 11.0899C10.8525 11.0899 11.6979 11.1908 12.536 11.3928C13.3742 11.5947 14.2051 11.8976 15.0288 12.3014C15.3995 12.4884 15.6957 12.7557 15.9174 13.1035C16.1391 13.4512 16.25 13.8292 16.25 14.2373V16.0898H3.75ZM4.99998 14.8398H15V14.2373C15 14.0685 14.9511 13.9122 14.8533 13.7685C14.7556 13.6248 14.6228 13.5076 14.4551 13.4168C13.7372 13.0631 13.0051 12.7952 12.2589 12.6131C11.5127 12.4309 10.7597 12.3398 9.99998 12.3398C9.24023 12.3398 8.48726 12.4309 7.74106 12.6131C6.99487 12.7952 6.2628 13.0631 5.54485 13.4168C5.37712 13.5076 5.24437 13.6248 5.14662 13.7685C5.04886 13.9122 4.99998 14.0685 4.99998 14.2373V14.8398ZM9.99998 8.49371C10.4583 8.49371 10.8507 8.33052 11.1771 8.00413C11.5035 7.67774 11.6666 7.28538 11.6666 6.82705C11.6666 6.36871 11.5035 5.97635 11.1771 5.64996C10.8507 5.32357 10.4583 5.16038 9.99998 5.16038C9.54165 5.16038 9.14928 5.32357 8.8229 5.64996C8.49651 5.97635 8.33331 6.36871 8.33331 6.82705C8.33331 7.28538 8.49651 7.67774 8.8229 8.00413C9.14928 8.33052 9.54165 8.49371 9.99998 8.49371Z" fill="white"/>
</g>
</svg>
