<svg width="24" height="24" viewBox="0 0 24 24" fill="none" xmlns="http://www.w3.org/2000/svg">
<path d="M2.5 13.3885C2.5 13.2847 2.50675 13.1808 2.52025 13.077C2.53375 12.9732 2.55717 12.8744 2.5905 12.7808L4.54225 7.25C4.61675 7.0205 4.75333 6.83817 4.952 6.703C5.15067 6.56767 5.37183 6.5 5.6155 6.5H9.35C9.5625 6.5 9.74067 6.57192 9.8845 6.71575C10.0282 6.85958 10.1 7.03775 10.1 7.25025C10.1 7.46292 10.0282 7.641 9.8845 7.7845C9.74067 7.92817 9.5625 8 9.35 8H5.86925L4.60775 11.577H12.25C12.4625 11.577 12.6407 11.6489 12.7845 11.7928C12.9282 11.9366 13 12.1148 13 12.3273C13 12.5399 12.9282 12.718 12.7845 12.8615C12.6407 13.0052 12.4625 13.077 12.25 13.077H4V18H18V14.446C18 14.2335 18.0719 14.0554 18.2158 13.9117C18.3596 13.7681 18.5378 13.6962 18.7502 13.6962C18.9629 13.6962 19.141 13.7681 19.2845 13.9117C19.4282 14.0554 19.5 14.2335 19.5 14.446V20.4423C19.5 20.7361 19.3971 20.9858 19.1913 21.1915C18.9853 21.3972 18.7353 21.5 18.4413 21.5C18.1471 21.5 17.8974 21.3972 17.6923 21.1915C17.4873 20.9858 17.3848 20.7361 17.3848 20.4423V19.5H4.61525V20.4423C4.61525 20.7361 4.51233 20.9858 4.3065 21.1915C4.10067 21.3972 3.85067 21.5 3.5565 21.5C3.2625 21.5 3.01292 21.3972 2.80775 21.1915C2.60258 20.9858 2.5 20.7361 2.5 20.4423V13.3885ZM15.5408 16.8462C15.9046 16.8462 16.2131 16.7188 16.4663 16.464C16.7196 16.2093 16.8462 15.9001 16.8462 15.5363C16.8462 15.1724 16.7188 14.8638 16.464 14.6105C16.2093 14.3573 15.9001 14.2308 15.5363 14.2308C15.1724 14.2308 14.8638 14.3581 14.6105 14.6128C14.3573 14.8676 14.2308 15.1769 14.2308 15.5408C14.2308 15.9046 14.3581 16.2131 14.6128 16.4663C14.8676 16.7196 15.1769 16.8462 15.5408 16.8462ZM6.46375 16.8462C6.82758 16.8462 7.13617 16.7188 7.3895 16.464C7.64267 16.2093 7.76925 15.9001 7.76925 15.5363C7.76925 15.1724 7.64192 14.8638 7.38725 14.6105C7.13242 14.3573 6.82308 14.2308 6.45925 14.2308C6.09542 14.2308 5.78692 14.3581 5.53375 14.6128C5.28042 14.8676 5.15375 15.1769 5.15375 15.5408C5.15375 15.9046 5.28117 16.2131 5.536 16.4663C5.79067 16.7196 6.09992 16.8462 6.46375 16.8462Z" fill="#42265E"/>
<path d="M13 7.9375C13 8.92517 13.2847 9.88258 13.854 10.8098C14.4233 11.7369 15.195 12.365 16.169 12.694C16.244 12.7273 16.3153 12.7482 16.3828 12.7565C16.4501 12.7648 16.5213 12.769 16.5963 12.769C16.6711 12.769 16.7422 12.7648 16.8097 12.7565C16.8772 12.7482 16.9484 12.7273 17.0232 12.694C17.9974 12.3658 18.7691 11.7381 19.3383 10.8108C19.9074 9.88342 20.192 8.92617 20.192 7.939V6.48075C20.192 6.22558 20.124 5.98925 19.988 5.77175C19.852 5.55408 19.6707 5.38525 19.444 5.26525L17.2037 4.14025C17.0094 4.04675 16.8076 4 16.5983 4C16.3891 4 16.1858 4.04675 15.9883 4.14025L13.7475 5.266C13.5235 5.386 13.3429 5.5545 13.2058 5.7715C13.0686 5.9885 13 6.22417 13 6.4785V7.9375Z" fill="#42265E"/>
</svg>
