<svg width="24" height="24" viewBox="0 0 24 24" fill="none" xmlns="http://www.w3.org/2000/svg">
<path d="M20.7 4.34961H3.3C2.325 4.34961 1.5 5.17461 1.5 6.14961V17.7746C1.5 18.7496 2.325 19.5746 3.3 19.5746H20.625C21.6 19.5746 22.425 18.7496 22.425 17.7746V6.14961C22.5 5.17461 21.675 4.34961 20.7 4.34961ZM21.075 17.8496C21.075 18.0746 20.925 18.2246 20.7 18.2246H3.3C3.075 18.2246 2.925 18.0746 2.925 17.8496V6.14961C2.925 5.92461 3.075 5.77461 3.3 5.77461H20.625C20.85 5.77461 21 5.92461 21 6.14961V17.8496H21.075Z" fill="white"/>
<path d="M4.3501 14.5498V15.9748H5.8501H7.3501V14.5498H5.8501H4.3501Z" fill="white"/>
<path d="M19.6501 14.5498H8.8501V15.9748H19.6501V14.5498Z" fill="white"/>
</svg>
