<svg width="19" height="19" viewBox="0 0 19 19" fill="none" xmlns="http://www.w3.org/2000/svg">
<path d="M0 8.12497V0H8.12497V8.12497H0ZM1.62497 6.5H6.5V1.62497H1.62497V6.5ZM0 18.4166V10.2916H8.12497V18.4166H0ZM1.62497 16.7916H6.5V11.9166H1.62497V16.7916ZM10.2916 8.12497V0H18.4166V8.12497H10.2916ZM11.9166 6.5H16.7916V1.62497H11.9166V6.5ZM16.3854 18.4166V16.3854H18.4166V18.4166H16.3854ZM10.2916 12.3229V10.2916H12.3229V12.3229H10.2916ZM12.3229 14.3541V12.3229H14.3541V14.3541H12.3229ZM10.2916 16.3854V14.3541H12.3229V16.3854H10.2916ZM12.3229 18.4166V16.3854H14.3541V18.4166H12.3229ZM14.3541 16.3854V14.3541H16.3854V16.3854H14.3541ZM14.3541 12.3229V10.2916H16.3854V12.3229H14.3541ZM16.3854 14.3541V12.3229H18.4166V14.3541H16.3854Z" fill="#4A2F64"/>
</svg>
