<svg width="24" height="24" viewBox="0 0 24 24" fill="none" xmlns="http://www.w3.org/2000/svg">
<path d="M14.054 18.9497C14.2187 18.7966 14.3087 18.6107 14.324 18.392C14.3392 18.1733 14.2645 17.9816 14.0998 17.8169L10.726 14.2288L10.7544 14.1435H11.0387C12.1057 14.1435 12.9829 13.8455 13.6703 13.2493C14.3574 12.6531 14.7623 11.9089 14.8849 11.0168H15.4446C15.6055 11.0168 15.7383 10.961 15.8431 10.8493C15.9477 10.7377 16 10.6021 16 10.4426C16 10.2832 15.9477 10.151 15.8431 10.046C15.7383 9.94106 15.6055 9.88857 15.4446 9.88857H14.8565C14.7996 9.54595 14.6873 9.22854 14.5196 8.93633C14.3519 8.64393 14.142 8.37455 13.89 8.1282H15.4446C15.6055 8.1282 15.7383 8.07239 15.8431 7.96077C15.9477 7.84916 16 7.71366 16 7.55429C16 7.39473 15.9477 7.26246 15.8431 7.15747C15.7383 7.05249 15.6055 7 15.4446 7H7.66032C7.47821 7 7.32263 7.06471 7.19358 7.19414C7.06453 7.32338 7 7.47934 7 7.66202C7 7.8447 7.06453 7.99725 7.19358 8.11967C7.32263 8.24209 7.47821 8.3033 7.66032 8.3033H11.0298C11.6465 8.3033 12.153 8.44836 12.5495 8.73849C12.9461 9.02842 13.2012 9.41179 13.315 9.88857H7.55543C7.39454 9.88857 7.2617 9.94438 7.15691 10.056C7.0523 10.1676 7 10.3032 7 10.4628C7 10.6221 7.0523 10.7543 7.15691 10.8593C7.2617 10.9643 7.39454 11.0168 7.55543 11.0168H13.3434C13.2443 11.5343 12.9917 11.9559 12.5856 12.2817C12.1796 12.6074 11.6435 12.7703 10.9773 12.7703H9.61313C9.38744 12.7703 9.19215 12.8236 9.02729 12.9301C8.86242 13.0364 8.73991 13.1829 8.65975 13.3695C8.57959 13.5562 8.55477 13.7457 8.58528 13.938C8.61597 14.1304 8.7093 14.314 8.86526 14.4889L12.9323 18.9213C13.0853 19.0859 13.2693 19.1701 13.4844 19.1737C13.6993 19.1773 13.8891 19.1026 14.054 18.9497Z" fill="#42265E"/>
<path d="M2.67272 19.5122L4.7421 18.2303C5.38938 18.9727 6.13304 19.6024 6.97308 20.1196C7.81317 20.6366 8.73605 21.0109 9.74174 21.2424C11.0224 21.5373 12.2819 21.5714 13.5202 21.3446C14.7584 21.118 15.8901 20.684 16.9151 20.0426C17.9401 19.4013 18.8253 18.5734 19.5706 17.5589C20.3161 16.5444 20.8362 15.3969 21.1311 14.1162C21.3626 13.1106 21.4296 12.1169 21.3321 11.1353C21.2343 10.1537 20.9932 9.20952 20.6087 8.30279L22.6813 7.00577C22.8597 6.89428 22.9734 6.73926 23.0223 6.54068C23.0713 6.3421 23.0376 6.14981 22.9212 5.96378C22.8049 5.77795 22.6487 5.66245 22.4525 5.61728C22.2563 5.5721 22.0653 5.60765 21.8794 5.72392L1.86717 18.2454C1.68893 18.3569 1.57591 18.5095 1.5281 18.703C1.48029 18.8965 1.5145 19.0863 1.63073 19.2723C1.74712 19.4583 1.90342 19.5739 2.09962 19.6191C2.29566 19.6642 2.48669 19.6286 2.67272 19.5122ZM10.0783 19.7807C9.28002 19.5969 8.54305 19.3035 7.86738 18.9007C7.19188 18.4978 6.58351 18.0032 6.04228 17.4168L19.3085 9.1163C19.5991 9.85947 19.7779 10.6229 19.8448 11.4065C19.9116 12.1903 19.8531 12.9814 19.6693 13.7797C19.172 15.9398 17.9892 17.6044 16.1209 18.7733C14.2526 19.9423 12.2384 20.2781 10.0783 19.7807ZM13.6683 4.18865C14.2451 4.32144 14.7948 4.5118 15.3175 4.75974C15.8402 5.00767 16.3266 5.31113 16.7767 5.67011C16.9474 5.8028 17.1384 5.8615 17.3498 5.84619C17.5612 5.83108 17.7358 5.74993 17.8735 5.60274C18.0114 5.45559 18.0739 5.27827 18.0611 5.07078C18.0484 4.86329 17.9616 4.69436 17.801 4.56398C17.2488 4.1225 16.6568 3.74709 16.0249 3.43776C15.3928 3.12839 14.7195 2.89143 14.0049 2.72689C12.7242 2.43202 11.4647 2.39798 10.2265 2.62475C8.9882 2.85136 7.85656 3.28535 6.83152 3.9267C5.80647 4.56806 4.92131 5.39598 4.17601 6.41045C3.43056 7.42489 2.9104 8.57244 2.61553 9.8531C2.44957 10.5739 2.36714 11.2877 2.36825 11.9945C2.36937 12.7012 2.45006 13.4033 2.61033 14.1007C2.65553 14.3018 2.77103 14.4523 2.95686 14.5522C3.14264 14.6523 3.33185 14.6725 3.52447 14.6129C3.71706 14.5534 3.86638 14.4319 3.97243 14.2484C4.07862 14.065 4.10937 13.8676 4.06471 13.656C3.94017 13.0879 3.87743 12.5147 3.87649 11.9364C3.87543 11.3579 3.94236 10.7757 4.07728 10.1897C4.57465 8.02951 5.75746 6.36496 7.62571 5.19602C9.49396 4.02707 11.5082 3.69128 13.6683 4.18865Z" fill="#42265E"/>
</svg>
