<svg width="24" height="24" viewBox="0 0 24 24" fill="none" xmlns="http://www.w3.org/2000/svg">
<path d="M6.20375 20.5C5.83975 20.5 5.493 20.3763 5.1635 20.1288C4.834 19.8814 4.61733 19.5788 4.5135 19.221C4.09683 17.7827 3.76 16.5638 3.503 15.5645C3.24583 14.565 3.04292 13.7034 2.89425 12.9798C2.74558 12.2561 2.64267 11.6247 2.5855 11.0855C2.5285 10.5465 2.5 10.018 2.5 9.5C2.5 8.10767 2.98525 6.92625 3.95575 5.95575C4.92625 4.98525 6.10767 4.5 7.5 4.5H12.75C13.2 3.9 13.75 3.41667 14.4 3.05C15.05 2.68333 15.75 2.5 16.5 2.5C16.7757 2.5 17.0113 2.59775 17.2068 2.79325C17.4023 2.98875 17.5 3.22433 17.5 3.5C17.5 3.568 17.4907 3.63433 17.472 3.699C17.4535 3.76383 17.434 3.82825 17.4135 3.89225C17.3403 4.08842 17.2698 4.30058 17.202 4.52875C17.134 4.75708 17.0705 5.04683 17.0115 5.398L19.6135 8H20.596C20.8538 8 21.0689 8.08625 21.2413 8.25875C21.4138 8.43108 21.5 8.64617 21.5 8.904V13.452C21.5 13.6493 21.4439 13.8249 21.3318 13.9788C21.2196 14.1326 21.0648 14.2448 20.8673 14.3152L18.771 15.0058L17.5115 19.2095C17.391 19.6045 17.1718 19.9183 16.8538 20.151C16.5359 20.3837 16.1744 20.5 15.7693 20.5H14.3077C13.8091 20.5 13.3831 20.3234 13.0297 19.9703C12.6766 19.6169 12.5 19.1909 12.5 18.6923V18.5H9.5V18.6923C9.5 19.1909 9.32342 19.6169 8.97025 19.9703C8.61692 20.3234 8.19092 20.5 7.69225 20.5H6.20375ZM6.25 19H7.69225C7.78208 19 7.85583 18.9712 7.9135 18.9135C7.97117 18.8558 8 18.7821 8 18.6923V17H14V18.6923C14 18.7821 14.0288 18.8558 14.0865 18.9135C14.1442 18.9712 14.2179 19 14.3077 19H15.7693C15.8398 19 15.9023 18.9808 15.9568 18.9423C16.0113 18.9037 16.0481 18.8493 16.0673 18.7788L17.55 13.85L20 13.025V9.5H19L15.5 6C15.5 5.68583 15.5224 5.364 15.5673 5.0345C15.6121 4.70517 15.6794 4.39683 15.7693 4.1095C15.3051 4.2365 14.8849 4.4705 14.5087 4.8115C14.1324 5.1525 13.8545 5.54867 13.675 6H7.5C6.53333 6 5.70833 6.34167 5.025 7.025C4.34167 7.70833 4 8.53333 4 9.5C4 10.1705 4.16858 11.3125 4.50575 12.926C4.84292 14.5395 5.31858 16.484 5.93275 18.7595C5.95192 18.83 5.992 18.8878 6.053 18.9328C6.11383 18.9776 6.1795 19 6.25 19ZM16 10.8845C16.2448 10.8845 16.4535 10.7983 16.626 10.626C16.7983 10.4535 16.8845 10.2448 16.8845 10C16.8845 9.75517 16.7983 9.5465 16.626 9.374C16.4535 9.20167 16.2448 9.1155 16 9.1155C15.7552 9.1155 15.5465 9.20167 15.374 9.374C15.2017 9.5465 15.1155 9.75517 15.1155 10C15.1155 10.2448 15.2017 10.4535 15.374 10.626C15.5465 10.7983 15.7552 10.8845 16 10.8845ZM12.25 8.75C12.4628 8.75 12.641 8.67817 12.7845 8.5345C12.9282 8.391 13 8.21283 13 8C13 7.78717 12.9282 7.609 12.7845 7.4655C12.641 7.32183 12.4628 7.25 12.25 7.25H8.75C8.53717 7.25 8.359 7.32183 8.2155 7.4655C8.07183 7.609 8 7.78717 8 8C8 8.21283 8.07183 8.391 8.2155 8.5345C8.359 8.67817 8.53717 8.75 8.75 8.75H12.25Z" fill="white"/>
</svg>
