<svg width="36" height="36" viewBox="0 0 36 36" fill="none" xmlns="http://www.w3.org/2000/svg">
<path d="M5 17.4656V30.6003C5 31.9274 6.05462 33 7.35948 33H29.6405C30.9454 33 32 31.9183 32 30.6003V15.2022C32 14.7204 31.857 14.275 31.6246 13.9024C31.6246 13.8933 31.6157 13.8842 31.6068 13.8751L26.9682 5.45795C26.4141 4.44898 25.1629 4.09448 24.1708 4.65805L20.9623 6.48509L17.0924 3.43093C16.2075 2.73101 14.9295 2.90372 14.2413 3.80361L7.43098 12.7934H7.36842C6.43893 12.7934 5.6435 13.3388 5.25025 14.1296C5.08937 14.4477 5 14.8113 5 15.2022V17.4656ZM25.3148 6.3942L28.8361 12.7934H13.7676L20.855 8.75754L22.6157 7.74858L25.1182 6.32148C25.1182 6.32148 25.1629 6.3033 25.1897 6.3033C25.2433 6.3033 25.2969 6.33057 25.3237 6.38511L25.3148 6.3942ZM30.007 17.1747V30.6003C30.007 30.8639 29.8014 31.073 29.5511 31.073H28.1569L6.92155 31.0457V27.5189H6.94836L10.0139 27.537H11.0149L13.3565 27.5552L16.2344 27.5734C16.7438 27.5734 17.1639 27.1371 17.1639 26.6099V19.2017C17.1639 18.6745 16.7438 18.2382 16.2344 18.2382L7.54717 18.22H6.99305V14.6205H8.38729H8.60179H10.5323L20.7478 14.6841H23.0804L28.0854 14.7204H29.5243C29.6941 14.7204 29.8461 14.8204 29.9265 14.9568C29.9623 15.0295 29.9891 15.1113 29.9891 15.1931V17.1656L30.007 17.1747ZM6.93049 25.1101V20.1561H15.1529V25.6373H15.144H14.8044H6.93049V25.1101ZM15.716 4.95801C15.716 4.95801 15.8054 4.88529 15.85 4.88529C15.8858 4.88529 15.9215 4.89438 15.9573 4.92165L19.2105 7.46679L9.86197 12.7843H9.77259L15.716 4.95801Z" fill="white"/>
<path d="M10.5987 25.4117C11.5411 25.4117 12.3035 24.6494 12.3035 23.707C12.3035 22.7647 11.5411 22.0023 10.5987 22.0023C9.6564 22.0023 8.89404 22.7647 8.89404 23.707C8.89404 24.6494 9.6564 25.4117 10.5987 25.4117Z" fill="white"/>
</svg>
