<svg width="16" height="16" viewBox="0 0 16 16" fill="none" xmlns="http://www.w3.org/2000/svg">
<mask id="mask0_24924_4649" style="mask-type:alpha" maskUnits="userSpaceOnUse" x="0" y="0" width="16" height="16">
<rect width="16" height="16" fill="#D9D9D9"/>
</mask>
<g mask="url(#mask0_24924_4649)">
<path d="M6.34521 2.15686C7.51014 2.15693 8.50023 2.56142 9.30908 3.36975C10.1179 4.17815 10.5229 5.16832 10.5229 6.33362C10.5229 6.82104 10.4409 7.28738 10.2769 7.73206C10.1251 8.14348 9.92309 8.50475 9.67529 8.81897L13.8716 13.0153L13.8013 13.0865L13.0991 13.7887L13.0278 13.859L8.83252 9.6637C8.50667 9.9195 8.13733 10.1228 7.72412 10.2711C7.28009 10.4305 6.82064 10.5103 6.34619 10.5104C5.1809 10.5104 4.19074 10.1057 3.38232 9.29749C2.57393 8.4893 2.16947 7.49957 2.16943 6.33459C2.16943 5.16954 2.57412 4.17965 3.38232 3.37073C4.19054 2.56184 5.18016 2.15686 6.34521 2.15686ZM6.34619 3.35608C5.51317 3.35608 4.8109 3.6443 4.23389 4.22131C3.65689 4.79832 3.36865 5.5006 3.36865 6.33362C3.36871 7.16641 3.65711 7.86804 4.23389 8.44495C4.8109 9.02196 5.51317 9.31018 6.34619 9.31018C7.1791 9.31012 7.88057 9.0219 8.45752 8.44495C9.03447 7.86799 9.3227 7.16653 9.32275 6.33362C9.32275 5.5006 9.03453 4.79832 8.45752 4.22131C7.88061 3.64452 7.17898 3.35614 6.34619 3.35608Z" fill="#6B6B80" stroke="#6B6B80" stroke-width="0.2"/>
</g>
</svg>
