<svg width="36" height="36" viewBox="0 0 36 36" fill="none" xmlns="http://www.w3.org/2000/svg">
<path fill-rule="evenodd" clip-rule="evenodd" d="M18.2135 29.9438C18.1635 29.9313 18.1635 29.9251 18.2135 29.9251C18.2635 29.9501 18.2635 29.9563 18.2135 29.9438Z" fill="url(#paint0_linear_11877_11426)"/>
<path fill-rule="evenodd" clip-rule="evenodd" d="M31.0406 14.279H30.8232H30.6058C29.398 14.3077 28.1071 14.5327 26.7331 14.954C25.3591 15.3752 24.1424 15.9156 23.0829 16.5751C22.8846 14.8116 22.4211 12.9813 21.6924 11.0843C20.9636 9.18734 20.0626 7.48497 18.9894 5.97722L18.8123 5.76685L18.0001 4.802L17.188 5.76685L17.0109 5.97722C15.9376 7.48497 15.0366 9.18247 14.3079 11.0697C13.5791 12.9572 13.1156 14.7827 12.9174 16.5462C11.8289 15.8577 10.588 15.3077 9.19476 14.8962C7.80151 14.4847 6.52513 14.279 5.36563 14.279H5.12338H4.06738V15.3346V15.6061C4.06738 18.2848 4.44438 20.5901 5.19838 22.5218C5.95213 24.4536 6.93913 26.0766 8.15938 27.3908C9.37963 28.7053 10.7666 29.7313 12.3204 30.4688C13.8741 31.2063 15.4539 31.728 17.0596 32.0337C17.3846 32.0837 17.7799 32.1038 18.2454 32.0941C18.7106 32.0846 19.1058 32.0405 19.4308 31.9617C21.1905 31.5117 22.8184 30.8675 24.3144 30.029C25.8106 29.1905 27.1111 28.1092 28.2159 26.7852C29.3206 25.4612 30.1995 23.879 30.8525 22.0385C31.5053 20.1982 31.8654 18.0636 31.9329 15.6346L31.9374 15.2018L31.9471 14.279H31.0406ZM18.2135 29.9438C18.1635 29.9313 18.1635 29.9251 18.2135 29.9251C18.2635 29.9501 18.2635 29.9563 18.2135 29.9438ZM18.2135 29.9251C15.1635 29.5001 12.4948 28.2251 10.2073 26.1001C7.91976 23.9751 6.63851 20.8001 6.36351 16.5751C9.56351 17.0751 12.2698 18.3938 14.4823 20.5313C16.6948 22.6688 17.9385 25.8001 18.2135 29.9251ZM16.6719 19.5447C16.1361 18.9092 15.6039 18.3693 15.0751 17.9251C15.1059 16.4423 15.3775 14.8947 15.89 13.2822C16.4025 11.6697 17.1059 10.1116 18.0001 8.60784C18.8944 10.1116 19.5978 11.6722 20.1103 13.2897C20.6228 14.907 20.8944 16.4521 20.9251 17.9251C20.3964 18.3693 19.8656 18.9092 19.3329 19.5447C18.8001 20.1805 18.3559 20.7926 18.0001 21.3811C17.6501 20.7926 17.2074 20.1805 16.6719 19.5447ZM19.9719 26.3626C19.7689 25.4798 19.5174 24.6385 19.2174 23.8385C20.1096 21.9155 21.4721 20.3116 23.3049 19.0268C25.1376 17.7423 27.2483 16.9251 29.6368 16.5751C29.506 18.5521 29.1425 20.2622 28.5463 21.7055C27.95 23.1487 27.2294 24.3776 26.3844 25.3921C25.5391 26.4063 24.5973 27.2303 23.5588 27.8641C22.5203 28.4976 21.4885 28.9885 20.4635 29.3367C20.3385 28.2367 20.1746 27.2453 19.9719 26.3626Z" fill="url(#paint1_linear_11877_11426)"/>
<defs>
<linearGradient id="paint0_linear_11877_11426" x1="18.0073" y1="4.802" x2="18.0073" y2="32.0965" gradientUnits="userSpaceOnUse">
<stop stop-color="#D3A63E"/>
<stop offset="1" stop-color="#F0CD7C"/>
</linearGradient>
<linearGradient id="paint1_linear_11877_11426" x1="18.0073" y1="4.802" x2="18.0073" y2="32.0965" gradientUnits="userSpaceOnUse">
<stop stop-color="#D3A63E"/>
<stop offset="1" stop-color="#F0CD7C"/>
</linearGradient>
</defs>
</svg>
