<svg width="36" height="36" viewBox="0 0 36 36" fill="none" xmlns="http://www.w3.org/2000/svg">
<mask id="mask0_11912_938" style="mask-type:alpha" maskUnits="userSpaceOnUse" x="0" y="0" width="36" height="36">
<rect width="36" height="36" fill="#D9D9D9"/>
</mask>
<g mask="url(#mask0_11912_938)">
<path d="M19.4336 27.1298L22.5 25.2692L25.5663 27.1298L24.7528 23.6193L27.4499 21.3058L23.9163 20.9971L22.5 17.6972L21.0836 20.9971L17.55 21.3058L20.2471 23.6193L19.4336 27.1298ZM9.46155 21V23.25H6.46155C5.71348 23.25 5.07454 22.9851 4.54474 22.4553C4.01491 21.9255 3.75 21.2865 3.75 20.5384V6.46161C3.75 5.71354 4.01491 5.0746 4.54474 4.5448C5.07454 4.01497 5.71348 3.75006 6.46155 3.75006H20.5384C21.2865 3.75006 21.9254 4.01497 22.4552 4.5448C22.985 5.0746 23.2499 5.71354 23.2499 6.46161V9.46161H21V6.46161C21 6.32699 20.9567 6.2164 20.8701 6.12985C20.7836 6.0433 20.673 6.00002 20.5384 6.00002H6.46155C6.32693 6.00002 6.21634 6.0433 6.12979 6.12985C6.04324 6.2164 5.99996 6.32699 5.99996 6.46161V20.5384C5.99996 20.6731 6.04324 20.7837 6.12979 20.8702C6.21634 20.9568 6.32693 21 6.46155 21H9.46155ZM15.4615 32.25C14.7135 32.25 14.0745 31.9851 13.5447 31.4553C13.0149 30.9255 12.75 30.2865 12.75 29.5384V15.4616C12.75 14.7135 13.0149 14.0746 13.5447 13.5448C14.0745 13.015 14.7135 12.7501 15.4615 12.7501H29.5384C30.2865 12.7501 30.9254 13.015 31.4552 13.5448C31.985 14.0746 32.2499 14.7135 32.2499 15.4616V29.5384C32.2499 30.2865 31.985 30.9255 31.4552 31.4553C30.9254 31.9851 30.2865 32.25 29.5384 32.25H15.4615ZM15.4615 30H29.5384C29.673 30 29.7836 29.9567 29.8701 29.8702C29.9567 29.7836 30 29.6731 30 29.5384V15.4616C30 15.327 29.9567 15.2164 29.8701 15.1298C29.7836 15.0433 29.673 15 29.5384 15H15.4615C15.3269 15 15.2163 15.0433 15.1298 15.1298C15.0432 15.2164 15 15.327 15 15.4616V29.5384C15 29.6731 15.0432 29.7836 15.1298 29.8702C15.2163 29.9567 15.3269 30 15.4615 30Z" fill="white"/>
</g>
</svg>
