<svg width="36" height="36" viewBox="0 0 36 36" fill="none" xmlns="http://www.w3.org/2000/svg">
<path d="M18 21.3953L20.6625 23.0194C20.9088 23.1751 21.1573 23.1664 21.408 22.9931C21.659 22.8201 21.7519 22.5855 21.6866 22.2893L20.9798 19.2431L23.3569 17.1893C23.5876 16.9835 23.6554 16.7413 23.5601 16.4625C23.4649 16.1838 23.2615 16.0319 22.95 16.0069L19.8431 15.7444L18.6173 12.8857C18.502 12.6145 18.2963 12.4789 18 12.4789C17.7038 12.4789 17.498 12.6145 17.3828 12.8857L16.1569 15.7444L13.05 16.0069C12.7385 16.0319 12.5351 16.1838 12.4399 16.4625C12.3446 16.7413 12.4124 16.9835 12.6431 17.1893L15.0203 19.2431L14.3134 22.2893C14.2481 22.5855 14.341 22.8201 14.592 22.9931C14.8428 23.1664 15.0913 23.1751 15.3375 23.0194L18 21.3953ZM13.2922 29.25H9.46163C8.71362 29.25 8.07463 28.9851 7.54463 28.4554C7.01488 27.9254 6.75 27.2864 6.75 26.5384V22.7078L3.96338 19.8979C3.70763 19.6269 3.51438 19.327 3.38363 18.9983C3.25288 18.6693 3.1875 18.3365 3.1875 18C3.1875 17.6635 3.25288 17.3308 3.38363 17.0018C3.51438 16.673 3.70763 16.3731 3.96338 16.1021L6.75 13.2923V9.46163C6.75 8.71362 7.01488 8.07463 7.54463 7.54463C8.07463 7.01488 8.71362 6.75 9.46163 6.75H13.2922L16.1021 3.96338C16.3731 3.70763 16.673 3.51437 17.0018 3.38362C17.3308 3.25287 17.6635 3.1875 18 3.1875C18.3365 3.1875 18.6693 3.25287 18.9983 3.38362C19.327 3.51437 19.6269 3.70763 19.8979 3.96338L22.7078 6.75H26.5384C27.2864 6.75 27.9254 7.01488 28.4554 7.54463C28.9851 8.07463 29.25 8.71362 29.25 9.46163V13.2923L32.0366 16.1021C32.2924 16.3731 32.4856 16.673 32.6164 17.0018C32.7471 17.3308 32.8125 17.6635 32.8125 18C32.8125 18.3365 32.7471 18.6693 32.6164 18.9983C32.4856 19.327 32.2924 19.6269 32.0366 19.8979L29.25 22.7078V26.5384C29.25 27.2864 28.9851 27.9254 28.4554 28.4554C27.9254 28.9851 27.2864 29.25 26.5384 29.25H22.7078L19.8979 32.0366C19.6269 32.2924 19.327 32.4856 18.9983 32.6164C18.6693 32.7471 18.3365 32.8125 18 32.8125C17.6635 32.8125 17.3308 32.7471 17.0018 32.6164C16.673 32.4856 16.3731 32.2924 16.1021 32.0366L13.2922 29.25ZM14.25 27L17.6681 30.4181C17.7546 30.5046 17.8653 30.5479 18 30.5479C18.1348 30.5479 18.2454 30.5046 18.3319 30.4181L21.75 27H26.5384C26.6731 27 26.7838 26.9568 26.8703 26.8703C26.9568 26.7838 27 26.6731 27 26.5384V21.75L30.4181 18.3319C30.5046 18.2454 30.5479 18.1348 30.5479 18C30.5479 17.8653 30.5046 17.7546 30.4181 17.6681L27 14.25V9.46163C27 9.32688 26.9568 9.21625 26.8703 9.12975C26.7838 9.04325 26.6731 9 26.5384 9H21.75L18.3319 5.58187C18.2454 5.49537 18.1348 5.45213 18 5.45213C17.8653 5.45213 17.7546 5.49537 17.6681 5.58187L14.25 9H9.46163C9.32688 9 9.21625 9.04325 9.12975 9.12975C9.04325 9.21625 9 9.32688 9 9.46163V14.25L5.58188 17.6681C5.49538 17.7546 5.45213 17.8653 5.45213 18C5.45213 18.1348 5.49538 18.2454 5.58188 18.3319L9 21.75V26.5384C9 26.6731 9.04325 26.7838 9.12975 26.8703C9.21625 26.9568 9.32688 27 9.46163 27H14.25Z" fill="#1F1F1F"/>
</svg>
