<svg width="24" height="24" viewBox="0 0 24 24" fill="none" xmlns="http://www.w3.org/2000/svg">
<path d="M5.74979 16.2503V10.2503C5.74979 10.0378 5.82171 9.85961 5.96554 9.71578C6.10938 9.57211 6.28754 9.50028 6.50004 9.50028C6.71271 9.50028 6.89088 9.57211 7.03454 9.71578C7.17804 9.85961 7.24979 10.0378 7.24979 10.2503V16.2503C7.24979 16.4628 7.17788 16.6409 7.03404 16.7848C6.89021 16.9284 6.71204 17.0003 6.49954 17.0003C6.28688 17.0003 6.10879 16.9284 5.96529 16.7848C5.82163 16.6409 5.74979 16.4628 5.74979 16.2503ZM11.2498 16.2503V10.2503C11.2498 10.0378 11.3217 9.85961 11.4655 9.71578C11.6094 9.57211 11.7875 9.50028 12 9.50028C12.2127 9.50028 12.3908 9.57211 12.5343 9.71578C12.678 9.85961 12.7498 10.0378 12.7498 10.2503V16.2503C12.7498 16.4628 12.6779 16.6409 12.534 16.7848C12.3902 16.9284 12.212 17.0003 11.9995 17.0003C11.7869 17.0003 11.6088 16.9284 11.4653 16.7848C11.3216 16.6409 11.2498 16.4628 11.2498 16.2503ZM20.519 7.50028H3.40954C3.23154 7.50028 3.08029 7.43811 2.95579 7.31378C2.83129 7.18961 2.76904 7.0387 2.76904 6.86103V6.47053C2.76904 6.34036 2.80163 6.22811 2.86679 6.13378C2.93213 6.03961 3.01813 5.96303 3.12479 5.90403L11.2055 1.95028C11.4552 1.82978 11.7195 1.76953 11.9985 1.76953C12.2775 1.76953 12.5427 1.82978 12.794 1.95028L20.8343 5.87903C20.96 5.9432 21.0574 6.03295 21.1265 6.14828C21.1959 6.26378 21.2305 6.38778 21.2305 6.52028V6.79128C21.2305 6.99595 21.1635 7.16528 21.0295 7.29928C20.8955 7.43328 20.7254 7.50028 20.519 7.50028ZM6.33054 6.00028H17.669L12.1345 3.30803C12.0895 3.2887 12.0446 3.27903 11.9998 3.27903C11.955 3.27903 11.91 3.2887 11.865 3.30803L6.33054 6.00028ZM3.51904 20.5003C3.30654 20.5003 3.12846 20.4284 2.98479 20.2845C2.84096 20.1407 2.76904 19.9625 2.76904 19.75C2.76904 19.5374 2.84096 19.3593 2.98479 19.2158C3.12846 19.0721 3.30654 19.0003 3.51904 19.0003H13.5978C13.8103 19.0003 13.9885 19.0722 14.1323 19.216C14.276 19.3599 14.3478 19.538 14.3478 19.7505C14.3478 19.9632 14.276 20.1413 14.1323 20.2848C13.9885 20.4284 13.8103 20.5003 13.5978 20.5003H3.51904ZM17.4995 13.385C17.2869 13.385 17.1087 13.3131 16.965 13.1693C16.8215 13.0256 16.7498 12.8475 16.7498 12.635V10.2503C16.7498 10.0378 16.8217 9.85961 16.9655 9.71578C17.1094 9.57211 17.2875 9.50028 17.5 9.50028C17.7127 9.50028 17.8908 9.57211 18.0343 9.71578C18.178 9.85961 18.2498 10.0378 18.2498 10.2503V12.635C18.2498 12.8475 18.1779 13.0256 18.034 13.1693C17.8902 13.3131 17.712 13.385 17.4995 13.385Z" fill="#42265E"/>
<path d="M17.2646 17.5291C16.9154 17.5291 16.6173 17.4056 16.3704 17.1587C16.1235 16.9119 16 16.6138 16 16.2645C16 15.9153 16.1235 15.6172 16.3704 15.3703C16.6173 15.1234 16.9154 15 17.2646 15C17.6138 15 17.9119 15.1234 18.1588 15.3703C18.4057 15.6172 18.5292 15.9153 18.5292 16.2645C18.5292 16.6138 18.4057 16.9119 18.1588 17.1587C17.9119 17.4056 17.6138 17.5291 17.2646 17.5291ZM17.2644 16.9295C17.449 16.9295 17.606 16.8649 17.7354 16.7356C17.8649 16.6063 17.9296 16.4494 17.9296 16.2648C17.9296 16.0801 17.865 15.9231 17.7357 15.7937C17.6064 15.6643 17.4495 15.5996 17.2648 15.5996C17.0802 15.5996 16.9231 15.6642 16.7937 15.7935C16.6643 15.9227 16.5996 16.0797 16.5996 16.2643C16.5996 16.449 16.6642 16.606 16.7935 16.7354C16.9227 16.8648 17.0797 16.9295 17.2644 16.9295ZM20.7355 21C20.3862 21 20.0881 20.8765 19.8413 20.6296C19.5944 20.3827 19.4709 20.0846 19.4709 19.7354C19.4709 19.3862 19.5944 19.0881 19.8413 18.8412C20.0881 18.5943 20.3862 18.4708 20.7355 18.4708C21.0847 18.4708 21.3828 18.5943 21.6297 18.8412C21.8766 19.0881 22 19.3862 22 19.7354C22 20.0846 21.8766 20.3827 21.6297 20.6296C21.3828 20.8765 21.0847 21 20.7355 21ZM20.7352 20.4004C20.9199 20.4004 21.0769 20.3358 21.2063 20.2065C21.3357 20.0773 21.4004 19.9203 21.4004 19.7356C21.4004 19.551 21.3358 19.394 21.2065 19.2646C21.0773 19.1351 20.9203 19.0704 20.7357 19.0704C20.551 19.0704 20.394 19.135 20.2646 19.2643C20.1352 19.3936 20.0705 19.5505 20.0705 19.7352C20.0705 19.9198 20.1351 20.0769 20.2644 20.2063C20.3937 20.3357 20.5506 20.4004 20.7352 20.4004ZM16.249 20.751C16.1937 20.6956 16.1661 20.6258 16.1661 20.5416C16.1661 20.4574 16.1937 20.388 16.249 20.3335L21.3374 15.2452C21.3927 15.1899 21.4616 15.1628 21.5442 15.1641C21.6267 15.1654 21.6956 15.1937 21.751 15.249C21.8063 15.3044 21.834 15.3742 21.834 15.4584C21.834 15.5426 21.8063 15.612 21.751 15.6665L16.6627 20.7548C16.6073 20.8101 16.5384 20.8372 16.4559 20.8359C16.3734 20.8346 16.3044 20.8063 16.249 20.751Z" fill="#42265E" stroke="#42265E" stroke-width="0.6"/>
</svg>
