<svg width="24" height="24" viewBox="0 0 24 24" fill="none" xmlns="http://www.w3.org/2000/svg">
<path d="M10.5124 5.11698C9.76591 4.37048 8.86458 4 7.81396 4C6.76333 4 5.86201 4.37048 5.11551 5.11698C4.36902 5.86347 3.99854 6.7648 3.99854 7.81542C3.99854 8.86605 4.36902 9.76737 5.11551 10.5139C5.86201 11.2604 6.76333 11.6308 7.81396 11.6308C8.86458 11.6308 9.76591 11.2604 10.5124 10.5139C11.2589 9.76737 11.6294 8.86605 11.6294 7.81542C11.6294 6.7648 11.2589 5.86347 10.5124 5.11698ZM9.23506 9.24206C8.84246 9.63466 8.37245 9.8282 7.81396 9.8282C7.25547 9.8282 6.78545 9.63466 6.39285 9.24206C6.00025 8.84946 5.80671 8.37944 5.80671 7.82095C5.80671 7.26246 6.00025 6.79245 6.39285 6.39985C6.78545 6.00724 7.25547 5.81371 7.81396 5.81371C8.37245 5.81371 8.84799 6.00724 9.23506 6.39985C9.62767 6.79245 9.8212 7.26246 9.8212 7.82095C9.8212 8.37944 9.62767 8.85499 9.23506 9.24206Z" fill="white"/>
<path d="M19.4542 14.0148C18.7022 13.2627 17.7954 12.8867 16.7282 12.8867C15.6609 12.8867 14.7541 13.2627 14.0021 14.0148C13.25 14.7668 12.874 15.6736 12.874 16.7408C12.874 17.8081 13.25 18.7149 14.0021 19.4669C14.7541 20.219 15.6609 20.595 16.7282 20.595C17.7954 20.595 18.7022 20.219 19.4542 19.4669C20.2063 18.7149 20.5823 17.8081 20.5823 16.7408C20.5823 15.6736 20.2063 14.7668 19.4542 14.0148ZM19.316 17.1998H17.2037V19.3121H16.2471V17.1998H14.1348V16.2377H16.2471V14.1253H17.2037V16.2377H19.316V17.1998Z" fill="white"/>
<path d="M19.3189 4.10643L4.09717 19.3281L5.25062 20.4816L20.4723 5.25988L19.3189 4.10643Z" fill="white"/>
</svg>
