<svg width="24" height="24" viewBox="0 0 24 24" fill="none" xmlns="http://www.w3.org/2000/svg">
<path d="M7.5 18.75V17.5H6.404C6.14783 17.5 5.93317 17.4133 5.76 17.24C5.58667 17.0668 5.5 16.8522 5.5 16.596V7.40775C5.5 7.14742 5.58667 6.93108 5.76 6.75875C5.93317 6.58625 6.14783 6.5 6.404 6.5H7.5V5.25C7.5 5.0375 7.57192 4.85942 7.71575 4.71575C7.85958 4.57192 8.03775 4.5 8.25025 4.5C8.46292 4.5 8.641 4.57192 8.7845 4.71575C8.92817 4.85942 9 5.0375 9 5.25V6.5H10.0963C10.3523 6.5 10.5669 6.58667 10.7402 6.76C10.9134 6.93317 11 7.14783 11 7.404V16.5922C11 16.8526 10.9134 17.0689 10.7402 17.2413C10.5669 17.4137 10.3523 17.5 10.0963 17.5H9V18.75C9 18.9625 8.92808 19.1406 8.78425 19.2843C8.64042 19.4281 8.46225 19.5 8.24975 19.5C8.03708 19.5 7.859 19.4281 7.7155 19.2843C7.57183 19.1406 7.5 18.9625 7.5 18.75ZM7 16H9.5V8H7V16ZM15 18.75V14.6923H13.9038C13.6478 14.6923 13.4331 14.6057 13.2598 14.4325C13.0866 14.2592 13 14.0445 13 13.7885V9.30775C13 9.05158 13.0866 8.83692 13.2598 8.66375C13.4331 8.49058 13.6478 8.404 13.9038 8.404H15V5.25C15 5.0375 15.0719 4.85942 15.2158 4.71575C15.3596 4.57192 15.5378 4.5 15.7503 4.5C15.9629 4.5 16.141 4.57192 16.2845 4.71575C16.4282 4.85942 16.5 5.0375 16.5 5.25V8.404H17.596C17.8522 8.404 18.0668 8.49058 18.24 8.66375C18.4133 8.83692 18.5 9.05158 18.5 9.30775V13.7885C18.5 14.0445 18.4133 14.2592 18.24 14.4325C18.0668 14.6057 17.8522 14.6923 17.596 14.6923H16.5V18.75C16.5 18.9625 16.4281 19.1406 16.2843 19.2843C16.1404 19.4281 15.9622 19.5 15.7498 19.5C15.5371 19.5 15.359 19.4281 15.2155 19.2843C15.0718 19.1406 15 18.9625 15 18.75ZM14.5 13.1923H17V9.90375H14.5V13.1923Z" fill="#42265E"/>
</svg>
