<svg width="19" height="15" viewBox="0 0 19 15" fill="none" xmlns="http://www.w3.org/2000/svg">
<path d="M9.34625 10.3463C9.51792 10.3463 9.66017 10.2898 9.773 10.177C9.88583 10.0642 9.94225 9.92183 9.94225 9.75V8.30775H12.4038C12.6936 8.30775 12.9392 8.20708 13.1405 8.00575C13.3417 7.80442 13.4423 7.55892 13.4423 7.26925V5.69225C13.4423 5.40258 13.3417 5.15708 13.1405 4.95575C12.9392 4.75442 12.6936 4.65375 12.4038 4.65375H9.65375C9.39608 4.65375 9.18108 4.74 9.00875 4.9125C8.83625 5.085 8.75 5.30008 8.75 5.55775V9.75C8.75 9.92183 8.80642 10.0642 8.91925 10.177C9.03208 10.2898 9.17442 10.3463 9.34625 10.3463ZM15.2308 10.3463C15.4026 10.3463 15.5449 10.2898 15.6578 10.177C15.7706 10.0642 15.827 9.92183 15.827 9.75V5.25C15.827 5.07817 15.7706 4.93583 15.6578 4.823C15.5449 4.71017 15.4026 4.65375 15.2308 4.65375C15.0589 4.65375 14.9166 4.71017 14.8038 4.823C14.6911 4.93583 14.6348 5.07817 14.6348 5.25V9.75C14.6348 9.92183 14.6911 10.0642 14.8038 10.177C14.9166 10.2898 15.0589 10.3463 15.2308 10.3463ZM9.94225 7.1155V5.84625H12.0962C12.1346 5.84625 12.1698 5.86225 12.202 5.89425C12.234 5.92625 12.25 5.9615 12.25 6V6.9615C12.25 7 12.234 7.03525 12.202 7.06725C12.1698 7.09942 12.1346 7.1155 12.0962 7.1155H9.94225ZM3.904 10.3463H6.51925C6.80892 10.3463 7.05442 10.2456 7.25575 10.0442C7.45708 9.84292 7.55775 9.59742 7.55775 9.30775V5.25C7.55775 5.07817 7.50133 4.93583 7.3885 4.823C7.27567 4.71017 7.13333 4.65375 6.9615 4.65375C6.78967 4.65375 6.64742 4.71017 6.53475 4.823C6.42192 4.93583 6.3655 5.07817 6.3655 5.25V9C6.3655 9.0385 6.34942 9.07375 6.31725 9.10575C6.28525 9.13775 6.25 9.15375 6.2115 9.15375H4.2115C4.173 9.15375 4.13775 9.13775 4.10575 9.10575C4.07375 9.07375 4.05775 9.0385 4.05775 9V5.25C4.05775 5.07817 4.00133 4.93583 3.8885 4.823C3.77567 4.71017 3.63333 4.65375 3.4615 4.65375C3.28967 4.65375 3.14742 4.71017 3.03475 4.823C2.92192 4.93583 2.8655 5.07817 2.8655 5.25V9.30775C2.8655 9.59742 2.96608 9.84292 3.16725 10.0442C3.36858 10.2456 3.61417 10.3463 3.904 10.3463ZM1.80775 15C1.30258 15 0.875 14.825 0.525 14.475C0.175 14.125 0 13.6974 0 13.1923V1.80775C0 1.30258 0.175 0.875 0.525 0.525C0.875 0.175 1.30258 0 1.80775 0H17.1923C17.6974 0 18.125 0.175 18.475 0.525C18.825 0.875 19 1.30258 19 1.80775V13.1923C19 13.6974 18.825 14.125 18.475 14.475C18.125 14.825 17.6974 15 17.1923 15H1.80775ZM1.80775 13.5H17.1923C17.2693 13.5 17.3398 13.4679 17.4038 13.4038C17.4679 13.3398 17.5 13.2692 17.5 13.1923V1.80775C17.5 1.73075 17.4679 1.66025 17.4038 1.59625C17.3398 1.53208 17.2693 1.5 17.1923 1.5H1.80775C1.73075 1.5 1.66025 1.53208 1.59625 1.59625C1.53208 1.66025 1.5 1.73075 1.5 1.80775V13.1923C1.5 13.2692 1.53208 13.3398 1.59625 13.4038C1.66025 13.4679 1.73075 13.5 1.80775 13.5Z" fill="#42265E"/>
</svg>
