<svg width="24" height="24" viewBox="0 0 24 24" fill="none" xmlns="http://www.w3.org/2000/svg">
<g clip-path="url(#clip0_41972_20434)">
<path d="M12.871 20.875H11.3965C10.9673 20.7785 10.5294 20.7364 10.0989 20.6424C9.26891 20.4606 8.48342 20.1464 7.72639 19.7703L3.76433 20.8762H3.39571C3.05554 20.7575 2.85144 20.5521 2.73145 20.2119V19.8804L4.23562 16.5468C3.68764 15.6735 3.25841 14.7235 3.0073 13.719L2.73145 12.1678C2.7599 11.6755 2.69311 11.1424 2.73145 10.655C3.37592 2.46743 13.6788 -1.03076 19.2143 5.13807C24.4232 10.9445 20.5873 20.3418 12.871 20.875ZM5.05451 18.7721C5.99833 18.5569 6.91864 18.2204 7.86864 18.0485C8.27808 18.1115 8.61331 18.38 8.98564 18.5457C13.0998 20.3777 17.9241 18.3453 19.4703 14.1421C21.6325 8.26888 16.3692 2.38455 10.303 3.86151C5.33654 5.07004 2.85886 10.7676 5.37983 15.2554C5.65692 15.7489 6.21974 16.2412 5.9204 16.8535L5.05451 18.7721Z" fill="white"/>
<path d="M8.4313 7.00763C9.30833 6.89012 9.95279 8.15802 10.0827 8.87795C10.1569 9.28739 10.1322 9.49768 9.91568 9.85888C9.71158 10.1978 9.29225 10.3846 9.48893 10.8373C9.84518 11.6562 11.0562 12.7126 11.8305 13.1418C12.068 13.2742 12.6296 13.5772 12.882 13.5278C13.1628 13.4721 13.4708 12.485 13.9235 12.3935C14.6954 12.2364 16.2565 13.0107 16.327 13.884C16.3604 14.2935 15.9707 14.912 15.6664 15.1705C14.2736 16.3605 11.8689 15.1383 10.6034 14.2588C8.99166 13.1394 6.55356 10.6394 7.07062 8.48706C7.20917 7.90939 7.80787 7.09051 8.4313 7.00763Z" fill="white"/>
</g>
<defs>
<clipPath id="clip0_41972_20434">
<rect width="18.8863" height="18.8751" fill="white" transform="translate(2.71875 2)"/>
</clipPath>
</defs>
</svg>
