<svg width="93" height="28" viewBox="0 0 93 28" fill="none" xmlns="http://www.w3.org/2000/svg">
<path d="M75.1104 0.00319746H6.50415C6.25331 0.00319746 6.00729 0.0031978 5.75806 0.0047968C5.54902 0.0063958 5.3416 0.00959307 5.13096 0.0127911C4.67269 0.0175881 4.21604 0.057563 3.7642 0.132716C3.31237 0.209468 2.87662 0.351779 2.4682 0.55805C2.05978 0.76592 1.68834 1.03615 1.36354 1.35755C1.03873 1.67895 0.76699 2.04992 0.559565 2.45766C0.35214 2.86381 0.209033 3.29873 0.13346 3.74805C0.0578864 4.19737 0.0160782 4.64989 0.0112544 5.1056C0.00482257 5.31347 0.00321589 5.52134 0 5.73081V21.4058C0.00321589 21.6169 0.00482257 21.8199 0.0112544 22.031C0.0160782 22.4851 0.0578864 22.9392 0.13346 23.3886C0.209033 23.8379 0.35214 24.2744 0.559565 24.6806C0.76699 25.0851 1.03713 25.4561 1.36354 25.7743C1.68674 26.0973 2.05817 26.3675 2.46659 26.5738C2.87501 26.78 3.31237 26.9239 3.7626 27.0023C4.21443 27.0759 4.67109 27.1158 5.12935 27.1222C5.33999 27.127 5.54742 27.1286 5.75645 27.1286C6.00568 27.1302 6.25331 27.1302 6.50254 27.1302H85.6007C85.8451 27.1302 86.0943 27.1302 86.3403 27.1286C86.5478 27.1286 86.7616 27.1254 86.969 27.1206C87.4257 27.1158 87.8824 27.0759 88.3326 27.0007C88.786 26.9239 89.2234 26.7784 89.6334 26.5722C90.0418 26.3659 90.4149 26.0957 90.7365 25.7727C91.0613 25.4529 91.333 25.0819 91.542 24.679C91.7479 24.2728 91.891 23.8363 91.9649 23.387C92.0405 22.9376 92.0823 22.4851 92.092 22.0294C92.0952 21.8183 92.0952 21.6153 92.0952 21.4042C92.1 21.158 92.1 20.9133 92.1 20.6623V6.46955C92.1 6.22171 92.1 5.97546 92.0952 5.72921C92.0952 5.52134 92.0952 5.31347 92.092 5.104C92.0839 4.64989 92.0421 4.19577 91.9649 3.74645C91.891 3.29714 91.7479 2.86221 91.542 2.45606C91.1208 1.64057 90.4535 0.975389 89.6334 0.556451C89.2234 0.35018 88.7844 0.20787 88.3326 0.131118C87.8807 0.0559649 87.4257 0.0159899 86.969 0.0111929C86.7616 0.00799495 86.5478 0.00319712 86.3403 0.00159812C86.0959 -8.78321e-07 85.8467 0 85.6007 0H75.1104V0.00319746Z" fill="white"/>
<path d="M86.3311 1.03906L86.9541 1.04883H86.9551C87.3569 1.05337 87.7591 1.08745 88.1543 1.15234V1.15332C88.5072 1.21328 88.8497 1.32381 89.1699 1.48438C89.7166 1.7655 90.1735 2.18958 90.4941 2.70703L90.623 2.93457C90.7794 3.24821 90.8887 3.57999 90.9453 3.92188V3.92285C90.9958 4.22508 91.0298 4.52866 91.0469 4.83301L91.0586 5.1377C91.0601 5.32614 91.0596 5.52929 91.0596 5.73438V5.74219C91.0643 5.99162 91.0645 6.22942 91.0645 6.47461V20.667C91.0645 20.9139 91.0643 21.1497 91.0596 21.3877V21.3965C91.0596 21.617 91.0598 21.8144 91.0566 22.0176C91.049 22.4169 91.0129 22.8164 90.9473 23.2109L90.9463 23.2139C90.8912 23.5595 90.7812 23.8969 90.6221 24.2129C90.4628 24.5196 90.2566 24.8003 90.0107 25.042L90.0078 25.0449C89.7629 25.2913 89.4777 25.4984 89.166 25.6562C88.8471 25.8169 88.5079 25.9291 88.1582 25.9873C87.7567 26.0513 87.3519 26.0882 86.9473 26.0928H86.9414C86.7447 26.0975 86.5395 26.1006 86.3398 26.1006H85.5996L5.76074 26.0977C5.55733 26.0977 5.3578 26.094 5.15137 26.0908C4.74565 26.0847 4.34167 26.0498 3.94238 25.9863H3.94336C3.59372 25.9267 3.25566 25.8144 2.93652 25.6543H2.93555C2.6256 25.4978 2.34336 25.294 2.09961 25.0488L2.09473 25.0439C1.84604 24.8008 1.64018 24.5195 1.4834 24.2119C1.32362 23.8983 1.21213 23.563 1.15527 23.2168C1.08958 22.8172 1.05339 22.4138 1.04883 22.0117V22.002L1.04102 21.6465C1.03992 21.5784 1.03876 21.5144 1.03809 21.4678C1.03775 21.4446 1.03827 21.4253 1.03809 21.4121L1.03711 21.3975V5.7334C1.03716 5.72995 1.03799 5.7243 1.03809 5.71777C1.03827 5.70474 1.03775 5.68587 1.03809 5.66309C1.03876 5.61708 1.03992 5.55414 1.04102 5.4873C1.04325 5.35133 1.0466 5.20439 1.04883 5.1416V5.13184C1.05339 4.72981 1.08966 4.32638 1.15527 3.92871V3.92773C1.21218 3.58129 1.32338 3.24422 1.48438 2.92969L1.48535 2.92871C1.64251 2.61897 1.8477 2.33758 2.09473 2.09473L2.09668 2.0918C2.34211 1.84635 2.62659 1.64053 2.9375 1.48047C3.25447 1.32216 3.59222 1.21153 3.94043 1.15332L3.93945 1.15234C4.34131 1.08705 4.74694 1.05142 5.15137 1.04688H5.15234L5.76855 1.03906H86.3311Z" fill="white" stroke="white" stroke-width="0.879572"/>
<path d="M22.2945 13.4924C22.3105 12.2963 22.9409 11.1914 23.9651 10.5646C23.3155 9.64201 22.2671 9.07756 21.1351 9.04238C19.9436 8.91766 18.7907 9.75074 18.1829 9.75074C17.5639 9.75074 16.6297 9.05357 15.6247 9.07436C14.3014 9.11753 13.097 9.84827 12.4522 10.998C11.0806 13.3597 12.1033 16.8295 13.417 18.7387C14.0746 19.6741 14.8432 20.7167 15.8482 20.6799C16.8323 20.6399 17.1989 20.0563 18.3871 20.0563C19.5626 20.0563 19.9083 20.6799 20.9341 20.6559C21.9889 20.6399 22.6546 19.7173 23.2882 18.7739C23.7609 18.1071 24.1243 17.3716 24.3655 16.5929C23.1113 16.0668 22.2961 14.8451 22.2945 13.4924ZM20.3585 7.78717C20.9341 7.0996 21.2171 6.21695 21.1496 5.32471C20.2701 5.41585 19.458 5.83479 18.8744 6.49518C18.2987 7.14757 18.0061 7.99983 18.0639 8.86489C18.9531 8.87448 19.7989 8.47634 20.3585 7.78717Z" fill="#12121C"/>
<path d="M34.0971 18.4092H30.87L30.0933 20.6846H28.7266L31.7833 12.2626H33.2031L36.2614 20.6846H34.8705L34.0971 18.4092ZM31.2028 17.3587H33.761L32.4988 13.665H32.4634C32.465 13.665 31.2028 17.3587 31.2028 17.3587ZM42.8652 17.6145C42.8652 19.5221 41.8378 20.7485 40.2877 20.7485C39.4869 20.7901 38.7328 20.3728 38.3453 19.674H38.3164V22.7153H37.0493V14.5444H38.2762V15.5662H38.2987C38.7023 14.8722 39.458 14.4549 40.2652 14.4805C41.8329 14.4821 42.8652 15.7133 42.8652 17.6145ZM41.5628 17.6145C41.5628 16.3721 40.9164 15.555 39.9307 15.555C38.9628 15.555 38.3115 16.3897 38.3115 17.6161C38.3115 18.8537 38.9628 19.682 39.9307 19.682C40.9164 19.682 41.5628 18.8697 41.5628 17.6145ZM49.6604 17.6145C49.6604 19.5221 48.6329 20.7485 47.0829 20.7485C46.2821 20.7901 45.528 20.3728 45.1405 19.674H45.1115V22.7153H43.8445V14.5444H45.0713V15.5662H45.0939C45.4991 14.8722 46.2532 14.4549 47.0604 14.4805C48.6281 14.4821 49.6604 15.7133 49.6604 17.6145ZM48.358 17.6145C48.358 16.3721 47.7116 15.555 46.7259 15.555C45.7579 15.555 45.1067 16.3897 45.1067 17.6161C45.1067 18.8537 45.7579 19.682 46.7259 19.682C47.7116 19.682 48.358 18.8697 48.358 17.6145ZM54.1514 18.3388C54.2463 19.1735 55.0615 19.722 56.1758 19.722C57.2435 19.722 58.0121 19.1735 58.0121 18.4204C58.0121 17.7664 57.549 17.3762 56.4508 17.1076L55.3526 16.8454C53.7977 16.4712 53.0757 15.7485 53.0757 14.5748C53.0757 13.1213 54.3492 12.1235 56.1565 12.1235C57.9462 12.1235 59.173 13.1213 59.2148 14.5748H57.9349C57.8577 13.7337 57.1599 13.2268 56.1388 13.2268C55.1178 13.2268 54.4199 13.7401 54.4199 14.4869C54.4199 15.0833 54.867 15.4319 55.9588 15.7005L56.8914 15.9292C58.6295 16.3369 59.3499 17.0325 59.3499 18.2637C59.3499 19.8387 58.0877 20.8269 56.081 20.8269C54.2029 20.8269 52.9342 19.8627 52.8522 18.3404C52.8538 18.3388 54.1514 18.3388 54.1514 18.3388ZM62.0882 13.0925V14.546H63.262V15.5438H62.0882V18.9289C62.0882 19.4549 62.323 19.6996 62.8392 19.6996C62.979 19.6964 63.1173 19.6868 63.2556 19.6708V20.6622C63.0225 20.7054 62.7877 20.7246 62.5513 20.7214C61.302 20.7214 60.8131 20.2544 60.8131 19.0648V15.5454H59.9143V14.5476H60.8131V13.0925H62.0882ZM63.9406 17.6145C63.9406 15.6829 65.0855 14.4693 66.8687 14.4693C68.6583 14.4693 69.7984 15.6829 69.7984 17.6145C69.7984 19.5525 68.6647 20.7597 66.8687 20.7597C65.0742 20.7613 63.9406 19.5525 63.9406 17.6145ZM68.5072 17.6145C68.5072 16.2889 67.8961 15.507 66.8687 15.507C65.8428 15.507 65.2318 16.2953 65.2318 17.6145C65.2318 18.9449 65.8428 19.7204 66.8687 19.7204C67.8961 19.722 68.5072 18.9465 68.5072 17.6145ZM70.8435 14.5444H72.0527V15.5886H72.0816C72.2505 14.9154 72.8695 14.4533 73.5658 14.4789C73.7121 14.4789 73.8584 14.4949 73.9999 14.5252V15.7037C73.815 15.6477 73.6237 15.6221 73.4307 15.6269C73.0577 15.6126 72.6975 15.7597 72.4434 16.0315C72.1894 16.3033 72.0672 16.6711 72.1106 17.0405V20.6814H70.8419V14.5444H70.8435ZM79.8448 18.8809C79.6744 19.9954 78.5826 20.7597 77.1869 20.7597C75.3908 20.7597 74.2765 19.5637 74.2765 17.6433C74.2765 15.7181 75.3972 14.4677 77.1338 14.4677C78.8414 14.4677 79.9156 15.6349 79.9156 17.4962V17.9279H75.5548V18.0047C75.5146 18.462 75.6722 18.9145 75.9906 19.2471C76.3089 19.5797 76.7543 19.7604 77.2158 19.7444C77.8317 19.8019 78.4105 19.4501 78.6421 18.8809H79.8448ZM75.5596 17.0485H78.6469C78.6694 16.6375 78.5199 16.2362 78.232 15.9403C77.9442 15.6445 77.5454 15.4814 77.1322 15.4894C76.7157 15.4862 76.3154 15.6493 76.0195 15.9435C75.7252 16.2362 75.558 16.6343 75.5596 17.0485Z" fill="#12121C"/>
<path d="M31.0439 5.92424C31.5825 5.88586 32.1083 6.08894 32.4798 6.47909C32.8512 6.86765 33.0265 7.40172 32.9589 7.93418C32.9589 9.22777 32.2563 9.96971 31.0439 9.96971H29.5742V5.92264H31.0439V5.92424ZM30.2061 9.39886H30.9731C31.3574 9.42125 31.7321 9.27094 31.9926 8.98952C32.2531 8.7081 32.372 8.32274 32.3158 7.94378C32.3672 7.56641 32.2482 7.18585 31.9877 6.90603C31.7273 6.6262 31.3558 6.4759 30.9731 6.49668H30.2061V9.39886ZM33.6713 8.44266C33.6182 7.89421 33.8819 7.36494 34.3514 7.07552C34.8209 6.7845 35.4159 6.7845 35.8854 7.07552C36.3549 7.36494 36.6186 7.89421 36.5656 8.44266C36.6186 8.99112 36.3565 9.52039 35.8854 9.81141C35.4159 10.1024 34.8209 10.1024 34.3498 9.81141C33.8819 9.52199 33.6182 8.99112 33.6713 8.44266ZM35.9449 8.44266C35.9449 7.78068 35.6458 7.39372 35.1216 7.39372C34.5942 7.39372 34.2984 7.78068 34.2984 8.44266C34.2984 9.11105 34.5942 9.49481 35.1216 9.49481C35.6458 9.49481 35.9449 9.10785 35.9449 8.44266ZM40.4182 9.97131H39.7895L39.1544 7.72311H39.1061L38.4742 9.97131H37.8519L37.0045 6.91722H37.6188L38.1687 9.24696H38.2137L38.844 6.91722H39.4261L40.0564 9.24696H40.1047L40.6514 6.91722H41.2576L40.4182 9.97131ZM41.9731 6.91722H42.5568V7.40172H42.6018C42.7594 7.04514 43.1276 6.82607 43.5183 6.85805C43.8206 6.83567 44.1181 6.9508 44.3239 7.17146C44.5313 7.39212 44.6262 7.69433 44.5812 7.99335V9.96971H43.975V8.14365C43.975 7.65276 43.7611 7.40971 43.3125 7.40971C43.1067 7.40012 42.9073 7.48007 42.7674 7.62877C42.6259 7.77748 42.5584 7.98055 42.5793 8.18363V9.96971H41.9731V6.91722ZM45.5476 5.72437H46.1538V9.96971H45.5476V5.72437ZM46.9947 8.44266C46.9417 7.89421 47.2054 7.36494 47.6765 7.07552C48.146 6.7845 48.7409 6.7845 49.2105 7.07552C49.68 7.36494 49.9453 7.89421 49.8922 8.44266C49.9453 8.99112 49.6832 9.52039 49.2121 9.81141C48.7409 10.1024 48.146 10.1024 47.6765 9.81141C47.2054 9.52199 46.9417 8.99112 46.9947 8.44266ZM49.2684 8.44266C49.2684 7.78068 48.9693 7.39372 48.4451 7.39372C47.9177 7.39372 47.6218 7.78068 47.6218 8.44266C47.6218 9.11105 47.9177 9.49481 48.4451 9.49481C48.9693 9.49481 49.2684 9.10785 49.2684 8.44266ZM50.5306 9.10785C50.5306 8.55779 50.9422 8.24119 51.6722 8.19642L52.5035 8.14845V7.88461C52.5035 7.56161 52.2897 7.38093 51.8748 7.38093C51.5372 7.38093 51.3024 7.50405 51.2349 7.71992H50.648C50.7091 7.19544 51.2059 6.85966 51.9022 6.85966C52.6724 6.85966 53.1065 7.24022 53.1065 7.88621V9.97291H52.5228V9.54278H52.4746C52.2768 9.85618 51.9231 10.0401 51.5516 10.0225C51.2912 10.0497 51.0307 9.96491 50.8361 9.79062C50.6431 9.61633 50.5306 9.36848 50.5306 9.10785ZM52.5035 8.84721V8.59137L51.7526 8.63934C51.3297 8.66812 51.1384 8.81043 51.1384 9.08067C51.1384 9.35569 51.378 9.51559 51.7076 9.51559C51.9022 9.53478 52.0983 9.47562 52.2479 9.3493C52.399 9.22138 52.4907 9.04069 52.5035 8.84721ZM53.9041 8.44266C53.9041 7.47687 54.4025 6.86605 55.1792 6.86605C55.5699 6.84846 55.9381 7.05633 56.1214 7.40172H56.1664V5.72437H56.7726V9.97131H56.1922V9.48841H56.1439C55.9478 9.8306 55.5747 10.0369 55.1792 10.0209C54.3977 10.0209 53.9041 9.41006 53.9041 8.44266ZM54.5296 8.44266C54.5296 9.09026 54.8367 9.48041 55.3496 9.48041C55.8609 9.48041 56.1761 9.08546 56.1761 8.44586C56.1761 7.80946 55.8561 7.40811 55.3496 7.40811C54.8415 7.40811 54.5296 7.79987 54.5296 8.44266ZM59.2794 8.44266C59.2264 7.89421 59.4901 7.36494 59.9596 7.07552C60.4291 6.7845 61.0241 6.7845 61.4936 7.07552C61.9631 7.36494 62.2268 7.89421 62.1737 8.44266C62.2268 8.99112 61.9647 9.52039 61.4936 9.81141C61.0241 10.1024 60.4291 10.1024 59.958 9.81141C59.4885 9.52199 59.2248 8.99112 59.2794 8.44266ZM61.5531 8.44266C61.5531 7.78068 61.254 7.39372 60.7298 7.39372C60.2024 7.39372 59.9065 7.78068 59.9065 8.44266C59.9065 9.11105 60.2024 9.49481 60.7298 9.49481C61.254 9.49481 61.5531 9.10785 61.5531 8.44266ZM62.989 6.91722H63.5726V7.40172H63.6177C63.7753 7.04514 64.1435 6.82607 64.5342 6.85805C64.8365 6.83567 65.134 6.9508 65.3398 7.17146C65.5472 7.39212 65.6405 7.69433 65.5971 7.99335V9.96971H64.9909V8.14365C64.9909 7.65276 64.777 7.40971 64.3284 7.40971C64.1226 7.40012 63.9248 7.48007 63.7833 7.62877C63.6434 7.77748 63.5743 7.98055 63.5968 8.18363V9.96971H62.9906V6.91722H62.989ZM69.022 6.1577V6.93161H69.6877V7.43849H69.022V9.00871C69.022 9.32851 69.1538 9.46922 69.4561 9.46922C69.5333 9.46922 69.6105 9.46442 69.6877 9.45483V9.95692C69.5783 9.9761 69.469 9.9873 69.358 9.9889C68.6843 9.9889 68.4158 9.75224 68.4158 9.16381V7.43849H67.927V6.93161H68.4142V6.1577C68.4142 6.1577 69.022 6.1577 69.022 6.1577ZM70.5142 5.72437H71.1155V7.40651H71.1638C71.3278 7.04674 71.7024 6.82768 72.0996 6.85966C72.4003 6.84367 72.6929 6.96199 72.8987 7.18105C73.1029 7.40172 73.1978 7.70073 73.1576 7.99814V9.96971H72.5514V8.14525C72.5514 7.65755 72.3231 7.40971 71.8954 7.40971C71.6847 7.39212 71.4773 7.46887 71.3278 7.61918C71.1782 7.76789 71.1043 7.97576 71.122 8.18522V9.96971H70.5158V5.72437H70.5142ZM76.6903 9.14622C76.5198 9.72186 75.9603 10.0944 75.3589 10.0289C74.9505 10.0401 74.5565 9.87057 74.2832 9.56676C74.0098 9.26295 73.8844 8.8552 73.9407 8.45226C73.886 8.04771 74.0114 7.63837 74.2832 7.33296C74.5549 7.02595 74.9457 6.85326 75.3573 6.85646C76.2111 6.85646 76.7273 7.43689 76.7273 8.39629V8.60576H74.5598V8.63934C74.5405 8.8664 74.6192 9.09026 74.7736 9.25655C74.9296 9.42285 75.1483 9.51719 75.3766 9.51399C75.6741 9.54917 75.9619 9.40366 76.1082 9.14303L76.6903 9.14622ZM74.5598 8.16284H76.1114C76.1259 7.95497 76.0535 7.7519 75.9088 7.60159C75.7657 7.44969 75.5631 7.36814 75.3541 7.37133C75.1418 7.36814 74.9376 7.45129 74.7881 7.60159C74.6385 7.7487 74.5565 7.95177 74.5598 8.16284Z" fill="#12121C"/>
</svg>
