<svg width="25" height="25" viewBox="0 0 25 25" fill="none" xmlns="http://www.w3.org/2000/svg">
<path d="M15.5 22.8252H11V15.5752H10.05C9.46999 15.5752 9 15.1052 9 14.5252V12.6252C9 12.0452 9.46999 11.5752 10.05 11.5752H11V9.0752C11 7.0052 12.68 5.3252 14.75 5.3252H17.45C18.03 5.3252 18.5 5.79518 18.5 6.37518V8.77521C18.5 9.35521 18.03 9.8252 17.45 9.8252H15.5V11.5752H17.38C17.7 11.5752 17.99 11.7152 18.19 11.9552C18.39 12.1952 18.47 12.5152 18.41 12.8252L18.03 14.7252C17.93 15.2152 17.5 15.5652 17 15.5652H15.5V22.8252ZM12.5 21.3252H14V14.0752H16.64L16.84 13.0752H14.01V9.37518C14.01 8.79518 14.48 8.3252 15.06 8.3252H17.01V6.8252H14.75C13.51 6.8252 12.5 7.8352 12.5 9.0752V13.0752H10.5V14.0752H12.5V21.3252Z" fill="#767676"/>
<path d="M15.75 22.8252H9.75C4.32 22.8252 2 20.5052 2 15.0752V9.0752C2 3.6452 4.32 1.3252 9.75 1.3252H15.75C21.18 1.3252 23.5 3.6452 23.5 9.0752V15.0752C23.5 20.5052 21.18 22.8252 15.75 22.8252ZM9.75 2.8252C5.14 2.8252 3.5 4.4652 3.5 9.0752V15.0752C3.5 19.6852 5.14 21.3252 9.75 21.3252H15.75C20.36 21.3252 22 19.6852 22 15.0752V9.0752C22 4.4652 20.36 2.8252 15.75 2.8252H9.75Z" fill="#767676"/>
</svg>
