<svg width="93" height="28" viewBox="0 0 93 28" fill="none" xmlns="http://www.w3.org/2000/svg">
<path d="M3.41211 0.439453H88.6885C90.3237 0.439548 91.6602 1.77111 91.6602 3.3916V23.7373C91.6601 25.3561 90.3252 26.6874 88.6885 26.6875H3.41211C1.77684 26.6875 0.439453 25.3559 0.439453 23.7354V3.3916C0.439453 1.77238 1.7755 0.439453 3.41211 0.439453Z" fill="white" stroke="white" stroke-width="0.879572"/>
<path d="M38.4404 20.883C40.0492 20.883 41.3535 19.5915 41.3535 17.9984C41.3535 16.4052 40.0492 15.1138 38.4404 15.1138C36.8316 15.1138 35.5273 16.4052 35.5273 17.9984C35.5273 19.5915 36.8316 20.883 38.4404 20.883Z" fill="#12121C"/>
<path d="M44.7939 20.883C46.4028 20.883 47.707 19.5915 47.707 17.9984C47.707 16.4052 46.4028 15.1138 44.7939 15.1138C43.1851 15.1138 41.8809 16.4052 41.8809 17.9984C41.8809 19.5915 43.1851 20.883 44.7939 20.883Z" fill="#12121C"/>
<path fill-rule="evenodd" clip-rule="evenodd" d="M88.6883 0.00146484H3.41171C1.53615 0.00146484 0 1.52691 0 3.39294V23.7386C0 25.603 1.53454 27.1301 3.41171 27.1301H88.6883C90.5639 27.1301 92.1 25.6046 92.1 23.7386V3.39134C92.1 1.52691 90.5655 0.00146484 88.6883 0.00146484ZM88.6883 0.543523C90.2679 0.543523 91.5531 1.82112 91.5531 3.39134V23.737C91.5531 25.3072 90.2679 26.5848 88.6883 26.5848H3.41171C1.83212 26.5848 0.546902 25.3072 0.546902 23.737V3.39134C0.546902 1.82112 1.83212 0.543523 3.41171 0.543523H88.6883Z" fill="white"/>
<path fill-rule="evenodd" clip-rule="evenodd" d="M32.3517 6.94773C32.3517 7.51697 32.1828 7.96789 31.8434 8.30688C31.4573 8.70822 30.9571 8.9081 30.3394 8.9081C29.749 8.9081 29.2456 8.70502 28.8338 8.29728C28.4188 7.89113 28.2129 7.38425 28.2129 6.78303C28.2129 6.18021 28.4188 5.67492 28.8338 5.26878C29.2456 4.86263 29.749 4.65796 30.3394 4.65796C30.6321 4.65796 30.9136 4.71552 31.179 4.82745C31.4461 4.94098 31.66 5.09289 31.8192 5.28157L31.4589 5.63974C31.1887 5.31834 30.8155 5.15685 30.3378 5.15685C29.9067 5.15685 29.5351 5.30715 29.2198 5.60936C28.9046 5.91157 28.7485 6.30173 28.7485 6.78303C28.7485 7.26433 28.9062 7.65448 29.2198 7.95669C29.5335 8.25891 29.9067 8.40761 30.3378 8.40761C30.7946 8.40761 31.1758 8.2557 31.4814 7.95349C31.6793 7.75522 31.7935 7.48179 31.8241 7.13001H30.3378V6.64072H32.3211C32.342 6.74625 32.3517 6.84859 32.3517 6.94773Z" fill="#12121C"/>
<path d="M32.3517 6.94773C32.3517 7.51697 32.1828 7.96789 31.8434 8.30688C31.4573 8.70822 30.9571 8.9081 30.3394 8.9081C29.749 8.9081 29.2456 8.70502 28.8338 8.29728C28.4188 7.89113 28.2129 7.38425 28.2129 6.78303C28.2129 6.18021 28.4188 5.67492 28.8338 5.26878C29.2456 4.86263 29.749 4.65796 30.3394 4.65796C30.6321 4.65796 30.9136 4.71552 31.179 4.82745C31.4461 4.94098 31.66 5.09289 31.8192 5.28157L31.4589 5.63974C31.1887 5.31834 30.8155 5.15685 30.3378 5.15685C29.9067 5.15685 29.5351 5.30715 29.2198 5.60936C28.9046 5.91157 28.7485 6.30173 28.7485 6.78303C28.7485 7.26433 28.9062 7.65448 29.2198 7.95669C29.5335 8.25891 29.9067 8.40761 30.3378 8.40761C30.7946 8.40761 31.1758 8.2557 31.4814 7.95349C31.6793 7.75522 31.7935 7.48179 31.8241 7.13001H30.3378V6.64072H32.3211C32.342 6.74625 32.3517 6.84859 32.3517 6.94773Z" stroke="#12121C" stroke-width="0.175914"/>
<path fill-rule="evenodd" clip-rule="evenodd" d="M35.4958 5.24791H33.6315V6.5383H35.3108V7.0276H33.6315V8.31799H35.4958V8.81847H33.1055V4.74902H35.4958V5.24791Z" fill="#12121C"/>
<path d="M35.4958 5.24791H33.6315V6.5383H35.3108V7.0276H33.6315V8.31799H35.4958V8.81847H33.1055V4.74902H35.4958V5.24791Z" stroke="#12121C" stroke-width="0.175914"/>
<path fill-rule="evenodd" clip-rule="evenodd" d="M37.7126 8.81701H37.1866V5.24805H36.043V4.74756H38.8563V5.24805H37.7126V8.81701Z" fill="#12121C"/>
<path d="M37.7126 8.81701H37.1866V5.24805H36.043V4.74756H38.8563V5.24805H37.7126V8.81701Z" stroke="#12121C" stroke-width="0.175914"/>
<path fill-rule="evenodd" clip-rule="evenodd" d="M40.8906 8.81701H41.4166V4.74756H40.8906V8.81701Z" fill="#12121C"/>
<path d="M40.8906 8.81701H41.4166V4.74756H40.8906V8.81701Z" stroke="#12121C" stroke-width="0.175914"/>
<path fill-rule="evenodd" clip-rule="evenodd" d="M43.7497 8.81701H43.2238V5.24805H42.0801V4.74756H44.8934V5.24805H43.7497V8.81701Z" fill="#12121C"/>
<path d="M43.7497 8.81701H43.2238V5.24805H42.0801V4.74756H44.8934V5.24805H43.7497V8.81701Z" stroke="#12121C" stroke-width="0.175914"/>
<path fill-rule="evenodd" clip-rule="evenodd" d="M47.6041 7.95019C47.9065 8.2556 48.2781 8.4075 48.7172 8.4075C49.1548 8.4075 49.5247 8.2556 49.8287 7.95019C50.1312 7.64478 50.284 7.25623 50.284 6.78292C50.284 6.30962 50.1312 5.91946 49.8287 5.61565C49.5263 5.31024 49.1548 5.15834 48.7172 5.15834C48.2781 5.15834 47.9082 5.31184 47.6057 5.61565C47.3033 5.91946 47.1505 6.30962 47.1505 6.78292C47.1505 7.25623 47.3017 7.64478 47.6041 7.95019ZM50.218 8.29078C49.8143 8.70332 49.3156 8.90799 48.7172 8.90799C48.1189 8.90799 47.6186 8.70332 47.2165 8.29078C46.8143 7.87983 46.6133 7.37775 46.6133 6.78292C46.6133 6.18809 46.8143 5.68441 47.2165 5.27347C47.6186 4.86252 48.1173 4.65625 48.7156 4.65625C49.3108 4.65625 49.8094 4.86252 50.2132 5.27506C50.6169 5.6876 50.818 6.18969 50.818 6.78132C50.8212 7.37775 50.6201 7.87983 50.218 8.29078Z" fill="#12121C"/>
<path d="M47.6041 7.95019C47.9065 8.2556 48.2781 8.4075 48.7172 8.4075C49.1548 8.4075 49.5247 8.2556 49.8287 7.95019C50.1312 7.64478 50.284 7.25623 50.284 6.78292C50.284 6.30962 50.1312 5.91946 49.8287 5.61565C49.5263 5.31024 49.1548 5.15834 48.7172 5.15834C48.2781 5.15834 47.9082 5.31184 47.6057 5.61565C47.3033 5.91946 47.1505 6.30962 47.1505 6.78292C47.1505 7.25623 47.3017 7.64478 47.6041 7.95019ZM50.218 8.29078C49.8143 8.70332 49.3156 8.90799 48.7172 8.90799C48.1189 8.90799 47.6186 8.70332 47.2165 8.29078C46.8143 7.87983 46.6133 7.37775 46.6133 6.78292C46.6133 6.18809 46.8143 5.68441 47.2165 5.27347C47.6186 4.86252 48.1173 4.65625 48.7156 4.65625C49.3108 4.65625 49.8094 4.86252 50.2132 5.27506C50.6169 5.6876 50.818 6.18969 50.818 6.78132C50.8212 7.37775 50.6201 7.87983 50.218 8.29078Z" stroke="#12121C" stroke-width="0.175914"/>
<path fill-rule="evenodd" clip-rule="evenodd" d="M51.5605 8.81701V4.74756H52.2007L54.1905 7.91198H54.213L54.1905 7.12847V4.74756H54.7181V8.81701H54.168L52.0865 5.49749H52.064L52.0865 6.2826V8.81701H51.5605Z" fill="#12121C"/>
<path d="M51.5605 8.81701V4.74756H52.2007L54.1905 7.91198H54.213L54.1905 7.12847V4.74756H54.7181V8.81701H54.168L52.0865 5.49749H52.064L52.0865 6.2826V8.81701H51.5605Z" stroke="#12121C" stroke-width="0.175914"/>
<path d="M72.536 12.2307H71.2637V20.7086H72.536V12.2307Z" fill="#12121C"/>
<path fill-rule="evenodd" clip-rule="evenodd" d="M82.7295 15.2849L81.2706 18.961H81.2256L79.7119 15.2849H78.3398L80.6111 20.4209L79.3162 23.2799H80.6433L84.1434 15.2849H82.7295Z" fill="#12121C"/>
<path fill-rule="evenodd" clip-rule="evenodd" d="M75.664 15.0994C74.7423 15.0994 73.7884 15.5023 73.3927 16.3978L74.5219 16.8663C74.7632 16.3978 75.2136 16.2442 75.6849 16.2442C76.3428 16.2442 77.0119 16.6376 77.0232 17.3348V17.4227C76.7915 17.2916 76.2993 17.0965 75.6961 17.0965C74.4769 17.0965 73.2383 17.7617 73.2383 19.0041C73.2383 20.1394 74.2372 20.8702 75.3567 20.8702C76.2109 20.8702 76.6838 20.488 76.9797 20.0403H77.0232V20.6943H78.2521V17.4435C78.2537 15.9388 77.1229 15.0994 75.664 15.0994Z" fill="#12121C"/>
<path fill-rule="evenodd" clip-rule="evenodd" d="M67.7646 12.2307H64.7148V20.7086H65.9872V17.4962H67.7646C69.1753 17.4962 70.5619 16.4809 70.5619 14.8627C70.5619 13.2461 69.1753 12.2307 67.7646 12.2307Z" fill="#12121C"/>
<path fill-rule="evenodd" clip-rule="evenodd" d="M52.5913 15.7581H52.5479C52.2616 15.4191 51.7115 15.1121 51.0214 15.1121C49.5705 15.1121 48.2402 16.3801 48.2402 18.0078C48.2402 19.6244 49.5705 20.8812 51.0214 20.8812C51.7131 20.8812 52.2632 20.5758 52.5479 20.2273H52.5913V20.6414C52.5913 21.7447 51.9978 22.3347 51.0423 22.3347C50.2622 22.3347 49.778 21.7783 49.5801 21.3082L48.4703 21.7671C48.7887 22.5314 49.6348 23.4716 51.0423 23.4716C52.5382 23.4716 53.8009 22.597 53.8009 20.4671V15.2879H52.5913V15.7581Z" fill="#12121C"/>
<path fill-rule="evenodd" clip-rule="evenodd" d="M54.6816 20.7086H55.9572V12.2307H54.6816V20.7086Z" fill="#12121C"/>
<path fill-rule="evenodd" clip-rule="evenodd" d="M61.792 16.9494C61.5507 16.305 60.814 15.1138 59.3084 15.1138C57.8141 15.1138 56.5723 16.2842 56.5723 17.9984C56.5723 19.615 57.8028 20.883 59.4516 20.883C60.7818 20.883 61.5507 20.0739 61.8708 19.6038L60.8815 18.9482C60.5502 19.4295 60.1014 19.7461 59.4516 19.7461C58.8033 19.7461 58.3417 19.4503 58.0457 18.8714L61.9255 17.2756L61.792 16.9494Z" fill="#12121C"/>
<path fill-rule="evenodd" clip-rule="evenodd" d="M30.882 15.9996V17.2228H33.8288C33.7404 17.912 33.5087 18.4141 33.1581 18.7626C32.7286 19.1896 32.0578 19.6581 30.882 19.6581C29.0676 19.6581 27.6505 18.2046 27.6505 16.4025C27.6505 14.6004 29.0692 13.147 30.882 13.147C31.86 13.147 32.5742 13.5291 33.1018 14.02L33.9704 13.1565C33.2337 12.4578 32.2557 11.9221 30.882 11.9221C28.3984 11.9221 26.3105 13.9337 26.3105 16.4025C26.3105 18.8714 28.3984 20.8813 30.882 20.8813C32.2235 20.8813 33.2337 20.4448 34.0251 19.6245C34.8374 18.8154 35.0915 17.6801 35.0915 16.7623C35.0915 16.4793 35.0706 16.217 35.0256 15.998L30.882 15.9996Z" fill="#12121C"/>
<path fill-rule="evenodd" clip-rule="evenodd" d="M15.2189 13.5626L6.95589 5.3645C6.86098 5.55478 6.80469 5.78824 6.80469 6.07126V21.0571C6.80469 21.3433 6.86259 21.5816 6.96071 21.7718L15.2189 13.5626Z" fill="#12121C"/>
<path fill-rule="evenodd" clip-rule="evenodd" d="M6.98047 5.31169C6.98369 5.3037 6.98851 5.2973 6.99334 5.28931C6.98851 5.2973 6.98529 5.3053 6.98047 5.31169Z" fill="#12121C"/>
<path fill-rule="evenodd" clip-rule="evenodd" d="M15.6958 13.0878L18.2405 10.5582L8.53785 5.0784C8.26279 4.9217 8.00382 4.84814 7.77219 4.84814C7.65477 4.84814 7.54699 4.86893 7.44727 4.90571L15.6958 13.0878Z" fill="#12121C"/>
<path fill-rule="evenodd" clip-rule="evenodd" d="M21.8305 12.5856L18.8563 10.905L16.1797 13.5658L18.8563 16.2201L21.8305 14.5396C22.7827 14.0039 22.7827 13.1228 21.8305 12.5856Z" fill="#12121C"/>
<path fill-rule="evenodd" clip-rule="evenodd" d="M15.7035 14.0422L7.47266 22.2275C7.76702 22.3266 8.13537 22.2787 8.53912 22.0516L18.2482 16.5655L15.7035 14.0422Z" fill="#12121C"/>
<path fill-rule="evenodd" clip-rule="evenodd" d="M6.9707 21.7976C7.00931 21.868 7.05274 21.9319 7.1026 21.9863C7.05274 21.9287 7.00609 21.868 6.9707 21.7976Z" fill="#12121C"/>
<path d="M38.4383 16.2505C37.56 16.2505 36.8008 16.9604 36.8008 17.9982C36.8008 19.0248 37.5584 19.7475 38.4383 19.7475C39.3181 19.7475 40.0758 19.0263 40.0758 17.9982C40.0758 16.9604 39.3181 16.2505 38.4383 16.2505Z" fill="white"/>
<path d="M46.4312 17.9982C46.4312 16.9604 45.6736 16.2505 44.7937 16.2505C43.9155 16.2505 43.1562 16.9604 43.1562 17.9982C43.1562 19.0248 43.9139 19.7475 44.7937 19.7475C45.6736 19.7475 46.4312 19.0248 46.4312 17.9982Z" fill="white"/>
<path fill-rule="evenodd" clip-rule="evenodd" d="M51.1306 19.7476C50.2523 19.7476 49.5156 19.0153 49.5156 18.0111C49.5156 16.9941 50.2523 16.2522 51.1322 16.2522C51.9992 16.2522 52.6812 16.9957 52.6812 18.0111C52.6796 19.0153 51.9976 19.746 51.1306 19.7476Z" fill="white"/>
<path fill-rule="evenodd" clip-rule="evenodd" d="M67.7975 16.3163H65.9863V13.4109H67.7975C68.7498 13.4109 69.2903 14.1944 69.2903 14.8628C69.2887 15.52 68.7482 16.3163 67.7975 16.3163Z" fill="white"/>
<path fill-rule="evenodd" clip-rule="evenodd" d="M57.8348 17.9119C57.8027 16.7974 58.7034 16.2297 59.3533 16.2297C59.8584 16.2297 60.2878 16.4824 60.4294 16.8422L57.8348 17.9119Z" fill="white"/>
<path fill-rule="evenodd" clip-rule="evenodd" d="M75.5087 19.7462C75.0921 19.7462 74.5098 19.5383 74.5098 19.0266C74.5098 18.3726 75.2336 18.1216 75.8593 18.1216C76.4175 18.1216 76.6829 18.2415 77.0223 18.4046C76.9242 19.1897 76.2438 19.7462 75.5087 19.7462Z" fill="white"/>
</svg>
