<svg width="25" height="25" viewBox="0 0 25 25" fill="none" xmlns="http://www.w3.org/2000/svg">
<path d="M15.75 22.8252H9.75C4.32 22.8252 2 20.5052 2 15.0752V9.0752C2 3.6452 4.32 1.3252 9.75 1.3252H15.75C21.18 1.3252 23.5 3.6452 23.5 9.0752V15.0752C23.5 20.5052 21.18 22.8252 15.75 22.8252ZM9.75 2.8252C5.14 2.8252 3.5 4.4652 3.5 9.0752V15.0752C3.5 19.6852 5.14 21.3252 9.75 21.3252H15.75C20.36 21.3252 22 19.6852 22 15.0752V9.0752C22 4.4652 20.36 2.8252 15.75 2.8252H9.75Z" fill="#767676"/>
<path d="M12.75 16.3252C10.41 16.3252 8.5 14.4152 8.5 12.0752C8.5 9.7352 10.41 7.8252 12.75 7.8252C15.09 7.8252 17 9.7352 17 12.0752C17 14.4152 15.09 16.3252 12.75 16.3252ZM12.75 9.3252C11.23 9.3252 10 10.5552 10 12.0752C10 13.5952 11.23 14.8252 12.75 14.8252C14.27 14.8252 15.5 13.5952 15.5 12.0752C15.5 10.5552 14.27 9.3252 12.75 9.3252Z" fill="#767676"/>
<path d="M17.75 7.5751C17.62 7.5751 17.49 7.5451 17.37 7.4951C17.25 7.4451 17.14 7.3751 17.04 7.2851C16.95 7.1851 16.87 7.0751 16.82 6.9551C16.77 6.8351 16.75 6.7051 16.75 6.5751C16.75 6.4451 16.77 6.3151 16.82 6.1951C16.88 6.0651 16.95 5.9651 17.04 5.8651C17.09 5.8251 17.14 5.7751 17.19 5.7451C17.25 5.7051 17.31 5.6751 17.37 5.6551C17.43 5.6251 17.49 5.6051 17.56 5.5951C17.88 5.5251 18.22 5.6351 18.46 5.8651C18.55 5.9651 18.62 6.0651 18.67 6.1951C18.72 6.3151 18.75 6.4451 18.75 6.5751C18.75 6.7051 18.72 6.8351 18.67 6.9551C18.62 7.0751 18.55 7.1851 18.46 7.2851C18.36 7.3751 18.25 7.4451 18.13 7.4951C18.01 7.5451 17.88 7.5751 17.75 7.5751Z" fill="#767676"/>
</svg>
