<svg width="25" height="25" viewBox="0 0 25 25" fill="none" xmlns="http://www.w3.org/2000/svg">
<path d="M18.5 22.9451H8C5.10515 22.9451 2.75 20.5899 2.75 17.6951V7.19507C2.75 4.30022 5.10515 1.94507 8 1.94507H18.5C21.3948 1.94507 23.75 4.30022 23.75 7.19507V17.6951C23.75 20.5899 21.3948 22.9451 18.5 22.9451ZM8 3.69507C6.0701 3.69507 4.5 5.26517 4.5 7.19507V17.6951C4.5 19.625 6.0701 21.1951 8 21.1951H18.5C20.4299 21.1951 22 19.625 22 17.6951V7.19507C22 5.26517 20.4299 3.69507 18.5 3.69507H8Z" fill="#767676"/>
<path d="M9.75 10.5073V15.8251C9.75 16.2393 9.41415 16.5751 9 16.5751C8.58585 16.5751 8.25 16.2393 8.25 15.8251V10.5073C8.25 10.0932 8.58585 9.75735 9 9.75735C9.41415 9.75735 9.75 10.0932 9.75 10.5073ZM9 7.27515C8.58585 7.27515 8.25 7.611 8.25 8.02515V8.17515C8.25 8.5893 8.58585 8.92515 9 8.92515C9.41415 8.92515 9.75 8.5893 9.75 8.17515V8.02515C9.75 7.611 9.41415 7.27515 9 7.27515ZM15.2279 9.85785C14.4782 9.71055 13.5526 9.9063 12.7464 10.5409C12.7275 10.1436 12.402 9.82635 12 9.82635C11.5859 9.82635 11.25 10.1622 11.25 10.5763V15.8251C11.25 16.2393 11.5859 16.5751 12 16.5751C12.4142 16.5751 12.75 16.2393 12.75 15.8251V13.0272C12.7587 13.0099 12.7696 12.9945 12.7771 12.9762C13.2918 11.7174 14.2539 11.1949 14.9386 11.3295C15.4543 11.4307 15.75 11.898 15.75 12.6112V15.8251C15.75 16.2393 16.0858 16.5751 16.5 16.5751C16.9142 16.5751 17.25 16.2393 17.25 15.8251V12.6114C17.25 11.1801 16.4562 10.0992 15.2279 9.85785Z" fill="#767676"/>
</svg>
