<svg width="25" height="25" viewBox="0 0 25 25" fill="none" xmlns="http://www.w3.org/2000/svg">
<path d="M13.0801 19.575C12.43 19.575 11.7609 19.5695 11.0638 19.5585H11.062C7.21106 19.4886 5.99846 19.4267 5.16461 19.2573C4.49021 19.1228 3.89966 18.8168 3.45941 18.3729C3.11126 18.0293 2.84336 17.5349 2.64596 16.8668C2.48291 16.3304 2.42516 15.8673 2.35046 14.969C2.35001 14.9624 2.34941 14.9558 2.34911 14.9492C2.21666 12.5976 2.21696 10.9278 2.35001 9.18485C2.35061 9.17555 2.35166 9.16625 2.35271 9.15695C2.36381 9.06005 2.37431 8.9612 2.38496 8.86145C2.49611 7.8197 2.63441 6.5231 3.56231 5.67515C4.04486 5.23805 4.60556 4.95905 5.23121 4.8437C6.16256 4.6694 9.80426 4.5752 12.7567 4.5752C15.7087 4.5752 19.3503 4.6694 20.2843 4.844C21.0705 4.9895 21.81 5.4263 22.2613 6.01235C22.2741 6.02885 22.2861 6.04595 22.2975 6.0635C23.0566 7.24055 23.1388 8.60645 23.2048 9.704C23.2114 9.81455 23.218 9.9227 23.2251 10.028C23.2578 10.5875 23.2578 13.5617 23.2255 14.1146C23.1123 15.8232 23.0166 16.563 22.7046 17.3231C22.5103 17.8062 22.3194 18.104 22.0018 18.4166C21.5134 18.8883 20.9061 19.1945 20.2405 19.3071C20.2174 19.311 20.1942 19.3137 20.1709 19.3155C17.7798 19.4925 15.5718 19.575 13.0801 19.575ZM11.0881 18.0585C14.3947 18.1109 17.0697 18.0401 20.0221 17.8221C20.3758 17.7561 20.6976 17.5907 20.9547 17.3423C21.0994 17.1996 21.1834 17.0852 21.3148 16.7582C21.535 16.2216 21.6196 15.6599 21.7282 14.0208C21.7567 13.5339 21.7567 10.6145 21.7279 10.1219C21.721 10.0197 21.7143 9.908 21.7074 9.79385C21.6496 8.83385 21.5842 7.74725 21.0546 6.9044C20.826 6.62285 20.4196 6.39425 20.0098 6.31835C19.3801 6.20105 16.3162 6.0752 12.7567 6.0752C9.08066 6.0752 6.13046 6.2015 5.50526 6.3185C5.15081 6.3839 4.84601 6.5363 4.57166 6.78485C4.06556 7.2473 3.96941 8.1488 3.87656 9.0206C3.86606 9.1193 3.85556 9.21695 3.84476 9.31295C3.71831 10.9779 3.71876 12.5856 3.84626 14.8547C3.91931 15.7326 3.96821 16.0587 4.08296 16.436C4.20476 16.8485 4.35491 17.1489 4.51886 17.3108C4.75376 17.5476 5.07761 17.7102 5.46071 17.7867C6.17306 17.9313 7.43501 17.9922 11.0881 18.0585Z" fill="#767676"/>
<path d="M15.9588 11.7188C14.0151 10.7086 12.3577 9.74827 10.4461 8.76937C10.1284 8.60677 9.75 8.83747 9.75 9.19447V15.0259C9.75 15.3865 10.134 15.6173 10.452 15.4472C12.2685 14.4757 14.7039 13.2148 15.9595 12.5672C16.3044 12.3893 16.3031 11.8978 15.9588 11.7188Z" fill="#767676"/>
</svg>
