<?xml version="1.0" encoding="UTF-8"?>
<svg width="37px" height="51px" viewBox="0 0 37 51" version="1.1" xmlns="http://www.w3.org/2000/svg" xmlns:xlink="http://www.w3.org/1999/xlink">
    <!-- Generator: Sketch 53.2 (72643) - https://sketchapp.com -->
    <title>atm-branch-icon</title>
    <desc>Created with Sketch.</desc>
    <g id="Dashboard" stroke="none" stroke-width="1" fill="none" fill-rule="evenodd">
        <g id="02" transform="translate(-999.000000, -514.000000)">
            <g id="atm-branch-icon" transform="translate(1000.000000, 515.000000)">
                <path d="M18,21.0653753 C15.4680612,21.0653753 13.4081633,19.028753 13.4081633,16.5254237 C13.4081633,14.0220944 15.4680612,11.9854722 18,11.9854722 C20.5319388,11.9854722 22.5918367,14.0220944 22.5918367,16.5254237 C22.5918367,19.028753 20.5319388,21.0653753 18,21.0653753 M18,10.1694915 C14.4560204,10.1694915 11.5714286,13.0214891 11.5714286,16.5254237 C11.5714286,20.0293584 14.4560204,22.8813559 18,22.8813559 C21.5439796,22.8813559 24.4285714,20.0293584 24.4285714,16.5254237 C24.4285714,13.0214891 21.5439796,10.1694915 18,10.1694915" id="Fill-1" fill="#F37435"></path>
                <path d="M30.3652672,28.5390436 L17.7015749,46.5281477 L5.018498,28.5108959 C0.218497996,22.216707 0.906190303,11.8765133 6.49080569,6.3840799 C9.48526723,3.43855932 13.466498,1.81598063 17.7015749,1.81598063 C21.9366518,1.81598063 25.9188057,3.43855932 28.9141903,6.3840799 C34.4988057,11.8765133 35.186498,22.216707 30.3652672,28.5390436 M30.2194211,5.1001816 C26.8760365,1.81144068 22.4295749,0 17.7015749,0 C12.9726518,0 8.52803646,1.81144068 5.18465184,5.1001816 C-1.0018097,11.1855327 -1.77073277,22.6352906 3.51942107,29.5723366 L17.7015749,49.7188257 L31.862498,29.6004843 C37.1748057,22.6352906 36.4058826,11.1855327 30.2194211,5.1001816" id="Fill-3" stroke="#6D3078" stroke-width="0.5" fill="#6D3078"></path>
            </g>
        </g>
    </g>
</svg>