<svg width="25" height="21" viewBox="0 0 25 21" fill="none" xmlns="http://www.w3.org/2000/svg">
    <mask id="rcu72r345a" maskUnits="userSpaceOnUse" x="-.908" y="-.908" width="26.244" height="22.206" fill="#000">
        <path fill="#fff" d="M-.908-.908h26.244v22.206H-.908z"/>
        <path d="M11.337.938c.792-.608 1.735-1.103 2.74-.678.995.421 1.316 1.436 1.454 2.434.141 1.023.14 2.431.14 4.182v6.638c0 1.75.002 3.16-.14 4.182-.138.998-.459 2.012-1.454 2.433-1.005.425-1.948-.069-2.74-.677-.81-.622-1.787-1.62-2.998-2.856l-.053-.054c-.622-.635-1.035-.943-1.453-1.116-.42-.173-.931-.247-1.823-.247h-.045c-.77 0-1.416 0-1.938-.054-.548-.057-1.056-.181-1.514-.493-.871-.595-1.205-1.466-1.332-2.266-.094-.597-.083-1.253-.074-1.78.002-.14.004-.272.004-.39 0-.12-.002-.252-.005-.392-.008-.528-.019-1.183.075-1.78.127-.8.46-1.67 1.332-2.266.458-.312.966-.435 1.514-.492.522-.055 1.167-.055 1.938-.055h.045c.892 0 1.403-.074 1.823-.248.418-.173.83-.48 1.453-1.115l.053-.054C9.55 2.558 10.527 1.561 11.337.938zm2.066.916c-.063-.026-.282-.105-1.013.456-.7.539-1.592 1.445-2.868 2.749-.679.692-1.287 1.197-2.028 1.503-.738.305-1.524.38-2.484.38-.827 0-1.382 0-1.804.044-.407.042-.594.116-.718.2-.335.23-.513.575-.597 1.108-.069.433-.062.88-.055 1.383a33.911 33.911 0 0 1 0 1.037c-.007.502-.014.948.055 1.382.084.532.262.878.597 1.107.124.084.311.158.718.2.422.044.977.046 1.804.046.96 0 1.746.073 2.484.379.741.306 1.35.81 2.028 1.504 1.276 1.303 2.168 2.21 2.868 2.748.73.561.95.483 1.013.456.071-.03.285-.148.414-1.077.123-.89.125-2.177.125-4.019V6.95c0-1.842-.002-3.13-.125-4.019-.129-.928-.343-1.047-.414-1.077zm7.74 1.936a.865.865 0 0 1 1.222.054c1.574 1.72 2.534 3.93 2.534 6.351s-.96 4.631-2.534 6.351a.865.865 0 1 1-1.276-1.168c1.311-1.432 2.08-3.235 2.08-5.183s-.769-3.751-2.08-5.183a.865.865 0 0 1 .053-1.222zm-3.401 2.257a.865.865 0 0 1 1.212.163 6.557 6.557 0 0 1 1.33 3.985c0 1.503-.495 2.89-1.33 3.984a.865.865 0 1 1-1.375-1.048 4.826 4.826 0 0 0 .976-2.936 4.825 4.825 0 0 0-.976-2.935.865.865 0 0 1 .163-1.213z"/>
    </mask>
    <path d="M11.337.938c.792-.608 1.735-1.103 2.74-.678.995.421 1.316 1.436 1.454 2.434.141 1.023.14 2.431.14 4.182v6.638c0 1.75.002 3.16-.14 4.182-.138.998-.459 2.012-1.454 2.433-1.005.425-1.948-.069-2.74-.677-.81-.622-1.787-1.62-2.998-2.856l-.053-.054c-.622-.635-1.035-.943-1.453-1.116-.42-.173-.931-.247-1.823-.247h-.045c-.77 0-1.416 0-1.938-.054-.548-.057-1.056-.181-1.514-.493-.871-.595-1.205-1.466-1.332-2.266-.094-.597-.083-1.253-.074-1.78.002-.14.004-.272.004-.39 0-.12-.002-.252-.005-.392-.008-.528-.019-1.183.075-1.78.127-.8.46-1.67 1.332-2.266.458-.312.966-.435 1.514-.492.522-.055 1.167-.055 1.938-.055h.045c.892 0 1.403-.074 1.823-.248.418-.173.83-.48 1.453-1.115l.053-.054C9.55 2.558 10.527 1.561 11.337.938zm2.066.916c-.063-.026-.282-.105-1.013.456-.7.539-1.592 1.445-2.868 2.749-.679.692-1.287 1.197-2.028 1.503-.738.305-1.524.38-2.484.38-.827 0-1.382 0-1.804.044-.407.042-.594.116-.718.2-.335.23-.513.575-.597 1.108-.069.433-.062.88-.055 1.383a33.911 33.911 0 0 1 0 1.037c-.007.502-.014.948.055 1.382.084.532.262.878.597 1.107.124.084.311.158.718.2.422.044.977.046 1.804.046.96 0 1.746.073 2.484.379.741.306 1.35.81 2.028 1.504 1.276 1.303 2.168 2.21 2.868 2.748.73.561.95.483 1.013.456.071-.03.285-.148.414-1.077.123-.89.125-2.177.125-4.019V6.95c0-1.842-.002-3.13-.125-4.019-.129-.928-.343-1.047-.414-1.077zm7.74 1.936a.865.865 0 0 1 1.222.054c1.574 1.72 2.534 3.93 2.534 6.351s-.96 4.631-2.534 6.351a.865.865 0 1 1-1.276-1.168c1.311-1.432 2.08-3.235 2.08-5.183s-.769-3.751-2.08-5.183a.865.865 0 0 1 .053-1.222zm-3.401 2.257a.865.865 0 0 1 1.212.163 6.557 6.557 0 0 1 1.33 3.985c0 1.503-.495 2.89-1.33 3.984a.865.865 0 1 1-1.375-1.048 4.826 4.826 0 0 0 .976-2.936 4.825 4.825 0 0 0-.976-2.935.865.865 0 0 1 .163-1.213z" fill="#F37435"/>
    <path d="m11.337.938-.062-.08.062.08zm2.74-.678.04-.093-.04.093zm1.454 2.434.1-.014-.1.014zm0 15.002.1.014-.1-.014zm-1.454 2.433.04.093-.04-.093zm-2.74-.677-.062.08.062-.08zm-2.998-2.856.072-.07-.072.07zm-.053-.054-.072.07.072-.07zm-1.453-1.116-.039.094.039-.094zM5.01 15.18v-.101.1zm-.045 0v.1-.1zm-1.938-.054-.01.1.01-.1zm-1.514-.493-.057.083.057-.083zM.181 12.366l-.1.015.1-.015zm-.074-1.78-.101-.002.1.002zm.004-.39h.101-.1zm-.005-.392.101-.002-.1.002zm.075-1.78-.1-.015.1.016zm1.332-2.266-.057-.083.057.083zm1.514-.492-.01-.1.01.1zm1.938-.055v.101-.1zm.045 0v.101-.1zm1.823-.248.039.093-.039-.093zm1.453-1.115-.072-.07.072.07zm.053-.054.072.07-.072-.07zm5.064-1.94-.04.093.04-.093zm-1.013.456-.061-.08.061.08zM9.522 5.06l.072.07-.072-.07zM7.494 6.562l.039.093-.039-.093zm-2.484.38v.1-.1zm-1.804.044-.01-.1.01.1zm-.718.2-.057-.083.057.084zm-.597 1.108-.1-.016.1.016zm-.055 1.383-.1.001.1-.001zm.005.518h.101-.1zm-.005.519-.1-.002.1.002zm.055 1.382-.1.015.1-.015zm.597 1.107-.057.083.057-.083zm.718.2-.01.101.01-.1zm1.804.046v-.101.101zm2.484.379-.038.093.038-.093zm2.028 1.504-.072.07.072-.07zm2.868 2.748.062-.08-.062.08zm1.013.456-.04-.093.04.093zm.414-1.077-.1-.014.1.014zm.125-4.019h.1-.1zm-.125-10.509.1-.013-.1.013zm7.325.859-.068-.074.068.074zm1.223.054.074-.068-.074.068zm2.534 6.351h.1-.1zm-2.534 6.351.074.068-.074-.068zm-1.223.054.069-.074-.069.074zm-.053-1.222-.074-.068.074.068zm2.08-5.183h.101-.1zm-2.08-5.183-.074.068.074-.068zm-3.347 1.035-.061-.08.06.08zm1.212.163.08-.061-.08.06zm1.33 3.985h.102-.101zm-1.33 3.984.08.062-.08-.062zm-1.212.164-.061.08.06-.08zm-.163-1.212-.08-.062.08.062zm.976-2.936h.1-.1zm-.976-2.935-.08.06.08-.06zM11.337.938l.061.08c.79-.606 1.69-1.066 2.64-.665l.039-.093.04-.093c-1.06-.448-2.046.08-2.842.691l.062.08zm2.74-.678-.04.093c.942.398 1.256 1.36 1.394 2.355l.1-.014.1-.014C15.492 1.68 15.166.611 14.116.167l-.04.093zm1.454 2.434-.1.014c.14 1.014.14 2.414.14 4.168h.202c0-1.747 0-3.165-.142-4.196l-.1.014zm.14 4.182h-.1v6.638h.202V6.876h-.101zm0 6.638h-.1c0 1.754 0 3.154-.14 4.169l.1.013.1.014c.143-1.031.142-2.448.142-4.196h-.101zm-.14 4.182-.1-.014c-.138.995-.452 1.956-1.393 2.354l.039.093.04.093c1.049-.444 1.375-1.51 1.514-2.512l-.1-.014zm-1.454 2.433-.04-.093c-.95.402-1.85-.058-2.639-.664l-.061.08-.062.08c.796.611 1.781 1.138 2.841.69l-.04-.093zm-2.74-.677.061-.08c-.803-.617-1.774-1.608-2.987-2.846l-.072.07-.072.071c1.209 1.234 2.191 2.237 3.008 2.865l.062-.08zm-2.998-2.856.072-.07-.053-.055-.072.071-.072.07.053.055.072-.07zm-.053-.054.072-.07c-.625-.639-1.05-.958-1.486-1.139l-.039.093-.039.094c.4.165.8.46 1.42 1.093l.072-.07zm-1.453-1.116.039-.093c-.44-.181-.966-.255-1.862-.255v.202c.888 0 1.383.074 1.784.24l.039-.094zM5.01 15.18v-.101h-.045v.202h.045v-.101zm-.045 0v-.101c-.773 0-1.412 0-1.927-.054l-.01.1-.011.101c.528.055 1.179.055 1.948.055v-.101zm-1.938-.054.01-.1c-.539-.057-1.029-.178-1.467-.477l-.057.084-.057.083c.477.326 1.005.452 1.56.51l.011-.1zm-1.514-.493.057-.084C.73 13.975.405 13.135.281 12.35l-.1.016-.1.015c.13.816.472 1.718 1.375 2.334l.057-.083zM.181 12.366l.1-.016C.19 11.763.2 11.117.207 10.587l-.1-.002-.101-.001c-.01.526-.02 1.19.076 1.797l.1-.015zm-.074-1.78.1.001c.003-.14.005-.272.005-.392H.01c0 .118-.002.248-.004.389l.1.002zm.004-.39h.101c0-.12-.002-.254-.005-.394l-.1.002-.101.001c.002.142.004.272.004.39h.101zm-.005-.392.101-.002C.2 9.273.19 8.627.281 8.04l-.1-.015-.1-.016c-.095.607-.084 1.27-.075 1.796l.1-.001zm.075-1.78.1.016C.405 7.256.73 6.415 1.57 5.842l-.057-.084-.057-.083C.553 6.291.211 7.193.082 8.01l.1.016zm1.332-2.266.057.084c.438-.299.928-.42 1.468-.476l-.01-.1-.011-.1c-.556.057-1.084.184-1.56.51l.056.082zm1.514-.492.01.1c.516-.054 1.155-.054 1.928-.054V5.11c-.769 0-1.42 0-1.948.055l.01.1zm1.938-.055v.101h.045V5.11h-.045v.101zm.045 0v.101c.896 0 1.423-.074 1.862-.256l-.039-.093-.039-.093c-.401.166-.896.24-1.784.24v.101zm1.823-.248.039.093c.437-.18.86-.499 1.486-1.137l-.072-.07-.072-.071c-.619.631-1.02.927-1.42 1.092l.039.093zm1.453-1.115.072.07.053-.053-.072-.071-.072-.07-.053.053.072.071zm.053-.054.072.07c1.213-1.238 2.184-2.229 2.987-2.846l-.061-.08-.062-.08c-.817.628-1.8 1.631-3.008 2.865l.072.071zm5.064-1.94.04-.093a.331.331 0 0 0-.116-.026.6.6 0 0 0-.21.03c-.17.053-.419.182-.788.465l.061.08.062.08c.36-.277.587-.39.725-.432a.403.403 0 0 1 .138-.022.13.13 0 0 1 .048.011l.04-.093zm-1.013.456-.061-.08c-.708.544-1.605 1.457-2.88 2.758l.073.07.072.071c1.279-1.305 2.164-2.206 2.858-2.738l-.062-.08zM9.522 5.06l-.072-.071c-.675.69-1.272 1.182-1.994 1.48l.038.094.039.093c.76-.314 1.38-.83 2.061-1.526l-.072-.07zM7.494 6.562l-.038-.093c-.72.297-1.49.371-2.446.371v.202c.964 0 1.766-.074 2.523-.387l-.039-.093zm-2.484.38V6.84c-.825 0-1.386 0-1.815.045l.01.1.011.101c.416-.043.964-.044 1.794-.044v-.1zm-1.804.044-.01-.1c-.416.042-.622.12-.765.217l.057.084.057.083c.104-.071.272-.142.671-.184l-.01-.1zm-.718.2-.057-.083c-.366.25-.553.627-.64 1.175l.1.016.1.015c.08-.516.25-.831.554-1.039l-.057-.083zm-.597 1.108-.1-.016c-.07.444-.063.9-.056 1.4l.101-.001.101-.002c-.007-.504-.014-.942.053-1.366l-.1-.015zm-.055 1.383-.1.001c.002.166.004.338.004.517h.202c0-.18-.002-.354-.005-.52l-.1.002zm.005.518h-.1c0 .18-.003.35-.006.517l.101.002.101.001c.003-.166.005-.34.005-.52h-.1zm-.005.519-.1-.002c-.008.5-.015.956.055 1.4l.1-.016.1-.016c-.068-.424-.061-.861-.054-1.365l-.1-.001zm.055 1.382-.1.015c.087.548.274.925.64 1.175l.057-.083.057-.084c-.304-.207-.473-.523-.555-1.04l-.1.017zm.597 1.107-.057.083c.143.098.35.175.764.218l.01-.1.011-.1c-.398-.042-.567-.114-.671-.185l-.057.084zm.718.2-.01.101c.428.045.989.046 1.814.046v-.202c-.83 0-1.378-.002-1.794-.045l-.01.1zm1.804.046v.1c.956 0 1.726.074 2.446.372l.038-.093.039-.094c-.757-.313-1.56-.386-2.523-.386v.101zm2.484.379-.038.093c.722.298 1.318.792 1.994 1.481l.072-.07.072-.071c-.682-.696-1.301-1.213-2.061-1.527l-.039.094zm2.028 1.504-.072.07c1.274 1.301 2.171 2.214 2.879 2.758l.061-.08.062-.08c-.694-.533-1.58-1.433-2.858-2.739l-.072.07zm2.868 2.748-.061.08c.37.284.618.413.788.465a.598.598 0 0 0 .21.03.328.328 0 0 0 .115-.026l-.04-.093-.039-.093a.13.13 0 0 1-.048.011.404.404 0 0 1-.138-.022c-.138-.042-.364-.155-.725-.432l-.062.08zm1.013.456.039.093c.058-.024.147-.078.236-.248.086-.164.174-.439.239-.908l-.1-.014-.1-.014c-.064.459-.147.708-.218.843-.068.129-.122.15-.136.155l.04.093zm.414-1.077.1.014c.124-.898.126-2.194.126-4.033h-.202c0 1.846-.002 3.124-.124 4.005l.1.014zm.125-4.019h.1V6.95h-.201v6.49h.1zm0-6.49h.1c0-1.838-.001-3.134-.125-4.032l-.1.013-.1.014c.122.881.124 2.16.124 4.005h.1zm-.125-4.019.1-.013c-.065-.47-.153-.745-.24-.909-.088-.17-.177-.223-.235-.248l-.04.093-.039.093c.014.006.068.026.136.156.07.135.154.383.218.842l.1-.014zm7.325.859.069.074a.764.764 0 0 1 1.08.048l.074-.068.074-.068a.966.966 0 0 0-1.365-.06l.068.074zm1.223.054-.075.068c1.56 1.703 2.508 3.89 2.508 6.283H25c0-2.449-.97-4.683-2.56-6.419l-.074.068zm2.534 6.351h-.1c0 2.394-.95 4.58-2.509 6.283l.075.068.074.068c1.59-1.736 2.56-3.97 2.56-6.419h-.1zm-2.534 6.351-.075-.068a.765.765 0 0 1-1.08.048l-.068.074-.068.075a.966.966 0 0 0 1.365-.06l-.074-.069zm-1.223.054.069-.074a.764.764 0 0 1-.047-1.08l-.075-.068-.074-.068a.966.966 0 0 0 .06 1.365l.067-.075zm-.053-1.222.075.068c1.326-1.448 2.106-3.275 2.106-5.25h-.202c0 1.92-.758 3.699-2.053 5.114l.074.068zm2.08-5.183h.101c0-1.976-.78-3.802-2.106-5.25l-.075.067-.074.068c1.295 1.415 2.053 3.194 2.053 5.115h.101zm-2.08-5.183.075-.068a.764.764 0 0 1 .047-1.08l-.069-.074-.068-.074a.966.966 0 0 0-.06 1.364l.075-.068zm-3.347 1.035.061.08a.764.764 0 0 1 1.071.144l.08-.061.08-.061a.966.966 0 0 0-1.353-.182l.06.08zm1.212.163-.08.061a6.456 6.456 0 0 1 1.31 3.924h.202a6.658 6.658 0 0 0-1.351-4.046l-.08.06zm1.33 3.985h-.1c0 1.48-.488 2.846-1.31 3.923l.08.061.08.062a6.656 6.656 0 0 0 1.352-4.046h-.101zm-1.33 3.984-.08-.06a.764.764 0 0 1-1.071.144l-.061.08-.061.08a.966.966 0 0 0 1.353-.182l-.08-.062zm-1.212.164.061-.08a.764.764 0 0 1-.144-1.071l-.08-.061-.08-.062a.966.966 0 0 0 .182 1.354l.06-.08zm-.163-1.212.08.06c.621-.813.997-1.855.997-2.996h-.201c-.001 1.097-.362 2.095-.956 2.874l.08.062zm.976-2.936h.1a4.926 4.926 0 0 0-.996-2.997l-.08.062-.08.06c.594.78.955 1.778.955 2.875h.101zm-.976-2.935.08-.062a.765.765 0 0 1 .144-1.07l-.061-.08-.062-.08A.966.966 0 0 0 17.5 7.32l.08-.061z" fill="#F37435" mask="url(#rcu72r345a)"/>
</svg>
