<?xml version="1.0" encoding="UTF-8"?>
<svg width="37px" height="25px" viewBox="0 0 37 25" version="1.1" xmlns="http://www.w3.org/2000/svg" xmlns:xlink="http://www.w3.org/1999/xlink">
    <!-- Generator: Sketch 63.1 (92452) - https://sketch.com -->
    <title>FASTag-01</title>
    <desc>Created with Sketch.</desc>
    <g id="IB_Login-&amp;-Registration" stroke="none" stroke-width="1" fill="none" fill-rule="evenodd">
        <g id="FASTag-01" fill-rule="nonzero">
            <g id="Group" transform="translate(17.000000, 9.000000)" fill="#F37435">
                <path d="M0.2,7.5 L0.2,13.3 C0.2,14.2 1,15 1.9,15 L3,15 C3.9,15 4.7,14.3 4.7,13.3 L4.7,12.5 L14.7,12.5 L14.7,13.3 C14.7,14.2 15.5,15 16.4,15 L17.5,15 C18.4,15 19.2,14.3 19.2,13.3 L19.2,7.6 C19.2,6.9 18.9,6.3 18.4,5.8 L17.8,5.3 L16.4,1.5 C16.2,0.8 15.5,0.4 14.8,0.4 L4.4,0.4 C3.7,0.4 3.1,0.8 2.8,1.5 L1.4,5.4 L1,5.8 C0.5,6.3 0.2,6.9 0.2,7.5 Z M16.7,5.2 L8.7,5.2 C8.5,4 7.6,3 6.4,2.9 C4.9,2.7 3.5,3.7 3.3,5.2 L2.4,5.2 L3.7,1.8 C3.8,1.5 4.2,1.2 4.5,1.2 L14.8,1.2 C15.2,1.2 15.5,1.4 15.6,1.8 L16.7,5.2 Z M5.6,3.7 C6.7,3.5 7.7,4.2 7.9,5.2 L4.1,5.2 C4.2,4.4 4.8,3.9 5.6,3.7 Z M15.4,12.5 L17.3,12.5 C17.6,12.5 17.9,12.4 18.2,12.3 L18.2,13.4 C18.2,13.9 17.8,14.3 17.3,14.3 L16.2,14.3 C15.7,14.3 15.3,13.9 15.3,13.4 L15.3,12.5 L15.4,12.5 Z M1,13.4 L1,12.3 C1.2,12.5 1.6,12.5 1.9,12.5 L3.8,12.5 L3.8,13.3 C3.8,13.8 3.4,14.2 2.9,14.2 L1.8,14.2 C1.4,14.2 1,13.8 1,13.4 L1,13.4 Z M1,10.9 L1,10.9 L1,7.6 C1,7.2 1.2,6.8 1.5,6.5 C1.5,6.5 1.5,6.5 1.5,6.5 L1.9,6.1 L17.1,6.1 L17.6,6.6 C17.6,6.6 17.6,6.6 17.6,6.6 C17.9,6.9 18.1,7.3 18.1,7.8 L18.1,11 C18.1,11.5 17.7,11.9 17.2,11.9 L1.9,11.9 C1.4,11.7 1,11.3 1,10.9 Z" id="Shape"></path>
                <path d="M13.4,8 L13.4,10.1 C13.4,10.3 13.6,10.5 13.8,10.5 L16.8,10.5 C17,10.5 17.2,10.3 17.2,10.1 L17.2,8 C17.2,7.8 17,7.6 16.8,7.6 L13.8,7.6 C13.5,7.6 13.4,7.8 13.4,8 Z M14.2,8.4 L16.4,8.4 L16.4,9.7 L14.2,9.7 L14.2,8.4 Z" id="Shape"></path>
                <path d="M2.1,8 L2.1,10.1 C2.1,10.3 2.3,10.5 2.5,10.5 L5.5,10.5 C5.7,10.5 5.9,10.3 5.9,10.1 L5.9,8 C5.9,7.8 5.7,7.6 5.5,7.6 L2.5,7.6 C2.3,7.6 2.1,7.8 2.1,8 Z M2.9,8.4 L5.1,8.4 L5.1,9.7 L2.9,9.7 L2.9,8.4 Z" id="Shape"></path>
                <path d="M7.3,9.7 C7.3,9.9 7.5,10.1 7.7,10.1 L11.6,10.1 C11.8,10.1 12,9.9 12,9.7 C12,9.5 11.8,9.3 11.6,9.3 L7.7,9.3 C7.5,9.3 7.3,9.5 7.3,9.7 Z" id="Path"></path>
                <path d="M7.3,8.5 C7.3,8.7 7.5,8.9 7.7,8.9 L11.6,8.9 C11.8,8.9 12,8.7 12,8.5 C12,8.3 11.8,8.1 11.6,8.1 L7.7,8.1 C7.5,8.1 7.3,8.2 7.3,8.5 Z" id="Path"></path>
            </g>
            <g id="Group" fill="#6D3078">
                <path d="M24.4,23.6 L23.6,23.6 C23.4,23.6 23.2,23.8 23.2,24 C23.2,24.2 23.4,24.4 23.6,24.4 L24.4,24.4 C24.6,24.4 24.8,24.2 24.8,24 C24.8,23.8 24.7,23.6 24.4,23.6 Z" id="Path"></path>
                <path d="M3.4,16.5 L9.2,16.5 C9.7,16.5 10,16.1 10,15.7 L10,5.4 C10,4.9 9.6,4.6 9.2,4.6 L3.4,4.6 C2.9,4.6 2.6,5 2.6,5.4 L2.6,15.7 C2.5,16.2 2.9,16.5 3.4,16.5 Z M7.1,15.7 L5.4,15.7 L5.4,14.9 C5.4,14.7 5.6,14.5 5.8,14.5 L6.6,14.5 C6.8,14.5 7,14.7 7,14.9 L7,15.7 L7.1,15.7 Z M3.4,5.4 L9.2,5.4 L9.2,15.7 L7.9,15.7 L7.9,14.9 C7.9,14.2 7.3,13.7 6.7,13.7 L5.9,13.7 C5.2,13.7 4.7,14.3 4.7,14.9 L4.7,15.7 L3.4,15.7 L3.4,5.4 Z" id="Shape"></path>
                <path d="M8.7,17.4 L3.7,17.4 C3.2,17.4 2.9,17.8 2.9,18.2 L2.9,21.9 C2.9,22.4 3.3,22.7 3.7,22.7 L8.7,22.7 C9.2,22.7 9.5,22.3 9.5,21.9 L9.5,18.2 C9.6,17.7 9.2,17.4 8.7,17.4 Z M3.8,21.9 L3.8,18.2 L8.8,18.2 L8.8,21.9 L3.8,21.9 L3.8,21.9 Z" id="Shape"></path>
                <path d="M7.5,19 L5,19 C4.8,19 4.6,19.2 4.6,19.4 C4.6,19.6 4.8,19.8 5,19.8 L7.5,19.8 C7.7,19.8 7.9,19.6 7.9,19.4 C7.9,19.2 7.7,19 7.5,19 Z" id="Path"></path>
                <path d="M7.5,20.3 L5,20.3 C4.8,20.3 4.6,20.5 4.6,20.7 C4.6,20.9 4.8,21.1 5,21.1 L7.5,21.1 C7.7,21.1 7.9,20.9 7.9,20.7 C7.9,20.4 7.7,20.3 7.5,20.3 Z" id="Path"></path>
                <path d="M24.8,6.3 C24.8,5.8 24.5,5.3 24.1,4.9 C23.7,4.6 23.1,4.5 22.6,4.7 L22.6,4.7 C22.6,4.7 22.6,4.7 22.6,4.7 C22.4,4.8 22.2,4.9 22,5.1 L20,7.1 L20,7.1 L17.5,9.6 L17.5,9.6 L15,12.1 L15,12.1 L11.6,15.5 C11.6,15.5 11.6,15.5 11.6,15.5 L11.6,3.2 C12.1,3 12.4,2.6 12.4,2 L12.4,0.8 C12.4,0.6 12.2,0.4 12,0.4 L0.5,0.4 C0.3,0.4 0.1,0.6 0.1,0.8 L0.1,2 C0.1,2.5 0.4,3 0.9,3.2 L0.9,23.6 L0.5,23.6 C0.3,23.6 0.1,23.8 0.1,24 C0.1,24.2 0.3,24.4 0.5,24.4 L22,24.4 C22.2,24.4 22.4,24.2 22.4,24 C22.4,23.8 22.2,23.6 22,23.6 L14.2,23.6 L14.2,17.8 L15.7,16.3 L15.7,16.3 L18.2,13.8 L18.2,13.8 L20.7,11.3 L20.7,11.3 L23.2,8.8 L23.2,8.8 L24.5,7.5 C24.7,7.2 24.8,6.7 24.8,6.3 Z M10.8,23.6 L1.7,23.6 L1.7,3.3 L10.8,3.3 L10.8,23.6 L10.8,23.6 Z M11.2,2.4 L1.3,2.4 C1.1,2.4 0.9,2.3 0.9,2 L0.9,1.2 L11.6,1.2 L11.6,2 C11.6,2.3 11.4,2.4 11.2,2.4 Z M13.3,23.6 L11.6,23.6 L11.6,17 C11.6,16.5 12,16.2 12.4,16.2 C12.9,16.2 13.2,16.6 13.2,17 L13.3,23.6 L13.3,23.6 Z M14.9,15.7 L14,16.6 C13.9,16 13.4,15.6 12.9,15.4 L14.9,13.4 L14.9,15.7 L14.9,15.7 Z M17.4,13.3 L15.7,15 L15.7,12.7 L17.4,11 L17.4,13.3 Z M19.9,10.8 L18.2,12.5 L18.2,10.2 L19.9,8.5 L19.9,10.8 Z M22.4,8.3 L20.7,10 L20.7,7.7 L22.4,6 L22.4,8.3 Z M23.8,6.9 L23.2,7.5 L23.2,5.5 C23.4,5.5 23.6,5.6 23.8,5.7 C24,5.9 24,6.1 24,6.3 C24,6.5 23.9,6.7 23.8,6.9 Z" id="Shape"></path>
                <path d="M12.8,17.2 C12.8,17.2 12.8,17.2 12.8,17.2 C12.7,17.1 12.7,17.1 12.7,17.1 C12.6,17 12.4,16.9 12.2,17 C12.1,17 12.1,17 12.1,17.1 C12.1,17.1 12.1,17.1 12.1,17.2 C12.1,17.2 12.1,17.2 12.1,17.3 C12.1,17.3 12.1,17.3 12.1,17.4 C12.1,17.4 12.1,17.5 12.1,17.5 C12.1,17.6 12.1,17.6 12.1,17.7 C12.1,17.8 12.1,17.8 12.2,17.8 C12.2,17.8 12.3,17.9 12.3,17.9 C12.3,17.9 12.4,17.9 12.5,17.9 C12.5,17.9 12.6,17.9 12.6,17.9 C12.6,17.9 12.7,17.9 12.7,17.9 C12.7,17.9 12.8,17.9 12.8,17.9 C12.8,17.9 12.8,17.9 12.9,17.9 C12.9,17.9 13,17.8 13,17.8 C13,17.8 13,17.7 13,17.6 C12.9,17.3 12.9,17.3 12.8,17.2 C12.9,17.3 12.8,17.2 12.8,17.2 Z" id="Path"></path>
            </g>
        </g>
    </g>
</svg>