<?xml version="1.0" encoding="UTF-8"?>
<svg width="31px" height="31px" viewBox="0 0 31 31" version="1.1" xmlns="http://www.w3.org/2000/svg" xmlns:xlink="http://www.w3.org/1999/xlink">
    <!-- Generator: Sketch 63.1 (92452) - https://sketch.com -->
    <title>ico-video</title>
    <desc>Created with Sketch.</desc>
    <g id="ico-video" stroke="none" stroke-width="1" fill="none" fill-rule="evenodd">
        <g id="Videos_icon" transform="translate(2.000000, 2.000000)" fill="#671773">
            <path d="M13.5,0 C20.9555382,0 27,6.04446178 27,13.5 C27,20.9555382 20.9555382,27 13.5,27 C6.04446178,27 0,20.9555382 0,13.5 C0,6.04446178 6.04446178,0 13.5,0 L13.5,0 Z M13.5,1.77964119 C7.02905616,1.77964119 1.77964119,7.02905616 1.77964119,13.5 C1.77964119,19.9709438 7.02905616,25.2203588 13.5,25.2203588 C19.9709438,25.2203588 25.2203588,19.9709438 25.2203588,13.5 C25.2203588,7.02905616 19.9709438,1.77964119 13.5,1.77964119 L13.5,1.77964119 Z" id="Shape" fill-rule="nonzero"></path>
            <path d="M19.6645692,14.0896281 L10.0968054,19.8928094 C9.61761859,20.1824512 9,19.851432 9,19.3031813 L9,7.69681866 C9,7.14856801 9.61761859,6.81754875 10.0968054,7.1071906 L19.6645692,12.9103719 C20.1118103,13.1793251 20.1118103,13.8206749 19.6645692,14.0896281 L19.6645692,14.0896281 Z" id="Path"></path>
        </g>
    </g>
</svg>