<?xml version="1.0" encoding="UTF-8"?>
<svg width="56px" height="56px" viewBox="0 0 56 56" version="1.1" xmlns="http://www.w3.org/2000/svg" xmlns:xlink="http://www.w3.org/1999/xlink">
    <!-- Generator: Sketch 63.1 (92452) - https://sketch.com -->
    <title>offers_iconib</title>
    <desc>Created with Sketch.</desc>
    <g id="offers_iconib" stroke="none" stroke-width="1" fill="none" fill-rule="evenodd">
        <g id="Offers" fill-rule="nonzero">
            <path d="M56.0000678,3.815 C56.0042657,2.79245313 55.6096407,1.83246875 54.8888593,1.1116875 C54.1680782,0.39090625 53.2062343,-0.0030625 52.1856562,0.000604437916 C51.1660625,0.004921875 50.2061875,0.4055625 49.4828907,1.12875 C49.1766407,1.435 48.6195937,2.0965 48.314875,2.46367187 C47.9948437,2.84921875 48.0477812,3.42125 48.4333282,3.74117187 C48.8187657,4.06120313 49.3907968,4.00826562 49.7108282,3.62271875 C50.1881407,3.04784375 50.5826562,2.59514063 50.7658593,2.41182813 C51.1484532,2.02934375 51.6552968,1.817375 52.1932032,1.81507813 C52.1961563,1.81507813 52.1988907,1.81507813 52.2018437,1.81507813 C52.733625,1.81507813 53.2320468,2.02070313 53.6058907,2.39465625 C53.9818125,2.77057813 54.1877657,3.27228125 54.1854687,3.80734375 C54.1831718,4.34514063 53.9712032,4.85198437 53.5887187,5.2346875 C53.2462657,5.57714062 52.0691718,6.510875 50.3827188,7.68895313 C49.3851093,5.98335938 47.5349218,4.834375 45.420375,4.834375 L32.13525,4.834375 C30.3419375,4.834375 28.6560313,5.53273437 27.3878282,6.80071875 L0.832671875,33.3562032 C0.29575,33.893125 0,34.6070157 0,35.3662968 C0,36.1255782 0.29575,36.8395782 0.832671875,37.3763907 L18.624375,55.1680937 C19.1786875,55.7222968 19.9064687,55.9993437 20.6344687,55.9993437 C21.3624688,55.9993437 22.0904688,55.7221875 22.6445625,55.1680937 L49.1999375,28.6128282 C50.4679218,27.3447343 51.1662812,25.6588282 51.1662812,23.8654062 L51.1662812,10.5803906 C51.1662812,10.1882813 51.1265782,9.80546875 51.0513282,9.43523437 C52.9709687,8.1143125 54.3801562,7.00929688 54.8716875,6.51776562 C55.5950937,5.79457812 55.9957343,4.83470312 56.0000678,3.815 Z M49.3518593,23.8654062 C49.3518593,25.1740782 48.8421718,26.4044375 47.9169687,27.3296407 L21.3615938,53.885125 C20.9608438,54.2859843 20.3083125,54.2859843 19.9074532,53.885125 L2.11575,36.0934218 C1.92160938,35.8992813 1.81453125,35.6410468 1.81453125,35.3662968 C1.81453125,35.0915468 1.9215,34.8334218 2.11575,34.6392812 L28.6710157,8.08401562 C29.5964375,7.15870312 30.8266875,6.649125 32.13525,6.649125 L45.4202657,6.649125 C46.9121407,6.649125 48.2126093,7.48442187 48.8784843,8.71182812 C47.8068282,9.42145312 46.606875,10.1760313 45.3338593,10.9180313 C45.2941563,10.8745 45.2535782,10.8314063 45.2114687,10.7892969 C43.7257187,9.30354687 41.3083125,9.30354687 39.8225625,10.7892969 C38.3368125,12.2750469 38.3368125,14.6924532 39.8225625,16.1782032 C40.5654375,16.9210782 41.5412812,17.2924062 42.5170157,17.2924062 C43.49275,17.2924062 44.4685937,16.9210782 45.2114687,16.1782032 C46.2031718,15.1865 46.5318438,13.7800469 46.1997812,12.5122813 C47.3069843,11.8677344 48.3702188,11.2089688 49.3518593,10.5716406 C49.3518593,10.5747031 49.3518593,10.5775469 49.3518593,10.5805 L49.3518593,23.8654062 L49.3518593,23.8654062 Z M41.7067657,13.8913906 C41.866125,14.20825 42.1859375,14.391125 42.518,14.391125 C42.6550468,14.391125 42.7942813,14.3599532 42.9250937,14.2941093 C43.456875,14.0265782 43.9867968,13.7483281 44.5114688,13.4632969 C44.5167188,13.9811875 44.323125,14.5007187 43.9287188,14.895125 C43.1504063,15.6733282 41.8842813,15.6733282 41.1059688,14.895125 C40.3277657,14.1168125 40.3277657,12.8506875 41.1059688,12.072375 C41.495125,11.6832188 42.0062343,11.48875 42.5173438,11.48875 C42.9220313,11.48875 43.3255157,11.6127813 43.6697188,11.8565781 C43.1562032,12.1357031 42.6350313,12.4090313 42.1097032,12.6733906 C41.6618125,12.898375 41.4814532,13.4438281 41.7067657,13.8913906 Z" id="Shape" fill="#6D3078"></path>
            <path d="M27.0333438,18.4802187 C26.5322968,18.4802187 26.1260782,18.8863282 26.1260782,19.3874843 L26.1260782,38.5476875 C26.1260782,39.0487343 26.5322968,39.4549532 27.0333438,39.4549532 C27.5343907,39.4549532 27.9406093,39.0487343 27.9406093,38.5476875 L27.9406093,19.3874843 C27.9406093,18.8863282 27.5343907,18.4802187 27.0333438,18.4802187 Z" id="Path" fill="#F37435"></path>
            <path d="M22.8846407,26.2732968 C21.399,24.7873282 18.9814843,24.7874375 17.4959532,26.2731875 C16.0102032,27.7589375 16.0102032,30.1763438 17.4959532,31.6620937 C18.2389375,32.4050782 19.2145625,32.7764062 20.1904063,32.7762969 C21.1660312,32.7762969 22.1419843,32.40475 22.88475,31.6620937 C23.6045468,30.9422968 24.0009218,29.9854843 24.0009218,28.9676407 C24.0009218,27.9497968 23.6044375,26.992875 22.8846407,26.2732968 Z M21.6016718,30.3789063 C20.8233593,31.1572187 19.5572343,31.1571093 18.7790313,30.3789063 C18.0008282,29.6005938 18.0008282,28.3344688 18.7790313,27.5561563 C19.1681875,27.167 19.6792968,26.9725313 20.1904063,26.9725313 C20.7015157,26.9725313 21.212625,27.167 21.6017812,27.5561563 C21.9787968,27.9331718 22.1863907,28.4343282 22.1863907,28.9675313 C22.1862813,29.5007343 21.9786875,30.0018907 21.6016718,30.3789063 Z" id="Shape" fill="#F37435"></path>
            <path d="M36.570625,26.2731875 C35.084875,24.7873282 32.6673593,24.7874375 31.1819375,26.2731875 C29.6961875,27.7589375 29.6961875,30.1763437 31.1819375,31.6620937 C31.9248125,32.4049687 32.9005468,32.7762968 33.8763907,32.7762968 C34.852125,32.7762968 35.8279687,32.4049688 36.5707343,31.6620937 C38.056375,30.1763438 38.056375,27.7589375 36.570625,26.2731875 Z M35.2875468,30.3789063 C34.5092343,31.1572187 33.2431093,31.1571093 32.4649062,30.3789063 C31.6867032,29.6005938 31.6867032,28.3344687 32.4649062,27.5561563 C32.8540625,27.167 33.3651718,26.9725312 33.8762812,26.9725312 C34.3873907,26.9725312 34.8985,27.167 35.2876562,27.5561563 C36.0658593,28.3344687 36.0658593,29.6005938 35.2875468,30.3789063 Z" id="Shape" fill="#F37435"></path>
        </g>
    </g>
</svg>