<?xml version="1.0" encoding="UTF-8"?>
<svg width="31px" height="52px" viewBox="0 0 31 52" version="1.1" xmlns="http://www.w3.org/2000/svg" xmlns:xlink="http://www.w3.org/1999/xlink">
    <!-- Generator: Sketch 63.1 (92452) - https://sketch.com -->
    <title>video</title>
    <desc>Created with Sketch.</desc>
    <g id="video" stroke="none" stroke-width="1" fill="none" fill-rule="evenodd">
        <g id="Video-Banking" fill-rule="nonzero">
            <g id="Group">
                <g fill="#671773">
                    <path d="M26.2292512,0.0185714286 L4.76205311,0.0185714286 C2.17563116,0.0185714286 0.0717583893,2.10579365 0.0717583893,4.67174603 L0.0717583893,47.2642857 C0.0717583893,49.8302381 2.17563116,51.9174603 4.76205311,51.9174603 L26.2282113,51.9174603 C28.8146332,51.9174603 30.9185064,49.8302381 30.9185064,47.2642857 L30.9185064,4.67277778 C30.919546,2.1068254 28.8156732,0.0185714286 26.2292512,0.0185714286 Z M2.74553837,8.87095238 L28.246806,8.87095238 L28.246806,40.4588889 L2.74553837,40.4588889 L2.74553837,8.87095238 Z M4.76205311,2.67119048 L26.2282113,2.67119048 C27.3409863,2.67119048 28.245766,3.56880952 28.245766,4.67277778 L28.245766,6.21936508 L2.74553837,6.21936508 L2.74553837,4.67277778 C2.74553837,3.56880952 3.65031806,2.67119048 4.76205311,2.67119048 Z M26.2292512,49.2669048 L4.76205311,49.2669048 C3.64927809,49.2669048 2.7444984,48.3692857 2.7444984,47.2653175 L2.7444984,43.1115079 L28.245766,43.1115079 L28.245766,47.2653175 C28.245766,48.368254 27.3409863,49.2669048 26.2292512,49.2669048 Z" id="Shape"></path>
                    <path d="M15.4956522,44.126746 C14.2185608,44.126746 13.1765042,45.1605556 13.1765042,46.4275397 C13.1765042,47.6945238 14.2185608,48.7283333 15.4956522,48.7283333 C16.7727435,48.7283333 17.8148001,47.6945238 17.8148001,46.4275397 C17.8148001,45.1605556 16.7727435,44.126746 15.4956522,44.126746 Z" id="Path"></path>
                    <path d="M10.1345725,5.11126984 L20.8567318,5.11126984 C21.2789624,5.11126984 21.6200747,4.7718254 21.6200747,4.35396825 C21.6200747,3.93507937 21.2779224,3.59666667 20.8567318,3.59666667 L10.1345725,3.59666667 C9.71234199,3.59666667 9.37122728,3.93611111 9.37122728,4.35396825 C9.37018967,4.7718254 9.71234199,5.11126984 10.1345725,5.11126984 Z" id="Path"></path>
                </g>
                <g transform="translate(6.031865, 15.476190)" fill="#F37021" id="Shape">
                    <path d="M15.9522019,11.3553968 C14.211281,10.6589683 11.9066927,10.2761905 9.46378757,10.2761905 C7.0208824,10.2761905 4.71629413,10.6589683 2.97537321,11.3553968 C1.0961354,12.1065079 0.060318646,13.1588889 0.060318646,14.3196032 L0.060318646,17.8863492 C0.060318646,18.1494444 0.275593814,18.3630159 0.540787861,18.3630159 L18.3867873,18.3630159 C18.6519813,18.3630159 18.8672565,18.1494444 18.8672565,17.8863492 L18.8672565,14.3196032 C18.8672565,13.1588889 17.8314397,12.1065079 15.9522019,11.3553968 Z M17.9052781,17.4086508 L1.02125708,17.4086508 L1.02125708,14.3196032 C1.02125708,12.8586508 4.48853925,11.2295238 9.46378757,11.2295238 C14.4390359,11.2295238 17.9063181,12.857619 17.9063181,14.3196032 L17.9063181,17.4086508 L17.9052781,17.4086508 Z"></path>
                    <path d="M9.46378757,9.79230159 C12.1802066,9.79230159 14.391197,7.59984127 14.391197,4.90388889 C14.391197,2.20896825 12.1812466,0.0154761905 9.46378757,0.0154761905 C6.74736854,0.0154761905 4.53637817,2.20793651 4.53637817,4.90388889 C4.53637817,7.59984127 6.74632857,9.79230159 9.46378757,9.79230159 Z M9.46378757,0.96984127 C11.6508585,0.96984127 13.4302585,2.73515873 13.4302585,4.90492063 C13.4302585,7.07468254 11.6508585,8.84 9.46378757,8.84 C7.27671666,8.84 5.4973166,7.07468254 5.4973166,4.90492063 C5.4973166,2.73412698 7.27671666,0.96984127 9.46378757,0.96984127 Z"></path>
                </g>
            </g>
        </g>
    </g>
</svg>