<?xml version="1.0" encoding="UTF-8"?>
<svg width="22px" height="20px" viewBox="0 0 22 20" version="1.1" xmlns="http://www.w3.org/2000/svg" xmlns:xlink="http://www.w3.org/1999/xlink">
    <!-- Generator: Sketch 53.2 (72643) - https://sketchapp.com -->
    <title>virtualkeyboard</title>
    <desc>Created with Sketch.</desc>
    <g id="03_Login&amp;Registration_BR7_Login" stroke="none" stroke-width="1" fill="none" fill-rule="evenodd">
        <g id="01_Login" transform="translate(-434.000000, -482.000000)" fill="#6D3078" fill-rule="nonzero">
            <g id="1" transform="translate(434.000000, 482.000000)">
                <g id="Group-3">
                    <path d="M20.625,6.08695652 L11.9166667,6.08695652 L11.9166667,4.7826087 C11.9170201,4.5426239 12.122016,4.34816136 12.375,4.34782609 L13.2916667,4.34782609 C14.0507231,4.34705926 14.6658583,3.7635318 14.6666667,3.04347826 L14.6666667,0.434782609 C14.6666667,0.194658804 14.4614638,0 14.2083333,0 C13.9552028,0 13.75,0.194658804 13.75,0.434782609 L13.75,3.04347826 C13.7496466,3.28346305 13.5446506,3.47792559 13.2916667,3.47826087 L12.375,3.47826087 C11.6159436,3.4790277 11.0008084,4.06255515 11,4.7826087 L11,6.08695652 L1.375,6.08695652 C0.615608469,6.08695652 9.29986408e-17,6.67093294 0,7.39130435 L0,18.6956522 C1.44194898e-15,19.4160236 0.615608469,20 1.375,20 L20.625,20 C21.3843915,20 22,19.4160236 22,18.6956522 L22,7.39130435 C22,6.67093294 21.3843915,6.08695652 20.625,6.08695652 Z M21.0833333,18.6956522 C21.0833333,18.935776 20.8781305,19.1304348 20.625,19.1304348 L1.375,19.1304348 C1.12186949,19.1304348 0.916666667,18.935776 0.916666667,18.6956522 L0.916666667,7.39130435 C0.916666667,7.15118054 1.12186949,6.95652174 1.375,6.95652174 L20.625,6.95652174 C20.8781305,6.95652174 21.0833333,7.15118054 21.0833333,7.39130435 L21.0833333,18.6956522 Z M5.04166667,9.56521739 L3.20833333,9.56521739 C2.95520282,9.56521739 2.75,9.7598762 2.75,10 L2.75,11.7391304 C2.75,11.9792542 2.95520282,12.173913 3.20833333,12.173913 L5.04166667,12.173913 C5.29479718,12.173913 5.5,11.9792542 5.5,11.7391304 L5.5,10 C5.5,9.7598762 5.29479718,9.56521739 5.04166667,9.56521739 Z M4.58333333,11.3043478 L3.66666667,11.3043478 L3.66666667,10.4347826 L4.58333333,10.4347826 L4.58333333,11.3043478 Z M7.79166667,12.173913 L9.625,12.173913 C9.87813051,12.173913 10.0833333,11.9792542 10.0833333,11.7391304 L10.0833333,10 C10.0833333,9.7598762 9.87813051,9.56521739 9.625,9.56521739 L7.79166667,9.56521739 C7.53853616,9.56521739 7.33333333,9.7598762 7.33333333,10 L7.33333333,11.7391304 C7.33333333,11.9792542 7.53853616,12.173913 7.79166667,12.173913 Z M8.25,10.4347826 L9.16666667,10.4347826 L9.16666667,11.3043478 L8.25,11.3043478 L8.25,10.4347826 Z M14.2083333,9.56521739 L12.375,9.56521739 C12.1218695,9.56521739 11.9166667,9.7598762 11.9166667,10 L11.9166667,11.7391304 C11.9166667,11.9792542 12.1218695,12.173913 12.375,12.173913 L14.2083333,12.173913 C14.4614638,12.173913 14.6666667,11.9792542 14.6666667,11.7391304 L14.6666667,10 C14.6666667,9.7598762 14.4614638,9.56521739 14.2083333,9.56521739 Z M13.75,11.3043478 L12.8333333,11.3043478 L12.8333333,10.4347826 L13.75,10.4347826 L13.75,11.3043478 Z M18.7916667,9.56521739 L16.9583333,9.56521739 C16.7052028,9.56521739 16.5,9.7598762 16.5,10 L16.5,11.7391304 C16.5,11.9792542 16.7052028,12.173913 16.9583333,12.173913 L18.7916667,12.173913 C19.0447972,12.173913 19.25,11.9792542 19.25,11.7391304 L19.25,10 C19.25,9.7598762 19.0447972,9.56521739 18.7916667,9.56521739 Z M18.3333333,11.3043478 L17.4166667,11.3043478 L17.4166667,10.4347826 L18.3333333,10.4347826 L18.3333333,11.3043478 Z M5.04166667,13.9130435 L3.20833333,13.9130435 C2.95520282,13.9130435 2.75,14.1077023 2.75,14.3478261 L2.75,16.0869565 C2.75,16.3270803 2.95520282,16.5217391 3.20833333,16.5217391 L5.04166667,16.5217391 C5.29479718,16.5217391 5.5,16.3270803 5.5,16.0869565 L5.5,14.3478261 C5.5,14.1077023 5.29479718,13.9130435 5.04166667,13.9130435 Z M4.58333333,15.6521739 L3.66666667,15.6521739 L3.66666667,14.7826087 L4.58333333,14.7826087 L4.58333333,15.6521739 Z M14.2083333,13.9130435 L7.79166667,13.9130435 C7.53853616,13.9130435 7.33333333,14.1077023 7.33333333,14.3478261 L7.33333333,16.0869565 C7.33333333,16.3270803 7.53853616,16.5217391 7.79166667,16.5217391 L14.2083333,16.5217391 C14.4614638,16.5217391 14.6666667,16.3270803 14.6666667,16.0869565 L14.6666667,14.3478261 C14.6666667,14.1077023 14.4614638,13.9130435 14.2083333,13.9130435 Z M13.75,15.6521739 L8.25,15.6521739 L8.25,14.7826087 L13.75,14.7826087 L13.75,15.6521739 Z M18.7916667,13.9130435 L16.9583333,13.9130435 C16.7052028,13.9130435 16.5,14.1077023 16.5,14.3478261 L16.5,16.0869565 C16.5,16.3270803 16.7052028,16.5217391 16.9583333,16.5217391 L18.7916667,16.5217391 C19.0447972,16.5217391 19.25,16.3270803 19.25,16.0869565 L19.25,14.3478261 C19.25,14.1077023 19.0447972,13.9130435 18.7916667,13.9130435 Z M18.3333333,15.6521739 L17.4166667,15.6521739 L17.4166667,14.7826087 L18.3333333,14.7826087 L18.3333333,15.6521739 Z" id="virtualkeyboard"></path>
                </g>
            </g>
        </g>
    </g>
</svg>