<?xml version="1.0" encoding="UTF-8"?>
<svg width="60px" height="44px" viewBox="0 0 60 44" version="1.1" xmlns="http://www.w3.org/2000/svg" xmlns:xlink="http://www.w3.org/1999/xlink">
    <!-- Generator: Sketch 63.1 (92452) - https://sketch.com -->
    <title>accounts_iconib</title>
    <desc>Created with Sketch.</desc>
    <g id="accounts_iconib" stroke="none" stroke-width="1" fill="none" fill-rule="evenodd">
        <g id="Accounts" transform="translate(0.000000, 0.000000)" fill-rule="nonzero">
            <path d="M59.0625,11.1801242 L58.125,11.1801242 L58.125,6.52173913 C58.1344158,6.2284227 58.0042187,5.94784107 57.7736283,5.76451453 C57.5430379,5.58118799 57.239009,5.51654648 56.953125,5.59006211 L55.3125,6.02795031 L55.3125,1.86335403 C55.311969,1.54659122 55.1495251,1.25179706 54.88125,1.08074534 C54.6030694,0.893677245 54.2454424,0.86879884 53.94375,1.01552795 C42.075,6.52173913 1.246875,11.1801242 0.834375,11.1801242 C0.79072331,11.1760022 0.74677669,11.1760022 0.703125,11.1801242 C0.642480865,11.1944993 0.582952969,11.2131808 0.525,11.2360248 C0.472867047,11.2669958 0.422766189,11.3012262 0.375,11.3385093 C0.327110402,11.37069 0.283075153,11.4082001 0.24375,11.4503105 L0.140625,11.5993789 C0.110095867,11.6461256 0.0849386336,11.6961275 0.065625,11.7484472 C0.0567780885,11.8102479 0.0567780885,11.8729819 0.065625,11.9347826 C0.0352327094,11.9903162 0.01312649,12.0499461 0,12.1118012 L0,41.9254659 C0,42.4400169 0.419733047,42.8571429 0.9375,42.8571429 L59.0625,42.8571429 C59.580267,42.8571429 60,42.4400169 60,41.9254659 L60,12.1118012 C60,11.5972502 59.580267,11.1801242 59.0625,11.1801242 Z M56.25,11.1801242 L36.834375,11.1801242 C43.3692875,10.4102023 49.8525322,9.25600427 56.25,7.72360248 L56.25,11.1801242 Z M53.4375,6.46583851 C40.190625,9.47515528 25.715625,10.5559006 17.071875,10.947205 C29.3625,9.1583851 45.496875,6.40062111 53.4375,3.27018633 L53.4375,6.46583851 Z M58.125,40.9937889 L1.875,40.9937889 L1.875,13.0434782 L58.125,13.0434782 L58.125,40.9937889 Z" id="Shape" fill="#6D3078"></path>
            <path d="M5.625,35.4037268 C7.17830086,35.4037268 8.4375,36.6551048 8.4375,38.1987578 C8.4375,38.7133088 8.85723304,39.1304348 9.375,39.1304348 L50.625,39.1304348 C51.142767,39.1304348 51.5625,38.7133088 51.5625,38.1987578 C51.5625,36.6551048 52.8216991,35.4037268 54.375,35.4037268 C54.892767,35.4037268 55.3125,34.9866008 55.3125,34.4720496 L55.3125,19.5652174 C55.3125,19.0506664 54.892767,18.6335403 54.375,18.6335403 C52.8216991,18.6335403 51.5625,17.3821623 51.5625,15.8385093 C51.5625,15.3239583 51.142767,14.9068323 50.625,14.9068323 L9.375,14.9068323 C8.85723304,14.9068323 8.4375,15.3239583 8.4375,15.8385093 C8.4375,17.3821623 7.17830086,18.6335403 5.625,18.6335403 C5.10723304,18.6335403 4.6875,19.0506664 4.6875,19.5652174 L4.6875,34.4720496 C4.6875,34.9866008 5.10723304,35.4037268 5.625,35.4037268 Z M22.5,27.0186335 C22.5,21.363354 25.865625,16.7701863 30,16.7701863 C34.134375,16.7701863 37.5,21.363354 37.5,27.0186335 C37.5,32.6739131 34.134375,37.2670808 30,37.2670808 C25.865625,37.2670808 22.5,32.6739131 22.5,27.0186335 Z M49.78125,16.7701863 C50.156817,18.600269 51.5959794,20.0304925 53.4375,20.4037268 L53.4375,33.6335403 C51.5959794,34.0067746 50.156817,35.436998 49.78125,37.2670808 L34.978125,37.2670808 C37.8870588,34.6583802 39.4949178,30.9107053 39.375,27.0186335 C39.4949178,23.1265618 37.8870588,19.3788869 34.978125,16.7701863 L49.78125,16.7701863 Z M6.5625,20.4037268 C8.40402069,20.0304925 9.84318302,18.600269 10.21875,16.7701863 L25.021875,16.7701863 C22.1129412,19.3788869 20.5050822,23.1265618 20.625,27.0186335 C20.5050822,30.9107053 22.1129412,34.6583802 25.021875,37.2670808 L10.21875,37.2670808 C9.84318302,35.436998 8.40402069,34.0067746 6.5625,33.6335403 L6.5625,20.4037268 Z" id="Shape" fill="#6D3078"></path>
            <path d="M46.875,30.7453416 C48.4283009,30.7453416 49.6875,29.4939635 49.6875,27.9503105 C49.6875,26.4066575 48.4283009,25.1552795 46.875,25.1552795 C45.3216991,25.1552795 44.0625,26.4066575 44.0625,27.9503105 C44.0625,29.4939635 45.3216991,30.7453416 46.875,30.7453416 Z M46.875,27.0186335 C47.392767,27.0186335 47.8125,27.4357595 47.8125,27.9503105 C47.8125,28.4648615 47.392767,28.8819875 46.875,28.8819875 C46.357233,28.8819875 45.9375,28.4648615 45.9375,27.9503105 C45.9375,27.4357595 46.357233,27.0186335 46.875,27.0186335 Z" id="Shape" fill="#6D3078"></path>
            <path d="M13.125,30.7453416 C14.6783009,30.7453416 15.9375,29.4939635 15.9375,27.9503105 C15.9375,26.4066575 14.6783009,25.1552795 13.125,25.1552795 C11.5716991,25.1552795 10.3125,26.4066575 10.3125,27.9503105 C10.3125,29.4939635 11.5716991,30.7453416 13.125,30.7453416 Z M13.125,27.0186335 C13.642767,27.0186335 14.0625,27.4357595 14.0625,27.9503105 C14.0625,28.4648615 13.642767,28.8819875 13.125,28.8819875 C12.607233,28.8819875 12.1875,28.4648615 12.1875,27.9503105 C12.1875,27.4357595 12.607233,27.0186335 13.125,27.0186335 Z" id="Shape" fill="#6D3078"></path>
            <path d="M27.7582767,23.2919196 L27.7525426,23.2919196 C27.4665126,23.290574 27.2331014,23.5226789 27.2317521,23.8104346 C27.2300657,24.0985296 27.4611159,24.3330099 27.7471458,24.3343673 L29.2160854,24.350316 C29.9466762,24.3581206 30.5888945,24.8389577 30.8061154,25.541041 L27.7343284,25.5077862 L27.7289316,25.5077862 C27.4425643,25.5064288 27.2094903,25.7385336 27.2081412,26.0262894 C27.2064546,26.3140451 27.4371675,26.5488646 27.7231976,26.550222 L30.7949846,26.5834768 C30.5629225,27.28047 29.9109224,27.7473944 29.1803316,27.7395897 L27.711392,27.723641 C27.4988934,27.7216049 27.3069699,27.8495341 27.2263554,28.0470268 C27.1457407,28.2448589 27.1929627,28.4718737 27.3457593,28.6201629 L30.980162,32.1499212 C31.1127207,32.2826011 31.3059933,32.3331619 31.4861113,32.2822617 C31.665892,32.2313615 31.8048594,32.0868049 31.8490456,31.9039036 C31.8932319,31.7213416 31.8362283,31.5285996 31.6999592,31.3999918 L29.0022374,28.7799895 L29.1688634,28.7820255 L29.1985457,28.7820255 C30.490403,28.7813469 31.6038288,27.8675189 31.8638868,26.5946748 L32.8568967,26.6051942 L32.8626307,26.6051942 C33.1486607,26.6068908 33.3817348,26.374786 33.3834212,26.0866909 C33.3847705,25.7989352 33.1540576,25.564455 32.8680275,25.5627584 L31.8750177,25.552239 C31.7977761,25.1226414 31.6183327,24.7178153 31.3522034,24.3730513 L32.8805076,24.3893394 L32.8862417,24.3893394 C33.1722718,24.3910361 33.4053457,24.1589312 33.407044,23.8711755 C33.4083814,23.5830805 33.1776686,23.3486003 32.8916385,23.3469035 L29.226879,23.3075408 L27.7582767,23.2919196 Z" id="Path" fill="#F37435"></path>
        </g>
    </g>
</svg>