<svg width="13" height="13" viewBox="0 0 13 13" fill="none" xmlns="http://www.w3.org/2000/svg">
    <path fill-rule="evenodd" clip-rule="evenodd" d="M6.5 12.207A5.707 5.707 0 1 0 6.5.793a5.707 5.707 0 0 0 0 11.414zm0 .634A6.342 6.342 0 1 0 6.5.159a6.342 6.342 0 0 0 0 12.684z" fill="#9A48A9" stroke="#9A48A9" stroke-width=".3"/>
    <path d="M6.465 5.036c.396 0 .718.321.718.718V9.11a.719.719 0 0 1-1.437 0V5.754c0-.397.322-.718.719-.718zM6.465 3.17a.719.719 0 1 1 0 1.438.719.719 0 0 1 0-1.438z" fill="#F37435" stroke="#fff" stroke-width=".3"/>
</svg>
