<?xml version="1.0" encoding="UTF-8"?>
<svg width="44px" height="56px" viewBox="0 0 44 56" version="1.1" xmlns="http://www.w3.org/2000/svg" xmlns:xlink="http://www.w3.org/1999/xlink">
    <!-- Generator: Sketch 63.1 (92452) - https://sketch.com -->
    <title>applynow_iconib</title>
    <desc>Created with Sketch.</desc>
    <g id="applynow_iconib" stroke="none" stroke-width="1" fill="none" fill-rule="evenodd">
        <g id="Apply-Now-2" transform="translate(1.000000, 1.000000)" fill-rule="nonzero">
            <g id="Apply-Now">
                <path d="M37.1739568,21.672589 L37.0960965,21.672589 C36.0329167,21.6667213 35.0057074,22.0539818 34.2148109,22.7585429 C33.5746264,21.0023307 31.9477563,19.7398979 30.0422285,19.7398979 C28.8743244,19.7480223 27.7587825,20.2232964 26.949673,21.0587497 C26.2056748,19.5656758 24.7131252,18.552841 22.9970118,18.552841 L22.9141429,18.552841 C21.99439,18.538849 21.096948,18.8353877 20.3693412,19.3932593 L20.3693412,8.74901523 C20.3693412,6.17675779 18.3490721,4.08428798 15.8916924,4.08428798 C13.4370447,4.08428798 11.4272478,6.1754037 11.4258819,8.74585573 L11.4053923,29.8646354 L10.1996963,28.4130859 C9.14243573,27.1082261 7.58614078,26.2980484 5.90235543,26.175732 C4.25317453,26.0637966 2.63085772,26.6325007 1.41969797,27.7482439 L0.37063319,28.6098757 C0.0323279805,28.8879088 -0.0642005502,29.3618287 0.138418271,29.7481863 L10.3381146,49.1829701 C12.2031186,52.7346622 15.7514528,54.9503512 19.5984791,54.9503512 L31.0931147,54.9503512 L31.0931147,54.9404215 C36.9212524,54.9404215 41.6465971,49.9272502 41.6530854,43.771706 C41.654793,41.0175535 41.6443206,38.9648027 41.6461418,37.3011177 C41.6520611,32.8498801 41.6475078,31.2074088 41.6361248,26.3034647 C41.6302056,23.7370749 39.6245065,21.672589 37.1739568,21.672589 Z M39.7674781,37.2947987 C39.7656568,38.9589351 39.7629248,41.0198101 39.7601929,43.7739626 C39.7551844,48.9117073 35.8425916,53.1011603 31.0384758,53.1011603 L19.5989344,53.1011603 C16.4499187,53.1011603 13.5353945,51.2664129 11.9932146,48.3290112 L2.14047461,29.5613266 L2.62675985,29.1591715 C2.63905361,29.1492418 2.65089207,29.1375066 2.66273042,29.1271254 C3.49915921,28.3467371 4.6247183,27.9459361 5.77076692,28.0204093 C6.94231376,28.1093259 8.02325111,28.677127 8.75586632,29.5875049 L11.6102878,33.0304212 C11.8598049,33.3323759 12.2741491,33.4456654 12.6447822,33.3143217 C13.0154153,33.1829783 13.2631112,32.8345343 13.2631112,32.4445657 L13.2799582,8.7467585 C13.2808688,7.19500884 14.4647092,5.93257615 15.892603,5.93257615 C17.3204967,5.93257615 18.5043372,7.19636292 18.5043372,8.74901523 L18.5043372,23.0374786 C18.5043372,23.0871275 18.5020607,23.1372276 18.5020607,23.187779 C18.5020607,23.2094439 18.5043372,23.2315603 18.5043372,23.2527738 L18.5043372,29.3618286 C18.5043372,29.8723083 18.9218686,30.2861984 19.4368392,30.2861984 C19.9518098,30.2861984 20.3693412,29.8723083 20.3693412,29.3618286 L20.3693412,23.0686221 C20.3693412,21.5714859 21.5231305,20.4015805 22.9141429,20.4015805 L22.9970118,20.4015805 C24.4258161,20.4015805 25.6146653,21.6360294 25.6146653,23.1886817 L25.6146653,28.7786814 C25.6146653,29.289161 26.0321967,29.7030511 26.5471673,29.7030511 C27.0621379,29.7030511 27.4796693,29.289161 27.4796693,28.7786814 L27.4796693,24.3928899 C27.4796693,22.8397863 28.611603,21.5764509 30.0481478,21.5764509 C31.4764969,21.5764509 32.6084305,22.8393349 32.6084305,24.3928899 L32.6084305,28.5304376 C32.6084305,29.0409173 33.0259619,29.4548074 33.5409325,29.4548074 C34.0559032,29.4548074 34.4734346,29.0409173 34.4734346,28.5304376 L34.4734346,26.2899242 C34.4734346,24.7368206 35.6672921,23.5213285 37.0960965,23.5213285 L37.1739568,23.5213285 C38.5991185,23.5213285 39.7606483,24.7575827 39.7642908,26.3057215 C39.7756739,31.2060547 39.7733972,32.8467208 39.7674781,37.2947987 Z" id="Shape" fill="#6D3078"></path>
                <path d="M8.46354872,9.14801077 C8.97851936,9.14801077 9.39605076,8.73412063 9.39605076,8.22364102 C9.4110764,4.69632186 12.3001026,1.84512867 15.8579984,1.84512867 C19.4163497,1.84512867 22.3049205,4.69632186 22.3199461,8.22364102 C22.3199461,8.73412063 22.7374776,9.14801077 23.2524482,9.14801077 C23.7674189,9.14801077 24.1849502,8.73412063 24.1849502,8.22364102 C24.167648,3.67671673 20.444925,0 15.8579984,0 C11.2715273,0 7.54834892,3.67671673 7.53104669,8.22364102 C7.53104669,8.73412063 7.94857809,9.14801077 8.46354872,9.14801077 Z" id="Path" fill="#F37435"></path>
            </g>
        </g>
    </g>
</svg>