<?xml version="1.0" encoding="UTF-8"?>
<svg width="52px" height="60px" viewBox="0 0 52 60" version="1.1" xmlns="http://www.w3.org/2000/svg" xmlns:xlink="http://www.w3.org/1999/xlink">
    <!-- Generator: Sketch 53.2 (72643) - https://sketchapp.com -->
    <title>billpay-icon</title>
    <desc>Created with Sketch.</desc>
    <defs>
        <polygon id="path-1" points="1.70408996e-05 2.61613586e-05 51.9987511 2.61613586e-05 51.9987511 60 1.70408996e-05 60"></polygon>
    </defs>
    <g id="Dashboard" stroke="none" stroke-width="1" fill="none" fill-rule="evenodd">
        <g id="02" transform="translate(-768.000000, -510.000000)">
            <g id="billpay-icon" transform="translate(768.000000, 510.000000)">
                <g id="Group-3">
                    <mask id="mask-2" fill="white">
                        <use xlink:href="#path-1"></use>
                    </mask>
                    <g id="Clip-2"></g>
                    <path d="M49.7280655,53.9063672 C49.7280655,55.9740234 48.0982402,57.65625 46.0949913,57.65625 C44.0916288,57.65625 42.461917,55.9740234 42.461917,53.9063672 L42.461917,31.171875 L49.7280655,31.171875 L49.7280655,53.9063672 Z M5.90410044,57.65625 C3.90073799,57.65625 2.2710262,55.9740234 2.2710262,53.9063672 L2.2710262,4.00265625 L4.35034498,6.14882812 C4.79370742,6.60644531 5.51262445,6.60644531 5.95610044,6.14882812 L9.17237991,2.82914062 L12.3886594,6.14882812 C12.8320218,6.60644531 13.5509389,6.60644531 13.9944148,6.14882812 L17.2106943,2.82914062 L20.4270873,6.14882812 C20.8704498,6.60644531 21.5893668,6.60644531 22.0327293,6.14882812 L25.2490087,2.82914062 L28.4652882,6.14882812 C28.9086507,6.60644531 29.6275677,6.60644531 30.0710437,6.14882812 L33.2873231,2.82914062 L36.5034891,6.14882812 C36.9470786,6.60644531 37.6659956,6.60644531 38.1092445,6.14882812 L40.1902664,4.00101562 L40.1902664,30 C40.1902664,30.0106641 40.1915153,30.0210937 40.1918559,30.0317578 L40.1918559,53.9063672 C40.1918559,55.3198828 40.661786,56.6213672 41.4471223,57.65625 L5.90410044,57.65625 Z M50.8634367,28.8282422 L42.4603275,28.8282422 L42.4603275,1.17199219 C42.4603275,0.698085937 42.1836376,0.270703125 41.7593493,0.089296875 C41.3350611,-0.0922265625 40.8466245,0.0083203125 40.5221354,0.343242187 L37.3057424,3.66292969 L34.0895764,0.343359375 C33.6461004,-0.114257813 32.9271834,-0.114257813 32.483821,0.343359375 L29.2675415,3.66304687 L26.0516026,0.343359375 C25.6082402,-0.114257813 24.8893231,-0.114257813 24.4458472,0.343359375 L21.2295677,3.66304687 L18.0131747,0.343359375 C17.5698122,-0.114257813 16.8508952,-0.114257813 16.4075328,0.343359375 L13.1912533,3.66304687 L9.97520087,0.343359375 C9.53183843,-0.114257813 8.8129214,-0.114257813 8.36944541,0.343359375 L5.15316594,3.66304687 L1.937,0.343359375 C1.49636245,-0.111445313 0.783689956,-0.113789063 0.33919214,0.336914062 C0.105759825,0.57375 -0.00743668122,0.889335937 0.000397379913,1.2028125 L0.000397379913,53.9064844 C0.000397379913,57.2664844 2.64876419,60 5.90410044,60 L46.0935153,60 L46.094083,60 L46.0951048,60 C49.350441,60 51.9988079,57.2664844 51.9988079,53.9064844 L51.9988079,30 C51.9988079,29.3527734 51.4903886,28.8282422 50.8634367,28.8282422 L50.8634367,28.8282422 Z" id="Fill-1" fill="#6D3078" mask="url(#mask-2)"></path>
                </g>
                <path d="M31.4448201,31.6414219 L10.6532218,31.6414219 C9.92828734,31.6414219 9.34073275,32.1661875 9.34073275,32.8132969 C9.34073275,33.4605234 9.92828734,33.9851719 10.6532218,33.9851719 L31.4448201,33.9851719 C32.169641,33.9851719 32.7571956,33.4605234 32.7571956,32.8132969 C32.7570821,32.1661875 32.169641,31.6414219 31.4448201,31.6414219" id="Fill-4" fill="#6D3078"></path>
                <path d="M31.4448201,39.3755742 L10.6532218,39.3755742 C9.92828734,39.3755742 9.34073275,39.9003398 9.34073275,40.5474492 C9.34073275,41.1946758 9.92828734,41.7193242 10.6532218,41.7193242 L31.4448201,41.7193242 C32.169641,41.7193242 32.7571956,41.1946758 32.7571956,40.5474492 C32.7570821,39.9003398 32.169641,39.3755742 31.4448201,39.3755742" id="Fill-6" fill="#6D3078"></path>
                <path d="M31.4448201,47.1097148 L10.6532218,47.1097148 C9.92828734,47.1097148 9.34073275,47.6344805 9.34073275,48.2815898 C9.34073275,48.9288164 9.92828734,49.4534648 10.6532218,49.4534648 L31.4448201,49.4534648 C32.169641,49.4534648 32.7571956,48.9288164 32.7571956,48.2815898 C32.7571956,47.6344805 32.169641,47.1097148 31.4448201,47.1097148" id="Fill-8" fill="#6D3078"></path>
                <path d="M18.4865109,13.0161094 L26.8563537,13.0161094 L26.8563537,13.0340391 C26.3631485,13.818375 26.0847555,14.2373203 26.0210611,14.2912266 L23.7850611,14.2912266 C24.0924061,14.6624766 24.3012009,15.1144688 24.4114454,15.6472031 L26.7953843,15.6472031 C26.8243362,15.6532969 26.838869,15.6651328 26.838869,15.6831797 C26.305131,16.5094687 26.0325284,16.9224375 26.0210611,16.9224375 L24.4723013,16.9224375 C24.437559,17.3475937 24.2402314,17.8594687 23.8806594,18.4580625 C23.4050524,19.06275 22.9498821,19.4548594 22.5148079,19.6343906 C21.7026769,20.0356406 20.9254017,20.2360313 20.1829825,20.2360313 L20.1829825,20.2540781 C20.1829825,20.3139609 20.3657773,20.5625156 20.7312533,20.9995078 L24.8638908,26.1450938 L24.8638908,26.3875547 C24.8638908,26.4115781 24.8493581,26.4234141 24.8202926,26.4234141 L23.0019956,26.4234141 C19.7306507,22.4901328 18.0949214,20.5145859 18.0949214,20.4965391 L18.0949214,19.3021641 L18.1124061,19.2572812 C18.4023799,19.2992344 18.7416288,19.3200937 19.1303799,19.3200937 C20.9629825,19.3200937 22.1028952,18.7066172 22.5496638,17.4791953 C22.619262,17.2996641 22.6540044,17.1141563 22.6540044,16.9224375 L17.6773319,16.9224375 C17.6540568,16.9224375 17.642476,16.9104844 17.642476,16.8865781 C18.1934716,16.0602891 18.4747031,15.6472031 18.4865109,15.6472031 L22.4364672,15.6472031 L22.4364672,15.6292734 C22.2101878,15.1564219 21.7721616,14.7882188 21.1226157,14.5247813 C20.6585895,14.3691562 20.241,14.2912266 19.8698472,14.2912266 L17.6599607,14.2912266 L17.6599607,14.2463437 C18.1934716,13.4262656 18.4691397,13.0161094 18.4865109,13.0161094" id="Fill-10" fill="#F37435"></path>
            </g>
        </g>
    </g>
</svg>