<?xml version="1.0" encoding="UTF-8"?>
<svg width="30px" height="20px" viewBox="0 0 30 20" version="1.1" xmlns="http://www.w3.org/2000/svg" xmlns:xlink="http://www.w3.org/1999/xlink">
    <!-- Generator: Sketch 58 (84663) - https://sketch.com -->
    <title>cards_fill_icon</title>
    <desc>Created with Sketch.</desc>
    <g id="Symbols" stroke="none" stroke-width="1" fill="none" fill-rule="evenodd">
        <g id="Side-Bar-Menu" transform="translate(-53.000000, -577.000000)">
            <g id="sidebar">
                <g>
                    <g id="Group-17" transform="translate(0.000000, 29.000000)">
                        <g id="cards-icon" transform="translate(53.000000, 541.000000)">
                            <g id="cards_solid" transform="translate(0.000000, 7.000000)">
                                <g id="1">
                                    <path d="M0.6,0.6 L0.6,19.4 L29.4,19.4 L29.4,6 C29.4,3.01766235 26.9823376,0.6 24,0.6 L0.6,0.6 Z" id="Rectangle" stroke="#6D3078" stroke-width="1.2"></path>
                                    <path d="M1.25,5 L28.75,5" id="Line-3" stroke="#6D3078" stroke-linecap="square"></path>
                                    <path d="M1.25,7.5 L28.75,7.5" id="Line-3" stroke="#6D3078" stroke-linecap="square"></path>
                                    <g transform="translate(3.750000, 11.250000)" fill="#6D3078" id="Path">
                                        <path d="M8.4782434,1.13242749e-14 L0.652191382,1.13242749e-14 C0.292192989,1.13242749e-14 0,0.238953734 0,0.533358334 C0,0.827762934 0.292192989,1.06666667 0.652191382,1.06666667 L8.4782434,1.06666667 C8.83824179,1.06666667 9.13043478,0.827712933 9.13043478,0.533308333 C9.13043478,0.238903733 8.83824179,1.13242749e-14 8.4782434,1.13242749e-14 Z"></path>
                                        <path d="M8.4782434,2 L0.652191382,2 C0.292192989,2 0,2.23894253 0,2.53333333 C0,2.82772413 0.292192989,3.06666667 0.652191382,3.06666667 L8.4782434,3.06666667 C8.83824179,3.06666667 9.13043478,2.82772413 9.13043478,2.53333333 C9.13043478,2.23894253 8.83824179,2 8.4782434,2 Z"></path>
                                    </g>
                                    <rect id="Rectangle" stroke="#6D3078" x="21.75" y="10.5" width="3.89130435" height="4" rx="1"></rect>
                                </g>
                            </g>
                        </g>
                    </g>
                </g>
            </g>
        </g>
    </g>
</svg>