<svg width="24" height="20" viewBox="0 0 24 20" fill="none" xmlns="http://www.w3.org/2000/svg">
<path d="M17.4497 2.93302C17.5644 2.76895 17.5239 2.5429 17.355 2.43471C15.5825 1.29948 13.4998 0.729995 11.3872 0.807941C9.27457 0.885888 7.24007 1.60728 5.55703 2.87C5.39664 2.99034 5.37312 3.21875 5.4997 3.37392C5.62629 3.5291 5.855 3.55223 6.01572 3.43232C7.57606 2.26815 9.45912 1.60317 11.4142 1.53103C13.3692 1.4589 15.2967 1.98329 16.9395 3.02928C17.1087 3.13702 17.335 3.0971 17.4497 2.93302Z" fill="#872B94"/>
<path d="M11.3871 0.808112C13.4998 0.730166 15.5826 1.29928 17.3551 2.43452C17.524 2.54271 17.5644 2.76904 17.4497 2.9331L17.4268 2.96221C17.3148 3.09213 17.1254 3.12605 16.9717 3.04778L16.9395 3.02923C15.2968 1.98326 13.3693 1.45878 11.4143 1.53089L11.231 1.53954C9.34166 1.64525 7.52723 2.3047 6.01569 3.43246L5.98488 3.45304C5.8374 3.54239 5.64608 3.52269 5.52471 3.4014L5.49958 3.37405C5.38093 3.2286 5.39421 3.01859 5.52841 2.89376L5.55703 2.87011C7.18747 1.64684 9.14774 0.931458 11.1894 0.817079L11.3871 0.808112ZM17.1899 2.68957C15.5236 1.62238 13.5748 1.07034 11.5908 1.10562L11.3987 1.111C9.34853 1.18664 7.37395 1.88659 5.74066 3.11198C5.72368 3.12472 5.71422 3.15569 5.73655 3.18306L5.75421 3.19741C5.77554 3.20883 5.80584 3.20964 5.83255 3.18981C7.44247 1.98864 9.38555 1.30245 11.4027 1.228C13.42 1.15357 15.4089 1.69484 17.104 2.7741C17.1414 2.7978 17.1825 2.78403 17.1994 2.75985L17.2089 2.73854C17.2119 2.7243 17.2083 2.71112 17.2016 2.70133L17.1899 2.68957Z" fill="#872B94"/>
<path fill-rule="evenodd" clip-rule="evenodd" d="M17.3073 0.704129C17.4719 0.668068 17.6197 0.773967 17.6373 0.940663L17.8638 3.07491C17.8729 3.16077 17.8455 3.25047 17.7884 3.32156C17.7313 3.39266 17.6499 3.43842 17.5647 3.4474L15.6453 3.64951C15.4798 3.66694 15.346 3.54354 15.3466 3.37388C15.3472 3.20422 15.4819 3.05256 15.6475 3.03513L17.2319 2.86828L17.0413 1.07125C17.0236 0.904558 17.1427 0.740191 17.3073 0.704129Z" fill="#872B94"/>
<path d="M12 3.88818C7.5888 3.88818 4 7.45721 4 11.8441C4 16.231 7.5888 19.8 12 19.8C16.4112 19.8 20 16.231 20 11.8441C20 7.45721 16.4112 3.88818 12 3.88818ZM18.3985 9.19214H15.5337C15.2821 7.5804 14.8039 6.23253 14.1697 5.2997C16.0808 5.92795 17.6272 7.35856 18.3985 9.19214ZM14.6667 11.8441C14.6667 12.3998 14.6383 12.9298 14.5897 13.4353H9.41027C9.36173 12.9298 9.33333 12.3998 9.33333 11.8441C9.33333 11.2884 9.36173 10.7584 9.41027 10.2529H14.5896C14.6383 10.7584 14.6667 11.2884 14.6667 11.8441ZM12 18.7393C11.0371 18.7393 9.99213 17.0853 9.5508 14.4961H14.4492C14.0079 17.0853 12.9629 18.7393 12 18.7393ZM9.5508 9.19214C9.99213 6.60288 11.0371 4.94897 12 4.94897C12.9629 4.94897 14.0079 6.60288 14.4492 9.19214H9.5508ZM9.83027 5.2997C9.19613 6.23266 8.71773 7.5804 8.46627 9.19214H5.60147C6.3728 7.35856 7.9192 5.92795 9.83027 5.2997ZM5.2604 10.2529H8.33787C8.2928 10.7649 8.26667 11.295 8.26667 11.8441C8.26667 12.3932 8.2928 12.9233 8.338 13.4353H5.2604C5.13827 12.9235 5.06667 12.3925 5.06667 11.8441C5.06667 11.2957 5.13827 10.7648 5.2604 10.2529ZM5.60147 14.4961H8.46613C8.71773 16.1078 9.196 17.4557 9.83013 18.3885C7.91907 17.7603 6.3728 16.3297 5.60147 14.4961ZM14.1697 18.3885C14.8039 17.4556 15.2823 16.1078 15.5337 14.4961H18.3984C17.6272 16.3297 16.0809 17.7603 14.1697 18.3885ZM18.7396 13.4353H15.662C15.7072 12.9233 15.7333 12.3932 15.7333 11.8441C15.7333 11.295 15.7072 10.7649 15.662 10.2529H18.7395C18.8617 10.7648 18.9332 11.2957 18.9332 11.8441C18.9332 12.3925 18.8617 12.9235 18.7396 13.4353Z" fill="#872B94"/>
<path d="M19.7895 11.8441C19.7895 7.57284 16.2949 4.09755 12 4.09755C7.70507 4.09755 4.21053 7.57284 4.21053 11.8441C4.21053 16.1154 7.70507 19.5907 12 19.5907V19.8L11.794 19.7976C7.54607 19.6903 4.11038 16.2735 4.00247 12.049L4 11.8441C4 7.45721 7.5888 3.88818 12 3.88818L12.206 3.89064C16.5224 3.99968 20 7.5257 20 11.8441L19.9975 12.049C19.8879 16.3416 16.3423 19.8 12 19.8V19.5907C16.2949 19.5907 19.7895 16.1154 19.7895 11.8441ZM14.6986 14.2866L14.6567 14.5311C14.4331 15.8429 14.0549 16.9298 13.6016 17.6949C13.375 18.0774 13.1253 18.3866 12.8602 18.6023C12.595 18.8181 12.3035 18.9487 12 18.9487C11.6965 18.9487 11.405 18.8181 11.1398 18.6023C10.8747 18.3866 10.625 18.0774 10.3984 17.6949C9.94507 16.9298 9.56693 15.8429 9.34334 14.5311L9.3014 14.2866H14.6986ZM8.64638 14.2866L8.67434 14.4641C8.92299 16.0568 9.39342 17.3721 10.0045 18.2711L10.3503 18.7802L9.76398 18.5872C7.79493 17.9398 6.20185 16.4662 5.40707 14.5769L5.28536 14.2866H8.64638ZM18.7146 14.2866L18.5925 14.5769C17.7978 16.4662 16.2048 17.9399 14.2356 18.5872L13.6497 18.7802L13.9955 18.2711C14.6066 17.3719 15.0772 16.0567 15.3257 14.4641L15.3532 14.2866H18.7146ZM9.55099 14.496C9.97853 17.0043 10.9724 18.635 11.9095 18.7344L12 18.7393C12.9629 18.7393 14.0077 17.0852 14.449 14.496H9.55099ZM5.60156 14.496C6.3729 16.3295 7.91911 17.7602 9.83018 18.3885C9.19606 17.4556 8.71788 16.1077 8.46628 14.496H5.60156ZM15.5337 14.496C15.2823 16.1076 14.8039 17.4555 14.1698 18.3885C16.081 17.7602 17.6273 16.3295 18.3984 14.496H15.5337ZM8.26686 11.8441C8.26686 11.295 8.29293 10.765 8.33799 10.253H5.26028C5.13816 10.7648 5.06661 11.2957 5.06661 11.8441L5.0699 12.049C5.08308 12.457 5.13521 12.8551 5.21711 13.2426L5.26028 13.4352H8.33799C8.30409 13.0512 8.28085 12.657 8.27138 12.2522L8.26686 11.8441ZM14.6665 11.8441C14.6665 11.2884 14.6383 10.7584 14.5896 10.253H9.41036C9.36183 10.7585 9.33347 11.2884 9.33347 11.8441L9.33841 12.2563C9.34525 12.5277 9.35891 12.7928 9.37788 13.0517L9.41036 13.4352H14.5896L14.6221 13.0517C14.6411 12.7928 14.6548 12.5277 14.6616 12.2563L14.6665 11.8441ZM18.9334 11.8441C18.9334 11.2957 18.8616 10.7648 18.7393 10.253H15.662C15.7072 10.7649 15.7331 11.2951 15.7331 11.8441L15.7286 12.2522C15.7192 12.657 15.6959 13.0512 15.662 13.4352H18.7397L18.7829 13.2426C18.8648 12.8551 18.9165 12.457 18.9297 12.049L18.9334 11.8441ZM10.0045 5.41713C9.39342 6.31631 8.92284 7.6315 8.67434 9.22417L8.64679 9.40164H5.28536L5.40707 9.11131C6.20187 7.22196 7.7953 5.74837 9.76439 5.10104L10.3503 4.90803L10.0045 5.41713ZM12 4.73955C12.3035 4.73955 12.595 4.87008 12.8602 5.08591C13.1253 5.30166 13.375 5.61087 13.6016 5.9933C14.0549 6.75844 14.4331 7.84534 14.6567 9.15711L14.6986 9.40164H9.3014L9.34334 9.15711C9.56693 7.84534 9.94507 6.75844 10.3984 5.9933C10.625 5.61087 10.8747 5.30166 11.1398 5.08591C11.405 4.87008 11.6965 4.73955 12 4.73955ZM14.2356 5.10104C16.2047 5.74837 17.7981 7.22196 18.5929 9.11131L18.7146 9.40164H15.3532L15.3257 9.22417C15.077 7.63146 14.6066 6.31615 13.9955 5.41713L13.6493 4.90803L14.2356 5.10104ZM9.83018 5.29977C7.91916 5.92804 6.37288 7.35873 5.60156 9.19227H8.46628L8.51604 8.89294C8.77811 7.41353 9.23573 6.1744 9.83018 5.29977ZM14.1698 5.29977C14.7643 6.17428 15.2218 7.41351 15.484 8.89294L15.5337 9.19227H18.3984C17.6271 7.35873 16.0808 5.92804 14.1698 5.29977ZM12 4.94892C11.0371 4.94892 9.99232 6.60302 9.55099 9.19227H14.449C14.0215 6.6839 13.0276 5.05325 12.0905 4.95383L12 4.94892ZM8.47739 11.8441C8.47739 12.3865 8.503 12.9105 8.5477 13.4168L8.56785 13.6446H5.09416L5.05551 13.4835C4.93011 12.9579 4.85609 12.4107 4.85609 11.8441C4.85609 11.2775 4.93011 10.7303 5.05551 10.2048L5.09416 10.0436H8.56743L8.5477 10.271C8.50312 10.7774 8.47739 11.3016 8.47739 11.8441ZM14.8771 11.8441C14.8771 12.407 14.8485 12.9437 14.7993 13.4553L14.7813 13.6446H9.21875L9.20066 13.4553C9.15154 12.9437 9.12294 12.407 9.12294 11.8441C9.12294 11.2813 9.15154 10.7446 9.20066 10.233L9.21875 10.0436H14.7808L14.7993 10.233C14.8486 10.7446 14.8771 11.2813 14.8771 11.8441ZM19.1439 11.8441C19.1439 12.4107 19.0699 12.9578 18.9445 13.4835L18.9058 13.6446H15.4322L15.4523 13.4168C15.497 12.9105 15.5226 12.3865 15.5226 11.8441C15.5226 11.3017 15.497 10.7778 15.4523 10.2714L15.4322 10.0436H18.9058L18.9445 10.2043C19.0701 10.7301 19.1439 11.2775 19.1439 11.8441Z" fill="#FFF2F0"/>
<path d="M24 11.8441C24 14.1567 22.1149 16.0314 19.7895 16.0314C17.4641 16.0314 15.5789 14.1567 15.5789 11.8441C15.5789 9.53147 17.4641 7.65674 19.7895 7.65674C22.1149 7.65674 24 9.53147 24 11.8441Z" fill="#FFF2F0"/>
<path d="M23.2907 11.8441C23.2907 9.92096 21.7232 8.36212 19.7895 8.36212C17.8557 8.36212 16.2882 9.92096 16.2882 11.8441C16.2882 13.7672 17.8557 15.326 19.7895 15.326V16.0314C17.4641 16.0314 15.5789 14.1567 15.5789 11.8441C15.5789 9.53147 17.4641 7.65674 19.7895 7.65674C22.1149 7.65674 24 9.53147 24 11.8441C24 14.1567 22.1149 16.0314 19.7895 16.0314V15.326C21.7232 15.326 23.2907 13.7672 23.2907 11.8441Z" fill="#F37435"/>
<path d="M18.489 12.2057C18.4146 12.2057 18.3519 12.1803 18.301 12.1297C18.2501 12.0791 18.2246 12.0148 18.2246 11.937C18.2246 11.8669 18.2501 11.8084 18.301 11.7617C18.3519 11.715 18.4146 11.6916 18.489 11.6916L20.3392 11.6916C20.4136 11.6916 20.4762 11.7169 20.5271 11.7676C20.578 11.8182 20.6035 11.8805 20.6035 11.9545C20.6035 12.0285 20.578 12.0888 20.5271 12.1356C20.4762 12.1823 20.4136 12.2057 20.3392 12.2057L18.489 12.2057ZM19.2878 13.4031C19.4522 13.4031 19.6148 13.4265 19.7753 13.4732C19.9359 13.52 20.0925 13.5667 20.2452 13.6134C20.4018 13.6602 20.5487 13.6835 20.6857 13.6835C20.764 13.6835 20.8463 13.6699 20.9324 13.6426C21.0186 13.6115 21.0871 13.5784 21.138 13.5433C21.1732 13.5239 21.2085 13.5083 21.2437 13.4966C21.2829 13.4849 21.3181 13.4791 21.3495 13.4791C21.4317 13.4791 21.4924 13.5063 21.5315 13.5608C21.5707 13.6115 21.5903 13.6718 21.5903 13.7419C21.5903 13.8237 21.559 13.8958 21.4963 13.9581C21.4376 14.0165 21.3475 14.0671 21.2261 14.1099C21.1439 14.1489 21.0519 14.1761 20.95 14.1917C20.8522 14.2073 20.7621 14.2131 20.6799 14.2092C20.578 14.2053 20.4606 14.1898 20.3274 14.1625C20.1943 14.1352 20.0572 14.1041 19.9163 14.069C19.7792 14.0301 19.648 13.997 19.5227 13.9697C19.3974 13.9425 19.2937 13.9289 19.2114 13.9289C19.1449 13.9289 19.0763 13.9347 19.0058 13.9464C18.9393 13.9542 18.8766 13.9639 18.8179 13.9756C18.7631 13.9873 18.7161 13.999 18.6769 14.0106C18.6143 14.0262 18.5614 14.0476 18.5183 14.0749C18.4753 14.1021 18.4283 14.1158 18.3774 14.1158C18.3147 14.1158 18.2599 14.0944 18.2129 14.0515C18.1698 14.0048 18.1483 13.9444 18.1483 13.8704C18.1483 13.7964 18.1698 13.7322 18.2129 13.6777C18.2599 13.6232 18.3245 13.5803 18.4067 13.5492C18.5007 13.518 18.5986 13.4908 18.7004 13.4674C18.8022 13.444 18.904 13.4284 19.0058 13.4207C19.1077 13.409 19.2016 13.4031 19.2878 13.4031ZM19.1351 13.7595L18.6828 13.6368C18.7337 13.6095 18.7807 13.5628 18.8238 13.4966C18.8708 13.4265 18.9099 13.3408 18.9412 13.2396C18.9726 13.1383 18.9882 13.0234 18.9882 12.8949C18.9882 12.747 18.9686 12.6009 18.9295 12.4568C18.8942 12.3127 18.8531 12.1726 18.8061 12.0363C18.7592 11.9 18.7161 11.7656 18.6769 11.6332C18.6417 11.5008 18.6241 11.3684 18.6241 11.236C18.6241 10.979 18.6769 10.7551 18.7826 10.5642C18.8923 10.3695 19.045 10.2176 19.2408 10.1086C19.4405 9.99568 19.6794 9.93921 19.9574 9.93921C20.1336 9.93921 20.3 9.96257 20.4567 10.0093C20.6172 10.056 20.7523 10.1242 20.8619 10.2138C20.9442 10.2644 21.0088 10.3189 21.0558 10.3773C21.1067 10.4318 21.1321 10.4902 21.1321 10.5526C21.1321 10.6343 21.1008 10.7044 21.0382 10.7628C20.9794 10.8213 20.9109 10.8505 20.8326 10.8505C20.7895 10.8505 20.7484 10.8427 20.7092 10.8271C20.6701 10.8115 20.6387 10.792 20.6152 10.7687C20.533 10.683 20.4371 10.6168 20.3274 10.5701C20.2217 10.5195 20.0984 10.4941 19.9574 10.4941C19.8047 10.4941 19.6735 10.5292 19.5638 10.5993C19.4542 10.6694 19.372 10.7609 19.3172 10.8738C19.2623 10.9868 19.2349 11.1114 19.2349 11.2477C19.2349 11.3606 19.2525 11.4813 19.2878 11.6098C19.3269 11.7383 19.3681 11.8707 19.4111 12.007C19.4581 12.1395 19.4992 12.2699 19.5345 12.3984C19.5736 12.5269 19.5932 12.6477 19.5932 12.7606C19.5932 12.9125 19.5697 13.0507 19.5227 13.1753C19.4757 13.2999 19.417 13.4109 19.3465 13.5083C19.276 13.6056 19.2056 13.6894 19.1351 13.7595Z" fill="#F37435"/>
<path d="M8.42105 11.8441C8.42105 14.1567 6.53594 16.0314 4.21053 16.0314C1.88512 16.0314 0 14.1567 0 11.8441C0 9.53147 1.88512 7.65674 4.21053 7.65674C6.53594 7.65674 8.42105 9.53147 8.42105 11.8441Z" fill="#FFF2F0"/>
<path d="M7.67804 11.8441C7.67804 9.93958 6.12557 8.39565 4.21053 8.39565C2.29548 8.39565 0.74301 9.93958 0.74301 11.8441C0.74301 13.7486 2.29548 15.2925 4.21053 15.2925V16.0314C1.88512 16.0314 0 14.1567 0 11.8441C0 9.53147 1.88512 7.65674 4.21053 7.65674C6.53594 7.65674 8.42105 9.53147 8.42105 11.8441C8.42105 14.1567 6.53594 16.0314 4.21053 16.0314V15.2925C6.12557 15.2925 7.67804 13.7486 7.67804 11.8441Z" fill="#F37435"/>
<path d="M4.28554 13.9668C4.02264 13.9668 3.78895 13.9305 3.58447 13.8578C3.38 13.7852 3.18465 13.6654 2.99843 13.4983C2.95826 13.4693 2.92722 13.4348 2.90532 13.3949C2.88706 13.3513 2.87793 13.3077 2.87793 13.2641C2.87793 13.1951 2.90349 13.1334 2.95461 13.0789C3.00573 13.0245 3.06963 12.9972 3.14631 12.9972C3.20473 12.9972 3.2595 13.0172 3.31062 13.0571C3.44937 13.1842 3.5936 13.2805 3.74331 13.3458C3.89667 13.4112 4.07559 13.4439 4.28006 13.4439C4.42612 13.4439 4.5594 13.4203 4.67989 13.3731C4.80404 13.3259 4.90263 13.2623 4.97565 13.1824C5.04868 13.1025 5.0852 13.0099 5.0852 12.9046C5.0852 12.7739 5.04686 12.6668 4.97018 12.5833C4.89715 12.4961 4.78943 12.4253 4.64703 12.3708C4.50828 12.3127 4.34031 12.2637 4.14314 12.2238C3.96057 12.1911 3.79625 12.1457 3.6502 12.0876C3.50779 12.0295 3.38547 11.9569 3.28323 11.8697C3.181 11.7789 3.10249 11.6718 3.04772 11.5483C2.99295 11.4249 2.96556 11.2814 2.96556 11.118C2.96556 10.8965 3.02399 10.7059 3.14083 10.5461C3.25767 10.3863 3.41651 10.2629 3.61734 10.1757C3.81816 10.0886 4.04455 10.045 4.2965 10.045C4.52653 10.045 4.74197 10.0813 4.94279 10.1539C5.14362 10.2229 5.30611 10.3173 5.43025 10.4372C5.51789 10.5134 5.5617 10.5951 5.5617 10.6823C5.5617 10.7477 5.53432 10.8094 5.47955 10.8675C5.42843 10.922 5.36818 10.9492 5.2988 10.9492C5.24768 10.9492 5.20387 10.9347 5.16735 10.9056C5.10893 10.8439 5.03043 10.7894 4.93184 10.7422C4.83325 10.6914 4.72736 10.6496 4.61417 10.6169C4.50462 10.5842 4.39873 10.5679 4.2965 10.5679C4.13218 10.5679 3.9916 10.5915 3.87476 10.6387C3.75792 10.6823 3.66846 10.744 3.60638 10.8239C3.54431 10.9002 3.51327 10.9909 3.51327 11.0963C3.51327 11.2197 3.54796 11.3214 3.61734 11.4013C3.69036 11.4812 3.79078 11.5465 3.91858 11.5974C4.04638 11.6446 4.19243 11.6882 4.35674 11.7281C4.55757 11.7717 4.73649 11.8207 4.8935 11.8752C5.05416 11.9296 5.18926 12.0004 5.2988 12.0876C5.40834 12.1711 5.49233 12.2764 5.55075 12.4035C5.60917 12.5306 5.63838 12.6886 5.63838 12.8774C5.63838 13.0953 5.57631 13.2859 5.45216 13.4493C5.32801 13.6127 5.1637 13.7398 4.95922 13.8306C4.7584 13.9214 4.53384 13.9668 4.28554 13.9668ZM4.60321 14.3644C4.60321 14.4407 4.57583 14.506 4.52106 14.5605C4.46994 14.615 4.40421 14.6422 4.32388 14.6422C4.2472 14.6422 4.1833 14.615 4.13218 14.5605C4.08106 14.506 4.0555 14.4407 4.0555 14.3644L4.0555 9.79989C4.0555 9.72 4.08106 9.65464 4.13218 9.6038C4.18695 9.54933 4.2545 9.52209 4.33484 9.52209C4.41151 9.52209 4.47541 9.54933 4.52653 9.6038C4.57765 9.65464 4.60321 9.72 4.60321 9.79989L4.60321 14.3644Z" fill="#F37435"/>
</svg>
