<svg width="120" height="120" viewBox="0 0 120 120" fill="none" xmlns="http://www.w3.org/2000/svg">
<rect width="120" height="120" rx="20" fill="#FFF2F0"/>
<path d="M73.6242 30.8327C73.9109 30.4225 73.8097 29.8574 73.3874 29.5869C68.9562 26.7488 63.7496 25.3251 58.468 25.52C53.1864 25.7148 48.1002 27.5183 43.8926 30.6751C43.4916 30.976 43.4328 31.547 43.7492 31.9349C44.0657 32.3229 44.6375 32.3807 45.0393 32.0809C48.9401 29.1705 53.6478 27.508 58.5354 27.3277C63.4231 27.1474 68.2417 28.4584 72.3486 31.0733C72.7716 31.3427 73.3376 31.2429 73.6242 30.8327Z" fill="#872B94"/>
<path d="M58.4679 25.5205C63.7495 25.3256 68.9566 26.7484 73.3879 29.5865C73.8101 29.857 73.911 30.4228 73.6243 30.8329L73.567 30.9057C73.287 31.2305 72.8135 31.3153 72.4291 31.1196L72.3488 31.0733C68.2419 28.4583 63.4233 27.1471 58.5357 27.3274L58.0774 27.349C53.3542 27.6133 48.8181 29.2619 45.0392 32.0813L44.9622 32.1328C44.5935 32.3562 44.1152 32.3069 43.8118 32.0037L43.749 31.9353C43.4523 31.5717 43.4855 31.0467 43.8211 30.7346L43.8926 30.6754C47.9687 27.6173 52.8694 25.8288 57.9734 25.5429L58.4679 25.5205ZM72.9747 30.2241C68.8089 27.5561 63.9371 26.176 58.977 26.2642L58.4968 26.2777C53.3713 26.4668 48.4349 28.2167 44.3517 31.2801C44.3092 31.312 44.2856 31.3894 44.3414 31.4578L44.3856 31.4937C44.4389 31.5222 44.5146 31.5243 44.5814 31.4747C48.6062 28.4718 53.4639 26.7563 58.5068 26.5702C63.5499 26.3841 68.5224 27.7373 72.76 30.4354C72.8535 30.4947 72.9564 30.4603 72.9986 30.3998L73.0221 30.3465C73.0297 30.3109 73.0207 30.278 73.0039 30.2535L72.9747 30.2241Z" fill="#872B94"/>
<path fill-rule="evenodd" clip-rule="evenodd" d="M73.2682 25.2604C73.6797 25.1703 74.0491 25.435 74.0933 25.8518L74.6595 31.1874C74.6822 31.402 74.6137 31.6263 74.4709 31.804C74.3282 31.9818 74.1248 32.0962 73.9116 32.1186L69.1133 32.6239C68.6994 32.6675 68.3651 32.359 68.3666 31.9348C68.3681 31.5107 68.7048 31.1315 69.1187 31.0879L73.0798 30.6708L72.6031 26.1783C72.5589 25.7615 72.8567 25.3506 73.2682 25.2604Z" fill="#872B94"/>
<path d="M60 33.2205C48.972 33.2205 40 42.143 40 53.1103C40 64.0775 48.972 73.0001 60 73.0001C71.028 73.0001 80 64.0775 80 53.1103C80 42.143 71.028 33.2205 60 33.2205ZM75.9963 46.4803H68.8343C68.2053 42.451 67.0097 39.0813 65.4243 36.7492C70.202 38.3199 74.068 41.8964 75.9963 46.4803ZM66.6667 53.1103C66.6667 54.4996 66.5957 55.8246 66.4743 57.0882H53.5257C53.4043 55.8246 53.3333 54.4996 53.3333 53.1103C53.3333 51.721 53.4043 50.396 53.5257 49.1323H66.474C66.5957 50.396 66.6667 51.721 66.6667 53.1103ZM60 70.3481C57.5927 70.3481 54.9803 66.2134 53.877 59.7402H66.123C65.0197 66.2134 62.4073 70.3481 60 70.3481ZM53.877 46.4803C54.9803 40.0072 57.5927 35.8724 60 35.8724C62.4073 35.8724 65.0197 40.0072 66.123 46.4803H53.877ZM54.5757 36.7492C52.9903 39.0817 51.7943 42.451 51.1657 46.4803H44.0037C45.932 41.8964 49.798 38.3199 54.5757 36.7492ZM43.151 49.1323H50.8447C50.732 50.4122 50.6667 51.7376 50.6667 53.1103C50.6667 54.483 50.732 55.8083 50.845 57.0882H43.151C42.8457 55.8087 42.6667 54.4814 42.6667 53.1103C42.6667 51.7392 42.8457 50.4119 43.151 49.1323ZM44.0037 59.7402H51.1653C51.7943 63.7696 52.99 67.1392 54.5753 69.4713C49.7977 67.9007 45.932 64.3242 44.0037 59.7402ZM65.4243 69.4713C67.0097 67.1389 68.2057 63.7696 68.8343 59.7402H75.996C74.068 64.3242 70.2023 67.9007 65.4243 69.4713ZM76.849 57.0882H69.155C69.268 55.8083 69.3333 54.483 69.3333 53.1103C69.3333 51.7376 69.268 50.4122 69.155 49.1323H76.8487C77.1543 50.4119 77.333 51.7392 77.333 53.1103C77.333 54.4814 77.1543 55.8087 76.849 57.0882Z" fill="#872B94"/>
<path d="M79.4737 53.1103C79.4737 42.4321 70.7373 33.7439 60 33.7439C49.2627 33.7439 40.5263 42.4321 40.5263 53.1103C40.5263 63.7885 49.2627 72.4767 60 72.4767V73.0001L59.485 72.994C48.8652 72.7257 40.2759 64.1838 40.0062 53.6225L40 53.1103C40 42.143 48.972 33.2205 60 33.2205L60.515 33.2266C71.306 33.4992 80 42.3143 80 53.1103L79.9938 53.6225C79.7197 64.354 70.8558 73.0001 60 73.0001V72.4767C70.7373 72.4767 79.4737 63.7885 79.4737 53.1103ZM66.7465 59.2165L66.6417 59.8278C66.0827 63.1072 65.1373 65.8245 64.0039 67.7373C63.4374 68.6934 62.8133 69.4664 62.1505 70.0058C61.4874 70.5453 60.7587 70.8717 60 70.8717C59.2413 70.8717 58.5126 70.5453 57.8495 70.0058C57.1867 69.4664 56.5626 68.6934 55.9961 67.7373C54.8627 65.8245 53.9173 63.1072 53.3583 59.8278L53.2535 59.2165H66.7465ZM51.616 59.2165L51.6859 59.6601C52.3075 63.642 53.4835 66.9302 55.0113 69.1777L55.8758 70.4505L54.41 69.968C49.4873 68.3496 45.5046 64.6656 43.5177 59.9423L43.2134 59.2165H51.616ZM76.7866 59.2165L76.4813 59.9423C74.4946 64.6656 70.512 68.3497 65.589 69.968L64.1242 70.4505L64.9887 69.1777C66.5165 66.9298 67.6929 63.6418 68.3141 59.6601L68.383 59.2165H76.7866ZM53.8775 59.7399C54.9463 66.0108 57.4309 70.0874 59.7739 70.336L60 70.3483C62.4073 70.3483 65.0192 66.213 66.1225 59.7399H53.8775ZM44.0039 59.7399C45.9322 64.3238 49.7978 67.9005 54.5755 69.4711C52.9901 67.139 51.7947 63.7692 51.1657 59.7399H44.0039ZM68.8343 59.7399C68.2057 63.7691 67.0098 67.1387 65.4246 69.4711C70.2024 67.9005 74.0681 64.3237 75.9961 59.7399H68.8343ZM50.6671 53.1103C50.6671 51.7376 50.7323 50.4124 50.845 49.1325H43.1507C42.8454 50.412 42.6665 51.7393 42.6665 53.1103L42.6748 53.6225C42.7077 54.6426 42.838 55.6378 43.0428 56.6065L43.1507 57.088H50.845C50.7602 56.128 50.7021 55.1425 50.6785 54.1305L50.6671 53.1103ZM66.6663 53.1103C66.6663 51.7211 66.5958 50.3961 66.4741 49.1325H53.5259C53.4046 50.3961 53.3337 51.721 53.3337 53.1103L53.346 54.1408C53.3631 54.8193 53.3973 55.482 53.4447 56.1291L53.5259 57.088H66.4741L66.5553 56.1291C66.6027 55.482 66.6369 54.8193 66.654 54.1408L66.6663 53.1103ZM77.3335 53.1103C77.3335 51.7392 77.1539 50.4121 76.8483 49.1325H69.155C69.268 50.4124 69.3329 51.7376 69.3329 53.1103L69.3216 54.1305C69.2979 55.1425 69.2398 56.128 69.155 57.088H76.8493L76.9572 56.6065C77.1619 55.6379 77.2913 54.6426 77.3242 53.6225L77.3335 53.1103ZM55.0113 37.0428C53.4836 39.2908 52.3071 42.5787 51.6859 46.5604L51.617 47.0041H43.2134L43.5177 46.2783C45.5047 41.5549 49.4882 37.8709 54.411 36.2526L55.8758 35.7701L55.0113 37.0428ZM60 35.3489C60.7587 35.3489 61.4874 35.6752 62.1505 36.2148C62.8133 36.7542 63.4374 37.5272 64.0039 38.4832C65.1373 40.3961 66.0827 43.1133 66.6417 46.3928L66.7465 47.0041H53.2535L53.3583 46.3928C53.9173 43.1133 54.8627 40.3961 55.9961 38.4832C56.5626 37.5272 57.1867 36.7542 57.8495 36.2148C58.5126 35.6752 59.2413 35.3489 60 35.3489ZM65.589 36.2526C70.5118 37.8709 74.4953 41.5549 76.4823 46.2783L76.7866 47.0041H68.383L68.3141 46.5604C67.6926 42.5787 66.5164 39.2904 64.9887 37.0428L64.1232 35.7701L65.589 36.2526ZM54.5755 36.7494C49.7979 38.3201 45.9322 41.8968 44.0039 46.4807H51.1657L51.2901 45.7324C51.9453 42.0338 53.0893 38.936 54.5755 36.7494ZM65.4246 36.7494C66.9107 38.9357 68.0545 42.0338 68.7099 45.7324L68.8343 46.4807H75.9961C74.0678 41.8968 70.2021 38.3201 65.4246 36.7494ZM60 35.8723C57.5927 35.8723 54.9808 40.0075 53.8775 46.4807H66.1225C65.0537 40.2098 62.5691 36.1331 60.2262 35.8846L60 35.8723ZM51.1935 53.1103C51.1935 54.4663 51.2575 55.7762 51.3692 57.042L51.4196 57.6115H42.7354L42.6388 57.2087C42.3253 55.8947 42.1402 54.5268 42.1402 53.1103C42.1402 51.6938 42.3253 50.3259 42.6388 49.0119L42.7354 48.6091H51.4186L51.3692 49.1775C51.2578 50.4436 51.1935 51.7541 51.1935 53.1103ZM67.1926 53.1103C67.1926 54.5174 67.1212 55.8592 66.9984 57.1381L66.9531 57.6115H53.0469L53.0016 57.1381C52.8788 55.8592 52.8074 54.5174 52.8074 53.1103C52.8074 51.7032 52.8788 50.3614 53.0016 49.0824L53.0469 48.6091H66.9521L66.9984 49.0824C67.1215 50.3615 67.1926 51.7032 67.1926 53.1103ZM77.8598 53.1103C77.8598 54.5267 77.6748 55.8946 77.3612 57.2087L77.2646 57.6115H68.5804L68.6308 57.042C68.7425 55.7762 68.8065 54.4663 68.8065 53.1103C68.8065 51.7543 68.7425 50.4444 68.6308 49.1785L68.5804 48.6091H77.2646L77.3612 49.0109C77.6752 50.3251 77.8598 51.6937 77.8598 53.1103Z" fill="#FFF2F0"/>
<path d="M90 53.1102C90 58.8917 85.2872 63.5785 79.4737 63.5785C73.6602 63.5785 68.9474 58.8917 68.9474 53.1102C68.9474 47.3287 73.6602 42.6418 79.4737 42.6418C85.2872 42.6418 90 47.3287 90 53.1102Z" fill="#FFF2F0"/>
<path d="M88.2268 53.1102C88.2268 48.3024 84.3081 44.4053 79.4737 44.4053C74.6393 44.4053 70.7206 48.3024 70.7206 53.1102C70.7206 57.9179 74.6393 61.815 79.4737 61.815V63.5785C73.6602 63.5785 68.9474 58.8917 68.9474 53.1102C68.9474 47.3287 73.6602 42.6418 79.4737 42.6418C85.2872 42.6418 90 47.3287 90 53.1102C90 58.8917 85.2872 63.5785 79.4737 63.5785V61.815C84.3081 61.815 88.2268 57.9179 88.2268 53.1102Z" fill="#F37435"/>
<path d="M76.2224 54.0144C76.0364 54.0144 75.8798 53.9511 75.7525 53.8245C75.6253 53.698 75.5616 53.5373 75.5616 53.3426C75.5616 53.1674 75.6253 53.0213 75.7525 52.9045C75.8798 52.7877 76.0364 52.7293 76.2224 52.7293L80.848 52.7293C81.034 52.7293 81.1906 52.7926 81.3179 52.9191C81.4451 53.0457 81.5088 53.2015 81.5088 53.3864C81.5088 53.5714 81.4451 53.7223 81.3179 53.8391C81.1906 53.956 81.034 54.0144 80.848 54.0144L76.2224 54.0144ZM78.2195 57.0081C78.6306 57.0081 79.0369 57.0665 79.4383 57.1833C79.8396 57.3001 80.2312 57.417 80.613 57.5338C81.0046 57.6506 81.3717 57.709 81.7143 57.709C81.9101 57.709 82.1157 57.675 82.3311 57.6068C82.5464 57.5289 82.7178 57.4462 82.845 57.3586C82.9331 57.3099 83.0212 57.2709 83.1093 57.2417C83.2072 57.2125 83.2953 57.1979 83.3737 57.1979C83.5792 57.1979 83.731 57.2661 83.8289 57.4024C83.9268 57.5289 83.9757 57.6798 83.9757 57.8551C83.9757 58.0595 83.8974 58.2396 83.7408 58.3954C83.5939 58.5414 83.3688 58.668 83.0653 58.7751C82.8597 58.8724 82.6297 58.9406 82.3751 58.9795C82.1304 59.0185 81.9052 59.0331 81.6997 59.0233C81.4451 59.0136 81.1514 58.9747 80.8186 58.9065C80.4858 58.8384 80.1431 58.7605 79.7907 58.6729C79.4481 58.5755 79.1201 58.4928 78.8068 58.4246C78.4936 58.3565 78.2342 58.3224 78.0286 58.3224C77.8622 58.3224 77.6908 58.337 77.5146 58.3662C77.3482 58.3857 77.1916 58.41 77.0447 58.4392C76.9077 58.4684 76.7902 58.4976 76.6923 58.5268C76.5357 58.5658 76.4035 58.6193 76.2958 58.6875C76.1882 58.7556 76.0707 58.7897 75.9434 58.7897C75.7868 58.7897 75.6497 58.7361 75.5323 58.629C75.4246 58.5122 75.3707 58.3613 75.3707 58.1763C75.3707 57.9914 75.4246 57.8307 75.5323 57.6944C75.6497 57.5581 75.8113 57.451 76.0168 57.3732C76.2518 57.2953 76.4965 57.2271 76.751 57.1687C77.0056 57.1103 77.2601 57.0714 77.5146 57.0519C77.7692 57.0227 78.0041 57.0081 78.2195 57.0081ZM77.8377 57.8989L76.707 57.5922C76.8343 57.5241 76.9517 57.4072 77.0594 57.2417C77.1769 57.0665 77.2748 56.8523 77.3531 56.5992C77.4314 56.3461 77.4706 56.0589 77.4706 55.7376C77.4706 55.3676 77.4216 55.0025 77.3237 54.6423C77.2356 54.2821 77.1328 53.9316 77.0154 53.5909C76.8979 53.2501 76.7902 52.9143 76.6923 52.5832C76.6042 52.2522 76.5602 51.9212 76.5602 51.5902C76.5602 50.9477 76.6923 50.3879 76.9566 49.9108C77.2307 49.424 77.6125 49.0444 78.102 48.7718C78.6013 48.4894 79.1984 48.3483 79.8935 48.3483C80.334 48.3483 80.7501 48.4067 81.1416 48.5235C81.543 48.6403 81.8808 48.8107 82.1549 49.0346C82.3604 49.1612 82.522 49.2975 82.6394 49.4435C82.7667 49.5798 82.8303 49.7259 82.8303 49.8816C82.8303 50.0861 82.752 50.2613 82.5954 50.4073C82.4485 50.5534 82.2772 50.6264 82.0814 50.6264C81.9738 50.6264 81.871 50.6069 81.7731 50.568C81.6752 50.529 81.5969 50.4804 81.5381 50.4219C81.3325 50.2078 81.0927 50.0423 80.8186 49.9254C80.5543 49.7989 80.2459 49.7356 79.8935 49.7356C79.5117 49.7356 79.1837 49.8232 78.9096 49.9984C78.6355 50.1737 78.43 50.4025 78.2929 50.6848C78.1558 50.9671 78.0873 51.2787 78.0873 51.6194C78.0873 51.9018 78.1314 52.2036 78.2195 52.5248C78.3174 52.8461 78.4202 53.1771 78.5278 53.5179C78.6453 53.8489 78.7481 54.175 78.8362 54.4963C78.9341 54.8176 78.9831 55.1194 78.9831 55.4017C78.9831 55.7814 78.9243 56.127 78.8068 56.4385C78.6894 56.7501 78.5425 57.0275 78.3663 57.2709C78.1901 57.5143 78.0139 57.7236 77.8377 57.8989Z" fill="#F37435"/>
<path d="M51.0526 53.1102C51.0526 58.8917 46.3398 63.5785 40.5263 63.5785C34.7128 63.5785 30 58.8917 30 53.1102C30 47.3287 34.7128 42.6418 40.5263 42.6418C46.3398 42.6418 51.0526 47.3287 51.0526 53.1102Z" fill="#FFF2F0"/>
<path d="M49.1951 53.1102C49.1951 48.3489 45.3139 44.4891 40.5263 44.4891C35.7387 44.4891 31.8575 48.3489 31.8575 53.1102C31.8575 57.8714 35.7387 61.7312 40.5263 61.7312V63.5785C34.7128 63.5785 30 58.8917 30 53.1102C30 47.3287 34.7128 42.6418 40.5263 42.6418C46.3398 42.6418 51.0526 47.3287 51.0526 53.1102C51.0526 58.8917 46.3398 63.5785 40.5263 63.5785V61.7312C45.3139 61.7312 49.1951 57.8714 49.1951 53.1102Z" fill="#F37435"/>
<path d="M40.7139 58.417C40.0566 58.417 39.4724 58.3262 38.9612 58.1447C38.45 57.9631 37.9616 57.6635 37.4961 57.2459C37.3957 57.1733 37.3181 57.087 37.2633 56.9872C37.2176 56.8783 37.1948 56.7693 37.1948 56.6604C37.1948 56.4879 37.2587 56.3336 37.3865 56.1974C37.5143 56.0612 37.6741 55.9931 37.8658 55.9931C38.0118 55.9931 38.1488 56.0431 38.2765 56.1429C38.6234 56.4607 38.984 56.7012 39.3583 56.8646C39.7417 57.028 40.189 57.1097 40.7002 57.1097C41.0653 57.1097 41.3985 57.0507 41.6997 56.9327C42.0101 56.8147 42.2566 56.6558 42.4391 56.4561C42.6217 56.2564 42.713 56.0249 42.713 55.7616C42.713 55.4348 42.6171 55.167 42.4254 54.9582C42.2429 54.7403 41.9736 54.5633 41.6176 54.4271C41.2707 54.2819 40.8508 54.1593 40.3578 54.0595C39.9014 53.9778 39.4906 53.8643 39.1255 53.719C38.7695 53.5738 38.4637 53.3922 38.2081 53.1743C37.9525 52.9474 37.7562 52.6796 37.6193 52.3709C37.4824 52.0623 37.4139 51.7037 37.4139 51.2952C37.4139 50.7414 37.56 50.2648 37.8521 49.8653C38.1442 49.4659 38.5413 49.1572 39.0433 48.9394C39.5454 48.7215 40.1114 48.6126 40.7412 48.6126C41.3163 48.6126 41.8549 48.7033 42.357 48.8849C42.859 49.0574 43.2653 49.2934 43.5756 49.593C43.7947 49.7836 43.9043 49.9879 43.9043 50.2058C43.9043 50.3692 43.8358 50.5235 43.6989 50.6688C43.5711 50.8049 43.4204 50.873 43.247 50.873C43.1192 50.873 43.0097 50.8367 42.9184 50.7641C42.7723 50.6098 42.5761 50.4736 42.3296 50.3556C42.0831 50.2285 41.8184 50.1241 41.5354 50.0424C41.2616 49.9607 40.9968 49.9198 40.7412 49.9198C40.3305 49.9198 39.979 49.9788 39.6869 50.0968C39.3948 50.2058 39.1711 50.3601 39.016 50.5598C38.8608 50.7505 38.7832 50.9774 38.7832 51.2407C38.7832 51.5494 38.8699 51.8035 39.0433 52.0033C39.2259 52.203 39.4769 52.3664 39.7964 52.4935C40.1159 52.6115 40.4811 52.7204 40.8919 52.8203C41.3939 52.9292 41.8412 53.0518 42.2337 53.188C42.6354 53.3241 42.9732 53.5012 43.247 53.719C43.5209 53.9278 43.7308 54.1911 43.8769 54.5088C44.0229 54.8266 44.096 55.2215 44.096 55.6935C44.096 56.2382 43.9408 56.7148 43.6304 57.1234C43.32 57.5319 42.9093 57.8496 42.3981 58.0766C41.896 58.3035 41.3346 58.417 40.7139 58.417ZM41.508 59.4111C41.508 59.6017 41.4396 59.7651 41.3026 59.9013C41.1748 60.0375 41.0105 60.1055 40.8097 60.1055C40.618 60.1055 40.4583 60.0375 40.3305 59.9013C40.2027 59.7651 40.1388 59.6017 40.1388 59.4111L40.1388 47.9998C40.1388 47.8001 40.2027 47.6367 40.3305 47.5096C40.4674 47.3734 40.6363 47.3053 40.8371 47.3053C41.0288 47.3053 41.1885 47.3734 41.3163 47.5096C41.4441 47.6367 41.508 47.8001 41.508 47.9998L41.508 59.4111Z" fill="#F37435"/>
<path d="M3.05176e-05 96H120V100C120 111.046 111.046 120 100 120H20C8.95434 120 3.05176e-05 111.046 3.05176e-05 100V96Z" fill="#6D3078"/>
<path d="M53.2117 102.496C53.393 102.496 53.537 102.554 53.6437 102.672C53.7503 102.778 53.8037 102.917 53.8037 103.088V113.024C53.8037 113.226 53.7397 113.392 53.6117 113.52C53.4837 113.637 53.329 113.696 53.1477 113.696C53.0517 113.696 52.9557 113.68 52.8597 113.648C52.7637 113.605 52.689 113.552 52.6357 113.488L45.7877 104.432L46.1077 104.24V113.104C46.1077 113.274 46.049 113.418 45.9317 113.536C45.825 113.642 45.681 113.696 45.4997 113.696C45.329 113.696 45.1903 113.642 45.0837 113.536C44.977 113.418 44.9237 113.274 44.9237 113.104V103.136C44.9237 102.944 44.9823 102.789 45.0997 102.672C45.2277 102.554 45.377 102.496 45.5477 102.496C45.6437 102.496 45.7397 102.517 45.8357 102.56C45.9423 102.592 46.0223 102.645 46.0757 102.72L52.8277 111.648L52.6197 111.904V103.088C52.6197 102.917 52.673 102.778 52.7797 102.672C52.897 102.554 53.041 102.496 53.2117 102.496ZM60.2112 113.856C59.3578 113.856 58.6112 113.674 57.9712 113.312C57.3312 112.949 56.8298 112.453 56.4672 111.824C56.1152 111.184 55.9392 110.448 55.9392 109.616C55.9392 108.688 56.1205 107.898 56.4832 107.248C56.8565 106.586 57.3365 106.085 57.9232 105.744C58.5205 105.392 59.1498 105.216 59.8112 105.216C60.3018 105.216 60.7765 105.306 61.2352 105.488C61.6938 105.669 62.0992 105.936 62.4512 106.288C62.8032 106.629 63.0858 107.045 63.2992 107.536C63.5125 108.016 63.6245 108.554 63.6352 109.152C63.6352 109.322 63.5712 109.466 63.4432 109.584C63.3152 109.701 63.1658 109.76 62.9952 109.76H56.6752L56.3872 108.656H62.5472L62.2912 108.88V108.528C62.2485 108.09 62.0992 107.717 61.8432 107.408C61.5978 107.088 61.2938 106.842 60.9312 106.672C60.5792 106.501 60.2058 106.416 59.8112 106.416C59.4912 106.416 59.1712 106.474 58.8512 106.592C58.5418 106.698 58.2592 106.88 58.0032 107.136C57.7578 107.381 57.5552 107.701 57.3952 108.096C57.2458 108.49 57.1712 108.965 57.1712 109.52C57.1712 110.138 57.2938 110.682 57.5392 111.152C57.7952 111.621 58.1472 111.994 58.5952 112.272C59.0432 112.538 59.5658 112.672 60.1632 112.672C60.5365 112.672 60.8618 112.624 61.1392 112.528C61.4165 112.432 61.6565 112.314 61.8592 112.176C62.0618 112.026 62.2325 111.877 62.3712 111.728C62.5098 111.632 62.6432 111.584 62.7712 111.584C62.9312 111.584 63.0592 111.637 63.1552 111.744C63.2618 111.85 63.3152 111.978 63.3152 112.128C63.3152 112.309 63.2298 112.469 63.0592 112.608C62.7605 112.938 62.3552 113.232 61.8432 113.488C61.3312 113.733 60.7872 113.856 60.2112 113.856ZM75.319 105.28C75.4897 105.28 75.6337 105.338 75.751 105.456C75.879 105.573 75.943 105.728 75.943 105.92C75.943 105.962 75.9377 106.01 75.927 106.064C75.927 106.106 75.9164 106.149 75.895 106.192L73.431 113.28C73.3777 113.418 73.287 113.525 73.159 113.6C73.0417 113.674 72.9137 113.706 72.775 113.696C72.5297 113.685 72.343 113.546 72.215 113.28L70.199 108.224L70.519 108.272L68.695 113.28C68.5777 113.546 68.391 113.685 68.135 113.696C67.9964 113.706 67.863 113.674 67.735 113.6C67.607 113.525 67.5217 113.418 67.479 113.28L64.967 106.192C64.935 106.096 64.919 106.005 64.919 105.92C64.919 105.749 64.9777 105.6 65.095 105.472C65.2124 105.344 65.3724 105.28 65.575 105.28C65.703 105.28 65.8204 105.312 65.927 105.376C66.0337 105.44 66.1084 105.541 66.151 105.68L68.311 111.984L67.975 111.968L69.847 107.168C69.9537 106.901 70.151 106.768 70.439 106.768C70.5884 106.768 70.7057 106.805 70.791 106.88C70.887 106.944 70.9564 107.04 70.999 107.168L72.951 111.968L72.551 112L74.711 105.68C74.807 105.413 75.0097 105.28 75.319 105.28Z" fill="white"/>
</svg>
