<svg width="120" height="120" viewBox="0 0 120 120" fill="none" xmlns="http://www.w3.org/2000/svg">
<rect width="120" height="120" rx="20" fill="#FFF2F0"/>
<path d="M44.87 41.7471C44.87 41.7471 46.7573 30 60.6256 30C72.2638 30 75.4196 38.5413 76.1336 41.2882C76.2302 41.6602 75.87 41.9544 75.5085 41.824C72.1737 40.621 69.9878 40.53 66.457 41.8338C64.187 40.9338 62.4143 40.4908 60.739 40.4417M44.87 41.8338C48.5187 40.6729 50.6205 40.693 54.4972 41.8338C56.8894 40.8827 58.7453 40.3833 60.739 40.4417M60.739 40.4417V56.6422" stroke="#F37435" stroke-width="1.5" stroke-linecap="round"/>
<path d="M56.5311 79.8406L55.7424 89.085C55.6982 89.6025 55.2653 90 54.746 90H46.5719C46.0398 90 45.601 89.5834 45.5732 89.0521L44.6893 72.1074H42C41.4477 72.1074 41 71.6597 41 71.1074V61.4278C41 58.1141 43.6863 55.4278 47 55.4278H54.5131C57.8268 55.4278 60.5131 58.1141 60.5131 61.4278V63.5263M65.9763 79.0785L66.9168 88.9581C66.9658 89.4723 67.3984 89.8646 67.915 89.8633L72.6242 89.8508C73.1338 89.8494 73.5609 89.465 73.6157 88.9582L74.8752 77.3062H75.5308C76.3864 77.3062 77.0483 76.5754 76.9422 75.7479L76.5642 72.8006H77.5773C78.4477 72.8006 79.1139 72.0455 78.9837 71.2068L77.2912 60.3075C76.9755 58.2741 75.1822 56.7709 73.0722 56.7709H70.3316H67.591C65.4895 56.7709 63.7009 58.2622 63.3754 60.2858L62.8404 63.6831M61.0646 70.5493C64.0961 70.5493 66.5537 72.9447 66.5537 75.8995V78.5928C66.5537 79.3332 65.9379 79.9334 65.1783 79.9334H64.6031L64.256 88.6673C64.2264 89.4116 63.5988 90 62.8347 90H59.5281C58.7706 90 58.146 89.4214 58.1075 88.6841L57.651 79.9334H56.9508C56.1912 79.9334 55.5754 79.3332 55.5754 78.5928V75.8995C55.5754 72.9447 58.033 70.5493 61.0646 70.5493ZM61.0646 70.5493C62.908 70.5493 64.4025 69.023 64.4025 67.1402C64.4025 65.2574 62.908 63.7311 61.0646 63.7311C59.2211 63.7311 57.7266 65.2574 57.7266 67.1402C57.7266 69.023 59.2211 70.5493 61.0646 70.5493ZM55.2643 49.8046C55.2643 52.1016 53.3538 53.9636 50.9972 53.9636C48.6405 53.9636 46.7301 52.1016 46.7301 49.8046C46.7301 47.5076 48.6405 45.6455 50.9972 45.6455C53.3538 45.6455 55.2643 47.5076 55.2643 49.8046ZM73.0013 52.7506C73.0013 54.2819 71.7277 55.5233 70.1566 55.5233C68.5855 55.5233 67.3118 54.2819 67.3118 52.7506C67.3118 51.2192 68.5855 49.9779 70.1566 49.9779C71.7277 49.9779 73.0013 51.2192 73.0013 52.7506Z" stroke="#6E2E6D" stroke-width="1.5"/>
</svg>
