<?xml version="1.0" encoding="UTF-8"?>
<svg width="60px" height="40px" viewBox="0 0 60 40" version="1.1" xmlns="http://www.w3.org/2000/svg" xmlns:xlink="http://www.w3.org/1999/xlink">
    <!-- Generator: Sketch 53.2 (72643) - https://sketchapp.com -->
    <title>debitcard-icon</title>
    <desc>Created with Sketch.</desc>
    <g id="Dashboard" stroke="none" stroke-width="1" fill="none" fill-rule="evenodd">
        <g id="02" transform="translate(-764.000000, -320.000000)">
            <g id="debitcard-icon" transform="translate(764.000000, 320.000000)">
                <path d="M1,1 L1,39 L59,39 L59,10 C59,5.02943725 54.9705627,1 50,1 L1,1 Z" id="Rectangle" stroke="#6D3078" stroke-width="2"></path>
                <path d="M23.1256026,24.6817703 L8.51998288,24.6817703 C7.84812438,24.6817703 7.30280987,25.2338171 7.30280987,25.9139701 C7.30280987,26.5941232 7.84812438,27.1460544 8.51998288,27.1460544 L23.1256026,27.1460544 C23.7974611,27.1460544 24.3427756,26.5940077 24.3427756,25.9138546 C24.3427756,25.2337015 23.7974611,24.6817703 23.1256026,24.6817703 Z" id="Path" fill="#6D3078"></path>
                <path d="M23.1256026,29.6103386 L8.51998288,29.6103386 C7.84812438,29.6103386 7.30280987,30.1623854 7.30280987,30.8425384 C7.30280987,31.5226915 7.84812438,32.0747383 8.51998288,32.0747383 L23.1256026,32.0747383 C23.7974611,32.0747383 24.3427756,31.5226915 24.3427756,30.8425384 C24.3426615,30.1623854 23.7974611,29.6103386 23.1256026,29.6103386 Z" id="Path" fill="#6D3078"></path>
                <path d="M47.4682642,22.2173706 L45.0340322,22.2173706 C43.0208529,22.2173706 41.3826273,23.8758212 41.3826273,25.9138546 L41.3826273,28.3781388 C41.3826273,30.4161721 43.0208529,32.0746228 45.0340322,32.0746228 L47.4682642,32.0746228 C49.4814434,32.0746228 51.1196691,30.4161721 51.1196691,28.3781388 L51.1196691,25.9138546 C51.1196691,23.8759368 49.4814434,22.2173706 47.4682642,22.2173706 Z M48.6854372,28.3782543 C48.6854372,29.0584073 48.1401227,29.6104541 47.4682642,29.6104541 L45.0340322,29.6104541 C44.3621737,29.6104541 43.8168592,29.0584073 43.8168592,28.3782543 L43.8168592,25.9139701 C43.8168592,25.2338171 44.3621737,24.6817703 45.0340322,24.6817703 L47.4682642,24.6817703 C48.1401227,24.6817703 48.6854372,25.2338171 48.6854372,25.9139701 L48.6854372,28.3782543 Z" id="Shape" fill="#F37435" fill-rule="nonzero"></path>
                <path d="M1,12.8518519 L1,18.2592593 L58.6436485,18.2592593 L58.6436485,12.8518519 L1,12.8518519 Z" id="Rectangle" stroke="#6D3078" stroke-width="2"></path>
            </g>
        </g>
    </g>
</svg>