<?xml version="1.0" encoding="UTF-8"?>
<svg width="60px" height="60px" viewBox="0 0 60 60" version="1.1" xmlns="http://www.w3.org/2000/svg" xmlns:xlink="http://www.w3.org/1999/xlink">
    <!-- Generator: Sketch 53.2 (72643) - https://sketchapp.com -->
    <title>demat-icon</title>
    <desc>Created with Sketch.</desc>
    <g id="Dashboard" stroke="none" stroke-width="1" fill="none" fill-rule="evenodd">
        <g id="02" transform="translate(-540.000000, -710.000000)" fill-rule="nonzero">
            <g id="demat-icon" transform="translate(540.000000, 710.000000)">
                <path d="M9.97995842,40.9150104 C9.97983368,40.9150104 9.9795842,40.9150104 9.97945946,40.9150104 L1.99609148,40.9150104 C1.44511435,40.9148857 0.998295218,41.3614553 0.998170478,41.9124324 C0.998170478,41.9125572 0.998170478,41.9128067 0.998170478,41.9129314 L0.998170478,58.8775884 C0.998045738,59.4285655 1.44461538,59.8753846 1.99559252,59.8755094 C1.99571726,59.8755094 1.99596674,59.8755094 1.99609148,59.8755094 L9.97945946,59.8755094 C10.5304366,59.8756341 10.9772557,59.4290644 10.9773805,58.8780873 C10.9773805,58.8779626 10.9773805,58.8777131 10.9773805,58.8775884 L10.9773805,41.9129314 C10.9775052,41.3619543 10.5309356,40.9151351 9.97995842,40.9150104 Z M8.98141372,57.8796674 L2.99388773,57.8796674 L2.99388773,42.9108524 L8.98141372,42.9108524 L8.98141372,57.8796674 Z" id="Shape" fill="#6D3078"></path>
                <path d="M45.9051143,32.9316424 C45.9049896,32.9316424 45.9047401,32.9316424 45.9046154,32.9316424 L37.9212474,32.9316424 C37.3702703,32.9315177 36.9234511,33.3780873 36.9233264,33.9290644 C36.9233264,33.9291892 36.9233264,33.9294387 36.9233264,33.9295634 L36.9233264,58.8775884 C36.9232017,59.4285655 37.3697713,59.8753846 37.9207484,59.8755094 C37.9208732,59.8755094 37.9211227,59.8755094 37.9212474,59.8755094 L45.9046154,59.8755094 C46.4555925,59.8756341 46.9024116,59.4290644 46.9025364,58.8780873 C46.9025364,58.8779626 46.9025364,58.8777131 46.9025364,58.8775884 L46.9025364,33.9295634 C46.9026611,33.3785863 46.4560915,32.9317672 45.9051143,32.9316424 Z M44.9065696,57.8796674 L38.9190437,57.8796674 L38.9190437,34.9274844 L44.9065696,34.9274844 L44.9065696,57.8796674 Z" id="Shape" fill="#6D3078"></path>
                <path d="M33.9300624,37.9212474 C33.9299376,37.9212474 33.9296881,37.9212474 33.9295634,37.9212474 L25.9461954,37.9212474 C25.3952183,37.9211227 24.9483992,38.3676923 24.9482744,38.9186694 C24.9482744,38.9187942 24.9482744,38.9190437 24.9482744,38.9191684 L24.9482744,58.8775884 C24.9481497,59.4285655 25.3947193,59.8753846 25.9456965,59.8755094 C25.9458212,59.8755094 25.9460707,59.8755094 25.9461954,59.8755094 L33.9295634,59.8755094 C34.4805405,59.8756341 34.9273597,59.4290644 34.9274844,58.8780873 C34.9274844,58.8779626 34.9274844,58.8777131 34.9274844,58.8775884 L34.9274844,38.9191684 C34.9276091,38.3681913 34.4810395,37.9213721 33.9300624,37.9212474 Z M32.9315177,57.8796674 L26.9439917,57.8796674 L26.9439917,39.9170894 L32.9315177,39.9170894 L32.9315177,57.8796674 Z" id="Shape" fill="#6D3078"></path>
                <path d="M21.9550104,25.9461954 C21.9548857,25.9461954 21.9546362,25.9461954 21.9545114,25.9461954 L13.9711435,25.9461954 C13.4201663,25.9460707 12.9733472,26.3926403 12.9732225,26.9436175 C12.9732225,26.9437422 12.9732225,26.9439917 12.9732225,26.9441164 L12.9732225,58.8775884 C12.9730977,59.4285655 13.4196674,59.8753846 13.9706445,59.8755094 C13.9707692,59.8755094 13.9710187,59.8755094 13.9711435,59.8755094 L21.9545114,59.8755094 C22.5054886,59.8756341 22.9523077,59.4290644 22.9524324,58.8780873 C22.9524324,58.8779626 22.9524324,58.8777131 22.9524324,58.8775884 L22.9524324,26.9441164 C22.9525572,26.3931393 22.5059875,25.9463202 21.9550104,25.9461954 Z M20.9564657,57.8796674 L14.9689397,57.8796674 L14.9689397,27.9420374 L20.9564657,27.9420374 L20.9564657,57.8796674 Z" id="Shape" fill="#6D3078"></path>
                <path d="M57.8801663,45.9046154 C57.8800416,45.9046154 57.8797921,45.9046154 57.8796674,45.9046154 L49.8962994,45.9046154 C49.3453222,45.9044906 48.8985031,46.3510603 48.8983784,46.9020374 C48.8983784,46.9021622 48.8983784,46.9024116 48.8983784,46.9025364 L48.8983784,58.8775884 C48.8982536,59.4285655 49.3448233,59.8753846 49.8958004,59.8755094 C49.8959252,59.8755094 49.8961746,59.8755094 49.8962994,59.8755094 L57.8796674,59.8755094 C58.4306445,59.8756341 58.8774636,59.4290644 58.8775884,58.8780873 C58.8775884,58.8779626 58.8775884,58.8777131 58.8775884,58.8775884 L58.8775884,46.9025364 C58.8777131,46.3515593 58.4311435,45.9047401 57.8801663,45.9046154 Z M56.8816216,57.8796674 L50.8940956,57.8796674 L50.8940956,47.9004574 L56.8816216,47.9004574 L56.8816216,57.8796674 Z" id="Shape" fill="#6D3078"></path>
                <path d="M59.6353846,21.8758004 C59.5722661,21.802079 59.4986694,21.7379626 59.4169647,21.6855717 L55.4252807,19.1196674 C54.9621206,18.8215385 54.3449064,18.9552599 54.0466528,19.41842 C53.9429938,19.5795842 53.8878586,19.7670686 53.8878586,19.9586694 L53.8878586,21.9545114 L50.4301871,21.9545114 L42.7430769,10.4237838 C42.4011642,9.96523909 41.7522661,9.87068607 41.2937214,10.2125988 C41.2135135,10.272474 41.1422869,10.3435759 41.0825364,10.4237838 L30.1293555,26.8534304 L18.8797921,0.605488565 C18.7237422,0.230893971 18.353763,-0.00948024948 17.9481081,0.000249480249 C17.5433264,0.00586278586 17.1823285,0.255841996 17.0345114,0.632681913 L4.31051975,32.9316424 L0.000124740125,32.9316424 L0.000124740125,34.9274845 L4.98972973,34.9274844 C5.39975052,34.9276091 5.76810811,34.676632 5.917921,34.295052 L18.0016216,3.62257796 L29.0206653,29.3326403 C29.2370894,29.83921 29.8231185,30.0743451 30.3296881,29.857921 C30.5081913,29.7817048 30.660499,29.6549688 30.7680249,29.4934304 L41.9128067,12.7762578 L49.0659044,23.5059044 C49.250894,23.7835759 49.5624948,23.9503534 49.8961746,23.9502287 L53.8878586,23.9502287 L53.8878586,25.9460707 C53.8877339,26.4970478 54.3341788,26.9438669 54.8851559,26.9439917 C55.123659,26.9441164 55.3543035,26.8586694 55.5353015,26.7032432 L59.5269854,23.2816216 C59.9452391,22.9234927 59.993763,22.2939293 59.6353846,21.8758004 Z M55.8837006,23.7769647 L55.8837006,21.7869854 L57.2105613,22.6397089 L55.8837006,23.7769647 Z" id="Shape" fill="#F37435"></path>
            </g>
        </g>
    </g>
</svg>