<?xml version="1.0" encoding="UTF-8"?>
<svg width="30px" height="32px" viewBox="0 0 30 32" version="1.1" xmlns="http://www.w3.org/2000/svg" xmlns:xlink="http://www.w3.org/1999/xlink">
    <!-- Generator: Sketch 58 (84663) - https://sketch.com -->
    <title>deposits_fill_icon</title>
    <desc>Created with Sketch.</desc>
    <g id="Symbols" stroke="none" stroke-width="1" fill="none" fill-rule="evenodd">
        <g id="Side-Bar-Menu" transform="translate(-53.000000, -290.000000)" stroke="#6D3078">
            <g id="sidebar">
                <g>
                    <g id="Group-17" transform="translate(0.000000, 29.000000)">
                        <g id="deposits-icon" transform="translate(54.000000, 260.000000)">
                            <g id="deposits_solid" transform="translate(0.000000, 2.000000)">
                                <g id="Group">
                                    <path d="M26.6735492,19.127774 C26.6735492,19.127774 20.6575249,29.5292535 18.9314818,30 L9.0599534,30 C7.33425933,29.5292535 1.32416766,19.127774 1.32416766,19.127774 C-0.956749718,15.1220578 0.401121997,13.0114324 0.401121997,13.0114324 C0.461495116,10.8429724 10.8823143,4.04068594 10.8823143,4.04068594 C11.1597514,3.29623403 10.6045281,3.46503026 10.5385713,2.48251513 C10.4837819,1.6395427 11.8957451,1.83120377 11.8957451,1.83120377 L13.9958921,0 L16.1016227,1.83120377 C16.1016227,1.83120377 17.513586,1.6395427 17.4532129,2.48251513 C17.3872561,3.46503026 16.8376164,3.29623403 17.1154026,4.04068594 C17.1154026,4.04068594 27.5365707,10.8429724 27.5969438,13.0114324 C27.5969438,13.0114324 28.9541176,15.1220578 26.6735492,19.127774 Z" id="Stroke-1"></path>
                                    <path d="M19.310332,10.9905033 C19.310332,10.9905033 15.2136149,9.8281457 14.0015628,9.94951637 C12.7885631,9.8281457 8.69231987,10.9905033 8.69231987,10.9905033 C8.28293246,11.0712614 7.87307122,10.6352606 8.03701572,9.74738752 C8.18011178,8.97901783 12.623671,8.2045796 13.7456957,8.02065635 C13.9153261,7.99311455 14.0873257,7.99311455 14.2569561,8.02065635 C15.3794547,8.2045796 19.8225401,8.97901783 19.9656361,9.74738752 C20.1215255,10.6352606 19.7197194,11.0712614 19.310332,10.9905033 Z" id="Stroke-3"></path>
                                    <g id="locked" transform="translate(10.000000, 16.000000)" fill="#6D3078" fill-rule="nonzero">
                                        <path d="M7.41942149,3.72462963 L7.41942149,2.68518519 C7.41942149,1.20462963 6.01793182,0 4.29545455,0 C2.57297727,0 1.1714876,1.20462963 1.1714876,2.68518519 L1.1714876,3.72462963 C0.50744938,3.83314815 0,4.38203704 0,5.04259259 L0,8.66148148 C0,9.39944444 0.63318905,10 1.41144731,10 L7.17946178,10 C7.95772004,10 8.59090909,9.39944444 8.59090909,8.6612963 L8.59090909,5.04240741 C8.59090909,4.38203704 8.08345971,3.83314815 7.41942149,3.72462963 Z M1.56198347,2.68518519 C1.56198347,1.4087037 2.7881405,0.37037037 4.29545455,0.37037037 C5.8027686,0.37037037 7.02892562,1.4087037 7.02892562,2.68518519 L7.02892562,3.7037037 L1.56198347,3.7037037 L1.56198347,2.68518519 Z M8.20041322,8.6612963 C8.20041322,9.19518519 7.74236157,9.62962963 7.17946178,9.62962963 L1.41144731,9.62962963 C0.848547521,9.62962963 0.390495868,9.19518519 0.390495868,8.6612963 L0.390495868,5.04240741 C0.390495868,4.50851852 0.848547521,4.07407407 1.41144731,4.07407407 L7.17946178,4.07407407 C7.74236157,4.07407407 8.20041322,4.50851852 8.20041322,5.04240741 L8.20041322,8.6612963 Z" id="Shape" stroke-width="0.4"></path>
                                        <path d="M4.29545455,5.18518519 C3.8647376,5.18518519 3.51446281,5.51740741 3.51446281,5.92592593 L3.51446281,7.03703704 C3.51446281,7.44555556 3.8647376,7.77777778 4.29545455,7.77777778 C4.72617149,7.77777778 5.07644628,7.44555556 5.07644628,7.03703704 L5.07644628,5.92592593 C5.07644628,5.51740741 4.72617149,5.18518519 4.29545455,5.18518519 Z M4.68595041,7.03703704 C4.68595041,7.2412963 4.51081302,7.40740741 4.29545455,7.40740741 C4.08009607,7.40740741 3.90495868,7.2412963 3.90495868,7.03703704 L3.90495868,5.92592593 C3.90495868,5.72166667 4.08009607,5.55555556 4.29545455,5.55555556 C4.51081302,5.55555556 4.68595041,5.72166667 4.68595041,5.92592593 L4.68595041,7.03703704 Z" id="Shape" stroke-width="0.2"></path>
                                    </g>
                                </g>
                            </g>
                        </g>
                    </g>
                </g>
            </g>
        </g>
    </g>
</svg>