<svg width="60" height="63" viewBox="0 0 60 63" fill="none" xmlns="http://www.w3.org/2000/svg">
<g clip-path="url(#clip0_30_1463)">
<path d="M14.506 56.1711L27.642 60.8881C28.456 60.9611 29.28 61.0001 30.113 61.0001C30.947 61.0001 31.773 60.9601 32.588 60.8881L45.724 56.1681C53.262 51.0181 58.226 42.2461 58.226 32.2891C58.226 16.4321 45.639 3.5791 30.113 3.5791C14.587 3.5791 2 16.4321 2 32.2891C2 42.2481 6.966 51.0221 14.506 56.1711Z" fill="#024788"/>
<path d="M21.472 33.8449C22.522 34.1559 24.223 34.8399 26.172 36.3129C28.719 38.2359 30.002 41.7249 30.106 44.8409H30.121C30.226 41.7249 31.508 38.2359 34.054 36.3129C35.672 35.0909 37.118 34.4129 38.164 34.0389C38.008 33.3969 38.024 32.5169 38.581 32.1519C38.924 31.9279 39.397 31.9439 39.86 31.8619C40.89 31.6769 41.78 30.9559 42.125 30.0229C42.496 29.0189 42.175 27.8009 41.377 27.1889C41.273 27.1089 41.163 27.0389 41.056 26.9699C40.37 26.5319 40.292 26.3399 40.598 25.4649C40.725 25.1009 40.856 24.7249 40.779 24.3259C40.644 23.6239 40.023 23.3419 39.422 23.0689C38.796 22.7839 38.593 22.6769 38.272 22.2759C37.937 21.8599 37.638 21.6089 36.942 21.6089C36.024 21.6089 35.018 22.0809 34.574 21.4959C34.357 21.2089 34.394 20.7929 34.433 20.3519C34.557 18.9369 34.197 18.1489 34.105 16.9259C33.9939 15.3172 34.514 13.7284 35.555 12.4969C33.8106 11.8664 31.9698 11.5446 30.115 11.5459C28.689 11.5459 27.307 11.7329 25.99 12.0839C25.828 12.3766 25.6957 12.6848 25.595 13.0039C25.29 14.0029 25.441 15.0319 25.991 15.6899C26.621 16.4429 27.742 16.7559 27.911 17.5799C28.007 18.0449 27.757 18.5019 27.492 18.9869C27.224 19.4769 26.948 19.9829 26.987 20.5619C27.037 21.3099 27.572 21.8119 28.089 22.2969C29.328 23.4619 28.967 23.6229 29.197 24.2499C29.464 24.9769 30.303 25.2299 30.574 25.7869C31.154 26.9799 28.954 29.5199 25.299 29.9169C24.734 29.9769 24.149 30.0249 23.716 30.4089C23.27 30.8029 23.436 31.0089 22.317 31.3449C22.04 31.4289 21.754 31.5149 21.492 31.6649C20.853 32.0339 20.542 32.7729 20.556 33.5029C20.84 33.6329 21.14 33.7459 21.472 33.8449Z" fill="#2EBCF6"/>
<path d="M34.054 36.3132C34.235 36.1762 34.414 36.0472 34.59 35.9232C28.58 35.3832 27.846 29.4942 27.846 29.4942C27.846 29.4942 27.823 29.4092 27.768 29.2622C26.9838 29.6069 26.1509 29.8282 25.299 29.9182C24.734 29.9782 24.149 30.0252 23.716 30.4082C23.27 30.8032 23.436 31.0082 22.317 31.3452C22.04 31.4292 21.754 31.5152 21.492 31.6652C20.853 32.0342 20.542 32.7732 20.556 33.5032C20.84 33.6332 21.139 33.7462 21.472 33.8452C22.522 34.1572 24.222 34.8412 26.172 36.3132C28.719 38.2362 30.001 41.7252 30.106 44.8412H30.121C30.226 41.7252 31.508 38.2362 34.054 36.3132Z" fill="#2A9DDD"/>
<path d="M15.454 29.8128C18.26 31.8678 19.238 32.9648 20.784 33.6028C20.738 32.9188 21.01 32.2058 21.601 31.8648C22.177 31.5328 22.925 31.5298 23.412 31.0738C23.574 30.9218 23.696 30.7288 23.862 30.5818C24.252 30.2368 24.809 30.2018 25.322 30.1448C27.252 29.9348 29.213 29.1308 30.377 27.5438C30.769 27.0088 31.065 26.2838 30.774 25.6858C30.471 25.0628 29.644 24.8198 29.406 24.1688C29.331 23.9658 29.324 23.7428 29.271 23.5318C28.969 22.3258 27.294 21.7878 27.21 20.5458C27.137 19.4748 28.346 18.5828 28.13 17.5318C27.936 16.5888 26.773 16.2738 26.16 15.5408C25.609 14.8808 25.555 13.9008 25.808 13.0728C25.923 12.6968 26.092 12.3448 26.289 12.0078C19.132 13.7648 13.813 20.3438 13.813 28.1928C13.813 28.3428 13.815 28.4928 13.819 28.6428C14.3905 28.9938 14.9376 29.3848 15.454 29.8128Z" fill="#85D249"/>
<path d="M21.601 31.8648C22.177 31.5338 22.925 31.5298 23.412 31.0738C23.574 30.9218 23.696 30.7288 23.862 30.5818C24.252 30.2368 24.809 30.2018 25.322 30.1458C26.1911 30.0554 27.0418 29.8357 27.846 29.4938C27.842 29.4818 27.238 27.2498 24.72 25.7488C22.196 24.2438 26.326 21.5508 22.687 18.9758C20.591 17.4938 20.798 15.5428 21.351 14.1558C16.818 17.1118 13.813 22.2938 13.813 28.1938C13.813 28.3438 13.815 28.4938 13.819 28.6428C14.35 28.9608 14.902 29.3628 15.454 29.8128C18.26 31.8678 19.239 32.9648 20.784 33.6028C20.738 32.9188 21.01 32.2058 21.601 31.8648Z" fill="#60B550"/>
<path d="M34.23 20.063C34.196 20.603 34.072 21.209 34.397 21.637C35.125 22.597 36.831 21.347 37.778 22.081C37.985 22.241 38.121 22.478 38.307 22.663C38.997 23.355 40.372 23.402 40.559 24.371C40.699 25.098 39.981 25.848 40.271 26.527C40.443 26.931 40.897 27.107 41.242 27.372C41.987 27.943 42.244 29.052 41.914 29.942C41.585 30.832 40.738 31.472 39.821 31.636C39.358 31.719 38.855 31.701 38.46 31.96C37.814 32.383 37.761 33.335 37.946 34.096L37.951 34.118C38.249 34.005 38.519 33.915 38.755 33.845C40.75 33.252 41.574 32.155 44.772 29.813C45.324 29.363 45.877 28.961 46.408 28.642C46.412 28.492 46.415 28.343 46.415 28.194C46.415 20.862 41.774 14.638 35.329 12.416C34.304 13.661 33.759 15.319 33.881 16.943C33.96 17.989 34.295 19.016 34.23 20.063ZM31.81 8.70396C31.6749 8.62051 31.5682 8.49831 31.5036 8.35329C31.439 8.20827 31.4197 8.04716 31.448 7.89096C31.722 6.37196 32.9 2.07897 37.483 1.97097C40.439 1.90197 41.844 1.43796 42.509 1.04296C42.735 0.908964 43.01 1.10797 42.965 1.36997C42.716 2.80197 42.058 5.62596 40.525 7.54396C38.495 10.08 34.775 10.517 31.81 8.70396Z" fill="#85D249"/>
<path d="M53.3191 18.1031C52.1021 18.0751 51.2201 19.1011 51.0611 20.3331C50.6651 23.4051 49.7521 29.0071 49.7521 29.0071C49.6501 28.6771 49.4491 28.3591 49.1181 28.0691C48.1021 27.1781 46.2971 28.1391 44.5061 29.5991C41.3661 31.8991 40.5561 32.9771 38.5981 33.5591C37.5681 33.8641 35.8961 34.5361 33.9821 35.9811C30.8351 38.3591 29.6521 43.1741 30.2711 46.6251C30.4541 47.6481 31.3381 50.4991 31.3791 51.5371V51.5571L31.4071 52.2481C31.4357 52.2398 31.4647 52.2331 31.4941 52.2281L43.2541 50.3311L43.1791 48.5231C43.1631 48.1231 43.3751 47.7491 43.7251 47.5691C45.7151 46.5431 49.1391 43.2591 52.2171 39.6051C54.6601 36.7051 55.5971 26.3491 55.5651 20.6911C55.5561 19.2841 54.6921 18.1351 53.3191 18.1031Z" fill="#FBBC8D"/>
<path d="M43.179 48.5231C43.162 48.1231 43.375 47.7491 43.725 47.5691C32.375 50.0451 30.575 41.4961 30.575 41.4961L30.54 41.5081C30.08 43.2601 29.993 45.0791 30.27 46.6261C30.454 47.6481 31.337 50.4991 31.378 51.5371L31.379 51.5571L31.407 52.2481C31.4356 52.2398 31.4647 52.2331 31.494 52.2281L43.253 50.3311L43.179 48.5231Z" fill="#FCA870"/>
<path d="M6.90604 18.1031C8.12304 18.0751 9.00604 19.1011 9.16404 20.3331C9.56104 23.4051 10.474 29.0071 10.474 29.0071C10.576 28.6771 10.776 28.3591 11.108 28.0691C12.123 27.1781 13.928 28.1391 15.72 29.5991C18.86 31.8991 19.67 32.9771 21.628 33.5591C22.658 33.8641 24.329 34.5361 26.243 35.9811C29.391 38.3591 30.573 43.1741 29.955 46.6251C29.772 47.6481 28.888 50.4991 28.847 51.5371V51.5571L28.818 52.2481C28.7894 52.2398 28.7604 52.2331 28.731 52.2281L16.974 50.3311L17.048 48.5231C17.064 48.1231 16.851 47.7491 16.502 47.5691C14.511 46.5431 11.088 43.2591 8.01004 39.6051C5.56704 36.7051 4.63005 26.3491 4.66205 20.6911C4.67005 19.2841 5.53404 18.1351 6.90604 18.1031Z" fill="#FBBC8D"/>
<path d="M17.0481 48.5231C17.0641 48.1231 16.8521 47.7491 16.5021 47.5691C27.8521 50.0451 29.6521 41.4961 29.6521 41.4961L29.6871 41.5081C30.1471 43.2601 30.2331 45.0791 29.9571 46.6261C29.7731 47.6481 28.8901 50.4991 28.8491 51.5371L28.8481 51.5571L28.8201 52.2481C28.7915 52.2398 28.7624 52.2331 28.7331 52.2281L16.9741 50.3321L17.0481 48.5231Z" fill="#FCA870"/>
<path d="M49.8841 29.0071H49.7511C49.6491 28.6771 49.4481 28.3591 49.1171 28.0681C48.7401 27.7381 48.2531 27.6631 47.6991 27.7741C47.6991 27.7741 44.9961 29.4851 46.7501 31.2761C47.7601 32.3081 48.8971 31.4591 49.6791 30.5541C49.9041 29.8441 49.9121 29.3041 49.8841 29.0071Z" fill="#FCD7C3"/>
<path d="M51.606 28.154C51.336 27.2666 50.8802 26.4468 50.269 25.749C49.986 27.568 49.751 29.007 49.751 29.007C49.828 29.817 49.645 32.43 45.456 35.415C40.646 38.84 40.636 38.905 40.549 39.415C40.374 40.442 41.629 41.045 42.299 40.285C42.44 40.163 43.178 39.56 46.615 37.112C52.777 32.722 51.741 28.596 51.606 28.154Z" fill="#FCA870"/>
<path d="M10.343 29.0071H10.476C10.578 28.6771 10.778 28.3591 11.11 28.0681C11.487 27.7381 11.974 27.6631 12.528 27.7741C12.528 27.7741 15.23 29.4851 13.477 31.2761C12.467 32.3081 11.33 31.4591 10.548 30.5541C10.322 29.8441 10.315 29.3041 10.343 29.0071Z" fill="#FCD7C3"/>
<path d="M8.61907 28.154C8.88914 27.2666 9.34489 26.4468 9.95607 25.749C10.2391 27.568 10.4741 29.007 10.4741 29.007C10.3971 29.817 10.5801 32.43 14.7691 35.415C19.5791 38.84 19.5891 38.905 19.6761 39.415C19.8511 40.442 18.5961 41.045 17.9251 40.285C17.7851 40.163 17.0471 39.56 13.6101 37.112C7.44707 32.722 8.48507 28.596 8.61907 28.154Z" fill="#FCA870"/>
<path d="M45.1741 50.5659C45.1593 50.4622 45.1241 50.3626 45.0705 50.2726C45.017 50.1826 44.9461 50.1042 44.862 50.0418C44.778 49.9794 44.6824 49.9343 44.5808 49.9091C44.4792 49.8838 44.3736 49.879 44.2701 49.8949L31.4841 51.9589C31.2748 51.9949 31.0883 52.1121 30.9651 52.2849C30.8418 52.4578 30.7919 52.6724 30.8261 52.8819L32.1641 60.9229C37.1682 60.5535 41.9768 58.8262 46.0721 55.9269L45.1741 50.5659Z" fill="#2EBCF6"/>
<path d="M37.3971 51.71C37.3753 51.5711 37.3899 51.429 37.4393 51.2974C37.4887 51.1658 37.5713 51.0492 37.6791 50.959L31.4831 51.959C31.2739 51.995 31.0873 52.1122 30.9641 52.285C30.8409 52.4579 30.7909 52.6725 30.8251 52.882L32.1631 60.924C34.4321 60.757 36.6261 60.314 38.7131 59.629L37.3971 51.71Z" fill="#2A9DDD"/>
<path d="M28.7481 51.9579L15.9601 49.8939C15.8565 49.878 15.7508 49.8829 15.6492 49.9082C15.5475 49.9334 15.4518 49.9786 15.3678 50.0411C15.2837 50.1036 15.2128 50.1822 15.1593 50.2723C15.1058 50.3624 15.0707 50.4621 15.0561 50.5659L14.1591 55.9289C18.2547 58.8281 23.0637 60.5551 28.0681 60.9239L29.4051 52.8819C29.4396 52.6724 29.3899 52.4577 29.2668 52.2846C29.1438 52.1115 28.9573 51.9941 28.7481 51.9579Z" fill="#2EBCF6"/>
<path d="M28.7471 51.9581L23.0391 51.0381C23.1392 51.1289 23.2151 51.2431 23.2602 51.3705C23.3052 51.498 23.3179 51.6346 23.2971 51.7681L21.9661 59.7741C23.9181 60.3771 25.9601 60.7691 28.0661 60.9241L29.4041 52.8821C29.4386 52.6726 29.3889 52.4579 29.2658 52.2848C29.1428 52.1117 28.9563 51.9943 28.7471 51.9581Z" fill="#2A9DDD"/>
<path d="M37.055 5.82523C37.055 5.82523 37.888 4.54923 36.597 4.16823C35.33 3.79423 35.691 2.31523 35.705 2.26123C32.581 3.26423 31.682 6.59123 31.448 7.89123C31.4197 8.04743 31.439 8.20854 31.5036 8.35356C31.5682 8.49857 31.6749 8.62077 31.81 8.70423C34.074 10.0882 36.777 10.1592 38.832 8.98723C36.629 8.06023 37.055 5.82523 37.055 5.82523Z" fill="#60B550"/>
<path d="M30.7601 13.7699C30.6349 13.7686 30.5112 13.7426 30.3961 13.6935C30.281 13.6444 30.1767 13.5731 30.0891 13.4837C30.0015 13.3943 29.9324 13.2885 29.8858 13.1723C29.8391 13.0562 29.8157 12.932 29.8171 12.8069V11.0579C29.8171 9.37486 30.4831 7.74686 31.6461 6.59186C34.0481 4.20386 36.7021 4.07186 38.2881 3.45186C38.4044 3.40684 38.5285 3.38549 38.6531 3.38906C38.7778 3.39262 38.9005 3.42104 39.014 3.47264C39.1276 3.52423 39.2296 3.59797 39.3143 3.68954C39.399 3.7811 39.4645 3.88864 39.5071 4.00586C39.5972 4.24316 39.5907 4.50634 39.489 4.73891C39.3873 4.97148 39.1985 5.15492 38.9631 5.24986C37.1991 5.93986 34.9591 5.98586 32.9611 7.97186C32.1611 8.76686 31.7031 9.89186 31.7031 11.0579V12.8069C31.7044 12.932 31.681 13.0562 31.6344 13.1723C31.5877 13.2885 31.5186 13.3943 31.431 13.4837C31.3435 13.5731 31.2391 13.6444 31.124 13.6935C31.0089 13.7426 30.8852 13.7686 30.7601 13.7699Z" fill="#A3EA6E"/>
<path d="M29.71 8.70396C29.845 8.62051 29.9518 8.49831 30.0163 8.35329C30.0809 8.20827 30.1003 8.04716 30.072 7.89096C29.799 6.37196 28.621 2.07897 24.038 1.97097C21.082 1.90197 19.676 1.43796 19.012 1.04296C18.786 0.908964 18.51 1.10797 18.556 1.36997C18.804 2.80197 19.462 5.62596 20.996 7.54396C23.026 10.08 26.745 10.517 29.71 8.70396Z" fill="#85D249"/>
<path d="M24.465 5.82523C24.465 5.82523 23.632 4.54923 24.923 4.16823C26.19 3.79423 25.829 2.31523 25.815 2.26123C28.94 3.26423 29.838 6.59123 30.072 7.89123C30.1003 8.04743 30.0809 8.20854 30.0164 8.35356C29.9518 8.49857 29.845 8.62077 29.71 8.70423C27.446 10.0882 24.743 10.1592 22.688 8.98723C24.891 8.06023 24.465 5.82523 24.465 5.82523Z" fill="#60B550"/>
<path d="M30.7591 13.77C31.2791 13.77 31.7021 13.339 31.7021 12.807V11.058C31.7021 9.37501 31.0361 7.74701 29.8731 6.59201C27.4711 4.20401 24.8171 4.07201 23.2301 3.45201C23.1138 3.40715 22.9898 3.38592 22.8653 3.38956C22.7407 3.39321 22.6181 3.42166 22.5047 3.47324C22.3913 3.52483 22.2893 3.59852 22.2047 3.69C22.1201 3.78148 22.0546 3.88891 22.0121 4.00601C21.9219 4.24319 21.9282 4.50626 22.0297 4.73881C22.1312 4.97136 22.3198 5.15488 22.5551 5.25001C24.3201 5.94001 26.5601 5.98601 28.5581 7.97201C29.3581 8.76701 29.8161 9.89201 29.8161 11.058V12.807C29.8161 13.339 30.2381 13.77 30.7591 13.77ZM37.4241 13.31C36.6431 14.875 35.4451 18.035 37.9161 18.992C41.1441 20.242 41.0931 26.235 45.9511 24.238C44.8091 19.451 41.6391 15.474 37.4241 13.31Z" fill="#A3EA6E"/>
</g>
<defs>
<clipPath id="clip0_30_1463">
<rect width="60" height="63" fill="white"/>
</clipPath>
</defs>
</svg>
