<?xml version="1.0" encoding="UTF-8"?>
<svg width="32px" height="32px" viewBox="0 0 32 32" version="1.1" xmlns="http://www.w3.org/2000/svg" xmlns:xlink="http://www.w3.org/1999/xlink">
    <!-- Generator: Sketch 53.2 (72643) - https://sketchapp.com -->
    <title>home_icon</title>
    <desc>Created with Sketch.</desc>
    <g id="Symbols" stroke="none" stroke-width="1" fill="none" fill-rule="evenodd">
        <g id="Side-Bar-Menu" transform="translate(-53.000000, -148.000000)" fill="#6D3078" fill-rule="nonzero">
            <g id="sidebar">
                <g>
                    <g id="Group-17" transform="translate(0.000000, 29.000000)">
                        <g id="dashboard" transform="translate(53.000000, 119.000000)">
                            <path d="M15.75,4.4375 L28.875,14.9375 L28.875,32 L19.6875,32 L19.6875,21.5 L11.8125,21.5 L11.8125,32 L2.625,32 L2.625,14.9375 L15.75,4.4375 Z M27.5625,30.6875 L27.5625,15.59375 L15.75,6.078125 L3.9375,15.59375 L3.9375,30.6875 L10.5,30.6875 L10.5,20.1875 L21,20.1875 L21,30.6875 L27.5625,30.6875 Z M15.75,0.5 L31.5,13.0507812 L30.515625,14.0351562 L15.75,2.140625 L0.984375,14.0351562 L0,13.0507812 L2.625,11 L2.625,3.125 L7.875,3.125 L7.875,6.81640625 L15.75,0.5 Z M6.5625,7.8828125 L6.5625,4.4375 L3.9375,4.4375 L3.9375,9.93359375 L6.5625,7.8828125 Z" id="home_icon"></path>
                        </g>
                    </g>
                </g>
            </g>
        </g>
    </g>
</svg>