<?xml version="1.0" encoding="UTF-8"?>
<svg width="25px" height="42px" viewBox="0 0 25 42" version="1.1" xmlns="http://www.w3.org/2000/svg" xmlns:xlink="http://www.w3.org/1999/xlink">
    <!-- Generator: Sketch 63.1 (92452) - https://sketch.com -->
    <title>insurance</title>
    <desc>Created with Sketch.</desc>
    <g id="insurance" stroke="none" stroke-width="1" fill="none" fill-rule="evenodd">
        <g id="Insurance-Icon-(2)-Copy" transform="translate(1.000000, 1.000000)" fill-rule="nonzero">
            <path d="M6.00029084,17 C7.65710131,17 9,15.6560342 9,13.9999028 C9,12.3429933 7.65710131,11 6.00029084,11 C4.34348037,11 3,12.3429933 3,13.9999028 C3,15.6560342 4.34348037,17 6.00029084,17 Z" id="Path" stroke="#702E6C"></path>
            <path d="M17.500178,17 C18.8806236,17 20,15.8806157 20,14.4998214 C20,13.1192058 18.8806236,12 17.500178,12 C16.1200883,12 15,13.1193843 15,14.4998214 C15,15.8806157 16.1200883,17 17.500178,17 Z" id="Path" stroke="#6D276D"></path>
            <path d="M12.773029,39.348336 L12.773029,35 L12.2268326,35 L12.2268326,39.348336 C12.2268326,39.6098446 12.1377593,39.8409324 12,40 L13,40 C12.8621024,39.8411157 12.7731674,39.6098446 12.7731674,39.348336 L12.773029,39.348336 Z" id="Path" fill="#6D276D"></path>
            <path d="M11.7412998,26.8820598 C10.6613489,26.8820598 9.78541013,25.9843409 9.78541013,24.8774389 C9.78541013,23.7703383 10.6613489,22.8730167 11.7412998,22.8730167 C12.8208644,22.8730167 13.69661,23.7701397 13.69661,24.8774389 C13.69661,25.9843409 12.8208644,26.8820598 11.7412998,26.8820598 Z M22.9810971,27.1174652 C22.6433951,25.4898902 21.7981741,22.5480182 21.5688536,21.5042883 C21.3992298,20.7287418 21.1274067,20.1035766 20.7958869,19.6146883 C20.3005391,18.8774821 19.6743994,18.4682542 19.1701647,18.2701958 C19.037634,18.2179497 18.9151494,18.1782188 18.8005857,18.1490167 C18.6054604,18.0840567 18.4024142,18.0401541 18.1868104,18.0401541 L17.1507143,18.0401541 L16.8808232,18.0401541 L15.8433748,18.0401541 C15.6188841,18.0401541 15.4073373,18.0872352 15.2048707,18.1565655 C14.9523669,18.2258959 14.6496329,18.3405194 14.3244884,18.5427495 C13.9535572,18.7757711 13.5642725,19.1250054 13.234105,19.614887 C12.9020056,20.1037753 12.6317281,20.7289405 12.4619111,21.504487 C12.4549562,21.5356757 12.4460693,21.5736187 12.4381483,21.6081846 C12.3836678,21.2980851 12.3239711,21.0003023 12.2573193,20.7247687 C12.0446134,19.8457233 11.6537832,19.1329516 11.1831642,18.6007566 C10.8307795,18.2000708 10.4389833,17.9014934 10.0587788,17.681583 C9.48731275,17.3512209 8.94173466,17.1942839 8.53081236,17.1130343 C8.42416961,17.0927716 8.32660696,17.0768792 8.24024952,17.0659532 C8.07313725,17.0244345 7.90003599,17 7.72113893,17 L5.28265216,17 C5.100664,17 4.92601719,17.0254278 4.75716618,17.0669465 C4.40767937,17.1130343 3.89610332,17.2216982 3.31942109,17.4855112 C2.82716438,17.713765 2.28970041,18.0667738 1.82024051,18.6007566 C1.34884868,19.1329516 0.958211679,19.8457233 0.745698967,20.7247687 C0.603701837,21.3092098 0.493195228,21.9862238 0.398337281,22.6900561 C0.118206889,24.7953947 0.00190447767,27.1333575 0.00151809093,27.1498458 C-0.0301656224,27.7736204 0.437941923,28.3052194 1.04553508,28.3376001 C1.6544806,28.3693848 2.17301161,27.8896346 2.20488852,27.2662573 C2.20488852,27.26586 2.20720684,27.2070583 2.21474138,27.0926334 C2.23657223,26.6925436 2.30225798,25.6513962 2.41392375,24.4974132 C2.47033622,23.9215143 2.53853348,23.3158172 2.61890192,22.7524335 C2.6981112,22.1894471 2.78698016,21.6234809 2.93515947,21.2454417 C3.16332085,20.6683509 3.33796766,20.7867489 3.51242128,20.6677549 L3.10169216,26.8184904 C3.10169216,26.9126526 3.1094199,27.0044309 3.12004553,27.0964078 C3.11772721,27.1331589 3.1092267,27.1689166 3.1092267,27.2076542 L3.1092267,38.5603521 C3.1092267,39.3565586 3.73787794,40 4.51354934,40 C5.28902754,40 5.91787197,39.3565586 5.91787197,38.5603521 L5.91787197,29.0523584 L7.08437357,29.0523584 L7.08437357,38.5603521 C7.08437357,39.3565586 7.71399077,40 8.48966217,40 L9.83815192,40 C9.64553812,39.827568 9.52170117,39.5768663 9.52170117,39.2935852 L9.52170117,34.078909 C9.52170117,34.0534812 9.52749697,34.0302386 9.52865613,34.0062015 C9.52170117,33.9460092 9.51667814,33.8858169 9.51667814,33.8240354 L9.77130701,29.4888019 C9.61250206,29.6332236 9.49291536,29.8539286 9.43766205,30.1328393 L9.09667575,33.5117508 C9.05707111,33.9050864 8.73327901,34.1977042 8.35539277,34.1977042 C8.32969805,34.1977042 8.30400333,34.1963137 8.27772904,34.1935325 C7.86796589,34.1500272 7.5702549,33.7741732 7.61237106,33.3542179 L7.95683484,29.9421311 C7.95915316,29.9218684 7.96166468,29.9018043 7.96533535,29.8819389 C8.18963286,28.6405479 9.1185066,27.7740177 10.2245387,27.7740177 L10.996153,27.7740177 C11.007165,27.7740177 11.0179839,27.7767989 11.0293823,27.7775935 L12.4518651,27.7775935 C12.4630703,27.7769976 12.4738891,27.7740177 12.4852875,27.7740177 L13.2569019,27.7740177 C14.3627407,27.7740177 15.2918077,28.6405479 15.515912,29.8817402 C15.5193895,29.9016056 15.5222874,29.922067 15.5244125,29.9421311 L15.8684899,33.3542179 C15.9109924,33.7745705 15.6128951,34.1500272 15.2031319,34.1935325 C15.1770508,34.1963137 15.1511629,34.1977042 15.125275,34.1977042 C14.7479683,34.1977042 14.4237898,33.9050864 14.3841852,33.5117508 L14.0435853,30.1328393 C13.988332,29.8541273 13.8687453,29.6334223 13.7103267,29.4891993 L13.964376,33.8242341 C13.964376,33.8860156 13.9595462,33.9468038 13.9525912,34.0064001 C13.9539436,34.0304373 13.9595462,34.0538785 13.9595462,34.0791076 L13.9595462,39.2937838 C13.9595462,39.5772636 13.8351296,39.8277667 13.6430954,40 L15.392075,40 C15.9417102,39.9938417 16.3860549,39.5365394 16.3860549,38.9711692 L16.3860549,31.4002539 L16.8804368,31.4002539 L17.1503279,31.4002539 L17.6431642,31.4002539 L17.6431642,38.9711692 C17.6431642,39.5397179 18.0919524,40 18.646031,40 C19.2001096,40 19.6492842,39.5397179 19.6492842,38.9711692 L19.6492842,31.4002539 C19.6628078,31.3988634 19.6749789,31.3988634 19.6879229,31.3978701 C19.7679049,31.3917118 19.8407389,31.3923078 19.9073906,31.3978701 L21.0903136,31.3978701 C20.7417927,26.4640911 18.7076597,23.9179385 19.1073768,22.1713696 C19.230441,21.6369894 19.3589146,21.2504081 19.4825583,20.9637499 C19.6052361,21.2069028 19.7194134,21.515413 19.8067368,21.9115297 C20.0285228,22.9236736 20.872971,25.8593873 21.2141505,27.5024573 C21.3178954,28.0030662 21.7977877,28.3213104 22.2842486,28.2150304 C22.7732211,28.1091476 23.0831032,27.6172795 22.9803244,27.1176638 L22.9810971,27.1174652 Z" id="Shape" stroke="#6D276D"></path>
            <path d="M12,8.0175232 L12,17.2703456 C12.6457234,18.0223196 13,19 13,19 L13,8.02152306 C12.8188649,8.01276146 12.6380496,8 12.4535572,8 C12.3016787,8 12.1520384,8.01180911 12,8.0175232 Z" id="Path" fill="#6D276D"></path>
            <path d="M13,0.998416155 L13,0.617501485 C13,0.276578895 12.7771027,0 12.5004797,0 C12.2240166,0 12,0.276578895 12,0.617501485 L12,1 C12,1 12.107771,0.960601861 12.5118324,0.960601861 C12.9165334,0.960601861 13,0.998416155 13,0.998416155 Z" id="Path" fill="#6D276D"></path>
            <path d="M19.5792918,8.95571054 C20.9185912,8.95571054 21.5182833,9.21799386 22,9.40492902 C21.9776751,9.14748952 21.9399538,8.89327921 21.8872209,8.64319512 C21.8346805,8.39275223 21.7669361,8.14625614 21.6853349,7.90406566 C21.3995381,7.05729599 20.9403387,6.26470522 20.3404542,5.55212702 C20.2548114,5.45022761 20.1660893,5.35012222 20.0746728,5.25181082 C19.8916474,5.05482923 19.698037,4.86484426 19.493649,4.6823941 C19.1872594,4.40844976 18.8573903,4.15172785 18.506736,3.91330478 C16.7534642,2.72208643 14.4794072,2 12,2 C9.35527329,2 6.94399538,2.82165362 5.14953811,4.15800686 C4.58872209,4.57565089 4.08833718,5.04334761 3.6595458,5.55230642 C3.05966128,6.26470522 2.60046189,7.05729599 2.31466513,7.90424506 C2.23325635,8.14643554 2.16551193,8.39311103 2.11277906,8.64337452 C2.06004619,8.89345861 2.02232487,9.14766892 2,9.40510843 C2.48190916,9.21817326 3.08140878,8.95588994 4.42070824,8.95588994 C5.6156659,8.95588994 6.9026174,9.36474335 7.76366436,9.82974906 C7.86316397,9.89289799 7.9613164,9.95192071 8.05715935,9.9998206 C8.72767513,9.77269975 9.30735181,9.5425291 10.0150115,9.38429798 C10.56505,9.26122934 11.1924557,9.18211378 12,9.18211378 C12.9228253,9.18211378 13.610662,9.28562779 14.2167052,9.43955329 C14.8227483,9.5936582 15.3471901,9.7979952 15.9426482,10 C16.0386836,9.95210011 16.1370285,9.89307739 16.2365281,9.82992846 C17.0973826,9.36492275 18.3845266,8.95606934 19.5794842,8.95606934 L19.5792918,8.95571054 Z" id="Path" stroke="#6D276D"></path>
        </g>
    </g>
</svg>