<svg width="120" height="120" viewBox="0 0 120 120" fill="none" xmlns="http://www.w3.org/2000/svg">
<path fill-rule="evenodd" clip-rule="evenodd" d="M88.125 48.7643H89.0625C89.5803 48.7643 90 49.2019 90 49.7418V81.0225C90 81.5623 89.5803 82 89.0625 82H30.9375C30.4197 82 30 81.5623 30 81.0225V49.7418C30.0131 49.6769 30.0352 49.6143 30.0656 49.5561C30.0568 49.4912 30.0568 49.4254 30.0656 49.3606C30.0849 49.3057 30.1101 49.2532 30.1406 49.2042L30.2437 49.0477C30.2831 49.0036 30.3271 48.9642 30.375 48.9304C30.4228 48.8913 30.4729 48.8554 30.525 48.8229C30.583 48.799 30.6425 48.7794 30.7031 48.7643C30.7468 48.7599 30.7907 48.7599 30.8344 48.7643C31.2469 48.7643 72.075 43.8767 83.9438 38.0995C84.2454 37.9456 84.6031 37.9717 84.8813 38.1679C85.1495 38.3474 85.312 38.6567 85.3125 38.9891V43.3586L86.9531 42.8991C87.239 42.822 87.543 42.8898 87.7736 43.0822C88.0042 43.2745 88.1344 43.5689 88.125 43.8767V48.7643ZM66.8344 48.7643H86.25V45.1377C79.8525 46.7455 73.3693 47.9565 66.8344 48.7643ZM83.4375 43.818C70.1906 46.9754 55.7156 48.1093 47.0719 48.5199C59.3625 46.643 75.4969 43.7496 83.4375 40.4651V43.818ZM31.875 80.045H88.125V50.7194H31.875V80.045Z" fill="#6D3078"/>
<path fill-rule="evenodd" clip-rule="evenodd" d="M38.899 77.2615C38.899 75.6593 37.6798 74.3604 36.1758 74.3604C35.6745 74.3604 35.2681 73.9275 35.2681 73.3934V57.9209C35.2681 57.3868 35.6745 56.9538 36.1758 56.9538C37.6798 56.9538 38.899 55.655 38.899 54.0527C38.899 53.5186 39.3054 53.0857 39.8067 53.0857H79.7471C80.2484 53.0857 80.6548 53.5186 80.6548 54.0527C80.6548 55.655 81.874 56.9538 83.378 56.9538C83.8793 56.9538 84.2858 57.3868 84.2858 57.9209V73.3934C84.2858 73.9275 83.8793 74.3604 83.378 74.3604C81.874 74.3604 80.6548 75.6593 80.6548 77.2615C80.6548 77.7956 80.2484 78.2285 79.7471 78.2285H39.8067C39.3054 78.2285 38.899 77.7956 38.899 77.2615ZM59.7769 55.0197C55.7738 55.0197 52.515 59.7871 52.515 65.657C52.515 71.5269 55.7738 76.2944 59.7769 76.2944C63.78 76.2944 67.0388 71.5269 67.0388 65.657C67.0388 59.7871 63.78 55.0197 59.7769 55.0197ZM78.9301 55.0197C79.2938 56.9192 80.6872 58.4037 82.4703 58.7911V72.5229C80.6872 72.9103 79.2938 74.3948 78.9301 76.2944H64.597C67.4136 73.5867 68.9704 69.6968 68.8543 65.657C68.9704 61.6172 67.4136 57.7274 64.597 55.0197H78.9301ZM40.6237 55.0197C40.2601 56.9192 38.8666 58.4037 37.0835 58.7911V72.5229C38.8666 72.9103 40.2601 74.3948 40.6237 76.2944H54.9568C52.1403 73.5867 50.5835 69.6968 50.6996 65.657C50.5835 61.6172 52.1403 57.7274 54.9568 55.0197H40.6237Z" fill="#6D3078"/>
<path fill-rule="evenodd" clip-rule="evenodd" d="M79.4422 66.1429C79.4422 67.8786 77.9681 69.2857 76.1497 69.2857C74.3313 69.2857 72.8572 67.8786 72.8572 66.1429C72.8572 64.4071 74.3313 63 76.1497 63C77.9681 63 79.4422 64.4071 79.4422 66.1429ZM77.2472 66.143C77.2472 65.5644 76.7558 65.0953 76.1497 65.0953C75.5436 65.0953 75.0522 65.5644 75.0522 66.143C75.0522 66.7215 75.5436 67.1906 76.1497 67.1906C76.7558 67.1906 77.2472 66.7215 77.2472 66.143Z" fill="#6D3078"/>
<path fill-rule="evenodd" clip-rule="evenodd" d="M47.121 66.2857C47.121 68.0214 45.6469 69.4285 43.8285 69.4285C42.0101 69.4285 40.536 68.0214 40.536 66.2857C40.536 64.5499 42.0101 63.1428 43.8285 63.1428C45.6469 63.1428 47.121 64.5499 47.121 66.2857ZM44.926 66.2858C44.926 65.7072 44.4347 65.2382 43.8285 65.2382C43.2224 65.2382 42.731 65.7072 42.731 66.2858C42.731 66.8644 43.2224 67.3334 43.8285 67.3334C44.4347 67.3334 44.926 66.8644 44.926 66.2858Z" fill="#6D3078"/>
<path d="M57.6043 61H57.5982C57.2954 60.9985 57.0483 61.2576 57.0469 61.5788C57.0451 61.9004 57.2897 62.1621 57.5925 62.1636L59.1478 62.1814C59.9213 62.1901 60.6013 62.7269 60.8313 63.5106L57.579 63.4734H57.5732C57.2701 63.4719 57.0233 63.731 57.0219 64.0522C57.0201 64.3734 57.2643 64.6355 57.5672 64.6371L60.8195 64.6742C60.5738 65.4522 59.8835 65.9734 59.1099 65.9647L57.5547 65.9469C57.3297 65.9446 57.1265 66.0874 57.0411 66.3079C56.9558 66.5287 57.0058 66.7821 57.1676 66.9476L61.0155 70.8877C61.1559 71.0358 61.3605 71.0922 61.5512 71.0354C61.7416 70.9786 61.8887 70.8172 61.9355 70.6131C61.9823 70.4093 61.9219 70.1941 61.7776 70.0506L58.9214 67.126L59.0978 67.1283H59.1292C60.497 67.1275 61.6759 66.1075 61.9512 64.6867L63.0026 64.6984H63.0086C63.3115 64.7003 63.5582 64.4412 63.56 64.1196C63.5615 63.7984 63.3172 63.5367 63.0143 63.5348L61.963 63.5231C61.8812 63.0435 61.6912 62.5916 61.4094 62.2068L63.0276 62.225H63.0336C63.3365 62.2269 63.5832 61.9678 63.585 61.6466C63.5865 61.325 63.3422 61.0633 63.0393 61.0614L59.1592 61.0174L57.6043 61Z" fill="#F37435"/>
</svg>
