<svg width="120" height="120" viewBox="0 0 120 120" fill="none" xmlns="http://www.w3.org/2000/svg">
<rect width="120" height="120" rx="20" fill="#FFF2F0"/>
<path d="M54.114 71.4822V48.8903C54.114 48.0063 54.5042 47.1585 55.1988 46.5334C55.8933 45.9083 56.8353 45.5571 57.8176 45.5571C58.7998 45.5571 59.7419 45.9083 60.4364 46.5334C61.131 47.1585 61.5212 48.0063 61.5212 48.8903V64.075" stroke="#6D3078" stroke-width="2" stroke-linecap="round" stroke-linejoin="round"/>
<path d="M54.1139 71.4819L49.089 65.3598C48.4934 64.6677 47.7161 64.2269 46.8805 64.1075C46.0449 63.9881 45.199 64.197 44.4771 64.7009C43.7994 65.1736 43.307 65.9353 43.1045 66.824C42.902 67.7127 43.0055 68.6582 43.393 69.4594C47.1937 77.3197 49.4086 81.8123 50.0397 82.9396C50.1713 83.1753 50.3035 83.4107 50.4362 83.6456C51.5416 85.5986 53.0467 87.2016 54.8162 88.3107C56.5857 89.4197 58.5642 90.0001 60.5741 89.9997H60.1534H64.1989C67.4177 89.9997 70.5046 88.5121 72.7807 85.864C75.0567 83.2159 76.3354 79.6244 76.3354 75.8795V68.1685C76.3354 67.9392 76.1793 67.7392 75.9568 67.6835L61.544 64.0747" stroke="#6D3078" stroke-width="2" stroke-linecap="round" stroke-linejoin="round"/>
<path d="M74.429 36.5093C70.4073 32.4876 64.8514 30.0001 58.7144 30.0001C52.5776 30.0001 47.0217 32.4876 43 36.5093" stroke="#F37435" stroke-width="2" stroke-linecap="round"/>
<path d="M69.7143 42.3252C66.8991 39.51 63.01 37.7688 58.7141 37.7688C54.4183 37.7688 50.5292 39.51 47.714 42.3252" stroke="#F37435" stroke-width="2" stroke-linecap="round"/>
</svg>
