<svg width="120" height="120" viewBox="0 0 120 120" fill="none" xmlns="http://www.w3.org/2000/svg">
<path d="M76 44.9367C76 45.5978 75.9802 46.2457 75.9374 46.8669C75.8979 47.4882 75.7628 48.3054 75.542 49.3254C75.318 50.342 75.0248 51.2755 74.659 52.126C74.2966 52.9765 73.7596 53.8702 73.0479 54.8037C72.3396 55.7406 71.4994 56.5147 70.5242 57.1392C69.5522 57.7605 68.3167 58.2787 66.8176 58.694C65.3185 59.1093 63.6382 59.3186 61.7734 59.3186H46.9867C45.8929 59.3186 45.0066 58.4116 45.0066 57.2887V51.5778H45.0132C47.2997 51.5778 50.1793 51.5778 53.1907 51.5745H62.1787C63.3285 51.5745 64.1983 50.9931 64.6299 49.94C65.0549 48.9034 64.854 47.8835 64.0566 47.0629C61.2331 44.156 58.3799 41.2358 55.7177 38.5182C55.1049 37.8903 54.3405 37.6345 53.5103 37.774C52.4988 37.9468 51.7904 38.5547 51.4708 39.5281C51.1414 40.5414 51.3588 41.4816 52.1034 42.2524C53.194 43.3753 54.2944 44.4949 55.4443 45.6643L56.0735 46.3088H45.0033L45 32.0232C45.0033 30.907 45.8863 30 46.9768 30H61.7734C65.7831 30 69.1569 31.3389 71.8915 34.0166C74.6327 36.6876 76 40.3321 76 44.9367Z" fill="#3C67B1"/>
<path d="M75.9994 75.6182C75.9994 76.2793 75.9796 76.9271 75.9368 77.5484C75.8973 78.1696 75.7622 78.9869 75.5414 80.0068C75.3174 81.0234 75.0242 81.957 74.6584 82.8074C74.296 83.6579 73.759 84.5516 73.0473 85.4852C72.339 86.4187 71.4988 87.1961 70.5236 87.8207C69.5516 88.4419 68.3161 88.9602 66.817 89.3755C65.3179 89.7908 63.6376 90.0001 61.7728 90.0001H46.9861C45.8923 90.0001 45.006 89.0931 45.006 87.9702V85.0732L45.0027 62.698C45.006 61.5818 45.889 60.6748 46.9795 60.6748H61.7761C65.7858 60.6748 69.1596 62.0137 71.8942 64.6914C73.0671 65.8442 73.9929 67.1697 74.665 68.678C72.5828 68.678 70.003 68.678 67.275 68.6814H57.4337C56.2838 68.6814 55.414 69.2594 54.9791 70.3159C54.5574 71.3524 54.7583 72.3757 55.5557 73.1929C58.3595 76.0799 61.2226 79.0068 63.8946 81.7377C64.3987 82.2526 65.0016 82.5184 65.6639 82.5184C65.8088 82.5184 65.9538 82.5051 66.1054 82.4785C67.1168 82.3058 67.8252 81.6978 68.1448 80.7211C68.4743 79.7111 68.2568 78.7709 67.5089 78.0002C66.4183 76.874 65.3179 75.7544 64.1648 74.5849L63.5421 73.9471H75.9335C75.9763 74.4952 75.9994 75.0501 75.9994 75.6182Z" fill="#3C67B1"/>
</svg>
