<svg width="120" height="120" viewBox="0 0 120 120" fill="none" xmlns="http://www.w3.org/2000/svg">
<rect width="120" height="120" rx="20" fill="#FFF2F0"/>
<path d="M48.4284 47.7002V38.0573C48.4284 37.1697 49.1479 36.4502 50.0356 36.4502H56.4641C57.3518 36.4502 58.0713 37.1697 58.0713 38.0573V47.7002C58.0713 48.5878 57.3518 49.3073 56.4641 49.3073H50.0356C49.1479 49.3073 48.4284 48.5878 48.4284 47.7002Z" fill="#FFCF7D"/>
<path d="M52.4463 49.3073V41.2716H54.0534V49.3073H55.6606V41.2716H58.0713V39.6644H48.4284V41.2716H50.8391V49.3073H52.4463Z" fill="#F37435"/>
<path d="M45.125 90H75.8748C78.7052 90 80.9998 87.6641 80.9998 84.7826V35.2174C80.9998 32.3359 78.7052 30 75.8748 30L45.125 30C42.2946 30 40 32.3359 40 35.2174V84.7827C40 87.664 42.2946 90 45.125 90Z" fill="#14302C"/>
<path d="M67.6567 41.4785C67.6567 40.9383 67.2264 40.5002 66.6958 40.5002H66.5676C66.037 40.5002 65.6067 40.9383 65.6067 41.4785C65.6067 42.0187 66.037 42.4568 66.5676 42.4568H66.6958C67.2264 42.4568 67.6567 42.0187 67.6567 41.4785ZM69.74 44.5818C69.2811 44.8526 68.6928 44.6933 68.4267 44.2257C68.1607 43.7583 68.3172 43.1597 68.7765 42.8887C69.2712 42.5969 69.5786 42.0566 69.5786 41.4784C69.5786 40.9002 69.2714 40.3598 68.7765 40.068C68.3173 39.7971 68.1608 39.1985 68.4267 38.731C68.6049 38.418 68.9276 38.2429 69.2591 38.2429C69.4225 38.2429 69.5882 38.2855 69.7399 38.3749C70.8257 39.0153 71.5003 40.2045 71.5003 41.4783C71.5003 42.752 70.8259 43.9414 69.74 44.5818ZM72.3021 46.8427C71.843 47.1131 71.255 46.9537 70.9891 46.486C70.7232 46.0184 70.8801 45.42 71.3395 45.1494C72.6244 44.3926 73.4224 42.986 73.4224 41.4786C73.4224 39.9712 72.6244 38.5645 71.3396 37.8076C70.8803 37.5369 70.7233 36.9385 70.9892 36.4709C71.1673 36.1575 71.4901 35.9825 71.8218 35.9825C71.9851 35.9825 72.1507 36.0251 72.3023 36.1142C74.1787 37.2198 75.3443 39.2751 75.3443 41.4786C75.3443 43.6821 74.1785 45.7373 72.3021 46.8427Z" fill="#FFEBCC"/>
<rect x="47.0623" y="75.4426" width="26.8751" height="2.14286" rx="1.07143" fill="#3D6A64"/>
<path d="M46.4299 46.61V36.9671C46.4299 36.0795 47.1494 35.36 48.037 35.36H54.4656C55.3533 35.36 56.0728 36.0795 56.0728 36.9671V46.61C56.0728 47.4976 55.3533 48.2171 54.4656 48.2171H48.037C47.1494 48.2171 46.4299 47.4976 46.4299 46.61Z" fill="#FFCF7D"/>
<path d="M50.4478 48.2171V40.1814H52.0549V48.2171H53.662V40.1814H56.0728V38.5742H46.4299V40.1814H48.8406V48.2171H50.4478Z" fill="#F37435"/>
</svg>
