<svg width="56" height="56" viewBox="0 0 56 56" fill="none" xmlns="http://www.w3.org/2000/svg">
<path d="M17.055 23.7753L20.137 20.6888C21.2384 19.5867 21.2384 17.7998 20.137 16.6976L15.9387 12.4965C14.8373 11.3944 13.0516 11.3944 11.9502 12.4965L8.16895 16.2803" stroke="#671773" stroke-width="2" stroke-linecap="round" stroke-linejoin="round"/>
<path d="M8.16904 16.2803C4.75247 19.6991 9.07813 29.5609 17.8418 38.3279" stroke="#671773" stroke-width="2" stroke-linecap="round" stroke-linejoin="round"/>
<path d="M17.0551 23.7756C15.7639 25.0677 18.109 29.5037 22.2973 33.6948" stroke="#671773" stroke-width="2" stroke-linecap="round" stroke-linejoin="round"/>
<path d="M32.2097 38.9402L35.2941 35.8537C36.3955 34.7516 38.1812 34.7516 39.2826 35.8537L43.4809 40.0548C44.5823 41.1569 44.5823 42.9438 43.4809 44.046L39.6972 47.8297" stroke="#671773" stroke-width="2" stroke-linecap="round" stroke-linejoin="round"/>
<path d="M39.6975 47.8297C36.2809 51.2485 26.4258 46.92 17.6646 38.1504" stroke="#671773" stroke-width="2" stroke-linecap="round" stroke-linejoin="round"/>
<path d="M32.2099 38.9401C30.9187 40.2322 26.4857 37.8854 22.2974 33.6943" stroke="#671773" stroke-width="2" stroke-linecap="round" stroke-linejoin="round"/>
<path d="M48.9974 30.336C48.9974 24.1032 46.5692 18.2427 42.1631 13.8342C37.7546 9.4257 31.8942 7 25.6614 7" stroke="#671773" stroke-width="2" stroke-linecap="round" stroke-linejoin="round"/>
<path d="M25.6614 21.0017C28.156 21.0017 30.5004 21.9715 32.2619 23.7356C34.0259 25.4996 34.9958 27.844 34.9958 30.3361" stroke="#671773" stroke-width="2" stroke-linecap="round" stroke-linejoin="round"/>
<path d="M41.9966 30.3359C41.9966 26.1552 40.4008 21.9745 37.2118 18.7855C34.0228 15.5965 29.8421 14.0007 25.6614 14.0007" stroke="#671773" stroke-width="2" stroke-linecap="round" stroke-linejoin="round"/>
</svg>
