<svg width="120" height="120" viewBox="0 0 120 120" fill="none" xmlns="http://www.w3.org/2000/svg">
<path d="M44.1408 54.5295L48.475 50.1889C50.0239 48.6389 50.0239 46.1259 48.475 44.576L42.5708 38.6678C41.0219 37.1179 38.5106 37.1179 36.9617 38.6678L31.644 43.989" stroke="#671773" stroke-width="1.65" stroke-linecap="round" stroke-linejoin="round"/>
<path d="M31.6441 43.9893C26.8392 48.7973 32.9225 62.6661 45.2472 74.9955" stroke="#671773" stroke-width="1.65" stroke-linecap="round" stroke-linejoin="round"/>
<path d="M44.1408 54.5293C42.3249 56.3464 45.623 62.5849 51.5131 68.479" stroke="#671773" stroke-width="1.65" stroke-linecap="round" stroke-linejoin="round"/>
<path d="M65.4536 75.8571L69.7913 71.5165C71.3402 69.9665 73.8515 69.9665 75.4005 71.5165L81.3046 77.4246C82.8536 78.9746 82.8536 81.4876 81.3046 83.0375L75.9835 88.3587" stroke="#671773" stroke-width="1.65" stroke-linecap="round" stroke-linejoin="round"/>
<path d="M75.9834 88.3579C71.1785 93.1659 57.319 87.0785 44.9978 74.7456" stroke="#671773" stroke-width="1.65" stroke-linecap="round" stroke-linejoin="round"/>
<path d="M65.4535 75.8568C63.6377 77.6738 57.4033 74.3736 51.5132 68.4795" stroke="#671773" stroke-width="1.65" stroke-linecap="round" stroke-linejoin="round"/>
<path d="M90 63.0056C90 54.1901 86.5656 45.9014 80.3339 39.6661C74.0987 33.4308 65.8099 30 56.9944 30" stroke="#F37435" stroke-width="1.65" stroke-linecap="round" stroke-linejoin="round"/>
<path d="M58.4946 49.5029C61.7022 49.5029 64.7166 50.7499 66.9815 53.0181C69.2497 55.2863 70.4967 58.3007 70.4967 61.505" stroke="#F37435" stroke-width="1.65" stroke-linecap="round" stroke-linejoin="round"/>
<path d="M79.4982 63.0058C79.4982 57.2463 77.2999 51.4869 72.9066 47.0936C68.5133 42.7003 62.7538 40.502 56.9944 40.502" stroke="#F37435" stroke-width="1.65" stroke-linecap="round" stroke-linejoin="round"/>
</svg>
