<svg width="120" height="120" viewBox="0 0 120 120" fill="none" xmlns="http://www.w3.org/2000/svg">
<path d="M44.9945 90.0933H74.961C77.7192 90.0933 79.9554 87.7574 79.9554 84.8758V35.3107C79.9554 32.4292 77.7192 30.0933 74.961 30.0933L44.9945 30.0933C42.2362 30.0933 40 32.4292 40 35.3107V84.876C40 87.7572 42.2362 90.0933 44.9945 90.0933Z" fill="#992E08"/>
<path d="M46.4286 46.7002V37.0573C46.4286 36.1697 47.1481 35.4502 48.0357 35.4502H54.4643C55.3519 35.4502 56.0714 36.1697 56.0714 37.0573V46.7002C56.0714 47.5878 55.3519 48.3073 54.4643 48.3073H48.0357C47.1481 48.3073 46.4286 47.5878 46.4286 46.7002Z" fill="#FFCF7D"/>
<path d="M50.4464 48.3074V40.2717H52.0536V48.3074H53.6607V40.2717H56.0714V38.6646H46.4286V40.2717H48.8393V48.3074H50.4464Z" fill="#F37435"/>
<path d="M66.9523 41.572C66.9523 41.0318 66.5329 40.5937 66.0158 40.5937H65.8909C65.3738 40.5937 64.9545 41.0318 64.9545 41.572C64.9545 42.1122 65.3738 42.5503 65.8909 42.5503H66.0158C66.5329 42.5503 66.9523 42.1122 66.9523 41.572ZM68.9825 44.6754C68.5352 44.9461 67.962 44.7868 67.7026 44.3192C67.4434 43.8518 67.596 43.2532 68.0436 42.9822C68.5256 42.6904 68.8252 42.1501 68.8252 41.5719C68.8252 40.9937 68.5258 40.4533 68.0436 40.1615C67.5961 39.8906 67.4435 39.292 67.7026 38.8245C67.8763 38.5115 68.1907 38.3364 68.5138 38.3364C68.6731 38.3364 68.8345 38.379 68.9824 38.4684C70.0406 39.1088 70.6979 40.298 70.6979 41.5718C70.6979 42.8455 70.0407 44.0349 68.9825 44.6754ZM71.4793 46.9363C71.0319 47.2066 70.4589 47.0472 70.1998 46.5795C69.9406 46.112 70.0935 45.5135 70.5412 45.2429C71.7934 44.4861 72.5711 43.0795 72.5711 41.5721C72.5711 40.0647 71.7934 38.658 70.5413 37.9011C70.0937 37.6304 69.9407 37.032 70.1999 36.5645C70.3734 36.251 70.688 36.076 71.0113 36.076C71.1704 36.076 71.3318 36.1186 71.4795 36.2077C73.3081 37.3133 74.4441 39.3686 74.4441 41.5721C74.4441 43.7756 73.3079 45.8308 71.4793 46.9363Z" fill="#FFEBCC"/>
<rect x="47.0616" y="75.5356" width="26.7857" height="2.14286" rx="1.07143" fill="#DB5E2B"/>
<path d="M44.9945 90.0933H74.961C77.7192 90.0933 79.9554 87.7574 79.9554 84.8758V35.3107C79.9554 32.4292 77.7192 30.0933 74.961 30.0933L44.9945 30.0933C42.2362 30.0933 40 32.4292 40 35.3107V84.876C40 87.7572 42.2362 90.0933 44.9945 90.0933Z" fill="#992E08"/>
<path d="M46.4286 46.7002V37.0573C46.4286 36.1697 47.1481 35.4502 48.0357 35.4502H54.4643C55.3519 35.4502 56.0714 36.1697 56.0714 37.0573V46.7002C56.0714 47.5878 55.3519 48.3073 54.4643 48.3073H48.0357C47.1481 48.3073 46.4286 47.5878 46.4286 46.7002Z" fill="#FFCF7D"/>
<path d="M50.4464 48.3074V40.2717H52.0536V48.3074H53.6607V40.2717H56.0714V38.6646H46.4286V40.2717H48.8393V48.3074H50.4464Z" fill="#F37435"/>
<path d="M66.9523 41.572C66.9523 41.0318 66.5329 40.5937 66.0158 40.5937H65.8909C65.3738 40.5937 64.9545 41.0318 64.9545 41.572C64.9545 42.1122 65.3738 42.5503 65.8909 42.5503H66.0158C66.5329 42.5503 66.9523 42.1122 66.9523 41.572ZM68.9825 44.6754C68.5352 44.9461 67.962 44.7868 67.7026 44.3192C67.4434 43.8518 67.596 43.2532 68.0436 42.9822C68.5256 42.6904 68.8252 42.1501 68.8252 41.5719C68.8252 40.9937 68.5258 40.4533 68.0436 40.1615C67.5961 39.8906 67.4435 39.292 67.7026 38.8245C67.8763 38.5115 68.1907 38.3364 68.5138 38.3364C68.6731 38.3364 68.8345 38.379 68.9824 38.4684C70.0406 39.1088 70.6979 40.298 70.6979 41.5718C70.6979 42.8455 70.0407 44.0349 68.9825 44.6754ZM71.4793 46.9363C71.0319 47.2066 70.4589 47.0472 70.1998 46.5795C69.9406 46.112 70.0935 45.5135 70.5412 45.2429C71.7934 44.4861 72.5711 43.0795 72.5711 41.5721C72.5711 40.0647 71.7934 38.658 70.5413 37.9011C70.0937 37.6304 69.9407 37.032 70.1999 36.5645C70.3734 36.251 70.688 36.076 71.0113 36.076C71.1704 36.076 71.3318 36.1186 71.4795 36.2077C73.3081 37.3133 74.4441 39.3686 74.4441 41.5721C74.4441 43.7756 73.3079 45.8308 71.4793 46.9363Z" fill="#FFEBCC"/>
<rect x="47.0616" y="75.5356" width="26.7857" height="2.14286" rx="1.07143" fill="#DB5E2B"/>
</svg>
