<svg width="120" height="120" viewBox="0 0 120 120" fill="none" xmlns="http://www.w3.org/2000/svg">
<path fill-rule="evenodd" clip-rule="evenodd" d="M87.1622 69.0811C87.1622 69.0811 74.2697 91.9644 70.5708 93H49.4158C45.7175 91.9644 32.8377 69.0811 32.8377 69.0811C27.9497 60.2685 30.8596 55.6252 30.8596 55.6252C30.989 50.8545 53.3211 35.8895 53.3211 35.8895C53.9157 34.2517 52.7258 34.6231 52.5845 32.4615C52.4671 30.607 55.493 31.0286 55.493 31.0286L59.9936 27L64.5063 31.0286C64.5063 31.0286 67.5322 30.607 67.4028 32.4615C67.2614 34.6231 66.0835 34.2517 66.6788 35.8895C66.6788 35.8895 89.0117 50.8545 89.1411 55.6252C89.1411 55.6252 92.0496 60.2685 87.1622 69.0811Z" stroke="#6D3078" stroke-width="1.65"/>
<path fill-rule="evenodd" clip-rule="evenodd" d="M71.9906 53.0989C71.9906 53.0989 62.2143 49.9024 59.3219 50.2362C56.4273 49.9024 46.6521 53.0989 46.6521 53.0989C45.6752 53.321 44.6971 52.122 45.0883 49.6803C45.4298 47.5673 56.0338 45.4376 58.7113 44.9318C59.1161 44.8561 59.5266 44.8561 59.9314 44.9318C62.6101 45.4376 73.2129 47.5673 73.5544 49.6803C73.9264 52.122 72.9675 53.321 71.9906 53.0989Z" stroke="#6D3078" stroke-width="1.65"/>
<path fill-rule="evenodd" clip-rule="evenodd" d="M66.1115 67.3748V65.3167C66.1115 62.3852 63.3086 60 59.8636 60C56.4187 60 53.6157 62.3852 53.6157 65.3167V67.3748C52.2876 67.5896 51.2727 68.6764 51.2727 69.9843V77.1497C51.2727 78.6109 52.5391 79.8 54.0956 79.8H65.6316C67.1881 79.8 68.4545 78.6109 68.4545 77.1494V69.984C68.4545 68.6764 67.4396 67.5896 66.1115 67.3748ZM54.3966 65.3167C54.3966 62.7892 56.8489 60.7333 59.8635 60.7333C62.8782 60.7333 65.3305 62.7892 65.3305 65.3167V67.3333H54.3966V65.3167ZM65.6315 79.0667C66.7573 79.0667 67.6734 78.2065 67.6734 77.1494V69.984C67.6734 68.9269 66.7573 68.0667 65.6315 68.0667H54.0955C52.9697 68.0667 52.0536 68.9269 52.0536 69.984V77.1494C52.0536 78.2065 52.9697 79.0667 54.0955 79.0667H65.6315Z" fill="#F37435"/>
<path d="M66.1115 67.3748H65.6115V67.8004L66.0317 67.8683L66.1115 67.3748ZM53.6157 67.3748L53.6955 67.8683L54.1157 67.8004V67.3748H53.6157ZM65.3305 67.3333V67.8333H65.8305V67.3333H65.3305ZM54.3966 67.3333H53.8966V67.8333H54.3966V67.3333ZM65.6115 65.3167V67.3748H66.6115V65.3167H65.6115ZM59.8636 60.5C63.1111 60.5 65.6115 62.7339 65.6115 65.3167H66.6115C66.6115 62.0364 63.506 59.5 59.8636 59.5V60.5ZM54.1157 65.3167C54.1157 62.7339 56.6161 60.5 59.8636 60.5V59.5C56.2212 59.5 53.1157 62.0364 53.1157 65.3167H54.1157ZM54.1157 67.3748V65.3167H53.1157V67.3748H54.1157ZM51.7727 69.9843C51.7727 68.9494 52.5812 68.0486 53.6955 67.8683L53.5358 66.8812C51.994 67.1306 50.7727 68.4034 50.7727 69.9843H51.7727ZM51.7727 77.1497V69.9843H50.7727V77.1497H51.7727ZM54.0956 79.3C52.7851 79.3 51.7727 78.3055 51.7727 77.1497H50.7727C50.7727 78.9163 52.2931 80.3 54.0956 80.3V79.3ZM65.6316 79.3H54.0956V80.3H65.6316V79.3ZM67.9545 77.1494C67.9545 78.3056 66.9421 79.3 65.6316 79.3V80.3C67.4342 80.3 68.9545 78.9162 68.9545 77.1494H67.9545ZM67.9545 69.984V77.1494H68.9545V69.984H67.9545ZM66.0317 67.8683C67.146 68.0486 67.9545 68.9495 67.9545 69.984H68.9545C68.9545 68.4034 67.7332 67.1306 66.1914 66.8812L66.0317 67.8683ZM59.8635 60.2333C56.659 60.2333 53.8966 62.4341 53.8966 65.3167H54.8966C54.8966 63.1443 57.0389 61.2333 59.8635 61.2333V60.2333ZM65.8305 65.3167C65.8305 62.4341 63.0681 60.2333 59.8635 60.2333V61.2333C62.6882 61.2333 64.8305 63.1443 64.8305 65.3167H65.8305ZM65.8305 67.3333V65.3167H64.8305V67.3333H65.8305ZM54.3966 67.8333H65.3305V66.8333H54.3966V67.8333ZM53.8966 65.3167V67.3333H54.8966V65.3167H53.8966ZM67.1734 77.1494C67.1734 77.9012 66.5113 78.5667 65.6315 78.5667V79.5667C67.0033 79.5667 68.1734 78.5118 68.1734 77.1494H67.1734ZM67.1734 69.984V77.1494H68.1734V69.984H67.1734ZM65.6315 68.5667C66.5113 68.5667 67.1734 69.2322 67.1734 69.984H68.1734C68.1734 68.6216 67.0033 67.5667 65.6315 67.5667V68.5667ZM54.0955 68.5667H65.6315V67.5667H54.0955V68.5667ZM52.5536 69.984C52.5536 69.2322 53.2157 68.5667 54.0955 68.5667V67.5667C52.7237 67.5667 51.5536 68.6216 51.5536 69.984H52.5536ZM52.5536 77.1494V69.984H51.5536V77.1494H52.5536ZM54.0955 78.5667C53.2157 78.5667 52.5536 77.9012 52.5536 77.1494H51.5536C51.5536 78.5118 52.7237 79.5667 54.0955 79.5667V78.5667ZM65.6315 78.5667H54.0955V79.5667H65.6315V78.5667Z" fill="#F37435"/>
<path fill-rule="evenodd" clip-rule="evenodd" d="M58.3015 71.7333C58.3015 70.9244 59.0021 70.2666 59.8635 70.2666C60.7249 70.2666 61.4255 70.9244 61.4255 71.7333V73.9333C61.4255 74.7421 60.7249 75.3999 59.8635 75.3999C59.0021 75.3999 58.3015 74.7421 58.3015 73.9333V71.7333ZM59.8635 74.6665C60.2942 74.6665 60.6444 74.3376 60.6444 73.9332V71.7332C60.6444 71.3288 60.2942 70.9999 59.8635 70.9999C59.4327 70.9999 59.0825 71.3288 59.0825 71.7332V73.9332C59.0825 74.3376 59.4327 74.6665 59.8635 74.6665Z" fill="#F37435"/>
<path d="M59.8635 70.0166C58.8791 70.0166 58.0515 70.7717 58.0515 71.7333H58.5515C58.5515 71.0771 59.1251 70.5166 59.8635 70.5166V70.0166ZM61.6755 71.7333C61.6755 70.7717 60.8479 70.0166 59.8635 70.0166V70.5166C60.6019 70.5166 61.1755 71.0771 61.1755 71.7333H61.6755ZM61.6755 73.9333V71.7333H61.1755V73.9333H61.6755ZM59.8635 75.6499C60.8479 75.6499 61.6755 74.8948 61.6755 73.9333H61.1755C61.1755 74.5895 60.6019 75.1499 59.8635 75.1499V75.6499ZM58.0515 73.9333C58.0515 74.8948 58.8791 75.6499 59.8635 75.6499V75.1499C59.1251 75.1499 58.5515 74.5895 58.5515 73.9333H58.0515ZM58.0515 71.7333V73.9333H58.5515V71.7333H58.0515ZM60.3944 73.9332C60.3944 74.185 60.1712 74.4165 59.8635 74.4165V74.9165C60.4172 74.9165 60.8944 74.4903 60.8944 73.9332H60.3944ZM60.3944 71.7332V73.9332H60.8944V71.7332H60.3944ZM59.8635 71.2499C60.1712 71.2499 60.3944 71.4814 60.3944 71.7332H60.8944C60.8944 71.1761 60.4172 70.7499 59.8635 70.7499V71.2499ZM59.3325 71.7332C59.3325 71.4814 59.5557 71.2499 59.8635 71.2499V70.7499C59.3097 70.7499 58.8325 71.1761 58.8325 71.7332H59.3325ZM59.3325 73.9332V71.7332H58.8325V73.9332H59.3325ZM59.8635 74.4165C59.5557 74.4165 59.3325 74.185 59.3325 73.9332H58.8325C58.8325 74.4903 59.3097 74.9165 59.8635 74.9165V74.4165Z" fill="#F37435"/>
</svg>
