<svg width="120" height="120" viewBox="0 0 120 120" fill="none" xmlns="http://www.w3.org/2000/svg">
<path fill-rule="evenodd" clip-rule="evenodd" d="M40.0004 71H40.0009C40.5531 71.0001 41.0006 71.4479 41.0004 72V88.9999V89.0004C41.0003 89.5525 40.5526 90 40.0004 89.9999H32.0005H32C31.4479 89.9998 31.0004 89.552 31.0005 88.9999V72V71.9995C31.0006 71.4474 31.4484 70.9999 32.0005 71H40.0004ZM33.0003 88H39.0002V73H33.0003V88Z" fill="#6D3078"/>
<path fill-rule="evenodd" clip-rule="evenodd" d="M76 63H76.0005C76.5526 63.0001 77.0001 63.4479 77 64V88.9999V89.0004C76.9998 89.5525 76.5521 90 76 89.9999H68H67.9995C67.4474 89.9997 66.9999 89.552 67 88.9999V64V63.9995C67.0001 63.4474 67.4479 62.9999 68 63H76ZM68.9998 87.9999H74.9998V65H68.9998V87.9999Z" fill="#6D3078"/>
<path fill-rule="evenodd" clip-rule="evenodd" d="M64.0002 68H64.0007C64.5528 68.0001 65.0003 68.4479 65.0002 69V88.9999V89.0004C65.0001 89.5525 64.5523 90 64.0002 89.9999H56.0002H55.9997C55.4476 89.9998 55.0001 89.552 55.0002 88.9999V69V68.9995C55.0004 68.4474 55.4481 67.9999 56.0002 68H64.0002ZM57.0001 87.9999H63V70H57.0001V87.9999Z" fill="#6D3078"/>
<path fill-rule="evenodd" clip-rule="evenodd" d="M52.0002 56H52.0007C52.5528 56.0001 53.0003 56.4479 53.0002 57V88.9998V89.0003C53.0001 89.5525 52.5523 90 52.0002 89.9998H44.0002H43.9997C43.4476 89.9997 43.0001 89.552 43.0002 88.9998V57V56.9995C43.0004 56.4474 43.4481 55.9999 44.0002 56H52.0002ZM45 87.9999H51V58H45V87.9999Z" fill="#6D3078"/>
<path fill-rule="evenodd" clip-rule="evenodd" d="M88 76H88.0005C88.5526 76.0001 89.0001 76.4479 89 77V88.9999V89.0004C88.9998 89.5526 88.5521 90.0001 88 89.9999H80H79.9995C79.4474 89.9998 78.9999 89.5521 79 88.9999V77V76.9995C79.0001 76.4474 79.4479 75.9999 80 76H88ZM80.9999 88H86.9998V78.0001H80.9999V88Z" fill="#6D3078"/>
<path fill-rule="evenodd" clip-rule="evenodd" d="M89.5403 51.7307C89.6222 51.7832 89.696 51.8474 89.7592 51.9213C90.1183 52.3403 90.0697 52.9712 89.6506 53.33L85.6506 56.7588C85.4692 56.9145 85.2381 57.0002 84.9991 57C84.447 56.9999 83.9996 56.5522 83.9997 56V54H79.9998C79.6654 54.0002 79.3531 53.833 79.1678 53.5548L71.9998 42.8028L60.8319 59.5548C60.7241 59.7166 60.5715 59.8436 60.3926 59.92C59.885 60.1369 59.2977 59.9013 59.0809 59.3936L48.0389 33.6301L35.9301 64.3664C35.78 64.7487 35.4108 65.0002 35 65.0001H30V63.0001H34.3194L47.0698 30.634C47.2179 30.2564 47.5797 30.0059 47.9853 30.0003C48.3918 29.9905 48.7625 30.2314 48.9189 30.6068L60.1919 56.9093L71.1678 40.4455C71.2277 40.3651 71.2991 40.2939 71.3794 40.2339C71.8389 39.8912 72.4892 39.986 72.8318 40.4455L80.5349 52.0002H83.9997V50.0002C83.9997 49.8082 84.055 49.6203 84.1589 49.4588C84.4577 48.9947 85.0762 48.8607 85.5404 49.1594L89.5403 51.7307ZM85.9996 51.8323V53.8264L87.3293 52.6868L85.9996 51.8323Z" fill="#F37435"/>
</svg>
