<?xml version="1.0" encoding="UTF-8"?>
<svg width="30px" height="24px" viewBox="0 0 30 24" version="1.1" xmlns="http://www.w3.org/2000/svg" xmlns:xlink="http://www.w3.org/1999/xlink">
    <!-- Generator: Sketch 53.2 (72643) - https://sketchapp.com -->
    <title>logout_icon</title>
    <desc>Created with Sketch.</desc>
    <g id="MB_Pay-Later" stroke="none" stroke-width="1" fill="none" fill-rule="evenodd">
        <g id="MB---Fund-Transfer----Pay-Later---Own-Account-Transfer" transform="translate(-432.000000, -532.000000)" fill="#6D3078" fill-rule="nonzero">
            <g id="UC-01:-Own-Accounts---Pay-Later---One-Time" transform="translate(100.000000, 281.000000)">
                <g id="Flows" transform="translate(0.000000, 205.000000)">
                    <g id="Dashboard">
                        <g transform="translate(0.000000, 20.000000)" id="logout_icon">
                            <g transform="translate(332.000000, 26.000000)">
                                <path d="M27.4054054,11.2 L9.32432432,11.2 C8.87837838,11.2 8.51351351,11.56 8.51351351,12 C8.51351351,12.44 8.87837838,12.8 9.32432432,12.8 L27.4054054,12.8 L22.7837838,17.36 C22.4594595,17.68 22.4594595,18.16 22.7837838,18.48 C22.9459459,18.64 23.1486486,18.72 23.3513514,18.72 C23.5540541,18.72 23.7567568,18.64 23.9189189,18.48 L29.9189189,12.56 L29.9189189,12.32 C29.9594595,12.24 30,12.12 30,12 C30,11.88 29.9594595,11.8 29.9189189,11.68 L29.9189189,11.44 L23.9189189,5.48 C23.5945946,5.16 23.1081081,5.16 22.7837838,5.48 C22.4594595,5.8 22.4594595,6.28 22.7837838,6.6 L27.4054054,11.2 Z" id="Path"></path>
                                <path d="M2.63513514,24 L17.5945946,24 C19.0540541,24 20.2297297,22.84 20.2297297,21.4 L20.2297297,17.6 C20.2297297,17.16 19.8648649,16.8 19.4189189,16.8 C18.972973,16.8 18.6081081,17.16 18.6081081,17.6 L18.6081081,21.4 C18.6081081,21.96 18.1621622,22.4 17.5945946,22.4 L2.63513514,22.4 C2.06756757,22.4 1.62162162,21.96 1.62162162,21.4 L1.62162162,2.6 C1.62162162,2.04 2.06756757,1.6 2.63513514,1.6 L17.5945946,1.6 C18.1621622,1.6 18.6081081,2.04 18.6081081,2.6 L18.6081081,6.4 C18.6081081,6.84 18.972973,7.2 19.4189189,7.2 C19.8648649,7.2 20.2297297,6.84 20.2297297,6.4 L20.2297297,2.6 C20.2297297,1.16 19.0540541,0 17.5945946,0 L2.63513514,0 C1.17567568,0 0,1.16 0,2.6 L0,21.36 C0,22.84 1.17567568,24 2.63513514,24 Z" id="Path"></path>
                            </g>
                        </g>
                    </g>
                </g>
            </g>
        </g>
    </g>
</svg>