<svg width="120" height="120" viewBox="0 0 120 120" fill="none" xmlns="http://www.w3.org/2000/svg">
<rect width="120" height="120" rx="20" fill="#FFF2F0"/>
<path d="M53.7355 51.6699H67.2647C67.341 51.6775 67.3791 51.7076 67.3791 51.7603V52.7768C67.3791 52.8371 67.341 52.8672 67.2647 52.8672H61.2175V52.9575C61.4474 53.2012 61.8766 53.8988 62.2771 54.8551L62.3343 55.1826H66.3088C66.3851 55.1902 66.4232 55.2203 66.4232 55.273V56.2895C66.4232 56.3498 66.3851 56.3799 66.3088 56.3799H62.463C62.463 57.5169 62.2091 58.6238 60.4452 59.7006C58.8816 60.4084 57.7708 60.7623 57.113 60.7623C57.113 60.7924 57.0748 60.8075 56.9986 60.8075L65.2196 68.2396V68.3299H62.4594C62.4308 68.3299 59.623 65.4535 54.0358 59.7006V59.6554H54.9082C57.9974 59.6554 59.8518 58.7782 60.4715 57.0237C60.5096 56.8129 60.5287 56.6434 60.5287 56.5154V56.3799H53.7355C53.6592 56.3799 53.6211 56.3498 53.6211 56.2895V55.273C53.6306 55.2128 53.6688 55.1826 53.7355 55.1826H60.4715C60.2427 54.4974 59.7564 53.9402 59.0128 53.511C57.983 53.0818 57.0439 52.8672 56.1954 52.8672H53.7355C53.6592 52.8672 53.6211 52.8371 53.6211 52.7768V51.7603C53.6306 51.7 53.6688 51.6699 53.7355 51.6699Z" fill="#F37435"/>
<path d="M28.478 66.6682L42.936 81.2051C50.0451 88.4374 59.568 91.5333 68.9596 89.2595C78.3511 86.9858 85.9957 79.7154 89.2079 70.0024M28.478 66.6682V89.875M28.478 66.6682H46.7063M31.5195 49.9975C34.7317 40.2845 42.3763 33.0141 51.7679 30.7403C61.1594 28.4666 70.5368 31.625 77.7914 38.7948L92.5221 53.6254M92.5221 53.6254L92.2494 32.9446M92.5221 53.6254L73.8265 53.6255" stroke="#6D3078" stroke-width="1.8" stroke-linecap="round"/>
</svg>
