<svg width="60" height="56" viewBox="0 0 60 56" fill="none" xmlns="http://www.w3.org/2000/svg">
<mask id="mask0_3848_172" style="mask-type:alpha" maskUnits="userSpaceOnUse" x="2" y="0" width="56" height="46">
<path d="M2 0H58V42.1842C58 42.1842 48.1686 45.5 30 45.5C11.8314 45.5 2 42.1842 2 42.1842V0Z" fill="#D9D9D9"/>
</mask>
<g mask="url(#mask0_3848_172)">
<path d="M36.4253 1.05457C36.2786 1.00543 36.106 0.965309 35.9623 1.04585C35.8324 1.13394 35.7799 1.29008 35.718 1.42673C35.4862 2.02713 35.3174 2.6505 35.0923 3.25439C34.6909 4.3011 34.3597 5.40043 33.6771 6.30787C33.2011 6.92106 32.6555 7.4857 32.2608 8.15821C31.9204 8.78681 31.7931 9.49944 31.6845 10.1981C32.09 9.98355 32.4932 9.75298 32.942 9.64278C33.034 9.61284 33.1296 9.64017 33.2211 9.65296L33.2336 9.65558C33.2417 9.61691 33.2571 9.53957 33.2644 9.5009C33.8642 9.31773 34.4045 8.979 34.9055 8.60684C35.4688 8.19688 35.9329 7.66771 36.3393 7.10511C36.5612 6.82104 36.7753 6.50587 37.1111 6.34566C37.245 6.27501 37.4088 6.2692 37.5294 6.17761C37.6464 6.00229 37.4861 5.76184 37.3016 5.7159C36.8813 5.64379 36.4677 5.85371 36.1633 6.12964C35.9335 6.32299 35.8022 6.60908 35.5573 6.78761C35.4749 6.85768 35.3874 6.92309 35.3 6.98851C35.5867 6.26629 36.0302 5.61035 36.2173 4.84975C36.441 3.94057 36.4517 2.99533 36.6382 2.07918C36.6882 2.11988 36.7381 2.16059 36.7875 2.20129C36.7814 2.03731 36.6948 1.90385 36.5511 1.82797L36.5052 1.86606C36.2292 2.03207 36.1473 2.3458 36.0294 2.62317C36.0427 2.44058 36.0706 2.26002 36.1185 2.08325C36.2138 1.74656 36.2379 1.38544 36.4151 1.07608L36.4253 1.05457Z" fill="#6E3432"/>
<path d="M36.3915 1.88929C36.4727 1.63054 36.608 1.31784 36.4156 1.07592C36.2382 1.38514 36.2142 1.74657 36.1191 2.08334C36.071 2.26 36.0432 2.44042 36.0299 2.62317C36.1475 2.34586 36.2295 2.032 36.5054 1.86579L36.3915 1.88929Z" fill="#5A2725"/>
<path d="M35.7186 1.42668C35.6194 1.36866 35.504 1.31209 35.3867 1.36C35.1796 1.4414 35.1211 1.67951 35.0539 1.86798C35.0078 1.74792 34.9579 1.61659 34.8328 1.55742C34.6428 1.52943 34.4683 1.66595 34.4152 1.84461C34.1554 2.578 34.0655 3.37056 33.7025 4.06787C33.4715 4.49937 33.2036 4.91845 32.8628 5.27057C33.1338 4.67312 33.3576 4.04652 33.4461 3.39394C33.4721 3.23144 33.3983 3.04009 33.2417 2.97082C33.1405 2.95869 33.0413 3.00199 32.9992 3.09868C32.8435 3.40664 32.7607 3.74519 32.6191 4.05922C32.3634 4.62925 32.0848 5.19062 31.753 5.72111C31.4859 6.1477 31.2331 6.58785 31.0644 7.06379C30.8721 7.62055 30.806 8.20905 30.7362 8.79092C30.6656 9.51767 30.5811 10.2436 30.5064 10.9703L30.4984 11.037C30.8155 10.8009 31.197 10.6782 31.5448 10.497C31.5926 10.3977 31.6419 10.2996 31.6852 10.1982C31.7939 9.49977 31.9208 8.78716 32.2613 8.15854C32.6563 7.48576 33.2016 6.92121 33.6777 6.30789C34.3605 5.40045 34.6915 4.30137 35.0931 3.25453C35.3181 2.65073 35.4867 2.0273 35.7186 1.42668Z" fill="#9E4D39"/>
<path d="M36.7877 2.20154C36.7384 2.16065 36.6884 2.12005 36.6385 2.07945C36.4522 2.99537 36.4414 3.94081 36.2176 4.84991C36.0304 5.61052 35.5868 6.26665 35.3003 6.98865C35.3879 6.92306 35.475 6.85776 35.5576 6.78792C35.9223 6.10113 36.2749 5.39474 36.4479 4.63129C36.6224 3.83065 36.6836 3.01269 36.7877 2.20154Z" fill="#5E2622"/>
<path d="M42.8669 16.0886C43.6942 16.32 43.902 17.5238 43.3219 18.1012C43.0482 18.3638 42.5825 18.272 42.3649 17.9825C42.0293 17.6046 41.9918 17.0493 42.131 16.582C42.2237 16.2747 42.5353 16.0147 42.8669 16.0886ZM41.0434 16.4073C41.0603 16.3673 41.0929 16.2866 41.1095 16.2466C41.3052 16.4367 41.2293 16.7465 41.2233 16.9912C41.1773 17.2985 41.1015 17.7479 40.7266 17.7959C40.3342 17.5699 40.2216 17.082 40.201 16.6625C40.205 16.4279 40.2422 16.1573 40.4234 15.9893C40.6832 15.7688 41.1728 16.0821 41.0434 16.4073ZM48.3475 9.46088C48.2961 8.887 47.5602 8.59956 47.0847 8.85506C46.9702 8.91642 46.9089 9.09623 46.7557 9.06178C46.6145 9.03764 46.482 9.09221 46.3521 9.13974C45.9679 8.82639 45.2892 8.99287 45.0794 9.44302C44.9629 9.34696 44.8357 9.25894 44.6778 9.26095C44.6226 9.15432 44.566 9.02104 44.4234 9.02431C44.2576 9.02355 44.189 8.81105 44.0158 8.83167C43.8986 8.81432 43.8227 8.9036 43.7494 8.97904C43.4344 8.89102 43.178 9.1757 43.1627 9.47219C42.7071 9.31426 42.1165 9.56097 42.0406 10.0697C42.0406 9.907 42.0333 9.7443 42.0145 9.58285C41.8135 9.69903 41.7675 9.93291 41.7888 10.1477C41.6009 10.1708 41.3959 10.2402 41.3238 10.4349C41.15 10.7296 41.3205 11.0769 41.5642 11.2688C41.3826 11.3681 41.1587 11.4295 41.0608 11.6314C40.8691 11.8914 40.8271 12.3021 41.0849 12.5342C41.356 12.8076 41.8047 12.7709 42.0918 12.5423C42.0732 12.6434 42.0544 12.7462 42.0366 12.8481C42.1484 12.8355 42.2597 12.8234 42.3715 12.8113C42.486 12.9082 42.5953 13.0427 42.7591 13.0427C42.9782 13.0694 43.1414 12.8755 43.3512 12.8549C43.531 12.8395 43.7115 12.8481 43.8906 12.8496C44.0258 13.0261 44.129 13.2507 44.3348 13.354C44.6172 13.4501 44.875 13.268 45.1001 13.1234C45.2799 13.2736 45.4451 13.4395 45.5996 13.6148C45.3798 13.7607 45.1713 13.9767 45.2033 14.2647C45.1753 14.49 45.3298 14.6539 45.4957 14.7767C45.5423 14.954 45.5449 15.1994 45.7567 15.262C45.9838 15.3873 46.2416 15.338 46.4567 15.2147C46.5446 15.3702 46.6199 15.5321 46.6818 15.7001C45.8673 15.9599 45.0508 16.2159 44.2196 16.4186C44.0511 16.4626 43.8813 16.5001 43.7101 16.532C43.495 16.0152 42.8104 15.6827 42.3129 16.0152C42.0645 16.1666 41.966 16.4545 41.8328 16.6972C41.7243 16.6826 41.6155 16.6673 41.507 16.6527C41.4512 16.4173 41.3685 16.1867 41.2293 15.9865C41.0155 15.8354 40.7711 15.6387 40.4902 15.7054C40.1659 15.8253 40.0518 16.2101 40.0392 16.5252C40.0166 17.1091 40.205 17.7806 40.7457 18.0859C40.9115 17.9765 41.0869 17.8674 41.1987 17.6986C41.3638 17.464 41.4112 17.1753 41.4778 16.9027C41.5929 16.91 41.7074 16.9165 41.8215 16.9241C41.8406 17.1853 41.878 17.4439 41.926 17.7014C42.0338 17.8993 42.1552 18.0892 42.275 18.2798C42.1665 18.3613 42.0559 18.4412 41.9378 18.5111C41.6662 18.5886 41.3818 18.5967 41.1022 18.6218C41.1201 18.6859 41.1386 18.7498 41.1567 18.8139C41.4751 18.8471 41.7853 18.7513 42.0846 18.6557C42.2476 18.606 42.2629 18.4151 42.3102 18.2793C42.5127 18.3759 42.7224 18.4953 42.9548 18.4759C43.3105 18.4473 43.6102 18.1706 43.7295 17.8432C43.8773 17.4967 43.8467 17.1127 43.8247 16.7465C43.9552 16.7206 44.0851 16.696 44.2143 16.6665C45.0801 16.4561 45.9186 16.1452 46.783 15.932C46.861 16.196 46.9202 16.4666 47.0254 16.7214C47.0468 16.7961 47.122 16.83 47.1766 16.876C47.2845 16.6859 47.4404 16.5325 47.5789 16.3665C47.5909 16.198 47.5263 16.0192 47.6062 15.8605C47.7061 15.6226 47.8746 15.3734 48.1483 15.3279C48.45 15.2826 48.7091 15.5173 48.8623 15.7527C49.0747 16.156 49.09 16.6447 48.9755 17.0805C48.8756 17.4705 48.6438 17.8085 48.3987 18.1219C48.2109 18.3605 48.081 18.6605 48.115 18.9698C48.3827 18.7958 48.5692 18.5293 48.771 18.2878C49.6155 17.2253 50.2056 15.9481 50.3581 14.5921C50.412 14.1208 50.416 13.6455 50.3947 13.1715C50.6624 13.0782 50.8789 12.8274 50.8443 12.5302C50.8522 12.3054 50.6718 12.1515 50.4946 12.0516C50.6458 11.7908 50.6278 11.4483 50.4413 11.2094C50.6391 11.0009 50.5539 10.6816 50.2981 10.5689C50.2901 10.2623 50.1256 9.94699 49.8166 9.85369C49.5942 9.75033 49.3631 9.86023 49.1573 9.94825C49.0221 9.62157 48.6791 9.481 48.3475 9.46088Z" fill="#290030"/>
<path d="M33.2208 9.6531C33.1294 9.64028 33.0337 9.61312 32.9417 9.64304C32.4927 9.75294 32.0898 9.9838 31.6843 10.1983C31.641 10.2997 31.5918 10.3977 31.5438 10.4971C31.579 10.487 31.6491 10.4656 31.6843 10.4556C32.1526 10.319 32.638 10.223 33.1274 10.275C33.1422 10.065 33.1806 9.85907 33.2208 9.6531Z" fill="#4F2529"/>
<path d="M35.5198 16.5771C35.6912 16.9639 35.7796 17.3819 35.853 17.7963C35.9334 18.3845 35.9047 19.025 35.5746 19.5376C35.5844 18.847 35.6397 18.1552 35.5804 17.4651C35.5698 17.1684 35.4932 16.8744 35.5198 16.5771ZM33.6805 10.7428C33.5773 10.5154 33.3821 10.3148 33.1276 10.2748C32.6381 10.2227 32.1528 10.3188 31.6844 10.4553C32.2012 12.8761 32.5716 15.326 33.1323 17.7372C33.3203 17.4012 33.4001 17.0217 33.5426 16.6679C33.5547 17.113 33.5099 17.5632 33.3534 17.9832C33.0637 18.7472 32.5763 19.4131 32.0894 20.0616C32.4409 20.0616 32.7766 19.955 33.1117 19.8602C33.9456 19.2738 34.3983 18.2965 34.6875 17.3464C34.692 18.2452 34.3006 19.1684 33.5451 19.6849C33.6539 20.1642 33.8677 20.6096 33.9988 21.0816C34.0775 21.3837 33.7609 21.561 33.5818 21.745C32.9778 22.331 32.2872 22.8609 31.8503 23.5929C32.1528 24.1834 32.4716 24.7661 32.8459 25.3148C34.1913 27.3239 35.9502 29.004 37.7056 30.6479C38.0387 29.4491 38.4902 28.2825 39.0595 27.1768C39.0389 26.884 39.1829 26.6155 39.2394 26.3341C39.573 25.1149 39.7017 23.8203 39.46 22.5714C39.418 22.327 39.2967 22.0928 39.3233 21.8396C38.4648 20.845 37.695 19.7704 37.0722 18.6111C35.707 16.0945 34.8239 13.3599 33.6805 10.7428Z" fill="#4A0357" stroke="#4A0357" stroke-width="0.3"/>
<path d="M52.1689 26.5014C51.6648 25.9421 51.1233 25.4168 50.5366 24.9455C50.1829 24.9928 49.82 24.9488 49.473 25.0428C49.1333 25.1236 48.8303 25.3049 48.5 25.4135C48.3555 25.6969 48.2423 25.9949 48.1064 26.2829C48.0664 26.3774 48.0305 26.4743 47.9972 26.5721C48.2423 26.4214 48.5366 26.4461 48.7957 26.5434C49.4483 26.7667 50.0358 27.1854 50.4607 27.7286C50.9995 27.5114 51.5103 27.2287 52.061 27.0429C52.1476 27.0049 52.2422 27.0187 52.3294 27.0434C52.456 26.8447 52.2961 26.6488 52.1689 26.5014Z" fill="#4A0357" stroke="#4A0357" stroke-width="0.3"/>
<path d="M55.0237 31.3812C54.6028 29.7182 53.5605 28.2875 52.3717 27.0834C51.8389 27.2514 51.3381 27.5054 50.8379 27.7516C50.0101 28.1894 49.1763 28.6929 48.6075 29.4561C47.9921 30.1907 47.6398 31.0933 47.2376 31.9513C47.2249 31.9086 47.1996 31.8241 47.1869 31.7821C46.9412 32.4759 46.7734 33.1946 46.5816 33.9046C46.471 34.2825 46.4464 34.7013 46.2079 35.0284C46.154 35.4285 46.1127 35.8312 46.0328 36.2277C45.9615 37.507 45.8004 38.7795 45.7224 40.0583C45.6865 40.8716 45.6392 41.6841 45.6365 42.4982C45.5759 43.4641 45.5952 44.432 45.5912 45.4C46.124 45.3947 46.6562 45.4028 47.189 45.3972C47.3042 44.7547 47.4547 44.1179 47.5299 43.4694C47.6112 42.7361 47.6818 42.0015 47.7237 41.2649C47.7337 41.0728 47.7724 40.8854 47.8137 40.6988C47.7504 40.1222 47.5832 39.5644 47.4767 38.9955C47.3801 38.4818 47.2103 37.9816 47.165 37.4597C47.2695 37.7291 47.3561 38.005 47.4534 38.2776C47.771 37.7998 47.9515 37.2478 48.1233 36.7043C48.5482 35.2666 48.8759 33.7979 49.42 32.3972C49.7457 31.6065 50.106 30.784 50.774 30.2194C51.099 29.936 51.5465 29.6661 51.9887 29.8281C52.3317 29.9734 52.5435 30.3041 52.7347 30.6079C52.9664 30.9673 53.0557 31.3908 53.2402 31.772C53.2162 31.5346 53.1889 31.298 53.1636 31.0606C53.34 31.7333 53.4086 32.4314 53.4067 33.126C53.424 33.4838 53.3973 33.8412 53.3847 34.1986C53.424 35.4524 52.9891 36.6756 52.3803 37.755C51.5485 39.3169 50.2831 40.6088 48.8786 41.6648C49.5945 41.5088 50.1739 41.0315 50.7993 40.681C51.1782 40.467 51.4919 40.1601 51.8129 39.8717C52.4323 39.3104 52.9538 38.651 53.428 37.9657C53.8295 37.3325 54.1992 36.6683 54.3743 35.933C54.2664 36.7171 53.8915 37.4271 53.4852 38.0942C53.374 38.2811 53.2515 38.4609 53.1369 38.647C53.358 38.5117 53.4759 38.2718 53.6677 38.105C53.6484 38.5142 53.4999 38.9002 53.364 39.2822C52.9831 40.3103 52.353 41.2508 51.5146 41.9602C50.5942 42.7388 49.4886 43.3328 48.3018 43.57C48.3678 44.1821 48.469 44.7901 48.5629 45.3987C51.0424 45.4028 53.5212 45.3914 56 45.4012C55.9954 44.9121 55.9893 44.4227 55.9701 43.9346C55.8708 40.8409 55.6584 37.753 55.5232 34.6613C55.4792 33.5533 55.2887 32.4566 55.0237 31.3812Z" fill="#4A0357" stroke="#4A0357" stroke-width="0.3"/>
<path d="M31.6852 10.4556C31.65 10.4656 31.5799 10.487 31.5447 10.4971C31.197 10.6784 30.8154 10.8011 30.4983 11.037C30.3187 11.2236 30.0861 11.3963 30.0582 11.675C29.8532 13.329 29.7617 15.0008 29.8504 16.6661C29.9848 19.0899 30.7727 21.4337 31.851 23.5931C32.2879 22.8611 32.9786 22.3312 33.5825 21.7453C33.7617 21.5612 34.0782 21.3839 33.9996 21.0819C33.8684 20.6098 33.6546 20.1645 33.5458 19.6851C33.3368 19.8345 33.1338 19.9932 32.9067 20.1152C32.9733 20.0279 33.0391 19.9419 33.1125 19.8604C32.7773 19.9552 32.4417 20.0619 32.0902 20.0619C32.5771 19.4133 33.0645 18.7474 33.3542 17.9834C33.5107 17.5634 33.5554 17.1132 33.5433 16.6681C33.4009 17.022 33.321 17.4014 33.1331 17.7374C32.5723 15.3262 32.202 12.8763 31.6852 10.4556Z" fill="#671773" stroke="#671773" stroke-width="0.1"/>
<path d="M42.7599 13.0427C42.5961 13.0427 42.4868 12.9082 42.3722 12.8113C42.335 12.8762 42.2964 12.9401 42.2572 13.0042C42.3202 13.1109 42.335 13.2834 42.4815 13.3088C42.7046 13.354 42.8538 13.5268 42.9817 13.7008C43.3886 14.1975 43.7255 14.7553 43.96 15.3541C44.2297 15.5419 44.5034 15.734 44.7086 15.9961C44.5214 15.9448 44.3356 15.888 44.1558 15.814C44.1238 16.0187 44.1558 16.2239 44.2204 16.4186C45.0515 16.2159 45.868 15.9599 46.6826 15.7001C46.6206 15.5321 46.5454 15.3702 46.4574 15.2147C46.2423 15.338 45.9846 15.3873 45.7575 15.262C45.5457 15.1994 45.543 14.954 45.4964 14.7767C45.3306 14.6539 45.1761 14.49 45.204 14.2647C45.1721 13.9767 45.3805 13.7607 45.6003 13.6148C45.4458 13.4395 45.2807 13.2736 45.1008 13.1234C44.8757 13.268 44.618 13.4501 44.3356 13.354C44.1298 13.2507 44.0266 13.0261 43.8914 12.8496C43.7122 12.8481 43.5318 12.8395 43.3519 12.8549C43.1421 12.8755 42.979 13.0694 42.7599 13.0427Z" fill="#5F2D2D" stroke="#5E2E2E" stroke-width="0.2"/>
<path d="M42.2566 13.0043C41.8629 13.6048 41.5318 14.2489 41.2954 14.9268C41.4022 14.8962 41.5092 14.8708 41.6165 14.8461C41.5891 15.0747 41.5939 15.3181 41.4899 15.5294C41.3994 15.584 41.2909 15.594 41.1889 15.6199C41.1977 15.7421 41.1796 15.8714 41.2296 15.9866C41.3688 16.1868 41.4514 16.4174 41.5072 16.6528C41.6157 16.6673 41.7245 16.6827 41.833 16.6973C41.9662 16.4546 42.0647 16.1666 42.3132 16.0153C42.8106 15.6828 43.4953 16.0153 43.7104 16.532C43.8815 16.5001 44.0514 16.4626 44.2198 16.4186C44.1553 16.224 44.1233 16.0188 44.1553 15.8141C43.6158 15.5467 42.9904 15.6853 42.4229 15.5395C42.1514 15.4628 42.2313 15.1114 42.1926 14.8987C42.7933 14.994 43.3967 15.1155 43.9594 15.3541C43.725 14.7553 43.388 14.1976 42.9812 13.7009C42.8533 13.5269 42.7041 13.3541 42.481 13.3088C42.3345 13.2834 42.3197 13.1109 42.2566 13.0043Z" fill="#923D32" stroke="#923D32" stroke-width="0.2"/>
<path d="M53.4071 33.1258C53.4091 32.4312 53.3405 31.7331 53.164 31.0604C53.1893 31.2978 53.2166 31.5344 53.2406 31.7718C53.3478 32.8565 53.1487 33.9451 52.8836 34.993C52.6146 36.0721 52.3002 37.147 51.8254 38.1549C52.0731 37.9095 52.1897 37.5722 52.3622 37.2762C53.0415 36.0042 53.3998 34.567 53.4071 33.1258Z" fill="#872B94" stroke="#872B94" stroke-width="0.1"/>
<path d="M53.4855 38.0941C53.4708 38.0616 53.4422 37.9975 53.4282 37.9656C52.954 38.6508 52.4325 39.3102 51.8132 39.8715C51.4922 40.16 51.1785 40.4668 50.7995 40.6808C51.6147 40.2347 52.3147 39.5994 52.9174 38.8968C52.976 38.8063 53.0353 38.7135 53.1272 38.6549L53.1372 38.6468C53.2517 38.4607 53.3743 38.2809 53.4855 38.0941Z" fill="#872B94"/>
<path d="M41.6157 14.8461C41.5084 14.8708 41.4014 14.8962 41.2946 14.9269C41.1687 15.0815 41.0989 15.2814 41.0388 15.4708C41.0029 15.5629 41.1089 15.6315 41.1881 15.6199C41.2901 15.594 41.3986 15.584 41.489 15.5294C41.5931 15.3182 41.5883 15.0747 41.6157 14.8461Z" fill="#2C202A" stroke="#2C202A" stroke-width="0.1"/>
<path d="M44.5608 15.9022C44.4299 15.8632 44.301 15.82 44.1754 15.7684C43.8964 15.6306 43.597 15.5983 43.302 15.5812C43.2491 15.5782 43.1964 15.5756 43.1439 15.5731C42.9009 15.5612 42.6637 15.5497 42.4355 15.4911C42.3794 15.4752 42.3436 15.4461 42.319 15.4091C42.2934 15.3707 42.2783 15.3211 42.2694 15.2625C42.2606 15.2046 42.2585 15.1422 42.2563 15.0782L42.2562 15.076C42.2549 15.037 42.2535 14.997 42.2502 14.9586C42.8262 15.0519 43.3995 15.1719 43.9347 15.3981C44.1579 15.5535 44.3786 15.709 44.5608 15.9022Z" fill="#2E202D" stroke="#2E202D" stroke-width="0.1"/>
<path d="M34.687 17.3464C34.3978 18.2965 33.9451 19.2738 33.1112 19.8602C33.0378 19.9417 32.972 20.0277 32.9054 20.115C33.1326 19.993 33.3356 19.8343 33.5446 19.685C34.3001 19.1684 34.6915 18.2452 34.687 17.3464Z" fill="#872B94"/>
<path d="M54.3743 35.9329C54.1992 36.6682 53.8295 37.3324 53.428 37.9656C53.442 37.9975 53.4706 38.0617 53.4852 38.0941C53.8915 37.4269 54.2664 36.717 54.3743 35.9329Z" fill="#872B94"/>
<path d="M48.8623 15.7527C48.7091 15.5173 48.45 15.2827 48.1484 15.3279C47.8746 15.3735 47.7061 15.6227 47.6062 15.8606C47.5263 16.0193 47.5909 16.1981 47.5789 16.3666C47.4404 16.5325 47.2846 16.6859 47.1767 16.8761C47.1221 16.83 47.0468 16.7961 47.0255 16.7214C46.9203 16.4666 46.861 16.1961 46.7831 15.932C45.9186 16.1453 45.0801 16.4561 44.2143 16.6666C44.4981 18.0125 44.5487 19.4779 43.9826 20.7604C43.8727 21.0132 43.7475 21.2599 43.6662 21.5244C44.6399 21.3164 45.5923 20.9845 46.4621 20.4951C47.0168 20.1511 47.529 19.7278 47.9326 19.2118C47.9525 19.2973 47.9705 19.3838 47.9878 19.4706C48.0245 19.3026 48.0298 19.1225 48.115 18.9699C48.0811 18.6606 48.2109 18.3605 48.3988 18.1219C48.6439 17.8085 48.8756 17.4706 48.9755 17.0805C49.09 16.6447 49.0747 16.1561 48.8623 15.7527Z" fill="#5E2E2E" stroke="#5E2E2E" stroke-width="0.2"/>
<path d="M42.8666 16.0885C42.535 16.0145 42.2234 16.2746 42.1307 16.5819C41.9915 17.0491 42.029 17.6044 42.3646 17.9824C42.5822 18.2718 43.0478 18.3636 43.3216 18.1011C43.9016 17.5237 43.6938 16.3198 42.8666 16.0885Z" fill="#933A2F"/>
<path d="M41.223 16.991C41.2291 16.7463 41.3049 16.4365 41.1092 16.2464C41.0926 16.2864 41.06 16.3671 41.0431 16.4071C40.9261 16.8671 40.8773 17.3439 40.7263 17.7958C41.1012 17.7477 41.1771 17.2983 41.223 16.991Z" fill="#9C392F"/>
<path d="M35.5196 16.5772C35.493 16.8744 35.5696 17.1684 35.5802 17.4651C35.6395 18.1552 35.5842 18.847 35.5744 19.5376C35.9045 19.0251 35.9332 18.3846 35.8528 17.7963C35.7794 17.3819 35.691 16.9639 35.5196 16.5772Z" fill="#671773"/>
<path d="M41.7537 19.6619C42.1074 19.7164 42.4649 19.6664 42.8207 19.6752C42.4237 19.9237 41.9602 20.1017 41.4854 20.063C41.2655 20.0451 41.1809 19.813 41.113 19.6385C41.3248 19.5811 41.5414 19.643 41.7537 19.6619ZM44.2145 16.6665C44.0854 16.6959 43.9555 16.7206 43.8249 16.7465C43.8469 17.1126 43.8776 17.4966 43.7297 17.8432C43.6105 18.1706 43.3108 18.4472 42.9551 18.4759C42.7227 18.4953 42.5129 18.3758 42.3104 18.2792C42.2632 18.415 42.2479 18.6059 42.0848 18.6557C41.7856 18.7513 41.4753 18.8471 41.157 18.8139C41.0844 18.8131 41.013 18.8083 40.9399 18.8071C40.9251 19.2477 40.9892 19.6858 41.0206 20.1243C41.0703 20.5657 41.0605 21.0309 41.2462 21.4444C41.3987 21.7177 41.7484 21.7524 42.0288 21.7283C42.5762 21.6818 43.1316 21.6609 43.6664 21.5243C43.7477 21.2598 43.8729 21.0131 43.9828 20.7603C44.5489 19.4778 44.4983 18.0124 44.2145 16.6665Z" fill="#923B30" stroke="#923D32" stroke-width="0.2"/>
<path d="M41.8222 16.9241C41.7082 16.9165 41.5936 16.91 41.4785 16.9027C41.4119 17.1753 41.3645 17.464 41.1994 17.6986C41.0876 17.8674 40.9122 17.9765 40.7464 18.0859C40.7452 18.1905 40.7406 18.2959 40.7492 18.4013C40.7612 18.56 40.9198 18.6513 40.9404 18.8072C41.0135 18.8084 41.0848 18.8132 41.1574 18.814C41.1394 18.7498 41.1208 18.686 41.1029 18.6218C41.3826 18.5967 41.6669 18.5886 41.9385 18.5112C41.8813 18.2434 41.9054 17.9705 41.9267 17.7014C41.8787 17.4439 41.8413 17.1854 41.8222 16.9241Z" fill="#8E362D"/>
<path d="M46.4765 29.4681C46.4179 29.538 46.3593 29.6079 46.2914 29.6713C45.6041 30.2487 44.7156 30.5201 43.8359 30.6199C43.4582 30.6712 43.0773 30.7366 42.6944 30.6979C43.7513 30.6247 44.7802 30.3005 45.7359 29.8514C45.991 29.7392 46.2168 29.5712 46.4765 29.4681ZM46.9627 25.4595C46.9414 25.2822 46.7523 25.2221 46.6111 25.1676C46.2228 25.2928 45.8239 25.3821 45.4236 25.4603C44.8189 25.5621 44.1908 25.5629 43.5981 25.3921C43.5768 25.3941 43.5342 25.3974 43.5129 25.3989C43.4969 25.6169 43.4902 25.8355 43.4776 26.0543C42.5158 26.7008 41.5262 27.3408 40.7637 28.2268C40.4727 28.8014 40.2335 29.4012 39.9278 29.9693C39.6961 30.4187 39.4469 30.8585 39.2072 31.3032C38.9063 31.8373 38.592 32.3692 38.39 32.9506C38.0272 34.0579 37.8186 35.2056 37.537 36.3343C37.184 37.9935 36.8516 39.6576 36.6027 41.336C36.3788 42.6794 36.2969 44.0434 36.3373 45.4039C38.4859 45.412 40.6338 45.4067 42.7823 45.4059C42.9296 44.2765 43.2871 43.1894 43.672 42.1221C43.8325 41.6767 44.0483 41.2547 44.2395 40.8227L44.1815 40.7601C43.8092 41.1428 43.3371 41.4009 42.861 41.6307C41.8206 42.1286 40.6863 42.4048 39.5457 42.5486C39.0648 42.5788 38.5812 42.5841 38.099 42.5614C38.6038 42.5546 39.1113 42.5433 39.6082 42.4435C40.3602 42.2848 41.1219 42.1254 41.8226 41.7974C41.9344 41.7446 42.0276 41.6614 42.1183 41.5802C42.0558 41.5807 41.9299 41.5827 41.8671 41.5834C42.2781 41.302 42.7143 41.0561 43.1046 40.7447C43.9178 40.0942 44.6637 39.3274 45.1465 38.3957C45.5168 37.7056 45.7559 36.9577 46.0323 36.2277C46.1122 35.8311 46.1535 35.4284 46.2075 35.0283C46.4939 32.1564 47.0393 29.2994 47.9977 26.5721C48.0309 26.4742 48.0669 26.3774 48.1069 26.2829C47.9983 26.0995 47.8804 25.9227 47.7539 25.7515C46.97 26.1041 46.1608 26.4901 45.2857 26.5087C45.7706 26.4081 46.2767 26.2942 46.6777 25.9869C46.8415 25.8642 47.0033 25.6801 46.9627 25.4595Z" fill="#F37435"/>
<path d="M41.9265 17.7015C41.9051 17.9705 41.881 18.2434 41.9383 18.5112C42.0564 18.4413 42.1669 18.3613 42.2755 18.2799C42.1556 18.0892 42.0343 17.8994 41.9265 17.7015Z" fill="#AF3E28"/>
<path d="M47.9321 19.2118C47.5285 19.7278 47.0164 20.151 46.4616 20.4951C45.5918 20.9844 44.6394 21.3164 43.6658 21.5244C43.6691 21.5611 43.6764 21.6358 43.6804 21.673C43.7011 21.8603 43.6924 22.0603 43.7803 22.2335C44.0554 22.817 44.4363 23.3496 44.8879 23.8088C44.9205 23.8184 44.9857 23.837 45.0184 23.8463C45.36 23.8815 45.7224 23.7809 46.05 23.8855C46.2431 24.311 46.4543 24.729 46.6527 25.1522C47.1236 24.9636 47.5918 24.7576 47.988 24.4342C47.8289 24.2502 47.8469 23.9889 47.8009 23.7643C47.6344 22.5577 47.6577 21.327 47.8888 20.1304C47.9208 19.9104 47.9721 19.6923 47.9874 19.4705C47.9701 19.3838 47.9521 19.2973 47.9321 19.2118Z" fill="#361E2C"/>
<path d="M41.7536 19.6619C41.5413 19.6431 41.3247 19.5812 41.1129 19.6386C41.1807 19.8131 41.2654 20.0452 41.4852 20.0631C41.9601 20.1018 42.4236 19.9237 42.8206 19.6753C42.4648 19.6665 42.1073 19.7165 41.7536 19.6619Z" fill="#FDFCFB"/>
<path d="M43.6818 21.673C43.6625 22.3158 43.6232 22.9576 43.6106 23.6009C43.6339 23.5722 43.6798 23.5156 43.7025 23.4869C44.0714 23.6803 44.4804 23.7583 44.8893 23.8088C44.4377 23.3496 44.0568 22.817 43.7817 22.2336C43.6938 22.0603 43.7025 21.8604 43.6818 21.673Z" fill="#592829"/>
<path d="M39.3233 21.8396C39.2967 22.0928 39.418 22.327 39.46 22.5714C39.7017 23.8203 39.573 25.1149 39.2394 26.334C39.1829 26.6155 39.0389 26.884 39.0595 27.1768C39.3854 26.618 39.727 26.0461 40.2185 25.6173C40.4735 25.3907 40.7167 25.138 41.0262 24.9861C41.2601 25.012 41.4525 25.1795 41.6098 25.3435C41.8121 25.5462 41.6922 25.8467 41.7128 26.0979C42.1553 25.4368 42.7218 24.838 43.4152 24.4389C43.6283 24.3207 43.5471 24.0287 43.5937 23.8288C43.0349 23.8602 42.4974 24.0509 41.996 24.2915C41.0729 23.5102 40.1406 22.7341 39.3233 21.8396Z" fill="#290030"/>
<path d="M44.8892 23.8088C44.4803 23.7583 44.0713 23.6803 43.7024 23.4869C43.6797 23.5156 43.6338 23.5722 43.6105 23.6009C43.6065 23.6763 43.6011 23.753 43.5945 23.8289C43.5479 24.0289 43.6291 24.3208 43.416 24.439C43.4466 24.4509 43.5073 24.475 43.5379 24.4868C43.5998 24.7848 43.398 25.1349 43.5992 25.3921C44.1919 25.5629 44.8199 25.5621 45.4246 25.4603C45.3754 24.903 45.2068 24.3696 45.0197 23.8463C44.9871 23.837 44.9218 23.8184 44.8892 23.8088Z" fill="#8E4036"/>
<path d="M48.6796 23.849C48.3965 23.757 48.0955 23.763 47.8018 23.7642C47.8477 23.9888 47.8297 24.2501 47.9889 24.4342C48.0815 24.3776 48.1734 24.313 48.2819 24.2936C48.551 24.2569 48.8221 24.5169 48.7794 24.7888C48.7328 25.0149 48.6036 25.2108 48.5011 25.4135C48.8314 25.3048 49.1344 25.1235 49.4741 25.0428C49.8211 24.9487 50.184 24.9927 50.5377 24.9454C49.9642 24.5121 49.3815 24.0502 48.6796 23.849Z" fill="#290030"/>
<path d="M46.0505 23.8856C45.7228 23.7809 45.3605 23.8815 45.0188 23.8463C45.206 24.3697 45.3745 24.903 45.4238 25.4603C45.824 25.3821 46.223 25.2928 46.6112 25.1676L46.6532 25.1523C46.4547 24.729 46.2436 24.3111 46.0505 23.8856Z" fill="#572A2C"/>
<path d="M48.7789 24.7887C48.8216 24.5168 48.5505 24.2568 48.2814 24.2935C48.1729 24.3129 48.081 24.3775 47.9884 24.4341C47.5921 24.7575 47.124 24.9635 46.6531 25.1521L46.6111 25.1674C46.7523 25.222 46.9415 25.2821 46.9628 25.4594C47.0034 25.6799 46.8416 25.864 46.6777 25.9867C46.2768 26.294 45.7706 26.408 45.2858 26.5085C46.1609 26.4899 46.9701 26.1039 47.754 25.7513C47.8805 25.9226 47.9984 26.0994 48.107 26.2827C48.2428 25.9948 48.356 25.6968 48.5005 25.4133C48.6031 25.2107 48.7323 25.0148 48.7789 24.7887Z" fill="#AB3D2B"/>
<path d="M43.5379 24.4868C43.5073 24.475 43.4467 24.4508 43.416 24.439C42.7226 24.8381 42.1561 25.4369 41.7136 26.098C41.3742 26.7121 41.0871 27.3542 40.83 28.0068C40.8087 28.0794 40.7866 28.1534 40.7647 28.2268C41.5272 27.3408 42.5168 26.7008 43.4786 26.0543C43.4913 25.8355 43.498 25.6169 43.5139 25.3989C43.5352 25.3974 43.5779 25.3941 43.5992 25.3921C43.398 25.1349 43.5998 24.7848 43.5379 24.4868Z" fill="#A83C2C"/>
<path d="M41.6092 25.3434C41.4519 25.1795 41.2595 25.012 41.0256 24.9861C40.716 25.138 40.4728 25.3907 40.2178 25.6173C40.7565 25.7667 41.0296 26.3433 41.0517 26.8646C41.0828 27.2599 40.9339 27.6331 40.8286 28.0066C41.0856 27.354 41.3728 26.712 41.7122 26.0979C41.6916 25.8466 41.8114 25.5461 41.6092 25.3434Z" fill="#4A0357" stroke="#4A0357" stroke-width="0.3"/>
<path d="M53.1268 38.6547C53.0349 38.7133 52.9756 38.8061 52.917 38.8967C53.0682 38.944 53.1801 38.7928 53.1268 38.6547Z" fill="#47222B"/>
<path d="M41.0524 26.8649C41.0303 26.3436 40.7572 25.7669 40.2186 25.6175C39.7272 26.0463 39.3855 26.6182 39.0596 27.177C38.4903 28.2827 38.0388 29.4493 37.7057 30.6482C36.8053 33.8706 36.1699 37.1605 35.5865 40.4536C35.3056 42.0928 35.0371 43.7387 34.9486 45.4012C35.2177 45.3967 35.486 45.4 35.7543 45.4C35.8398 42.5208 36.2485 39.663 36.7995 36.8391C36.9065 36.4297 36.9319 35.9637 37.2211 35.6332C37.3708 35.8437 37.4846 36.0799 37.5374 36.3344C37.819 35.2057 38.0275 34.058 38.3903 32.9507C38.5923 32.3693 38.9066 31.8374 39.2076 31.3033C39.4473 30.8586 39.6965 30.4188 39.9282 29.9694C40.2339 29.4013 40.4731 28.8015 40.764 28.2269C40.7859 28.1535 40.808 28.0795 40.8293 28.0069C40.9346 27.6334 41.0836 27.2602 41.0524 26.8649Z" fill="#671773"/>
<path d="M48.7972 26.5434C48.5381 26.4461 48.2438 26.4214 47.9987 26.572C47.0403 29.2993 46.4949 32.1564 46.2085 35.0283C46.4469 34.7011 46.4716 34.2824 46.5821 33.9045C46.7739 33.1945 46.9417 32.4758 47.1875 31.782C47.4885 30.7826 47.8255 29.7274 48.62 29.0026C49.1728 28.4974 49.7928 28.0641 50.4622 27.7286C50.0373 27.1854 49.4498 26.7667 48.7972 26.5434Z" fill="#671773" stroke="#671773" stroke-width="0.1"/>
<path d="M52.3301 27.0434C52.2428 27.0188 52.1482 27.0049 52.0617 27.0429C51.5109 27.2287 51.0001 27.5114 50.4613 27.7287C49.792 28.0642 49.1719 28.4975 48.6192 29.0027C47.8246 29.7275 47.4876 30.7827 47.1866 31.782C47.1993 31.824 47.2246 31.9085 47.2372 31.9513C47.6395 31.0932 47.9918 30.1907 48.6072 29.4561C49.1759 28.6929 50.0098 28.1894 50.8376 27.7516C51.3377 27.5054 51.8386 27.2514 52.3713 27.0834L52.3301 27.0434Z" fill="#23212D"/>
<path d="M46.4771 29.4681C46.2173 29.5712 45.9916 29.7392 45.7365 29.8514C44.7808 30.3005 43.7518 30.6247 42.6949 30.6979C43.0778 30.7366 43.4588 30.6712 43.8364 30.6199C44.7162 30.5201 45.6046 30.2487 46.2919 29.6713C46.3598 29.608 46.4185 29.538 46.4771 29.4681Z" fill="#FFA378" stroke="#FFA378" stroke-width="0.1"/>
<path d="M51.9881 29.8281C51.5459 29.6661 51.0984 29.9359 50.7734 30.2194C50.1054 30.7839 49.7451 31.6065 49.4194 32.3972C48.8753 33.7979 48.5476 35.2666 48.1227 36.7043C47.9509 37.2477 47.7704 37.7997 47.4528 38.2775C47.3555 38.0049 47.2689 37.7291 47.1644 37.4597C47.2097 37.9816 47.3795 38.4817 47.4761 38.9955C47.5826 39.5644 47.7498 40.1222 47.8131 40.6988C48.0048 41.6501 48.1554 42.61 48.3012 43.5699C49.488 43.3328 50.5936 42.7388 51.514 41.9602C52.3524 41.2508 52.9825 40.3103 53.3634 39.2822C53.4993 38.9002 53.6478 38.5142 53.6671 38.105C53.4753 38.2718 53.3574 38.5117 53.1363 38.647L53.1263 38.655C53.1796 38.7931 53.0677 38.9442 52.9165 38.8969C52.3138 39.5996 51.6139 40.2348 50.7987 40.6809C50.1733 41.0315 49.5939 41.5088 48.878 41.6647C50.2825 40.6088 51.5479 39.3169 52.3797 37.755C52.9885 36.6756 53.4234 35.4524 53.3841 34.1985C53.3967 33.8412 53.4234 33.4838 53.4061 33.126C53.3987 34.5672 53.0404 36.0044 52.3611 37.2764C52.1886 37.5724 52.0721 37.9096 51.8243 38.1551C52.2992 37.1471 52.6135 36.0723 52.8826 34.9932C53.1476 33.9453 53.3468 32.8566 53.2396 31.772C53.0551 31.3908 52.9658 30.9673 52.7341 30.6079C52.5429 30.3041 52.3311 29.9734 51.9881 29.8281Z" fill="#671773"/>
<path d="M37.537 36.3342C37.4843 36.0797 37.3705 35.8435 37.2207 35.633C36.9316 35.9635 36.9062 36.4295 36.7992 36.8389C36.2482 39.6628 35.8394 42.5206 35.754 45.3998C35.9485 45.3985 36.1429 45.399 36.3374 45.4038C36.2969 44.0433 36.3788 42.6793 36.6027 41.3359C36.8517 39.6575 37.1841 37.9934 37.537 36.3342Z" fill="#393E45" stroke="#393E45" stroke-width="0.1"/>
<path d="M46.0325 36.2275C45.7561 36.9575 45.517 37.7054 45.1467 38.3955C44.6639 39.3272 43.918 40.094 43.1048 40.7446C42.7144 41.0559 42.2783 41.3019 41.8673 41.5833C41.9301 41.5825 42.0559 41.5805 42.1185 41.58C42.6825 41.3765 43.22 41.1032 43.7281 40.7861C43.9965 40.5987 44.249 40.3867 44.5347 40.226C44.47 40.44 44.3502 40.6299 44.2396 40.8225C44.0485 41.2546 43.8327 41.6766 43.6722 42.1219C43.2872 43.1892 42.9297 44.2764 42.7825 45.4058C43.7188 45.3977 44.6545 45.4065 45.5909 45.3997C45.5949 44.4318 45.5756 43.4638 45.6362 42.4979C45.6389 41.6839 45.6862 40.8713 45.7221 40.058C45.8001 38.7793 45.9612 37.5068 46.0325 36.2275Z" fill="#BA4517"/>
<path d="M44.2392 40.8228C44.3498 40.6301 44.4696 40.4403 44.5342 40.2262C44.2485 40.3869 43.9961 40.5989 43.7277 40.7863C43.8529 40.7476 43.9788 40.7136 44.1067 40.689C44.1253 40.7068 44.1626 40.7423 44.1813 40.7601L44.2392 40.8228Z" fill="#F0914F"/>
<path d="M44.1075 40.6888C43.9796 40.7135 43.8538 40.7474 43.7285 40.7861C43.2204 41.1033 42.6829 41.3766 42.1189 41.5801C42.0282 41.6613 41.935 41.7445 41.8232 41.7973C41.1225 42.1253 40.3607 42.2847 39.6088 42.4434C39.1118 42.5432 38.6043 42.5546 38.0996 42.5613C38.5817 42.584 39.0653 42.5787 39.5462 42.5485C40.6868 42.4047 41.8212 42.1285 42.8615 41.6306C43.3376 41.4008 43.8098 41.1427 44.1821 40.76C44.1634 40.7421 44.1261 40.7067 44.1075 40.6888Z" fill="#FFA378"/>
<path d="M47.8133 40.6988C47.772 40.8854 47.7333 41.0727 47.7233 41.2648C47.6814 42.0014 47.6108 42.736 47.5295 43.4693C47.4543 44.1179 47.3038 44.7546 47.1886 45.3972C47.6468 45.3972 48.1049 45.3967 48.5625 45.3987C48.4686 44.7901 48.3674 44.182 48.3014 43.5699C48.1556 42.61 48.0051 41.6501 47.8133 40.6988Z" fill="#1C192C"/>
<path d="M10.1524 17.2792C9.99723 17.2485 9.84996 17.3238 9.70699 17.3725C10.0499 17.3972 10.3935 17.3985 10.7365 17.3838C10.5394 17.3652 10.3455 17.3238 10.1524 17.2792Z" fill="#9E4D39"/>
<path d="M11.659 21.2917C11.444 21.2277 11.156 21.2824 11.0782 21.5217C10.9378 22.0537 11.4209 22.5876 11.9302 22.667C11.6524 22.4916 11.3023 22.3404 11.1988 21.9984C11.1518 21.819 11.0666 21.5857 11.2153 21.4311C11.3181 21.2871 11.5078 21.3204 11.659 21.2917Z" fill="#9E4D39"/>
<path d="M26.1773 1.83997C26.2818 1.58929 26.0767 1.3622 25.8468 1.29598C25.6616 1.33468 25.4641 1.44264 25.458 1.65733C25.3 2.78283 25.2321 3.92858 25.3493 5.06073C25.2514 4.5506 25.1182 4.04651 25.0889 3.5261C25.0544 3.17079 25.0988 2.80127 24.9831 2.45867C24.8919 2.21554 24.4777 2.26151 24.4762 2.53547C24.2998 3.99329 24.6342 5.44597 24.891 6.87325C24.6907 6.39578 24.5696 5.83515 24.1391 5.50313C24.0161 5.39578 23.866 5.32804 23.7143 5.26998C23.5772 5.26001 23.3736 5.23188 23.3189 5.40183C23.2077 5.5884 23.4285 5.71722 23.5319 5.84059C23.8645 6.13663 23.9466 6.59173 24.1267 6.97909C24.3783 7.59234 24.7765 8.13513 25.2342 8.61048C25.404 8.79101 25.5885 8.95914 25.7351 9.15962C25.8961 9.38097 25.8879 9.67036 25.8822 9.93163C25.871 10.4923 25.6305 11.0075 25.4478 11.527C25.0239 12.7088 24.5708 13.8802 24.1672 15.0695C23.8182 14.9994 23.5198 15.2361 23.3893 15.544C22.8739 16.6126 22.6727 17.7941 22.3452 18.9259C22.2603 19.2339 22.0772 19.5085 21.8389 19.7198C21.4108 20.0925 20.9619 20.4451 20.5634 20.8511C20.3752 21.0404 20.261 21.2898 20.1946 21.5458C20.0287 22.1731 20.0266 22.8277 19.9115 23.4636C19.7789 24.1282 19.3082 24.6443 18.872 25.1342C19.1895 25.0117 19.4472 24.7844 19.7399 24.6164C20.1913 24.3035 20.677 23.963 20.8713 23.4244C21.1558 23.5609 21.4619 23.6557 21.7803 23.6509C21.4259 23.4958 21.0438 23.2883 20.8698 22.9264C20.9516 22.6017 21.135 22.313 21.251 21.9991C21.5891 21.2151 21.8455 20.3598 22.4322 19.7172C22.7881 19.3185 23.3322 19.1899 23.7285 18.8472C23.5977 18.8899 23.4666 18.9286 23.3361 18.9732C23.1778 19.0319 23.0156 19.0806 22.8527 19.1279C23.0464 18.8979 23.1808 18.6272 23.2569 18.3373C23.488 17.5325 23.6965 16.7206 23.8986 15.9087C23.9077 15.87 23.9249 15.7941 23.933 15.7554C24.0654 15.9147 24.1913 16.0819 24.3508 16.2153C24.9197 14.9474 25.3913 13.6389 25.8323 12.3214C26.1885 11.2089 26.5682 10.1031 26.8691 8.97305C27.0304 8.34559 27.161 7.68184 26.9951 7.04108C26.7773 6.1959 26.3211 5.43176 26.1293 4.57872C25.9613 3.81851 25.9586 3.03079 26.0474 2.2606C26.0692 2.11394 26.1299 1.97877 26.1773 1.83997Z" fill="#FFA378"/>
<path d="M26.1769 1.84024C26.1296 1.97893 26.0689 2.11421 26.0469 2.26089C25.9582 3.03086 25.9611 3.81881 26.129 4.57879C26.3209 5.43209 26.7768 6.19606 26.9946 7.04137C27.1605 7.68206 27.0303 8.34587 26.8689 8.97315C26.5678 10.1033 26.1883 11.2091 25.8319 12.3218C25.3912 13.6389 24.9196 14.9477 24.3508 16.2156C24.8597 16.5321 25.5343 16.5855 26.0523 16.2602C26.0971 16.1988 26.139 16.1369 26.1789 16.0729C26.6052 14.4971 27 12.9129 27.3852 11.3264C27.503 10.8678 27.5757 10.3892 27.8012 9.96657C28.021 9.55305 28.1522 9.09643 28.1941 8.63125C28.232 8.13668 28.2229 7.62784 28.0589 7.15524C27.8405 6.5254 27.5275 5.92266 27.4194 5.25943C27.3504 4.68466 27.4642 4.11019 27.4676 3.53542C27.4747 3.36876 27.3795 3.12561 27.1754 3.15158C27.0109 3.18097 27.0035 3.39415 26.9581 3.52286C26.8623 4.05539 26.8281 4.60219 26.8563 5.14128C26.8823 5.32136 26.9253 5.49801 26.9595 5.67666C26.7574 5.25743 26.6471 4.78198 26.7078 4.3168C26.689 3.81082 26.6317 3.3054 26.6434 2.79742C26.6251 2.54342 26.665 2.26346 26.5373 2.0323C26.4751 1.90359 26.318 1.96409 26.2069 1.9561C26.1994 1.92756 26.1843 1.86877 26.1769 1.84024Z" fill="#FFA378"/>
<path d="M12.6444 19.5799C12.4626 20.0178 12.3686 20.4865 12.2002 20.9298C12.4324 20.5158 12.6458 20.0659 12.6444 19.5799Z" fill="#B8563B"/>
<path d="M26.8557 5.14102C26.8168 4.86434 26.7769 4.58766 26.707 4.31639C26.6462 4.78166 26.7569 5.25693 26.9588 5.67627C26.9245 5.49767 26.8813 5.32097 26.8557 5.14102Z" fill="#87372C"/>
<path d="M14.9899 18.4417C14.9356 18.4064 14.8808 18.3711 14.8269 18.3351C14.7835 18.545 14.7197 18.7497 14.6737 18.9597C14.6612 19.1757 14.6145 19.3877 14.5426 19.5923C14.6017 19.6263 14.6606 19.661 14.7184 19.6957C14.8334 19.2837 14.9836 18.875 14.9899 18.4417Z" fill="#FF9462"/>
<path d="M11.0478 23.5337C10.7698 24.3302 10.0374 24.8616 9.25982 25.1123C9.97256 24.7444 10.6089 24.2097 11.0478 23.5337ZM6.41698 21.3204C6.46596 21.8631 6.57125 22.397 6.7074 22.9237C6.36723 22.469 6.27544 21.8651 6.41698 21.3204ZM12.6449 19.5798C12.6465 20.0658 12.4332 20.5158 12.2006 20.9298C12.3692 20.4865 12.4633 20.0178 12.6449 19.5798ZM7.39545 17.6593C7.27435 17.8666 7.09462 18.0306 6.96272 18.2306C6.72167 18.5879 6.54773 18.9859 6.40734 19.3919C6.44976 19.0439 6.61715 18.7306 6.74443 18.4092C6.87131 18.0966 7.08189 17.8033 7.39545 17.6593ZM11.9997 17.5153C11.5766 17.4953 11.1597 17.4126 10.737 17.3839C10.3941 17.3986 10.0505 17.3973 9.70721 17.3726C9.8503 17.3239 9.99763 17.2486 10.1527 17.2793C10.7721 17.2639 11.4327 17.2186 11.9997 17.5153ZM17.9716 16.8106C18.1139 16.8773 18.1474 17.0606 18.1054 17.1993C17.9901 17.5373 17.5735 17.7379 17.2395 17.6099C16.9831 17.4726 17.049 17.0826 17.2484 16.9246C17.4659 16.812 17.7321 16.6766 17.9716 16.8106ZM14.102 16.792C13.5258 16.4493 13.0341 15.8867 12.9419 15.2027C13.2111 15.8087 13.6145 16.3446 14.102 16.792ZM8.94241 12.9108C8.61034 12.3748 8.03028 11.9755 7.39005 11.9468C6.8528 11.9075 6.33792 12.1962 6.0124 12.6115C5.46204 13.2981 5.29234 14.2027 5.25107 15.0607C5.24837 15.6707 5.27884 16.3433 5.67532 16.8426C5.92833 17.1633 6.34794 17.2586 6.73555 17.2799C6.21951 17.62 5.96381 18.2252 5.80645 18.8012C5.56733 19.6658 5.55306 20.5745 5.61785 21.4644C5.70579 22.613 5.98579 23.7822 6.6399 24.7469C7.21418 25.5929 8.1267 26.1788 9.11905 26.4037C9.67983 26.5261 10.278 26.6041 10.8388 26.4461C11.4042 26.1909 11.7347 25.6175 11.9121 25.0481C12.0703 24.5231 12.1262 23.967 12.0861 23.4203C11.5727 23.2762 11.0953 22.9623 10.8141 22.501C10.5815 22.1157 10.5939 21.5817 10.892 21.2344C11.0694 21.0211 11.4061 21.0185 11.6279 21.1618C11.9172 21.3311 12.0583 21.6637 12.3372 21.8437C12.4131 21.9051 12.5555 21.8844 12.5759 21.7824C12.5624 21.6364 12.481 21.5078 12.4274 21.3744C12.8339 21.3244 13.1768 21.0685 13.5818 21.0138C13.7719 20.9818 13.9624 20.9505 14.1499 20.9118C14.2926 20.8824 14.4353 20.8531 14.5772 20.8245C14.5911 21.0098 14.603 21.1971 14.6501 21.3778C14.7114 21.1604 14.6975 20.9285 14.7739 20.7151L14.7986 20.6518C14.7527 20.5785 14.7064 20.5051 14.6582 20.4331C14.635 20.4798 14.5884 20.5724 14.5656 20.6191C14.4086 20.6478 14.2486 20.6505 14.0893 20.6424L14.0469 20.6411C14.0369 20.6558 14.0176 20.6851 14.0083 20.6991C13.8436 20.7544 13.672 20.7871 13.4992 20.8111C13.797 20.5278 14.0554 20.2051 14.2532 19.8445C14.4152 19.5605 14.5483 19.2612 14.6736 18.9599C14.7195 18.7499 14.7835 18.5452 14.8267 18.3352C14.8707 17.9852 14.8422 17.6073 14.5918 17.3373C15.111 17.4899 15.6621 17.5439 16.1932 17.4173C16.3737 17.7459 16.5484 18.0779 16.7389 18.4013C17.1165 18.5372 17.5411 18.4452 17.8589 18.2112C18.2277 17.8979 18.4232 17.382 18.3052 16.9053C18.2207 16.6407 17.923 16.664 17.6997 16.6446C17.8937 16.5133 18.0849 16.3413 18.3353 16.3547C18.3225 16.4433 18.3098 16.532 18.2959 16.6213L18.3777 16.6707C18.4375 16.5033 18.424 16.2206 18.1779 16.2467C17.8416 16.3786 17.6194 16.706 17.2577 16.7946C17.3522 16.338 17.5107 15.824 17.2515 15.3907C16.9792 14.954 16.4385 14.8447 15.9656 14.7814C15.6825 14.7747 15.4002 14.8047 15.1164 14.8061C15.3189 14.6194 15.5202 14.4114 15.7832 14.3141C16.0316 14.3147 16.0767 14.5974 15.9703 14.7747C16.0401 14.6814 16.1515 14.5894 16.1288 14.4581C16.0821 14.2901 15.8951 14.1508 15.7184 14.2234C15.4184 14.3434 15.2232 14.6207 14.9798 14.8227C13.8232 14.8954 12.6835 14.6201 11.5307 14.6121C10.9302 14.6221 10.3258 14.7187 9.76468 14.9367C8.77618 15.286 8.02218 16.1527 7.69589 17.1373C7.57325 17.07 7.44212 17.0113 7.34184 16.9113C7.28707 16.412 7.59793 15.9887 7.84207 15.5853C7.81044 15.5753 7.74642 15.5547 7.71441 15.5447C7.36498 15.4594 7.02674 15.2707 6.83622 14.956C6.65726 14.688 6.61753 14.3608 6.60519 14.0467C6.69004 14.7501 7.26393 15.2527 7.88102 15.5187C8.00097 15.456 8.0889 15.3487 8.18725 15.2601C8.49001 14.9634 8.85679 14.7134 9.27834 14.6341C9.34969 14.0454 9.26908 13.4168 8.94241 12.9108Z" fill="#210D03" stroke="#210D03"/>
<path d="M7.88086 15.5185C7.2635 15.2525 6.68992 14.7499 6.60464 14.0466C6.61709 14.3606 6.65671 14.6879 6.83596 14.9559C7.02615 15.2706 7.36464 15.4592 7.71407 15.5446C7.75595 15.5379 7.8386 15.5252 7.88086 15.5185Z" fill="#B54710"/>
<path d="M12.0001 17.5151C11.4333 17.2185 10.7726 17.2638 10.1532 17.2792C10.3463 17.3238 10.5401 17.3651 10.7374 17.3838C11.1602 17.4125 11.577 17.4951 12.0001 17.5151Z" fill="#B54710"/>
<path d="M6.4165 21.3203C6.27461 21.8649 6.36642 22.4689 6.70673 22.9236C6.57015 22.3969 6.46506 21.863 6.4165 21.3203Z" fill="#B54710"/>
<path d="M9.76508 14.9366C9.59342 14.848 9.48967 14.65 9.27846 14.634C8.85677 14.7133 8.49032 14.9633 8.18767 15.26C8.08915 15.3486 8.00109 15.4559 7.8813 15.5186C7.8395 15.5253 7.75666 15.538 7.71486 15.5446C7.74658 15.5546 7.81077 15.5753 7.84212 15.5853C7.59806 15.9886 7.28721 16.4119 7.34206 16.9112C7.44245 17.0112 7.57343 17.0699 7.6962 17.1372C8.02273 16.1526 8.77654 15.286 9.76508 14.9366Z" fill="#BA4517"/>
<path d="M14.1023 16.7917C13.6149 16.3444 13.2114 15.8085 12.9423 15.2025C13.0344 15.8865 13.5262 16.4491 14.1023 16.7917Z" fill="#B54710"/>
<path d="M24.3504 16.2157C24.1906 16.0824 24.0648 15.9148 23.9324 15.7557C23.9243 15.7943 23.9069 15.8703 23.8982 15.9089C24.2492 16.6162 25.2008 16.8108 25.8844 16.5103C25.9989 16.4663 26.0802 16.3729 26.144 16.273L26.052 16.2602C25.5339 16.5855 24.8596 16.5323 24.3504 16.2157Z" fill="#812C25"/>
<path d="M16.6285 27.8889C16.7401 28.0621 16.8641 28.2289 16.9428 28.4207C16.5997 28.1881 16.3994 27.8041 16.0854 27.5348C16.1477 27.4576 16.2081 27.3794 16.2688 27.3034C16.4193 27.4787 16.5031 27.6967 16.6285 27.8889ZM25.8842 16.51C25.2008 16.8106 24.2494 16.616 23.8982 15.9087C23.6962 16.7206 23.4876 17.5326 23.2562 18.3372C23.1805 18.6272 23.0457 18.8978 22.8522 19.1279C23.015 19.0805 23.1772 19.0319 23.3355 18.9732C23.3443 18.9472 23.3616 18.8952 23.3708 18.8692C23.5908 18.7012 23.847 18.5926 24.078 18.4426C24.3277 18.2906 24.5199 18.0606 24.7814 17.9272C24.6704 18.1766 24.5137 18.4166 24.2827 18.5699C24.1061 18.6779 23.9116 18.7512 23.7278 18.8472C23.3316 19.1898 22.7875 19.3185 22.4318 19.7172C21.8453 20.3598 21.5888 21.2151 21.2503 21.999C21.1344 22.313 20.9513 22.6017 20.8694 22.9264C21.0431 23.2883 21.4256 23.4958 21.7797 23.6509C21.4615 23.6557 21.1553 23.5609 20.8707 23.4243C20.6765 23.963 20.1909 24.3035 19.7392 24.6163C19.4467 24.7843 19.1889 25.0117 18.8717 25.1342C18.7156 25.2742 18.5658 25.4216 18.4121 25.5649C17.6533 26.2874 16.777 26.8761 15.8598 27.3789C15.6046 27.1108 15.3128 26.8228 14.914 26.8329C14.9293 27.2581 14.9369 27.6842 14.96 28.1102C15.0805 28.2035 15.1947 28.3073 15.2871 28.43C15.682 28.9453 16.1275 29.4234 16.4708 29.9774C17.165 30.8832 17.7904 31.8446 18.3253 32.8531C18.4624 33.0799 18.6197 33.3052 18.639 33.5791C18.9288 34.0617 19.1912 34.5611 19.3576 35.1011C19.5274 35.3885 19.5681 35.725 19.6687 36.0383C20.0123 37.3204 20.2473 38.6276 20.5316 39.9229C20.8968 41.7369 21.1863 43.5807 21.8583 45.3139C22.5271 45.3572 23.203 45.2807 23.8662 45.3886C23.9831 45.4067 24.1022 45.4052 24.2194 45.4072C23.7507 44.4986 23.408 43.5299 23.1557 42.5401C22.8208 41.3114 22.5858 40.0582 22.3978 38.7996C22.2249 37.6277 22.1361 36.4276 21.7258 35.307C21.4729 34.6165 21.044 34.0139 20.621 33.4204C20.1178 32.7326 19.5646 32.0833 19.026 31.4239C20.0143 30.3539 20.888 29.1787 21.6446 27.9334C23.0513 25.661 23.953 23.1263 24.7546 20.5898C25.0187 19.8345 25.2324 19.0425 25.6897 18.3752C26.0516 17.8492 26.4665 17.3126 26.5419 16.658C26.583 16.4007 26.4071 16.1687 26.1786 16.0727C26.1388 16.1367 26.0967 16.1987 26.052 16.26L26.144 16.2726C26.0804 16.3726 25.9988 16.466 25.8842 16.51Z" fill="#F37435"/>
<path d="M16.194 17.4174C15.6624 17.544 15.1117 17.49 14.5922 17.3374C14.8428 17.6074 14.8713 17.9853 14.8273 18.3353C14.8812 18.3713 14.936 18.4067 14.9905 18.442C15.3901 18.634 15.8177 18.7613 16.2541 18.8373C16.4734 18.8733 16.6934 18.9273 16.8832 19.0486C16.9259 19.05 17.0116 19.052 17.0543 19.0526C16.9012 18.8613 16.8572 18.612 16.7394 18.4013C16.5489 18.078 16.3742 17.746 16.194 17.4174Z" fill="#FF9462"/>
<path d="M7.39447 17.6594C7.08101 17.8033 6.87053 18.0967 6.74333 18.4094C6.61613 18.7306 6.4488 19.044 6.4064 19.392C6.54685 18.9859 6.72062 18.588 6.96177 18.2306C7.09351 18.0307 7.27333 17.8667 7.39447 17.6594Z" fill="#B54710"/>
<path d="M11.0482 23.5334C10.6091 24.2094 9.97253 24.744 9.25977 25.1119C10.0375 24.8612 10.7698 24.3299 11.0482 23.5334Z" fill="#B54710"/>
<path d="M24.7812 17.927C24.5197 18.0604 24.3276 18.2903 24.0779 18.4423C23.8469 18.5925 23.5906 18.7011 23.3708 18.8691C23.3615 18.8949 23.3442 18.9469 23.3354 18.973C23.4661 18.9285 23.5972 18.8897 23.7279 18.8471C23.9114 18.7511 24.1059 18.6777 24.2826 18.5696C24.5136 18.4165 24.6702 18.1764 24.7812 17.927Z" fill="#993629"/>
<path d="M16.253 18.8372C15.8165 18.7612 15.3892 18.6339 14.9895 18.4419C14.9829 18.8752 14.8331 19.2839 14.7178 19.6958C15.0333 19.4945 15.4009 19.3405 15.7807 19.3518C15.9043 19.3352 15.9053 19.5152 15.8317 19.5698C15.6902 19.7412 15.4489 19.7345 15.2534 19.8025C14.7718 19.9212 14.4221 20.2991 14.089 20.6425C14.2484 20.6504 14.4082 20.6478 14.565 20.6191C14.5878 20.5725 14.6346 20.4798 14.6578 20.4331C14.9348 20.0485 15.427 19.7618 15.9099 19.8805C16.2082 19.9485 16.4167 20.1878 16.6252 20.3931C16.6 19.9678 16.6636 19.5458 16.7044 19.1239C16.7491 19.1045 16.8376 19.0672 16.8824 19.0485C16.6925 18.9272 16.4724 18.8732 16.253 18.8372Z" fill="#FF9462"/>
<path d="M14.5415 19.5924C14.6135 19.3878 14.6601 19.1758 14.6727 18.9598C14.5474 19.2611 14.4143 19.5605 14.2524 19.8444C14.3023 19.9224 14.3525 19.9998 14.4007 20.0778C14.5028 19.9471 14.6066 19.8184 14.7173 19.6958C14.6595 19.6611 14.601 19.6264 14.5415 19.5924Z" fill="#FF9462"/>
<path d="M17.1249 19.1341C17.1066 19.1141 17.0715 19.0735 17.0534 19.0528C17.0108 19.0522 16.9248 19.0502 16.8822 19.0488C16.8376 19.0675 16.749 19.1048 16.7044 19.1242C16.6638 19.5461 16.5998 19.9681 16.6254 20.3934C16.4168 20.1881 16.2082 19.9488 15.91 19.8808C15.4272 19.7621 14.9349 20.0488 14.6577 20.4334C14.7059 20.5054 14.7525 20.5787 14.7984 20.6521C15.0034 20.3101 15.3551 20.0001 15.7821 20.0634C16.3515 20.1801 16.7996 20.7881 16.6838 21.3707C16.6178 21.6867 16.4227 22.002 16.1111 22.1213C15.812 22.2447 15.4685 22.136 15.2166 21.956C14.9906 21.788 14.8972 21.5107 14.8057 21.2567C15.0149 21.3087 15.234 21.3854 15.4502 21.3287C15.6962 21.2654 15.9238 21.144 16.1304 20.9987C15.9146 20.9134 15.7313 21.07 15.543 21.1514C15.3147 21.2567 15.0569 21.2347 14.8116 21.2347C14.7919 21.0621 14.7732 20.8894 14.7738 20.7154C14.6971 20.9287 14.7112 21.1607 14.6499 21.378C14.7545 21.8134 15.0766 22.2086 15.5204 22.3226C15.9786 22.4646 16.4916 22.2286 16.7277 21.822C16.7599 21.7647 16.7891 21.7067 16.8156 21.6487C16.9921 21.2667 16.875 20.8494 16.7704 20.4668C16.8619 20.4214 16.9501 20.3701 17.0475 20.3401C17.1574 20.3241 17.2233 20.4314 17.2834 20.5041C17.3772 20.4981 17.471 20.4914 17.5641 20.4847C17.5162 20.3088 17.3378 20.2721 17.184 20.2287C17.1499 20.2181 17.0829 20.1961 17.0485 20.1848C16.9708 20.2021 16.8907 20.2194 16.8117 20.2374C16.8182 20.0134 16.8284 19.7895 16.8602 19.5674C16.9081 19.5661 17.0042 19.5628 17.0521 19.5614C17.533 19.4688 17.9472 19.8868 18.0469 20.3267C18.1217 20.5727 18.0564 20.8261 17.9853 21.064C18.0223 21.09 18.0965 21.1414 18.1338 21.1674C18.309 20.7607 18.2956 20.2794 18.085 19.8881C17.8839 19.5481 17.507 19.2841 17.0974 19.3321C17.1039 19.2828 17.1174 19.1841 17.1249 19.1341Z" fill="#322328"/>
<path d="M15.832 19.5698C15.9053 19.5152 15.9046 19.3352 15.7806 19.3519C15.4011 19.3405 15.0336 19.4945 14.7181 19.6958C14.6073 19.8185 14.5035 19.9472 14.4014 20.0778C14.2683 20.2558 14.1619 20.4511 14.0464 20.6411L14.0892 20.6425C14.4223 20.2991 14.7719 19.9212 15.2535 19.8025C15.4492 19.7345 15.6903 19.7412 15.832 19.5698Z" fill="#271E27"/>
<path d="M18.0471 20.3264C17.9472 19.8864 17.533 19.4685 17.0522 19.5612C17.1023 19.7825 17.1515 20.0038 17.1841 20.2285C17.3379 20.2718 17.5161 20.3084 17.564 20.4844C17.471 20.4911 17.377 20.4978 17.2834 20.5038C17.4497 20.7637 17.7473 20.8831 17.9854 21.0637C18.0565 20.8258 18.1216 20.5724 18.0471 20.3264Z" fill="#FBEBDB"/>
<path d="M17.0523 19.5612C17.0042 19.5625 16.9085 19.5659 16.8603 19.5672C16.8286 19.7892 16.8185 20.0132 16.8119 20.2372C16.8909 20.2192 16.9708 20.2018 17.0489 20.1845C17.0829 20.1958 17.1499 20.2178 17.1842 20.2285C17.1515 20.0038 17.1024 19.7825 17.0523 19.5612Z" fill="#FF9462"/>
<path d="M14.4015 20.0777C14.3532 19.9997 14.303 19.9224 14.2531 19.8444C14.0554 20.2051 13.797 20.5277 13.4992 20.811C13.6717 20.787 13.8436 20.7544 14.0081 20.6991C14.0175 20.685 14.0369 20.6557 14.0467 20.6411C14.1619 20.4511 14.2685 20.2557 14.4015 20.0777Z" fill="#FF9462"/>
<path d="M16.6838 21.3705C16.7996 20.7878 16.3513 20.1799 15.7819 20.0632C15.3549 19.9999 15.0034 20.3099 14.7982 20.6518L14.7737 20.7152C14.773 20.8892 14.7917 21.0618 14.8113 21.2345C15.0568 21.2345 15.3143 21.2565 15.5427 21.1512C15.7312 21.0698 15.9145 20.9132 16.1301 20.9985C15.9236 21.1438 15.6962 21.2652 15.4501 21.3285C15.2338 21.3851 15.0149 21.3085 14.8054 21.2565C14.8971 21.5105 14.9906 21.7878 15.2164 21.9558C15.4681 22.1358 15.812 22.2445 16.1108 22.1211C16.4227 22.0018 16.6177 21.6865 16.6838 21.3705Z" fill="#FF9462"/>
<path d="M17.2836 20.5039C17.2234 20.4313 17.1576 20.324 17.0476 20.34C16.9503 20.37 16.8618 20.4213 16.7704 20.4666C16.8753 20.8493 16.9922 21.2666 16.8158 21.6486C16.8325 21.6786 16.8656 21.7379 16.8826 21.7679C16.9931 21.6739 17.0782 21.4939 17.2489 21.5186C17.4099 21.5326 17.5072 21.6812 17.6197 21.7772C17.7261 21.7245 17.8313 21.6672 17.9328 21.6072C18.0525 21.5332 18.1822 21.4759 18.3123 21.4266C18.2591 21.3366 18.2005 21.2486 18.134 21.1673C18.0966 21.1412 18.0225 21.0899 17.9854 21.0639C17.7475 20.8832 17.4499 20.7639 17.2836 20.5039Z" fill="#FF9462"/>
<path d="M14.5761 20.8243C14.4341 20.8529 14.2917 20.8823 14.149 20.9116C14.2765 21.3136 14.5109 21.6689 14.6473 22.0668C14.7883 22.4462 14.8545 22.8528 14.83 23.2574C14.8548 23.3329 14.881 23.408 14.9071 23.4827C14.9896 23.4422 15.0707 23.4015 15.1528 23.3608C15.1892 23.4088 15.226 23.4569 15.2621 23.5054C15.3193 23.4782 15.3759 23.4516 15.4312 23.4254C15.5984 23.5522 15.7782 23.4654 15.9302 23.362C15.9659 23.3841 16.0007 23.4068 16.0344 23.4294C16.049 23.3701 16.0632 23.3115 16.0771 23.2534C16.0791 23.1068 16.1977 22.9682 16.3162 23.1175C16.8618 22.9488 17.4431 23.0948 17.9891 22.9268C17.996 23.0188 18.0016 23.1108 18.0073 23.2035L18.0384 23.1808C18.0278 22.8275 18.0351 22.4708 17.9454 22.1262C17.9027 22.1102 17.8182 22.0789 17.7762 22.0629C17.6454 22.3229 17.3094 22.4355 17.0422 22.3362C16.8545 22.2349 16.8164 21.9982 16.7274 21.8215C16.4906 22.2282 15.9782 22.4642 15.5196 22.3222C15.076 22.2082 14.7539 21.8129 14.6492 21.3776C14.6019 21.1969 14.59 21.0096 14.5761 20.8243Z" fill="#FF9462" stroke="#FF9462" stroke-width="0.1"/>
<path d="M11.6601 21.2919C11.5091 21.3206 11.3192 21.2873 11.2164 21.4312C11.0675 21.5859 11.1526 21.8192 11.1999 21.9985C11.3033 22.3405 11.6534 22.4918 11.9312 22.6672C11.4219 22.5878 10.9387 22.0538 11.0791 21.5219C11.1572 21.2826 11.4452 21.2279 11.6601 21.2919ZM14.1502 20.9119C13.9625 20.9506 13.7719 20.9819 13.582 21.0139C13.1771 21.0686 12.8341 21.3246 12.4275 21.3746C12.4811 21.5079 12.5626 21.6366 12.576 21.7825C12.5559 21.8845 12.4133 21.9052 12.3374 21.8438C12.0583 21.6639 11.9171 21.3312 11.6284 21.1619C11.4063 21.0186 11.0696 21.0213 10.8921 21.2345C10.5938 21.5819 10.5818 22.1159 10.8141 22.5012C11.0954 22.9625 11.5729 23.2763 12.0861 23.4204C12.1147 23.4305 12.1716 23.4511 12.2001 23.4617C12.2774 23.4551 12.353 23.4438 12.4275 23.4277C12.4853 23.3191 12.4366 23.1945 12.4359 23.0785C12.4913 23.1698 12.5898 23.2537 12.5708 23.3719C12.5153 23.4385 12.4522 23.4971 12.3893 23.5577C12.8104 24.1824 13.277 24.7837 13.8428 25.2849C14.3214 24.699 14.7196 24.0165 14.8311 23.2578C14.8555 22.8532 14.7894 22.4465 14.6483 22.0672C14.512 21.6692 14.2777 21.3139 14.1502 20.9119Z" fill="#FFA378"/>
<path d="M18.3122 21.4264C18.1822 21.4757 18.0522 21.533 17.9324 21.607C17.9092 21.767 17.8499 21.919 17.7767 22.063C17.8187 22.079 17.903 22.1103 17.9459 22.1263C17.9416 22.1037 17.9336 22.0577 17.9299 22.0343C18.1769 21.931 18.3168 21.6917 18.3122 21.4264Z" fill="#E66D34"/>
<path d="M17.619 21.777C17.5065 21.6811 17.4094 21.5324 17.2481 21.5184C17.0778 21.4937 16.9926 21.6737 16.882 21.7677C16.9904 21.8937 17.123 22.059 17.3107 22.0244C17.4521 22.0044 17.525 21.867 17.619 21.777Z" fill="#F8854F"/>
<path d="M17.7764 22.0631C17.8495 21.9191 17.9088 21.7671 17.9321 21.6071C17.8309 21.6671 17.7256 21.7244 17.6191 21.7771C17.5251 21.8671 17.452 22.0044 17.3108 22.0244C17.1229 22.0591 16.9905 21.8938 16.882 21.7678C16.8653 21.7378 16.8322 21.6784 16.8155 21.6484C16.7887 21.7064 16.7594 21.7644 16.7276 21.8218C16.8168 21.9984 16.8546 22.2351 17.0425 22.3364C17.3098 22.4357 17.6459 22.3231 17.7764 22.0631Z" fill="#E66D34"/>
<path d="M17.9895 22.9269C17.4433 23.0949 16.8617 22.9489 16.3164 23.1176C16.4706 23.335 16.7454 23.385 16.9892 23.4263C17.3416 23.4788 17.7124 23.4061 18.0076 23.2036C18.0019 23.1109 17.9962 23.0189 17.9895 22.9269Z" fill="#FDFDFC"/>
<path d="M16.3171 23.1178C16.1987 22.9685 16.0802 23.1072 16.0783 23.2537C16.531 23.8578 17.4376 24.1223 18.1055 23.7225C18.079 23.5424 18.0576 23.3618 18.0394 23.1811L18.0084 23.2038C17.7131 23.4064 17.3422 23.4791 16.9901 23.4265C16.7462 23.3852 16.4713 23.3352 16.3171 23.1178Z" fill="#D45F28"/>
<path d="M12.5707 23.3717C12.5895 23.2535 12.4911 23.1696 12.4359 23.0783C12.4366 23.1943 12.4853 23.3189 12.4273 23.4275C12.3529 23.4436 12.2774 23.4549 12.2002 23.4615C12.3141 23.5956 12.4019 23.7535 12.4359 23.9275C12.7415 25.4163 12.8794 26.942 12.8036 28.4607C12.7762 28.9639 12.7003 29.4673 12.5251 29.9419C13.207 29.9386 13.949 29.9378 14.5369 29.544C14.5009 29.2707 14.4433 29.0006 14.3699 28.7348C14.1592 27.9001 13.9689 27.0582 13.8718 26.2021C13.8419 25.9001 13.7761 25.5928 13.8385 25.2908L13.8426 25.2847C13.277 24.7835 12.8101 24.1823 12.3896 23.5576C12.452 23.497 12.5151 23.4384 12.5707 23.3717Z" fill="#FF9462" stroke="#FF9462"/>
<path d="M14.0589 25.2541C14.4266 24.7821 14.7424 24.245 14.9016 23.6531L14.9742 23.6175C15.0196 23.5953 15.0647 23.5729 15.1096 23.5506C15.1207 23.5653 15.1317 23.58 15.1426 23.5948L15.216 23.6939L15.3274 23.641L15.4237 23.5955C15.5228 23.6432 15.6249 23.6476 15.7198 23.6266C15.7964 23.6096 15.8679 23.5764 15.9307 23.5399C15.9379 23.5447 15.9452 23.5495 15.9525 23.5544L16.1301 23.6727L16.1568 23.5646C16.6349 24.0129 17.3722 24.206 17.9941 23.9463C18.0022 23.9835 18.0108 24.0202 18.0194 24.0563C18.0256 24.082 18.0318 24.1072 18.0378 24.1321C18.0561 24.207 18.0736 24.2788 18.0885 24.3516C18.1273 24.5418 18.1419 24.7134 18.0962 24.8793C18.0003 25.1342 17.7198 25.2741 17.4061 25.3556L17.4061 25.3556L17.4052 25.3558C16.7259 25.5369 16.0544 25.7111 15.3686 25.7864L15.3686 25.7864L15.3665 25.7867C15.2278 25.8039 15.0903 25.8027 14.9589 25.7759C14.8356 25.7032 14.7139 25.6345 14.5936 25.5666C14.4122 25.4642 14.2341 25.3637 14.0589 25.2541Z" fill="#FF9462" stroke="#FF9462" stroke-width="0.3"/>
<path d="M12.1993 23.4614C12.1707 23.4508 12.1141 23.4302 12.0854 23.4201C12.1254 23.9669 12.0695 24.5229 11.9114 25.048C11.7338 25.6173 11.4035 26.1907 10.8379 26.446C10.8294 26.6107 10.8188 26.7759 10.7909 26.9394C10.7576 27.1519 10.7374 27.3666 10.7137 27.5806C10.7056 27.9933 10.4584 28.4686 10.7509 28.8333C10.9705 29.1385 11.1976 29.4393 11.4367 29.7293C11.7957 29.8206 12.1587 29.8912 12.5244 29.9418C12.6995 29.4672 12.7755 28.9638 12.8028 28.4606C12.8788 26.9419 12.7409 25.4161 12.4353 23.9274C12.4013 23.7533 12.3132 23.5954 12.1993 23.4614Z" fill="#FFA378"/>
<path d="M14.9027 25.9176C14.5484 25.7076 14.182 25.519 13.838 25.2909C13.7753 25.5929 13.841 25.9002 13.871 26.2023C13.9683 27.0583 14.1587 27.9003 14.3693 28.7349C14.4427 29.0007 14.5004 29.2708 14.5364 29.5442C14.7807 29.3782 14.9994 29.1514 15.0527 28.8501C14.9954 28.6074 14.9687 28.3587 14.9597 28.1102C14.9367 27.6842 14.9294 27.2582 14.9141 26.833C14.9181 26.5277 14.834 26.2184 14.9027 25.9176Z" fill="#E66D34"/>
<path d="M10.7914 26.9395C10.1613 27.1822 9.55831 27.4961 8.98797 27.8567C8.59424 28.1155 8.18124 28.3888 7.93895 28.806C7.78987 29.066 7.81819 29.3774 7.83353 29.6649C7.3572 29.8701 6.89542 30.1087 6.47416 30.412C5.78149 30.8941 5.12619 31.5127 4.84928 32.3321C4.6298 32.9959 4.59636 33.7026 4.55113 34.3952C4.47325 36.2838 4.40599 38.1729 4.29782 40.0603C4.1928 41.8375 4.0921 43.616 4.00006 45.3947C4.27265 45.4141 4.54562 45.4086 4.8182 45.4133C4.81624 44.6254 4.84692 43.8381 4.88901 43.0522C4.91457 41.8307 4.99638 40.6128 5.02903 39.3924C5.14979 37.5176 5.2375 35.6272 5.66467 33.7911C5.93489 32.702 6.43167 31.6659 7.13811 30.7932C7.21088 30.6874 7.32612 30.63 7.44019 30.584C7.16839 30.8553 6.95678 31.1772 6.77781 31.5167C6.19725 32.5191 5.91955 33.6606 5.72052 34.7925C5.32679 37.1044 5.2788 39.455 5.18086 41.7935C5.13366 42.9989 5.0963 44.2047 5.06365 45.4106C5.57931 45.4081 6.09459 45.4093 6.60946 45.4121C6.60081 44.5168 6.67004 43.6236 6.68774 42.728C6.77466 40.6362 6.87339 38.5444 7.03505 36.4571C7.12355 35.4305 7.21874 34.3992 7.44924 33.3925C7.60146 32.7254 7.90945 32.1092 8.25165 31.5213C8.01407 31.2386 7.71946 31.0108 7.47599 30.7339C7.80364 30.9039 8.08762 31.1413 8.36847 31.3774C8.632 31.0394 8.86604 30.6713 9.19566 30.3926C8.97893 30.7625 8.70674 31.0968 8.49158 31.468C9.97683 33.0231 11.0345 34.9291 11.9054 36.8819C12.1461 37.4323 12.3825 37.9856 12.5721 38.5562C13.129 38.1209 13.6891 37.6891 14.2583 37.2704C13.9074 37.3592 13.5625 37.4857 13.1947 37.4784C13.5527 37.1891 13.9704 36.9676 14.2638 36.6045C14.4475 36.3872 14.5537 36.0791 14.4432 35.803C14.2618 35.2784 13.8996 34.8451 13.5959 34.3884C12.5166 32.8938 11.3602 31.4373 9.98076 30.206C9.6952 29.9113 9.34198 29.6827 9.09772 29.3495C8.90459 29.0988 8.9923 28.7414 9.17363 28.51C9.55713 28.0254 10.1353 27.7541 10.7143 27.5808C10.7379 27.3668 10.758 27.152 10.7914 26.9395Z" fill="#FF884D"/>
<path d="M16.6294 27.8889C16.504 27.6968 16.4201 27.4787 16.2697 27.3035C16.2091 27.3794 16.1484 27.4576 16.0865 27.5348C16.4003 27.8041 16.6007 28.1881 16.9438 28.4208C16.865 28.2289 16.7412 28.0622 16.6294 27.8889Z" fill="#BA4517"/>
<path d="M11.781 41.9267C11.7471 42.2295 11.6114 42.5066 11.5339 42.7986C11.4568 43.0807 11.3815 43.3627 11.2981 43.6426C11.2001 43.9574 11.1919 44.3019 11.019 44.5919C10.8531 44.2381 10.7175 43.8473 10.8021 43.4519C10.89 43.076 11.0316 42.7073 11.2474 42.3854C11.3793 42.1867 11.5295 41.97 11.781 41.9267ZM10.7149 27.5808C10.1358 27.7541 9.55789 28.0254 9.17409 28.51C8.99299 28.7414 8.90505 29.0987 9.09844 29.3494C9.34289 29.6826 9.69577 29.9112 9.98157 30.206C11.3607 31.4372 12.5173 32.8938 13.5964 34.3883C13.9001 34.845 14.2627 35.2783 14.4438 35.8029C14.5541 36.079 14.4483 36.3871 14.2646 36.6044C13.9709 36.9675 13.5532 37.1891 13.1955 37.4783C13.5633 37.4856 13.9079 37.3591 14.259 37.2703C13.6896 37.689 13.1299 38.1208 12.5728 38.5561C12.7454 39.2135 12.9823 39.8548 13.1042 40.5242C12.9298 39.8842 12.7673 39.2336 12.467 38.6383C11.7463 39.2409 10.852 39.5761 9.97151 39.8689C9.97337 40.79 9.92605 41.718 9.75241 42.6248C9.73042 42.528 9.70173 42.4314 9.70322 42.3321C9.77513 40.4867 9.698 38.6389 9.61006 36.7958C9.5836 36.451 9.54671 36.1004 9.64769 35.7645C9.64397 35.6591 9.63763 35.5545 9.62981 35.4503C9.29668 37.3209 8.77016 39.1501 8.31257 40.9927C7.97497 42.4586 7.6206 43.9232 7.37616 45.4084C8.07334 45.3979 8.7709 45.4112 9.46734 45.4012C9.5251 44.818 9.58658 44.2353 9.6354 43.6521C9.7483 44.226 9.82507 44.8087 9.91897 45.3873C12.2665 45.4193 14.6156 45.3946 16.9635 45.4006C16.9624 45.3018 16.9605 45.2045 16.9579 45.1072C16.9557 45.0066 16.9538 44.9065 16.9512 44.8072C16.9385 44.3633 16.9326 43.9187 16.9311 43.4746C16.9285 43.3793 16.9233 43.2835 16.9158 43.1886C16.861 42.3042 16.8338 41.4182 16.7619 40.5348C16.7466 40.3562 16.7299 40.1769 16.7135 39.9988C16.6401 39.2582 16.5857 38.5121 16.4251 37.7843C16.4075 37.7008 16.3882 37.6184 16.3658 37.5376C16.1079 36.6876 15.7044 35.8917 15.2729 35.1192C14.686 34.1157 14.0615 33.1337 13.3673 32.202C13.3155 32.1326 13.2655 32.0619 13.2123 31.9933C12.6369 31.2265 12.0355 30.4793 11.4378 29.7294C11.1989 29.4395 10.972 29.1387 10.7522 28.8334C10.4597 28.4687 10.7067 27.9934 10.7149 27.5808Z" fill="#F37435"/>
<path d="M15.2875 28.4299C15.1952 28.3072 15.081 28.2033 14.9604 28.11C14.9692 28.3585 14.9959 28.6072 15.053 28.8499C15.4407 29.2864 15.8037 29.7439 16.1562 30.2091C16.2312 30.3079 16.3049 30.4066 16.3773 30.5066C16.9506 31.3192 17.5692 32.0985 18.1666 32.8924C18.2406 32.9925 18.3091 33.0956 18.3785 33.1985C18.4636 33.3265 18.553 33.4517 18.6394 33.579C18.6202 33.3051 18.463 33.0798 18.3257 32.8529C17.7909 31.8445 17.1654 30.8831 16.4712 29.9773C16.1278 29.4232 15.6824 28.9452 15.2875 28.4299Z" fill="#BA4517"/>
<path d="M16.1562 30.2094C15.8039 29.7442 15.4411 29.2867 15.0533 28.8501C15.0001 29.1514 14.7815 29.3782 14.537 29.5442C13.9494 29.938 13.2073 29.9388 12.5252 29.942C13.0886 30.1327 13.5531 30.53 13.9944 30.9168C14.3566 31.2234 14.6066 31.6313 14.9183 31.9841C15.1154 32.0027 15.3111 32.02 15.5083 32.0354C15.4984 32.064 15.4789 32.1214 15.4697 32.1501C15.3391 32.1833 15.2088 32.2175 15.0769 32.2481C15.1515 32.4885 15.2296 32.7287 15.2794 32.9759C15.245 33.0033 15.1781 33.0579 15.1447 33.0853C15.1427 33.1613 15.2583 33.1552 15.3081 33.1859C15.3306 33.122 15.3524 33.0587 15.3729 32.9953C16.1542 33.0312 16.9355 32.9714 17.7168 32.9759C17.8717 32.9812 18.0238 32.9473 18.167 32.8927C17.5695 32.0988 16.9509 31.3194 16.3776 30.5069C15.657 30.6002 14.98 30.9581 14.244 30.9193C14.8296 30.5635 15.5141 30.4302 16.1562 30.2094Z" fill="#FCBD9E"/>
<path d="M12.5242 29.9418C12.1588 29.8913 11.7958 29.8206 11.4366 29.7293C12.034 30.4793 12.6355 31.2264 13.211 31.9932C13.7777 31.9404 14.3494 31.9665 14.9172 31.9839C14.6056 31.631 14.3556 31.2231 13.9933 30.9166C13.5521 30.5298 13.0879 30.1325 12.5242 29.9418Z" fill="#FFDBC7"/>
<path d="M16.3765 30.5068C16.3044 30.4067 16.2304 30.3081 16.1554 30.2093C15.5132 30.4301 14.8284 30.5634 14.2431 30.9192C14.9792 30.9579 15.656 30.6001 16.3765 30.5068Z" fill="#702105"/>
<path d="M9.19506 30.3924C8.86523 30.671 8.63163 31.0392 8.36746 31.3772C8.08669 31.1411 7.8029 30.9037 7.47534 30.7337C7.71913 31.0106 8.01348 31.2384 8.25123 31.5211C7.90895 32.1091 7.60063 32.7252 7.44854 33.3923C7.21834 34.399 7.12286 35.4303 7.03418 36.4569C6.87266 38.5442 6.77416 40.636 6.68699 42.7278C6.66963 43.6234 6.60019 44.5166 6.60887 45.4119C6.68472 45.4104 6.75944 45.4104 6.83341 45.4104C7.00965 42.7625 7.02512 40.1066 7.25834 37.4628C7.35458 36.2715 7.47685 35.0803 7.68969 33.9031C7.83234 33.1431 8.05084 32.3904 8.4003 31.6984C9.08977 32.4344 9.64528 33.2849 10.1732 34.1417C10.8099 35.1949 11.3854 36.2836 11.9235 37.3901C12.1311 37.7935 12.2956 38.2175 12.4654 38.6382C12.7662 39.2335 12.9285 39.8841 13.1028 40.5241C12.981 39.8547 12.744 39.2134 12.5715 38.556C12.3817 37.9854 12.1454 37.4321 11.9047 36.8816C11.0337 34.9289 9.97624 33.0229 8.49087 31.4678C8.70598 31.0966 8.97844 30.7623 9.19506 30.3924Z" fill="#FFCCB2"/>
<path d="M7.44055 30.5841C7.32677 30.6301 7.21144 30.6874 7.13882 30.7933C6.43245 31.6659 5.93538 32.702 5.66511 33.7911C5.23833 35.6272 5.15018 37.5176 5.0298 39.3924C4.99718 40.6128 4.91524 41.8307 4.88961 43.0522C4.84728 43.8381 4.8166 44.6254 4.81855 45.4133C4.90087 45.4121 4.98281 45.4113 5.06436 45.4106C5.09698 44.2047 5.13426 42.9989 5.18125 41.7935C5.27949 39.455 5.32726 37.1044 5.72103 34.7926C5.91985 33.6607 6.19789 32.5192 6.77845 31.5168C6.95708 31.1773 7.16911 30.8554 7.44055 30.5841Z" fill="#FFCCB2"/>
<path d="M10.1734 34.1421C9.64515 33.2853 9.08987 32.4348 8.40038 31.6987C8.05074 32.3908 7.83232 33.1434 7.68983 33.9034C7.47667 35.0806 7.35486 36.2719 7.25824 37.4631C7.02516 40.1069 7.00974 42.7628 6.83342 45.4106C7.01463 45.4094 7.19508 45.4094 7.37479 45.4086C7.61916 43.9234 7.97367 42.4588 8.31128 40.9929C8.76881 39.1503 9.29551 37.321 9.6286 35.4505C9.6365 35.5547 9.64251 35.6592 9.64665 35.7647C9.82147 37.1259 9.95154 38.4957 9.96997 39.869C10.8508 39.5763 11.7452 39.2411 12.4655 38.6386C12.296 38.2178 12.1313 37.7938 11.9234 37.3905C11.3854 36.2839 10.8098 35.1953 10.1734 34.1421Z" fill="#F27436"/>
<path d="M15.5084 32.0354C15.3113 32.0201 15.1155 32.0027 14.9184 31.9841C14.9203 32.0374 14.9242 32.1441 14.9265 32.1974C14.9637 32.2099 15.0391 32.2353 15.077 32.2482C15.2088 32.2175 15.339 32.1833 15.4699 32.1501C15.4791 32.1214 15.4986 32.0641 15.5084 32.0354Z" fill="#702105" stroke="#702105" stroke-width="0.1"/>
<path d="M14.9175 31.984C14.3496 31.9666 13.778 31.9404 13.2112 31.9933C13.2644 32.0619 13.3146 32.1326 13.3664 32.202C13.8858 32.2025 14.4062 32.1945 14.9256 32.1972C14.9236 32.1439 14.9195 32.0373 14.9175 31.984Z" fill="#BA4517" stroke="#BA4517" stroke-width="0.1"/>
<path d="M15.0754 32.2479C15.0375 32.2351 14.9622 32.2097 14.925 32.1971C14.4054 32.1943 13.8854 32.2023 13.3658 32.2019C14.0597 33.1336 14.6845 34.1156 15.2712 35.119C15.4684 34.5029 15.4063 33.839 15.3636 33.2043L15.3065 33.1857C15.2571 33.155 15.1413 33.161 15.1433 33.0851C15.1769 33.0577 15.2437 33.0031 15.278 32.9757C15.2286 32.7285 15.15 32.4883 15.0754 32.2479Z" fill="#FFDBC7"/>
<path d="M18.3781 33.1984C18.3087 33.0956 18.24 32.9925 18.1662 32.8924C18.023 32.947 17.871 32.9809 17.7162 32.9756C16.9348 32.9711 16.1537 33.0309 15.3723 32.995C15.3516 33.0584 15.3299 33.1217 15.3072 33.1856L15.3642 33.2042C16.3678 33.2691 17.3757 33.2777 18.3781 33.1984Z" fill="#702105"/>
<path d="M18.3783 33.1985C17.376 33.2777 16.3681 33.2691 15.3644 33.2042C15.4072 33.8389 15.4691 34.5029 15.272 35.119C15.7035 35.8915 16.1071 36.6875 16.3648 37.5375C16.8304 37.2309 17.3513 37.0282 17.8548 36.7968C18.3916 36.5635 18.9703 36.4455 19.5074 36.2149C19.4818 35.841 19.4232 35.4703 19.358 35.1009C19.1914 34.561 18.9291 34.0615 18.6393 33.5789C18.5527 33.4517 18.4636 33.3264 18.3783 33.1985Z" fill="#FCBD9E"/>
<path d="M20.603 44.1266C20.7294 44.4912 20.8106 44.8712 20.8806 45.2504C20.8552 45.3817 20.7267 45.2758 20.717 45.1931C20.6274 44.8486 20.5004 44.4812 20.603 44.1266ZM19.6691 36.0382C19.5687 35.7249 19.5279 35.3884 19.3584 35.101C19.4235 35.4704 19.4821 35.8411 19.508 36.215C19.5141 36.2955 19.5189 36.377 19.5213 36.459C19.5741 37.6882 19.5159 38.9227 19.3309 40.1401C19.311 40.2714 19.2863 40.4027 19.2618 40.5347C19.1517 41.2688 18.9529 41.9928 18.9326 42.7379C18.9326 42.7794 18.9326 42.8614 18.9326 42.9019C18.9646 43.6787 19.2531 44.4213 19.6173 45.099C19.6526 45.1745 19.6845 45.2512 19.7165 45.3284L19.744 45.3893C21.1177 45.4046 22.493 45.4111 23.8671 45.3885C23.2036 45.2806 22.5277 45.3571 21.8591 45.3138C21.1868 43.5806 20.8972 41.7368 20.5324 39.9229C20.2479 38.6275 20.0128 37.3203 19.6691 36.0382Z" fill="#BA4517"/>
<path d="M9.64701 35.7645C9.54568 36.1005 9.58269 36.451 9.60892 36.7958C9.69695 38.6389 9.7742 40.4868 9.70234 42.3322C9.7009 42.4315 9.72965 42.5281 9.75157 42.6249C9.92547 41.718 9.97254 40.7901 9.97039 39.8689C9.95206 38.4956 9.82199 37.1258 9.64701 35.7645Z" fill="#702105"/>
<path d="M19.5081 36.2151C18.9706 36.4457 18.3922 36.5636 17.8553 36.797C17.3518 37.0284 16.8308 37.231 16.3654 37.5376C16.3879 37.6183 16.4073 37.7008 16.4247 37.7843C16.9549 37.563 17.4518 37.2723 17.9858 37.0623C18.4858 36.8297 19.0116 36.6642 19.5214 36.459C19.5189 36.377 19.5141 36.2955 19.5081 36.2151Z" fill="#702105"/>
<path d="M19.5208 36.4589C19.0109 36.6642 18.4854 36.8296 17.9853 37.0622C17.4513 37.2722 16.9544 37.563 16.4242 37.7842C16.5847 38.512 16.6392 39.2582 16.7124 39.9988C17.5845 40.0528 18.4566 40.1215 19.3305 40.1401C19.5157 38.9227 19.5738 37.6882 19.5208 36.4589Z" fill="#FCBD9E"/>
<path d="M19.3298 40.1402C18.456 40.1216 17.5838 40.0529 16.7118 39.9989C16.7285 40.1769 16.7449 40.3563 16.7604 40.5348C16.761 40.4807 16.7639 40.3721 16.7645 40.3175C17.5942 40.309 18.4242 40.3567 19.2532 40.3429C19.2551 40.3909 19.2586 40.4867 19.2608 40.5348C19.2854 40.4028 19.31 40.2715 19.3298 40.1402Z" fill="#702105"/>
<path d="M19.2537 40.3428C18.4248 40.3567 17.595 40.3089 16.7652 40.3175C16.7645 40.372 16.7617 40.4807 16.7611 40.5347C16.8332 41.4182 16.8603 42.3042 16.9151 43.1886C17.5793 43.0033 18.2629 42.9019 18.9324 42.738C18.9522 41.9928 19.1513 41.2688 19.2613 40.5347C19.2594 40.4867 19.2559 40.3909 19.2537 40.3428Z" fill="#FCBD9E"/>
<path d="M11.7806 41.9268C11.5289 41.9701 11.3789 42.1869 11.2468 42.3855C11.0313 42.7075 10.8894 43.0761 10.8014 43.452C10.7169 43.8474 10.8528 44.2382 11.0186 44.592C11.1912 44.3021 11.1996 43.9575 11.2979 43.6427C11.381 43.3628 11.4563 43.0809 11.5334 42.7987C11.6109 42.5068 11.7465 42.2296 11.7806 41.9268Z" fill="#702105"/>
<path d="M18.9315 42.7381C18.2622 42.902 17.5784 43.0033 16.9144 43.1887C16.9216 43.2835 16.9269 43.3793 16.9297 43.4746C17.6076 43.3235 18.2669 43.1007 18.9315 42.902C18.9315 42.8615 18.9315 42.7795 18.9315 42.7381Z" fill="#702105"/>
<path d="M18.9321 42.9019C18.2673 43.1005 17.6082 43.3234 16.9303 43.4745C16.9315 43.9186 16.9375 44.3632 16.9501 44.8071C17.6195 44.9379 18.3 45.0005 18.9773 45.0724C19.1893 45.1026 19.4037 45.1272 19.6166 45.0991C19.2524 44.4214 18.9641 43.6787 18.9321 42.9019Z" fill="#FCBD9E"/>
<path d="M20.6023 44.1267C20.4998 44.4814 20.6269 44.8487 20.7163 45.1933C20.7262 45.276 20.8547 45.3819 20.8801 45.2506C20.81 44.8714 20.7288 44.4914 20.6023 44.1267Z" fill="#B54329"/>
<path d="M18.9771 45.0725C18.2998 45.0006 17.6189 44.938 16.9497 44.8072C16.9526 44.9066 16.9544 45.0066 16.9566 45.1072C17.5759 45.1319 18.1965 45.1794 18.8051 45.3026C19.1055 45.3632 19.4119 45.3439 19.7157 45.3285C19.6837 45.2513 19.6517 45.1746 19.6165 45.0992C19.4034 45.1273 19.1887 45.1027 18.9771 45.0725Z" fill="#702105"/>
<path d="M18.8059 45.3026C18.1973 45.1794 17.5765 45.1319 16.9573 45.1072C16.9598 45.2046 16.9617 45.3019 16.963 45.4007C17.8901 45.4068 18.8172 45.4181 19.7437 45.3894L19.7163 45.3285C19.4125 45.3439 19.1065 45.3633 18.8059 45.3026Z" fill="#FCBD9E"/>
</g>
</svg>
