<svg width="120" height="120" viewBox="0 0 120 120" fill="none" xmlns="http://www.w3.org/2000/svg">
<rect width="120" height="120" rx="20" fill="#FFF2F0"/>
<mask id="mask0_200_1672" style="mask-type:alpha" maskUnits="userSpaceOnUse" x="28" y="27" width="64" height="50">
<path d="M28 27H92V73.3563C92 73.3563 80.7641 77 60 77C39.2359 77 28 73.3563 28 73.3563V27Z" fill="#D9D9D9"/>
</mask>
<g mask="url(#mask0_200_1672)">
<path d="M67.4791 30.936C67.3019 30.8763 67.0933 30.8276 66.9196 30.9254C66.7627 31.0323 66.6991 31.2219 66.6244 31.3877C66.3442 32.1166 66.1403 32.8733 65.8682 33.6063C65.3831 34.8769 64.9829 36.2114 64.158 37.3129C63.5826 38.0573 62.9234 38.7427 62.4464 39.559C62.0349 40.3221 61.8812 41.1872 61.7499 42.0353C62.2399 41.7748 62.7272 41.4949 63.2695 41.3612C63.3808 41.3248 63.4963 41.358 63.6069 41.3735L63.622 41.3767C63.6318 41.3297 63.6504 41.2359 63.6592 41.1889C64.3841 40.9666 65.037 40.5554 65.6425 40.1036C66.3232 39.606 66.8841 38.9636 67.3752 38.2807C67.6434 37.9359 67.9021 37.5533 68.3079 37.3588C68.4697 37.273 68.6677 37.266 68.8134 37.1548C68.9549 36.942 68.7611 36.6501 68.5382 36.5943C68.0302 36.5068 67.5304 36.7616 67.1625 37.0966C66.8848 37.3313 66.7262 37.6786 66.4302 37.8953C66.3305 37.9803 66.2249 38.0597 66.1192 38.1392C66.4657 37.2624 67.0017 36.4662 67.2278 35.5429C67.4981 34.4393 67.5111 33.2919 67.7364 32.1797C67.7968 32.2291 67.8572 32.2786 67.9169 32.328C67.9095 32.1289 67.8049 31.9669 67.6311 31.8748L67.5757 31.921C67.2422 32.1226 67.1432 32.5034 67.0007 32.8401C67.0168 32.6184 67.0505 32.3993 67.1084 32.1847C67.2236 31.776 67.2527 31.3376 67.4668 30.9621L67.4791 30.936Z" fill="#6E3432"/>
<path d="M67.4381 31.9492C67.5363 31.6351 67.7 31.2556 67.4672 30.9619C67.2525 31.3372 67.2234 31.776 67.1084 32.1848C67.0502 32.3992 67.0165 32.6183 67.0004 32.8401C67.1428 32.5035 67.242 32.1225 67.5759 31.9207L67.4381 31.9492Z" fill="#5A2725"/>
<path d="M66.625 31.3876C66.5051 31.3171 66.3657 31.2485 66.2239 31.3066C65.9737 31.4054 65.903 31.6945 65.8218 31.9233C65.766 31.7775 65.7057 31.6181 65.5545 31.5463C65.3249 31.5123 65.1141 31.678 65.0499 31.8949C64.736 32.7851 64.6272 33.7472 64.1885 34.5937C63.9094 35.1175 63.5857 35.6262 63.1738 36.0536C63.5014 35.3284 63.7718 34.5678 63.8787 33.7756C63.9101 33.5784 63.8209 33.3461 63.6317 33.262C63.5094 33.2473 63.3895 33.2998 63.3386 33.4172C63.1505 33.791 63.0504 34.202 62.8793 34.5832C62.5703 35.2751 62.2336 35.9566 61.8326 36.6006C61.5099 37.1184 61.2043 37.6527 61.0004 38.2304C60.768 38.9063 60.6882 39.6206 60.6039 40.327C60.5185 41.2092 60.4164 42.0903 60.3261 42.9725L60.3164 43.0535C60.6997 42.7669 61.1607 42.618 61.581 42.3979C61.6388 42.2774 61.6984 42.1583 61.7507 42.0353C61.882 41.1875 62.0354 40.3224 62.4469 39.5593C62.9243 38.7426 63.5832 38.0573 64.1586 37.3128C64.9837 36.2113 65.3838 34.8771 65.8692 33.6064C66.141 32.8734 66.3448 32.1167 66.625 31.3876Z" fill="#9E4D39"/>
<path d="M67.9172 32.3282C67.8576 32.2786 67.7973 32.2293 67.7369 32.18C67.5117 33.2919 67.4987 34.4395 67.2282 35.5431C67.002 36.4664 66.4659 37.2629 66.1197 38.1393C66.2256 38.0597 66.3308 37.9804 66.4306 37.8956C66.8714 37.0619 67.2975 36.2044 67.5066 35.2777C67.7174 34.3058 67.7914 33.3129 67.9172 32.3282Z" fill="#5E2622"/>
<path d="M75.2639 49.1855C76.2636 49.4663 76.5148 50.9277 75.8137 51.6286C75.4829 51.9473 74.9202 51.8359 74.6573 51.4845C74.2516 51.0257 74.2064 50.3516 74.3746 49.7844C74.4866 49.4114 74.8631 49.0957 75.2639 49.1855ZM73.0602 49.5723C73.0806 49.5237 73.12 49.4257 73.1401 49.3772C73.3766 49.608 73.2849 49.9841 73.2776 50.2811C73.2221 50.6542 73.1304 51.1997 72.6774 51.258C72.2031 50.9835 72.0671 50.3913 72.0422 49.8821C72.047 49.5973 72.092 49.2688 72.3109 49.0649C72.6248 48.7972 73.2166 49.1776 73.0602 49.5723ZM81.8871 41.1401C81.8251 40.4435 80.9358 40.0945 80.3611 40.4047C80.2227 40.4792 80.1486 40.6974 79.9635 40.6556C79.7929 40.6263 79.6327 40.6926 79.4758 40.7503C79.0114 40.3699 78.1913 40.572 77.9377 41.1184C77.7969 41.0018 77.6432 40.895 77.4524 40.8974C77.3856 40.768 77.3172 40.6062 77.145 40.6101C76.9445 40.6092 76.8616 40.3513 76.6524 40.3763C76.5107 40.3552 76.419 40.4636 76.3304 40.5552C75.9498 40.4483 75.6399 40.7939 75.6214 41.1538C75.0708 40.9621 74.357 41.2616 74.2653 41.8792C74.2653 41.6816 74.2565 41.4841 74.2337 41.2881C73.9908 41.4292 73.9353 41.7131 73.9611 41.9738C73.734 42.0019 73.4862 42.0861 73.3991 42.3224C73.189 42.6802 73.3951 43.1018 73.6896 43.3347C73.4701 43.4553 73.1996 43.5298 73.0812 43.7749C72.8495 44.0905 72.7988 44.589 73.1103 44.8708C73.4379 45.2026 73.9802 45.1581 74.3272 44.8806C74.3048 45.0033 74.282 45.1281 74.2604 45.2518C74.3956 45.2365 74.5301 45.2219 74.6652 45.2072C74.8036 45.3247 74.9357 45.4881 75.1337 45.4881C75.3984 45.5204 75.5956 45.2851 75.8491 45.26C76.0665 45.2414 76.2846 45.2518 76.5011 45.2536C76.6644 45.4679 76.7892 45.7405 77.0379 45.866C77.3792 45.9826 77.6907 45.7616 77.9627 45.5861C78.18 45.7683 78.3796 45.9698 78.5663 46.1826C78.3007 46.3596 78.0488 46.6218 78.0874 46.9714C78.0536 47.2449 78.2404 47.4439 78.4407 47.5929C78.4971 47.8081 78.5003 48.1061 78.7563 48.1821C79.0307 48.3341 79.3422 48.2743 79.6022 48.1247C79.7084 48.3133 79.7994 48.5099 79.8742 48.7139C78.8899 49.0292 77.9031 49.34 76.8987 49.586C76.6951 49.6394 76.4898 49.6849 76.2829 49.7237C76.023 49.0964 75.1956 48.6928 74.5944 49.0964C74.2941 49.2801 74.1751 49.6297 74.0142 49.9243C73.883 49.9065 73.7516 49.8879 73.6204 49.8702C73.553 49.5845 73.4531 49.3046 73.2849 49.0616C73.0265 48.8781 72.7311 48.6394 72.3917 48.7203C71.9997 48.8659 71.8618 49.3329 71.8467 49.7154C71.8193 50.4243 72.047 51.2394 72.7004 51.61C72.9008 51.4772 73.1128 51.3447 73.2479 51.1398C73.4473 50.855 73.5047 50.5046 73.5852 50.1737C73.7242 50.1825 73.8627 50.1904 74.0005 50.1996C74.0236 50.5168 74.0689 50.8306 74.1268 51.1432C74.2571 51.3834 74.4037 51.6139 74.5486 51.8453C74.4174 51.9442 74.2838 52.0413 74.1411 52.1262C73.8129 52.2202 73.4692 52.23 73.1313 52.2605C73.1528 52.3383 73.1753 52.4159 73.1972 52.4937C73.5818 52.534 73.9568 52.4177 74.3184 52.3017C74.5155 52.2413 74.534 52.0096 74.5911 51.8447C74.8358 51.9619 75.0893 52.1069 75.3702 52.0834C75.8 52.0486 76.1622 51.7128 76.3063 51.3154C76.485 50.8947 76.448 50.4286 76.4214 49.9841C76.5791 49.9526 76.7361 49.9227 76.8922 49.887C77.9385 49.6315 78.9518 49.2542 79.9965 48.9953C80.0907 49.3158 80.1623 49.6443 80.2895 49.9536C80.3153 50.0442 80.4062 50.0854 80.4722 50.1413C80.6026 49.9105 80.7909 49.7243 80.9583 49.5228C80.9728 49.3183 80.8948 49.1012 80.9913 48.9086C81.1121 48.6198 81.3157 48.3173 81.6465 48.2621C82.0111 48.2071 82.3242 48.4919 82.5093 48.7777C82.766 49.2673 82.7845 49.8605 82.6461 50.3895C82.5254 50.863 82.2453 51.2732 81.9491 51.6536C81.7221 51.9433 81.5652 52.3075 81.6062 52.683C81.9298 52.4717 82.1552 52.1481 82.399 51.8551C83.4196 50.5653 84.1327 49.0149 84.317 47.3688C84.3822 46.7968 84.387 46.2198 84.3612 45.6444C84.6848 45.5311 84.9464 45.2267 84.9045 44.8659C84.9142 44.593 84.6961 44.4062 84.482 44.285C84.6647 43.9684 84.6429 43.5526 84.4176 43.2626C84.6566 43.0096 84.5536 42.6219 84.2445 42.4851C84.2349 42.113 84.0361 41.7302 83.6626 41.6169C83.3938 41.4915 83.1145 41.6249 82.8658 41.7317C82.7025 41.3352 82.288 41.1645 81.8871 41.1401Z" fill="#290030"/>
<path d="M63.6067 41.3735C63.4962 41.3579 63.3805 41.3249 63.2694 41.3613C62.7268 41.4947 62.2398 41.7749 61.7497 42.0353C61.6975 42.1583 61.638 42.2774 61.58 42.3979C61.6225 42.3857 61.7072 42.3598 61.7497 42.3476C62.3157 42.1818 62.9023 42.0652 63.4937 42.1284C63.5117 41.8735 63.5581 41.6235 63.6067 41.3735Z" fill="#4F2529"/>
<path d="M66.3849 49.7786C66.5919 50.2481 66.6988 50.7555 66.7875 51.2586C66.8846 51.9726 66.85 52.7501 66.4511 53.3723C66.4629 52.534 66.5297 51.6942 66.458 50.8565C66.4453 50.4963 66.3527 50.1395 66.3849 49.7786ZM64.1621 42.6964C64.0373 42.4204 63.8014 42.1768 63.4938 42.1282C62.9024 42.0651 62.3158 42.1817 61.7498 42.3474C62.3744 45.286 62.8219 48.2599 63.4996 51.1868C63.7267 50.779 63.8232 50.3184 63.9954 49.8888C64.01 50.4292 63.9559 50.9756 63.7668 51.4854C63.4167 52.4128 62.8277 53.2212 62.2392 54.0085C62.664 54.0085 63.0696 53.879 63.4747 53.7639C64.4824 53.052 65.0295 51.8658 65.379 50.7125C65.3844 51.8035 64.9114 52.9241 63.9984 53.5512C64.1299 54.133 64.3883 54.6736 64.5468 55.2466C64.6418 55.6133 64.2592 55.8285 64.0427 56.0519C63.3128 56.7632 62.4782 57.4064 61.9502 58.2951C62.3158 59.0118 62.7011 59.7192 63.1534 60.3853C64.7793 62.8241 66.905 64.8636 69.0264 66.8591C69.429 65.4039 69.9746 63.9878 70.6626 62.6455C70.6377 62.2901 70.8117 61.9641 70.88 61.6225C71.2832 60.1426 71.4386 58.571 71.1466 57.0551C71.0959 56.7583 70.9492 56.4741 70.9814 56.1667C69.9439 54.9594 69.0136 53.655 68.261 52.2477C66.6111 49.1928 65.5439 45.8733 64.1621 42.6964Z" fill="#4A0357" stroke="#4A0357" stroke-width="0.191304"/>
<path d="M86.5053 61.8257C85.896 61.1468 85.2417 60.5091 84.5326 59.937C84.1052 59.9944 83.6666 59.941 83.2472 60.0551C82.8368 60.1531 82.4706 60.3732 82.0713 60.5051C81.8967 60.8491 81.7599 61.2109 81.5957 61.5604C81.5474 61.6752 81.5039 61.7927 81.4637 61.9115C81.7599 61.7286 82.1156 61.7585 82.4287 61.8767C83.2175 62.1478 83.9273 62.656 84.4408 63.3154C85.092 63.0517 85.7093 62.7086 86.3749 62.483C86.4795 62.4369 86.5938 62.4537 86.6992 62.4836C86.8522 62.2424 86.659 62.0046 86.5053 61.8257Z" fill="#4A0357" stroke="#4A0357" stroke-width="0.191304"/>
<path d="M89.9554 67.7491C89.4467 65.7304 88.1871 63.9937 86.7504 62.532C86.1066 62.736 85.5013 63.0443 84.8969 63.3431C83.8965 63.8746 82.8888 64.4858 82.2014 65.4123C81.4577 66.304 81.032 67.3996 80.5459 68.4412C80.5306 68.3893 80.5 68.2867 80.4847 68.2357C80.1877 69.078 79.9849 69.9504 79.7531 70.8122C79.6195 71.271 79.5897 71.7793 79.3016 72.1764C79.2364 72.6621 79.1865 73.1509 79.0899 73.6323C79.0038 75.1852 78.809 76.7299 78.7148 78.2822C78.6714 79.2694 78.6142 80.2557 78.611 81.2439C78.5377 82.4164 78.5611 83.5914 78.5563 84.7664C79.2001 84.76 79.8432 84.7698 80.4871 84.7631C80.6263 83.9831 80.8082 83.2101 80.8992 82.4229C80.9974 81.5327 81.0827 80.641 81.1334 79.7469C81.1455 79.5136 81.1921 79.2862 81.2421 79.0597C81.1656 78.3597 80.9636 77.6826 80.8348 76.9921C80.7181 76.3684 80.5128 75.7612 80.4581 75.1278C80.5845 75.4547 80.6891 75.7896 80.8066 76.1205C81.1905 75.5405 81.4087 74.8705 81.6163 74.2108C82.1298 72.4655 82.5258 70.6828 83.1833 68.9824C83.5769 68.0226 84.0123 67.0241 84.8196 66.3388C85.2124 65.9947 85.7532 65.6672 86.2876 65.8638C86.7022 66.0402 86.9581 66.4416 87.1891 66.8104C87.4692 67.2466 87.577 67.7607 87.8 68.2235C87.771 67.9353 87.738 67.6481 87.7074 67.3599C87.9207 68.1765 88.0036 69.0239 88.0012 69.8671C88.0221 70.3015 87.9899 70.7353 87.9746 71.1691C88.0221 72.6911 87.4965 74.176 86.7609 75.4862C85.7556 77.3822 84.2264 78.9504 82.529 80.2322C83.3942 80.043 84.0944 79.4636 84.8502 79.038C85.3081 78.7782 85.6872 78.4058 86.0752 78.0557C86.8237 77.3743 87.4539 76.5739 88.0269 75.742C88.5122 74.9733 88.959 74.1671 89.1706 73.2745C89.0402 74.2263 88.5871 75.0881 88.0962 75.898C87.9618 76.1248 87.8136 76.3431 87.6752 76.569C87.9424 76.4048 88.0849 76.1135 88.3167 75.9111C88.2933 76.4078 88.1139 76.8764 87.9497 77.3401C87.4893 78.588 86.7279 79.7298 85.7146 80.5909C84.6023 81.536 83.2662 82.2571 81.832 82.545C81.9117 83.288 82.034 84.0261 82.1475 84.7649C85.144 84.7698 88.1396 84.756 91.1353 84.7679C91.1296 84.1742 91.1224 83.5801 91.0991 82.9876C90.9791 79.2322 90.7224 75.4838 90.559 71.7308C90.5059 70.3857 90.2757 69.0544 89.9554 67.7491Z" fill="#4A0357" stroke="#4A0357" stroke-width="0.191304"/>
<path d="M61.7507 42.3476C61.7082 42.3599 61.6234 42.3858 61.5809 42.398C61.1607 42.6181 60.6995 42.7671 60.3164 43.0534C60.0993 43.2799 59.8181 43.4897 59.7844 43.8279C59.5367 45.8357 59.4261 47.8651 59.5333 49.8866C59.6958 52.8288 60.6479 55.6739 61.951 58.2953C62.479 57.4066 63.3137 56.7634 64.0436 56.0522C64.2601 55.8287 64.6426 55.6135 64.5476 55.2469C64.3891 54.6739 64.1307 54.1332 63.9993 53.5514C63.7467 53.7327 63.5013 53.9253 63.2269 54.0734C63.3073 53.9675 63.3869 53.8631 63.4755 53.7642C63.0705 53.8792 62.6649 54.0087 62.2401 54.0087C62.8285 53.2214 63.4175 52.413 63.7676 51.4856C63.9568 50.9758 64.0108 50.4294 63.9962 49.8891C63.8241 50.3186 63.7275 50.7792 63.5004 51.1871C62.8227 48.2601 62.3752 45.2862 61.7507 42.3476Z" fill="#671773" stroke="#671773" stroke-width="0.0637681"/>
<path d="M75.1345 45.4882C74.9365 45.4882 74.8044 45.3249 74.666 45.2074C74.621 45.2861 74.5743 45.3637 74.5269 45.4415C74.6031 45.571 74.621 45.7804 74.798 45.8112C75.0677 45.8662 75.248 46.0759 75.4025 46.2871C75.8942 46.89 76.3014 47.5671 76.5848 48.294C76.9107 48.522 77.2415 48.7552 77.4894 49.0733C77.2633 49.0111 77.0387 48.9421 76.8214 48.8523C76.7828 49.1008 76.8214 49.3499 76.8995 49.5862C77.9039 49.3401 78.8907 49.0294 79.875 48.714C79.8002 48.5101 79.7092 48.3135 79.603 48.1249C79.343 48.2744 79.0315 48.3343 78.7571 48.1822C78.5011 48.1062 78.4979 47.8083 78.4415 47.5931C78.2412 47.4441 78.0544 47.2451 78.0882 46.9715C78.0496 46.622 78.3015 46.3598 78.5671 46.1827C78.3804 45.9699 78.1808 45.7685 77.9635 45.5862C77.6915 45.7618 77.38 45.9828 77.0387 45.8662C76.79 45.7407 76.6652 45.4681 76.5019 45.2538C76.2854 45.2519 76.0673 45.2416 75.8499 45.2602C75.5964 45.2852 75.3992 45.5206 75.1345 45.4882Z" fill="#5F2D2D" stroke="#5E2E2E" stroke-width="0.127536"/>
<path d="M74.5264 45.4414C74.0506 46.1704 73.6504 46.9522 73.3647 47.7752C73.4938 47.738 73.6231 47.7071 73.7527 47.6772C73.7197 47.9547 73.7254 48.2502 73.5997 48.5066C73.4904 48.5729 73.3593 48.5851 73.236 48.6165C73.2466 48.7649 73.2248 48.9218 73.2852 49.0616C73.4534 49.3046 73.5533 49.5845 73.6207 49.8703C73.7518 49.888 73.8833 49.9066 74.0145 49.9243C74.1754 49.6297 74.2944 49.2802 74.5947 49.0964C75.1959 48.6929 76.0233 49.0964 76.2832 49.7238C76.4901 49.685 76.6953 49.6395 76.8989 49.5861C76.8209 49.3498 76.7822 49.1007 76.8209 48.8522C76.1689 48.5277 75.4132 48.6959 74.7274 48.5189C74.3992 48.4257 74.4957 47.9993 74.449 47.741C75.1749 47.8567 75.9041 48.0042 76.5842 48.2939C76.3009 47.567 75.8937 46.8899 75.402 46.287C75.2475 46.0758 75.0671 45.8661 74.7975 45.8111C74.6205 45.7803 74.6026 45.5709 74.5264 45.4414Z" fill="#923D32" stroke="#923D32" stroke-width="0.127536"/>
<path d="M88.0017 69.8671C88.0041 69.024 87.9212 68.1765 87.7079 67.3599C87.7385 67.6481 87.7715 67.9354 87.8004 68.2235C87.93 69.5402 87.6894 70.8617 87.369 72.1338C87.0439 73.4437 86.664 74.7484 86.0901 75.9719C86.3895 75.674 86.5304 75.2646 86.7388 74.9053C87.5598 73.3613 87.9928 71.6166 88.0017 69.8671Z" fill="#872B94" stroke="#872B94" stroke-width="0.0637681"/>
<path d="M88.0964 75.8981C88.0787 75.8587 88.0441 75.7808 88.0272 75.7421C87.4542 76.5739 86.824 77.3744 86.0754 78.0557C85.6875 78.4059 85.3084 78.7783 84.8505 79.0381C85.8356 78.4965 86.6815 77.7254 87.4099 76.8725C87.4807 76.7626 87.5523 76.65 87.6634 76.5788L87.6755 76.5691C87.8139 76.3432 87.962 76.1249 88.0964 75.8981Z" fill="#872B94"/>
<path d="M73.7517 47.6773C73.6221 47.7072 73.4927 47.738 73.3637 47.7753C73.2116 47.963 73.1272 48.2057 73.0546 48.4356C73.0112 48.5473 73.1393 48.6307 73.2349 48.6166C73.3582 48.5852 73.4894 48.573 73.5987 48.5067C73.7244 48.2503 73.7186 47.9548 73.7517 47.6773Z" fill="#2C202A" stroke="#2C202A" stroke-width="0.0637681"/>
<path d="M77.3996 49.0153C77.2075 48.9603 77.0177 48.8992 76.8335 48.8232C76.5016 48.6583 76.1444 48.6191 75.7881 48.5984C75.7247 48.5948 75.6613 48.5917 75.5982 48.5886C75.3043 48.5742 75.014 48.5601 74.7351 48.4881C74.6606 48.4669 74.6115 48.4274 74.5779 48.3768C74.5437 48.3251 74.5246 48.2602 74.5135 48.1871C74.5027 48.1151 74.5 48.0379 74.4974 47.9609L74.4973 47.9573C74.4952 47.8965 74.4931 47.8355 74.4863 47.7794C75.1963 47.8938 75.9059 48.0403 76.5681 48.3219C76.8662 48.5305 77.1643 48.7411 77.3996 49.0153Z" fill="#2E202D" stroke="#2E202D" stroke-width="0.0637681"/>
<path d="M65.3784 50.7125C65.0289 51.8658 64.4818 53.0521 63.4741 53.764C63.3854 53.8629 63.3059 53.9673 63.2254 54.0732C63.4999 53.9252 63.7452 53.7326 63.9978 53.5512C64.9108 52.9242 65.3838 51.8036 65.3784 50.7125Z" fill="#872B94"/>
<path d="M89.1707 73.2745C88.959 74.1671 88.5123 74.9733 88.027 75.742C88.0439 75.7807 88.0785 75.8586 88.0962 75.8979C88.5872 75.0881 89.0403 74.2263 89.1707 73.2745Z" fill="#872B94"/>
<path d="M82.5093 48.7778C82.3242 48.4921 82.0111 48.2072 81.6465 48.2622C81.3157 48.3174 81.1121 48.62 80.9913 48.9088C80.8948 49.1014 80.9728 49.3184 80.9583 49.523C80.7909 49.7244 80.6026 49.9107 80.4722 50.1414C80.4062 50.0856 80.3153 50.0444 80.2895 49.9537C80.1623 49.6445 80.0907 49.316 79.9965 48.9955C78.9518 49.2543 77.9385 49.6316 76.8922 49.8871C77.2351 51.521 77.2963 53.2998 76.6121 54.8566C76.4793 55.1634 76.328 55.4629 76.2298 55.7841C77.4065 55.5316 78.5575 55.1286 79.6086 54.5346C80.2791 54.117 80.898 53.6032 81.3857 52.9768C81.4099 53.0806 81.4316 53.1856 81.4525 53.2909C81.4968 53.087 81.5032 52.8684 81.6062 52.6831C81.5652 52.3076 81.7221 51.9434 81.9491 51.6537C82.2453 51.2734 82.5254 50.8631 82.6461 50.3896C82.7845 49.8606 82.766 49.2674 82.5093 48.7778Z" fill="#5E2E2E" stroke="#5E2E2E" stroke-width="0.127536"/>
<path d="M75.2634 49.1855C74.8627 49.0957 74.4862 49.4114 74.3741 49.7844C74.2059 50.3516 74.2512 51.0257 74.6568 51.4845C74.9197 51.8358 75.4825 51.9473 75.8133 51.6286C76.5143 50.9277 76.2632 49.4663 75.2634 49.1855Z" fill="#933A2F"/>
<path d="M73.2772 50.2812C73.2845 49.9842 73.3764 49.6081 73.1395 49.3773C73.1194 49.4258 73.0799 49.5238 73.0595 49.5724C72.9178 50.1307 72.8589 50.7095 72.6761 51.2581C73.1298 51.1997 73.2216 50.6542 73.2772 50.2812Z" fill="#9C392F"/>
<path d="M66.3842 49.7787C66.3519 50.1395 66.4447 50.4964 66.4574 50.8566C66.5292 51.6942 66.4623 52.534 66.4504 53.3723C66.85 52.7502 66.8846 51.9727 66.7873 51.2586C66.6985 50.7555 66.5915 50.2482 66.3842 49.7787Z" fill="#671773"/>
<path d="M73.9186 53.5232C74.3461 53.5894 74.7781 53.5287 75.2081 53.5394C74.7284 53.841 74.1682 54.0571 73.5943 54.0101C73.3287 53.9884 73.2263 53.7067 73.1444 53.4948C73.4003 53.4252 73.662 53.5003 73.9186 53.5232ZM76.8926 49.8871C76.7364 49.9228 76.5795 49.9528 76.4217 49.9842C76.4483 50.4287 76.4853 50.8948 76.3066 51.3155C76.1626 51.713 75.8004 52.0487 75.3705 52.0835C75.0897 52.1071 74.8361 51.9621 74.5914 51.8448C74.5343 52.0097 74.5158 52.2414 74.3188 52.3018C73.9572 52.4178 73.5822 52.5341 73.1975 52.4938C73.1098 52.4929 73.0235 52.4871 72.9352 52.4856C72.9173 53.0204 72.9947 53.5522 73.0326 54.0846C73.0928 54.6203 73.0809 55.1851 73.3053 55.687C73.4896 56.0188 73.9122 56.0609 74.2511 56.0316C74.9127 55.9751 75.5839 55.9498 76.2302 55.784C76.3284 55.4629 76.4797 55.1634 76.6125 54.8566C77.2966 53.2997 77.2354 51.5209 76.8926 49.8871Z" fill="#923B30" stroke="#923D32" stroke-width="0.127536"/>
<path d="M74.0015 50.1997C73.8637 50.1905 73.7252 50.1826 73.5862 50.1737C73.5057 50.5046 73.4483 50.8551 73.2488 51.1399C73.1137 51.3447 72.9018 51.4772 72.7014 51.61C72.6999 51.737 72.6944 51.8649 72.7048 51.9928C72.7193 52.1855 72.9109 52.2963 72.9358 52.4855C73.0242 52.4871 73.1104 52.4929 73.1981 52.4938C73.1763 52.4159 73.1538 52.3384 73.1322 52.2605C73.4702 52.23 73.8139 52.2203 74.1421 52.1262C74.0729 51.8011 74.102 51.4699 74.1278 51.1433C74.0698 50.8307 74.0246 50.5168 74.0015 50.1997Z" fill="#8E362D"/>
<path d="M79.6262 65.4269C79.5553 65.5117 79.4845 65.5966 79.4024 65.6735C78.5718 66.3744 77.4981 66.7038 76.4349 66.825C75.9786 66.8873 75.5182 66.9667 75.0555 66.9196C76.3327 66.8308 77.5762 66.4373 78.7312 65.8921C79.0394 65.756 79.3123 65.552 79.6262 65.4269ZM80.2137 60.5609C80.1879 60.3456 79.9594 60.2727 79.7887 60.2064C79.3195 60.3585 78.8374 60.4668 78.3537 60.5618C77.6229 60.6854 76.8639 60.6863 76.1476 60.479C76.1219 60.4815 76.0703 60.4855 76.0446 60.4873C76.0253 60.752 76.0172 61.0172 76.0019 61.2828C74.8396 62.0677 73.6436 62.8446 72.7222 63.9201C72.3706 64.6176 72.0815 65.3457 71.712 66.0353C71.4321 66.5808 71.1309 67.1147 70.8412 67.6544C70.4775 68.3028 70.0977 68.9485 69.8535 69.6543C69.4151 70.9984 69.1631 72.3916 68.8228 73.7617C68.3962 75.7759 67.9945 77.7958 67.6936 79.8332C67.4231 81.464 67.3241 83.1197 67.373 84.7713C69.9695 84.781 72.5652 84.7746 75.1617 84.7737C75.3397 83.4027 75.7717 82.083 76.2369 80.7875C76.4309 80.2468 76.6917 79.7346 76.9227 79.2101L76.8526 79.1341C76.4027 79.5988 75.8321 79.912 75.2568 80.191C73.9995 80.7954 72.6286 81.1306 71.2502 81.3052C70.6691 81.3418 70.0846 81.3483 69.502 81.3208C70.1119 81.3125 70.7252 81.2988 71.3258 81.1776C72.2345 80.985 73.1551 80.7914 74.0019 80.3934C74.137 80.3293 74.2497 80.2282 74.3593 80.1296C74.2837 80.1302 74.1316 80.1327 74.0557 80.1336C74.5524 79.792 75.0795 79.4934 75.5512 79.1155C76.5339 78.3258 77.4353 77.395 78.0189 76.264C78.4664 75.4263 78.7553 74.5184 79.0893 73.6322C79.1859 73.1508 79.2358 72.6621 79.301 72.1764C79.6471 68.6902 80.3063 65.222 81.4645 61.9114C81.5047 61.7926 81.5481 61.6751 81.5964 61.5603C81.4652 61.3378 81.3228 61.1232 81.1699 60.9153C80.2226 61.3433 79.2447 61.8119 78.1871 61.8344C78.773 61.7123 79.3847 61.5741 79.8692 61.201C80.0672 61.052 80.2628 60.8286 80.2137 60.5609Z" fill="#F37435"/>
<path d="M74.1267 51.1434C74.1009 51.47 74.0717 51.8012 74.141 52.1263C74.2839 52.0415 74.4177 51.9444 74.5491 51.8455C74.404 51.6141 74.2572 51.3836 74.1267 51.1434Z" fill="#AF3E28"/>
<path d="M81.3853 52.9768C80.8976 53.6032 80.2786 54.1169 79.6082 54.5346C78.557 55.1286 77.4061 55.5316 76.2294 55.784C76.2334 55.8286 76.2423 55.9193 76.2471 55.9644C76.2721 56.1919 76.2616 56.4346 76.3678 56.6449C76.7002 57.3531 77.1606 57.9997 77.7063 58.5571C77.7458 58.5687 77.8246 58.5913 77.8641 58.6026C78.2769 58.6453 78.7148 58.5232 79.1108 58.6502C79.3442 59.1667 79.5993 59.6741 79.8392 60.1879C80.4082 59.9589 80.974 59.7089 81.4529 59.3163C81.2605 59.0929 81.2823 58.7757 81.2267 58.5031C81.0255 57.0384 81.0537 55.5444 81.333 54.0919C81.3716 53.8248 81.4336 53.5601 81.4521 53.2909C81.4312 53.1856 81.4094 53.0806 81.3853 52.9768Z" fill="#361E2C"/>
<path d="M73.9185 53.5233C73.662 53.5004 73.4003 53.4253 73.1443 53.4949C73.2263 53.7067 73.3286 53.9885 73.5943 54.0102C74.1681 54.0572 74.7283 53.841 75.208 53.5394C74.7781 53.5288 74.346 53.5895 73.9185 53.5233Z" fill="#FDFCFB"/>
<path d="M76.2488 55.9646C76.2255 56.7449 76.178 57.5239 76.1627 58.3048C76.1908 58.27 76.2464 58.2013 76.2738 58.1665C76.7196 58.4013 77.2138 58.4959 77.708 58.5573C77.1623 57.9998 76.7019 57.3533 76.3695 56.645C76.2633 56.4347 76.2738 56.192 76.2488 55.9646Z" fill="#592829"/>
<path d="M70.9816 56.1668C70.9494 56.4742 71.096 56.7584 71.1467 57.0551C71.4388 58.5711 71.2834 60.1426 70.8802 61.6225C70.8119 61.9641 70.6379 62.2902 70.6628 62.6455C71.0566 61.9672 71.4695 61.273 72.0634 60.7525C72.3716 60.4775 72.6655 60.1707 73.0395 59.9863C73.3222 60.0177 73.5548 60.221 73.7448 60.4201C73.9892 60.6661 73.8444 61.0309 73.8693 61.3359C74.404 60.5333 75.0886 59.8065 75.9266 59.322C76.1842 59.1785 76.086 58.8241 76.1423 58.5814C75.4671 58.6196 74.8175 58.851 74.2115 59.1431C73.096 58.1947 71.9693 57.2526 70.9816 56.1668Z" fill="#290030"/>
<path d="M77.7077 58.557C77.2135 58.4956 76.7193 58.401 76.2734 58.1663C76.246 58.2011 76.1905 58.2697 76.1624 58.3045C76.1575 58.3961 76.1511 58.4892 76.143 58.5814C76.0867 58.8241 76.1849 59.1785 75.9273 59.322C75.9643 59.3364 76.0376 59.3657 76.0746 59.38C76.1495 59.7418 75.9056 60.1667 76.1487 60.479C76.865 60.6863 77.624 60.6854 78.3547 60.5617C78.2952 59.8852 78.0916 59.2378 77.8654 58.6025C77.826 58.5912 77.7471 58.5686 77.7077 58.557Z" fill="#8E4036"/>
<path d="M82.2884 58.6059C81.9464 58.4942 81.5826 58.5015 81.2276 58.503C81.2832 58.7756 81.2614 59.0928 81.4538 59.3163C81.5657 59.2476 81.6767 59.1691 81.8079 59.1456C82.1331 59.1011 82.4607 59.4167 82.4091 59.7467C82.3528 60.0212 82.1967 60.259 82.0727 60.505C82.4719 60.3731 82.8381 60.153 83.2486 60.055C83.6679 59.9409 84.1066 59.9943 84.5339 59.9369C83.841 59.4109 83.1367 58.8501 82.2884 58.6059Z" fill="#290030"/>
<path d="M79.1112 58.6502C78.7152 58.5232 78.2774 58.6453 77.8645 58.6025C78.0907 59.2378 78.2943 59.8853 78.3538 60.5618C78.8376 60.4668 79.3197 60.3585 79.7889 60.2064L79.8396 60.1878C79.5998 59.674 79.3446 59.1667 79.1112 58.6502Z" fill="#572A2C"/>
<path d="M82.4087 59.7467C82.4602 59.4167 82.1326 59.1011 81.8075 59.1456C81.6763 59.1692 81.5652 59.2476 81.4533 59.3163C80.9744 59.7089 80.4086 59.9589 79.8396 60.1878L79.7889 60.2065C79.9595 60.2727 80.1881 60.3457 80.2138 60.5609C80.263 60.8286 80.0674 61.0521 79.8694 61.201C79.3849 61.5741 78.7732 61.7124 78.1872 61.8345C79.2448 61.8119 80.2227 61.3433 81.17 60.9153C81.3229 61.1232 81.4654 61.3378 81.5966 61.5603C81.7608 61.2108 81.8976 60.8491 82.0722 60.505C82.1962 60.259 82.3523 60.0212 82.4087 59.7467Z" fill="#AB3D2B"/>
<path d="M76.0746 59.3801C76.0376 59.3657 75.9644 59.3364 75.9273 59.3221C75.0893 59.8065 74.4047 60.5334 73.87 61.3359C73.4598 62.0814 73.1128 62.8608 72.8022 63.6529C72.7764 63.7412 72.7496 63.8309 72.7232 63.92C73.6447 62.8446 74.8407 62.0677 76.003 61.2828C76.0183 61.0172 76.0264 60.7519 76.0457 60.4873C76.0714 60.4854 76.1229 60.4815 76.1487 60.479C75.9056 60.1667 76.1495 59.7418 76.0746 59.3801Z" fill="#A83C2C"/>
<path d="M73.7439 60.4201C73.5539 60.2211 73.3213 60.0178 73.0386 59.9864C72.6646 60.1707 72.3707 60.4775 72.0625 60.7526C72.7135 60.9339 73.0435 61.6339 73.0702 62.2667C73.1079 62.7466 72.9278 63.1996 72.8006 63.653C73.1112 62.8608 73.4582 62.0814 73.8684 61.336C73.8435 61.031 73.9884 60.6662 73.7439 60.4201Z" fill="#4A0357" stroke="#4A0357" stroke-width="0.191304"/>
<path d="M87.6628 76.5786C87.5512 76.6498 87.4791 76.7624 87.4079 76.8723C87.5916 76.9297 87.7276 76.7462 87.6628 76.5786Z" fill="#47222B"/>
<path d="M73.0711 62.2668C73.0444 61.6339 72.7143 60.9339 72.0634 60.7526C71.4695 61.2731 71.0566 61.9673 70.6628 62.6456C69.9748 63.9879 69.4292 65.404 69.0266 66.8592C67.9384 70.771 67.1705 74.7645 66.4655 78.762C66.1261 80.7518 65.8015 82.7498 65.6946 84.7679C66.0198 84.7624 66.3441 84.7664 66.6684 84.7664C66.7716 81.2714 67.2656 77.8023 67.9314 74.3744C68.0608 73.8774 68.0914 73.3117 68.4409 72.9106C68.6218 73.1661 68.7594 73.4528 68.8231 73.7617C69.1635 72.3917 69.4155 70.9984 69.8539 69.6543C70.098 68.9485 70.4779 68.3029 70.8416 67.6545C71.1313 67.1148 71.4325 66.5808 71.7124 66.0353C72.0819 65.3457 72.3709 64.6176 72.7225 63.9201C72.749 63.831 72.7757 63.7412 72.8015 63.653C72.9287 63.1997 73.1087 62.7466 73.0711 62.2668Z" fill="#671773"/>
<path d="M82.4305 61.8766C82.1174 61.7584 81.7617 61.7285 81.4655 61.9114C80.3073 65.222 79.6482 68.6902 79.3021 72.1764C79.5902 71.7792 79.62 71.271 79.7536 70.8121C79.9854 69.9504 80.1882 69.0779 80.4852 68.2357C80.849 67.0225 81.2562 65.7416 82.2164 64.8618C82.8844 64.2485 83.6338 63.7225 84.4426 63.3153C83.9291 62.6559 83.2192 62.1476 82.4305 61.8766Z" fill="#671773" stroke="#671773" stroke-width="0.0637681"/>
<path d="M86.7001 62.4835C86.5947 62.4536 86.4804 62.4368 86.3758 62.4829C85.7102 62.7085 85.0928 63.0516 84.4417 63.3154C83.6328 63.7226 82.8835 64.2486 82.2155 64.8619C81.2553 65.7417 80.848 67.0226 80.4842 68.2357C80.4995 68.2867 80.5301 68.3893 80.5454 68.4412C81.0316 67.3996 81.4573 66.304 82.201 65.4123C82.8883 64.4858 83.896 63.8746 84.8965 63.3431C85.5009 63.0443 86.1061 62.736 86.75 62.532L86.7001 62.4835Z" fill="#23212D"/>
<path d="M79.6267 65.4268C79.3128 65.552 79.04 65.7559 78.7317 65.8921C77.5768 66.4373 76.3333 66.8308 75.056 66.9196C75.5188 66.9666 75.9791 66.8873 76.4355 66.825C77.4987 66.7038 78.5724 66.3744 79.403 65.6735C79.4851 65.5966 79.5559 65.5117 79.6267 65.4268Z" fill="#FFA378" stroke="#FFA378" stroke-width="0.0637681"/>
<path d="M86.2869 65.8637C85.7525 65.6671 85.2116 65.9947 84.8188 66.3387C84.0116 67.024 83.5762 68.0226 83.1826 68.9824C82.525 70.6827 82.129 72.4655 81.6155 74.2107C81.4079 74.8704 81.1898 75.5405 80.8059 76.1205C80.6883 75.7896 80.5837 75.4547 80.4574 75.1278C80.5121 75.7612 80.7173 76.3684 80.834 76.9921C80.9628 77.6826 81.1648 78.3597 81.2413 79.0596C81.4731 80.2145 81.655 81.3797 81.8312 82.5449C83.2655 82.2571 84.6015 81.536 85.7138 80.5909C86.7271 79.7297 87.4885 78.588 87.9489 77.3401C88.1131 76.8764 88.2926 76.4078 88.3159 75.9111C88.0841 76.1135 87.9417 76.4047 87.6745 76.5689L87.6624 76.5787C87.7268 76.7463 87.5915 76.9298 87.4089 76.8724C86.6805 77.7253 85.8345 78.4964 84.8494 79.038C84.0937 79.4635 83.3934 80.0429 82.5282 80.2322C84.2257 78.9504 85.7549 77.3822 86.7601 75.4861C87.4958 74.1759 88.0213 72.6911 87.9739 71.169C87.9891 70.7352 88.0213 70.3014 88.0004 69.867C87.9916 71.6165 87.5585 73.3612 86.7376 74.9052C86.5291 75.2645 86.3883 75.6739 86.0889 75.9718C86.6628 74.7483 87.0427 73.4436 87.3678 72.1337C87.6881 70.8616 87.9288 69.5401 87.7992 68.2235C87.5763 67.7607 87.4684 67.2466 87.1883 66.8104C86.9573 66.4416 86.7014 66.0402 86.2869 65.8637Z" fill="#671773"/>
<path d="M68.8228 73.7618C68.759 73.4528 68.6215 73.1662 68.4405 72.9107C68.091 73.3118 68.0604 73.8775 67.931 74.3745C67.2652 77.8023 66.7712 81.2714 66.668 84.7665C66.903 84.765 67.138 84.7656 67.373 84.7714C67.3241 83.1198 67.4231 81.4641 67.6936 79.8333C67.9945 77.7959 68.3962 75.776 68.8228 73.7618Z" fill="#393E45" stroke="#393E45" stroke-width="0.0637681"/>
<path d="M79.0894 73.6322C78.7553 74.5184 78.4664 75.4263 78.0189 76.264C77.4354 77.395 76.534 78.3258 75.5512 79.1155C75.0795 79.4934 74.5524 79.792 74.0557 80.1336C74.1316 80.1327 74.2837 80.1302 74.3593 80.1296C75.0409 79.8826 75.6905 79.5508 76.3046 79.1659C76.6289 78.9384 76.934 78.6811 77.2793 78.486C77.2012 78.7458 77.0563 78.9763 76.9227 79.2101C76.6917 79.7346 76.4309 80.2468 76.237 80.7875C75.7718 82.083 75.3397 83.4027 75.1618 84.7737C76.2933 84.7639 77.4241 84.7746 78.5557 84.7664C78.5606 83.5914 78.5372 82.4164 78.6105 81.2438C78.6137 80.2557 78.6708 79.2693 78.7143 78.2821C78.8085 76.7298 79.0032 75.1851 79.0894 73.6322Z" fill="#BA4517"/>
<path d="M35.7282 50.631C35.5407 50.5938 35.3628 50.6852 35.19 50.7443C35.6044 50.7742 36.0197 50.7758 36.4341 50.758C36.1959 50.7353 35.9616 50.6852 35.7282 50.631Z" fill="#9E4D39"/>
<path d="M37.5493 55.5016C37.2894 55.4239 36.9414 55.4903 36.8473 55.7808C36.6777 56.4265 37.2614 57.0747 37.877 57.171C37.5412 56.9582 37.1182 56.7745 36.9931 56.3594C36.9363 56.1417 36.8333 55.8585 37.013 55.6707C37.1372 55.4959 37.3666 55.5364 37.5493 55.5016Z" fill="#9E4D39"/>
<path d="M55.0945 31.8892C55.2209 31.5849 54.973 31.3092 54.6951 31.2288C54.4713 31.2758 54.2326 31.4069 54.2253 31.6675C54.0343 33.0337 53.9522 34.4246 54.0938 35.7989C53.9755 35.1796 53.8145 34.5677 53.7791 33.936C53.7375 33.5047 53.7912 33.0561 53.6514 32.6402C53.5411 32.3451 53.0406 32.4009 53.0387 32.7335C52.8255 34.5031 53.2297 36.2665 53.54 37.9991C53.298 37.4195 53.1516 36.7389 52.6313 36.3359C52.4827 36.2056 52.3013 36.1234 52.118 36.0529C51.9522 36.0408 51.7062 36.0066 51.6401 36.2129C51.5057 36.4394 51.7726 36.5958 51.8975 36.7455C52.2994 37.1049 52.3987 37.6573 52.6163 38.1276C52.9205 38.872 53.4016 39.5309 53.9547 40.1079C54.1599 40.327 54.383 40.5311 54.5601 40.7745C54.7546 41.0432 54.7448 41.3945 54.7378 41.7116C54.7243 42.3922 54.4337 43.0177 54.2129 43.6483C53.7006 45.0828 53.153 46.5048 52.6653 47.9485C52.2436 47.8633 51.8829 48.1508 51.7252 48.5244C51.1023 49.8217 50.8592 51.2558 50.4634 52.6297C50.3608 53.0036 50.1396 53.337 49.8515 53.5935C49.3342 54.0459 48.7917 54.4739 48.3102 54.9668C48.0827 55.1965 47.9447 55.4992 47.8644 55.81C47.664 56.5714 47.6614 57.3661 47.5223 58.138C47.362 58.9448 46.7932 59.5712 46.266 60.1659C46.6497 60.0172 46.9612 59.7413 47.3149 59.5374C47.8604 59.1576 48.4474 58.7443 48.6822 58.0904C49.0261 58.2561 49.3959 58.3712 49.7807 58.3654C49.3525 58.1771 48.8906 57.9252 48.6804 57.4859C48.7793 57.0918 49.0009 56.7414 49.1411 56.3602C49.5496 55.4086 49.8596 54.3703 50.5686 53.5902C50.9986 53.1063 51.6562 52.9502 52.1352 52.5342C51.9771 52.586 51.8186 52.633 51.6609 52.6872C51.4696 52.7584 51.2736 52.8175 51.0768 52.8749C51.3108 52.5957 51.4733 52.2672 51.5653 51.9152C51.8445 50.9383 52.0965 49.9527 52.3407 48.9671C52.3517 48.9201 52.3725 48.828 52.3823 48.781C52.5422 48.9745 52.6945 49.1774 52.8872 49.3393C53.5747 47.8002 54.1446 46.2119 54.6776 44.6126C55.108 43.2621 55.567 41.9197 55.9306 40.548C56.1255 39.7863 56.2833 38.9806 56.0828 38.2028C55.8196 37.1768 55.2683 36.2493 55.0365 35.2138C54.8335 34.2909 54.8302 33.3347 54.9376 32.3998C54.9638 32.2218 55.0372 32.0577 55.0945 31.8892Z" fill="#FFA378"/>
<path d="M55.0941 31.8894C55.0369 32.0578 54.9635 32.222 54.937 32.4C54.8298 33.3347 54.8333 34.2912 55.0362 35.2137C55.2681 36.2495 55.819 37.1769 56.0823 38.203C56.2828 38.9808 56.1254 39.7866 55.9303 40.548C55.5665 41.9199 55.1079 43.2623 54.6772 44.613C54.1445 46.2118 53.5746 47.8005 52.8872 49.3396C53.5023 49.7238 54.3175 49.7886 54.9435 49.3937C54.9976 49.3192 55.0483 49.244 55.0965 49.1664C55.6116 47.2535 56.0888 45.3304 56.5543 43.4047C56.6966 42.8479 56.7845 42.267 57.057 41.7539C57.3227 41.252 57.4812 40.6977 57.5318 40.133C57.5776 39.5326 57.5666 38.915 57.3685 38.3413C57.1046 37.5767 56.7263 36.8451 56.5957 36.04C56.5123 35.3423 56.6498 34.6449 56.6539 33.9472C56.6625 33.7449 56.5474 33.4497 56.3007 33.4812C56.1019 33.5169 56.093 33.7757 56.0382 33.9319C55.9224 34.5784 55.8811 35.2421 55.9152 35.8965C55.9465 36.1151 55.9986 36.3296 56.0399 36.5464C55.7956 36.0375 55.6623 35.4604 55.7357 34.8957C55.7129 34.2815 55.6437 33.668 55.6578 33.0513C55.6357 32.743 55.684 32.4032 55.5296 32.1226C55.4545 31.9663 55.2647 32.0398 55.1303 32.0301C55.1213 31.9954 55.1031 31.9241 55.0941 31.8894Z" fill="#FFA378"/>
<path d="M38.74 53.4237C38.52 53.9553 38.4062 54.5242 38.2024 55.0624C38.4834 54.5598 38.7416 54.0136 38.74 53.4237Z" fill="#B8563B"/>
<path d="M55.9138 35.8963C55.8665 35.5604 55.818 35.2246 55.7331 34.8953C55.6593 35.4601 55.7937 36.037 56.0391 36.546C55.9974 36.3292 55.9449 36.1147 55.9138 35.8963Z" fill="#87372C"/>
<path d="M41.5745 52.0421C41.5088 51.9992 41.4424 51.9563 41.3772 51.9126C41.3247 52.1675 41.2475 52.4159 41.1918 52.6708C41.1767 52.933 41.1202 53.1903 41.0331 53.4388C41.1047 53.48 41.1759 53.5221 41.2459 53.5642C41.3851 53.0641 41.5669 52.568 41.5745 52.0421Z" fill="#FF9462"/>
<path d="M36.8105 58.2232C36.4745 59.1899 35.5894 59.835 34.6497 60.1393C35.5111 59.6927 36.2801 59.0437 36.8105 58.2232ZM31.2142 55.5364C31.2734 56.1951 31.4006 56.8433 31.5651 57.4826C31.154 56.9307 31.0431 56.1976 31.2142 55.5364ZM38.7406 53.4235C38.7425 54.0135 38.4848 54.5597 38.2037 55.0622C38.4074 54.5241 38.5211 53.9552 38.7406 53.4235ZM32.3966 51.0922C32.2503 51.3439 32.0331 51.5429 31.8737 51.7857C31.5824 52.2194 31.3722 52.7025 31.2025 53.1954C31.2538 52.7729 31.4561 52.3926 31.6099 52.0026C31.7632 51.623 32.0177 51.267 32.3966 51.0922ZM37.9609 50.9174C37.4496 50.8931 36.9457 50.7928 36.4349 50.7579C36.0205 50.7757 35.6052 50.7741 35.1904 50.7442C35.3633 50.6851 35.5414 50.5937 35.7287 50.6309C36.4773 50.6123 37.2757 50.5573 37.9609 50.9174ZM45.1779 50.062C45.3499 50.1429 45.3904 50.3655 45.3396 50.5338C45.2002 50.9441 44.6969 51.1877 44.2932 51.0323C43.9833 50.8656 44.063 50.3922 44.3039 50.2004C44.5668 50.0636 44.8884 49.8994 45.1779 50.062ZM40.5015 50.0393C39.8052 49.6234 39.2109 48.9405 39.0995 48.1101C39.4249 48.8457 39.9124 49.4963 40.5015 50.0393ZM34.2661 45.328C33.8648 44.6774 33.1638 44.1927 32.3901 44.1579C31.7408 44.1102 31.1186 44.4606 30.7252 44.9647C30.0601 45.7982 29.855 46.8963 29.8052 47.9378C29.8019 48.6782 29.8387 49.4947 30.3179 50.1009C30.6236 50.4901 31.1307 50.6058 31.5991 50.6317C30.9755 51.0444 30.6665 51.7792 30.4763 52.4784C30.1874 53.5279 30.1701 54.6309 30.2484 55.7112C30.3547 57.1055 30.6931 58.5248 31.4836 59.6958C32.1776 60.7227 33.2804 61.434 34.4796 61.7069C35.1573 61.8556 35.8802 61.9502 36.5579 61.7585C37.2412 61.4486 37.6407 60.7526 37.8551 60.0615C38.0462 59.4241 38.1137 58.7491 38.0653 58.0855C37.4449 57.9105 36.8679 57.5295 36.5281 56.9695C36.247 56.5018 36.262 55.8536 36.6222 55.432C36.8366 55.1731 37.2435 55.1699 37.5115 55.3438C37.8611 55.5494 38.0317 55.9532 38.3687 56.1717C38.4605 56.2461 38.6325 56.221 38.6572 56.0972C38.6409 55.92 38.5426 55.7639 38.4778 55.602C38.969 55.5413 39.3834 55.2306 39.8728 55.1642C40.1026 55.1253 40.3328 55.0873 40.5593 55.0404C40.7318 55.0048 40.9042 54.9692 41.0758 54.9344C41.0926 55.1593 41.107 55.3867 41.1639 55.606C41.238 55.3422 41.2212 55.0606 41.3135 54.8016L41.3433 54.7248C41.2878 54.6358 41.2319 54.5467 41.1737 54.4593C41.1457 54.516 41.0893 54.6285 41.0618 54.6851C40.8721 54.7199 40.6787 54.7232 40.4862 54.7134L40.4349 54.7118C40.4228 54.7296 40.3995 54.7652 40.3883 54.7822C40.1893 54.8494 39.9818 54.8891 39.773 54.9182C40.1329 54.5742 40.4451 54.1826 40.6843 53.7448C40.88 53.4001 41.0408 53.0367 41.1923 52.671C41.2478 52.416 41.3251 52.1676 41.3773 51.9127C41.4305 51.4879 41.396 51.029 41.0935 50.7013C41.7208 50.8866 42.3869 50.9522 43.0287 50.7984C43.2468 51.1974 43.458 51.6004 43.6882 51.9929C44.1445 52.1579 44.6577 52.0462 45.0418 51.7622C45.4874 51.3819 45.7237 50.7555 45.581 50.1769C45.479 49.8557 45.1191 49.884 44.8493 49.8605C45.0837 49.7011 45.3149 49.4923 45.6174 49.5085C45.602 49.6161 45.5866 49.7238 45.5698 49.8322L45.6687 49.8921C45.7409 49.6889 45.7246 49.3458 45.4272 49.3774C45.0208 49.5376 44.7523 49.935 44.3151 50.0426C44.4293 49.4883 44.6209 48.8643 44.3077 48.3384C43.9786 47.8083 43.3251 47.6756 42.7537 47.5987C42.4116 47.5906 42.0704 47.627 41.7274 47.6287C41.9721 47.4021 42.2154 47.1496 42.5332 47.0315C42.8334 47.0323 42.8879 47.3754 42.7593 47.5906C42.8437 47.4774 42.9784 47.3657 42.9509 47.2063C42.8945 47.0023 42.6684 46.8332 42.4549 46.9214C42.0923 47.0671 41.8565 47.4037 41.5624 47.6489C40.1646 47.7371 38.7873 47.4029 37.3941 47.3932C36.6684 47.4053 35.938 47.5227 35.2599 47.7873C34.0653 48.2113 33.154 49.2633 32.7597 50.4586C32.6115 50.3768 32.453 50.3056 32.3318 50.1842C32.2657 49.5781 32.6413 49.0642 32.9364 48.5746C32.8982 48.5625 32.8208 48.5374 32.7821 48.5253C32.3598 48.4217 31.9511 48.1927 31.7208 47.8107C31.5045 47.4854 31.4565 47.0881 31.4416 46.7069C31.5442 47.5607 32.2377 48.1708 32.9834 48.4937C33.1284 48.4177 33.2347 48.2874 33.3535 48.1798C33.7194 47.8196 34.1627 47.5162 34.6721 47.4199C34.7583 46.7053 34.6609 45.9422 34.2661 45.328Z" fill="#210D03" stroke="#210D03" stroke-width="0.637681"/>
<path d="M32.9832 48.4937C32.2371 48.1708 31.5439 47.5606 31.4408 46.7069C31.4559 47.0881 31.5038 47.4854 31.7204 47.8107C31.9502 48.1927 32.3593 48.4217 32.7816 48.5253C32.8322 48.5172 32.9321 48.5017 32.9832 48.4937Z" fill="#B54710"/>
<path d="M37.9612 50.9172C37.2762 50.5572 36.4777 50.6122 35.7292 50.6308C35.9625 50.685 36.1967 50.7352 36.4352 50.7578C36.9462 50.7926 37.4498 50.893 37.9612 50.9172Z" fill="#B54710"/>
<path d="M31.2132 55.5363C31.0415 56.1975 31.1526 56.9306 31.5645 57.4825C31.3992 56.8432 31.272 56.1951 31.2132 55.5363Z" fill="#B54710"/>
<path d="M35.2603 47.7872C35.0528 47.6796 34.9274 47.4393 34.6722 47.4198C34.1626 47.5161 33.7197 47.8196 33.354 48.1797C33.2349 48.2873 33.1285 48.4176 32.9837 48.4937C32.9332 48.5018 32.8331 48.5172 32.7826 48.5252C32.8209 48.5374 32.8985 48.5625 32.9364 48.5746C32.6414 49.0642 32.2657 49.5781 32.332 50.1842C32.4534 50.3056 32.6116 50.3767 32.76 50.4585C33.1546 49.2633 34.0656 48.2113 35.2603 47.7872Z" fill="#BA4517"/>
<path d="M40.502 50.0392C39.9129 49.4962 39.4253 48.8456 39.1001 48.11C39.2114 48.9403 39.8057 49.6233 40.502 50.0392Z" fill="#B54710"/>
<path d="M52.8867 49.3397C52.6936 49.1779 52.5415 48.9745 52.3815 48.7813C52.3717 48.8282 52.3507 48.9204 52.3402 48.9672C52.7644 49.8258 53.9144 50.0622 54.7405 49.6973C54.8788 49.6439 54.9772 49.5305 55.0542 49.4092L54.9431 49.3937C54.3169 49.7886 53.502 49.724 52.8867 49.3397Z" fill="#812C25"/>
<path d="M43.5549 63.5098C43.6898 63.7202 43.8397 63.9225 43.9347 64.1554C43.5202 63.8731 43.278 63.4069 42.8986 63.08C42.9739 62.9863 43.0469 62.8913 43.1202 62.7991C43.3021 63.0119 43.4034 63.2766 43.5549 63.5098ZM54.7405 49.6971C53.9145 50.062 52.7648 49.8257 52.3404 48.9671C52.0962 49.9528 51.8442 50.9384 51.5645 51.9152C51.473 52.2672 51.3101 52.5957 51.0762 52.8749C51.2731 52.8174 51.4691 52.7583 51.6604 52.6871C51.671 52.6556 51.6919 52.5925 51.703 52.5609C51.9688 52.3569 52.2785 52.2251 52.5577 52.043C52.8594 51.8585 53.0918 51.5793 53.4077 51.4175C53.2736 51.7201 53.0843 52.0114 52.805 52.1976C52.5916 52.3286 52.3565 52.4177 52.1345 52.5342C51.6557 52.9501 50.9981 53.1063 50.5682 53.5902C49.8594 54.3703 49.5494 55.4085 49.1404 56.3602C49.0004 56.7413 48.7791 57.0918 48.6801 57.4859C48.8899 57.9252 49.3522 58.177 49.7801 58.3654C49.3956 58.3712 49.0256 58.2561 48.6817 58.0904C48.447 58.7442 47.8601 59.1576 47.3142 59.5373C46.9608 59.7412 46.6492 60.0172 46.2658 60.1659C46.0773 60.3359 45.8962 60.5148 45.7104 60.6888C44.7934 61.5659 43.7344 62.2805 42.626 62.8907C42.3176 62.5653 41.965 62.2158 41.483 62.228C41.5015 62.7442 41.5106 63.2613 41.5386 63.7785C41.6841 63.8917 41.8222 64.0178 41.9338 64.1667C42.4111 64.7923 42.9495 65.3726 43.3644 66.0451C44.2033 67.1447 44.9591 68.3117 45.6055 69.5358C45.7712 69.8112 45.9613 70.0847 45.9846 70.4172C46.3348 71.003 46.6519 71.6093 46.8531 72.2647C47.0582 72.6136 47.1075 73.022 47.229 73.4024C47.6443 74.9587 47.9283 76.5455 48.2719 78.1179C48.7132 80.3198 49.0631 82.5581 49.8752 84.662C50.6834 84.7145 51.5002 84.6217 52.3017 84.7527C52.4429 84.7747 52.5869 84.7728 52.7285 84.7753C52.1621 83.6723 51.7479 82.4964 51.4431 81.2949C51.0384 79.8033 50.7544 78.2822 50.5272 76.7543C50.3181 75.3317 50.2109 73.875 49.7151 72.5147C49.4094 71.6764 48.8911 70.945 48.3799 70.2246C47.7717 69.3896 47.1032 68.6014 46.4524 67.801C47.6467 66.5021 48.7026 65.0756 49.6169 63.5638C51.3168 60.8054 52.4066 57.7286 53.3754 54.6495C53.6944 53.7327 53.9528 52.7713 54.5054 51.9613C54.9428 51.3228 55.4441 50.6713 55.5352 49.8767C55.5849 49.5644 55.3723 49.2827 55.0962 49.1662C55.0481 49.2439 54.9972 49.3192 54.9432 49.3936L55.0544 49.4089C54.9775 49.5303 54.8789 49.6436 54.7405 49.6971Z" fill="#F37435"/>
<path d="M43.0297 50.7986C42.3872 50.9523 41.7218 50.8868 41.094 50.7014C41.3968 51.0292 41.4313 51.488 41.3781 51.9128C41.4432 51.9566 41.5095 51.9995 41.5753 52.0424C42.0583 52.2754 42.5749 52.43 43.1023 52.5222C43.3674 52.5659 43.6332 52.6314 43.8626 52.7787C43.9142 52.7803 44.0177 52.7828 44.0693 52.7836C43.8844 52.5513 43.8312 52.2487 43.6888 51.993C43.4586 51.6005 43.2475 51.1975 43.0297 50.7986Z" fill="#FF9462"/>
<path d="M32.3955 51.0922C32.0167 51.267 31.7623 51.6231 31.6086 52.0026C31.4549 52.3927 31.2527 52.773 31.2014 53.1954C31.3712 52.7026 31.5812 52.2195 31.8726 51.7857C32.0318 51.543 32.2491 51.3439 32.3955 51.0922Z" fill="#B54710"/>
<path d="M36.811 58.223C36.2804 59.0435 35.5111 59.6926 34.6498 60.1392C35.5897 59.8348 36.4746 59.1898 36.811 58.223Z" fill="#B54710"/>
<path d="M53.4072 51.4173C53.0912 51.5791 52.8591 51.8582 52.5573 52.0428C52.2781 52.225 51.9684 52.3569 51.7028 52.5608C51.6915 52.5922 51.6706 52.6553 51.66 52.687C51.818 52.6329 51.9763 52.5859 52.1344 52.5341C52.3561 52.4176 52.5912 52.3285 52.8047 52.1973C53.0839 52.0114 53.2731 51.72 53.4072 51.4173Z" fill="#993629"/>
<path d="M43.1009 52.522C42.5734 52.4298 42.0571 52.2752 41.5741 52.0421C41.566 52.5681 41.385 53.0642 41.2456 53.5643C41.6269 53.3199 42.0711 53.133 42.5302 53.1467C42.6796 53.1265 42.6808 53.345 42.5918 53.4114C42.4208 53.6193 42.1292 53.6112 41.8929 53.6938C41.3109 53.8378 40.8883 54.2967 40.4858 54.7134C40.6784 54.7231 40.8715 54.7199 41.061 54.6851C41.0886 54.6284 41.1451 54.5159 41.1731 54.4593C41.508 53.9924 42.1028 53.6444 42.6864 53.7885C43.0469 53.871 43.2988 54.1615 43.5508 54.4107C43.5203 53.8945 43.5972 53.3822 43.6465 52.87C43.7006 52.8465 43.8075 52.8012 43.8616 52.7785C43.6321 52.6313 43.3661 52.5657 43.1009 52.522Z" fill="#FF9462"/>
<path d="M41.0324 53.439C41.1195 53.1905 41.1759 52.9332 41.1911 52.671C41.0396 53.0368 40.8784 53.4001 40.6825 53.7449C40.7428 53.8395 40.8036 53.9334 40.862 54.0281C40.9856 53.8695 41.1112 53.7133 41.2451 53.5644C41.1751 53.5223 41.1044 53.4802 41.0324 53.439Z" fill="#FF9462"/>
<path d="M44.1548 52.8822C44.1326 52.858 44.0902 52.8086 44.0684 52.7835C44.0169 52.7827 43.913 52.7803 43.8615 52.7786C43.8076 52.8013 43.7006 52.8466 43.6466 52.8701C43.5975 53.3823 43.5202 53.8946 43.5511 54.4109C43.299 54.1616 43.0469 53.8711 42.6866 53.7886C42.1031 53.6445 41.5081 53.9925 41.1732 54.4594C41.2315 54.5468 41.2878 54.6358 41.3432 54.7248C41.591 54.3097 42.0159 53.9334 42.532 54.0103C43.2201 54.1519 43.7616 54.8899 43.6217 55.5972C43.542 55.9808 43.3061 56.3635 42.9296 56.5084C42.5681 56.6581 42.1531 56.5262 41.8486 56.3076C41.5755 56.1037 41.4626 55.7671 41.352 55.4588C41.6049 55.5219 41.8696 55.615 42.1309 55.5462C42.4282 55.4693 42.7032 55.322 42.953 55.1456C42.6921 55.042 42.4706 55.2322 42.243 55.3309C41.9672 55.4588 41.6556 55.4321 41.3591 55.4321C41.3353 55.2225 41.3127 55.0129 41.3135 54.8017C41.2208 55.0606 41.2378 55.3423 41.1637 55.6061C41.2901 56.1345 41.6794 56.6144 42.2157 56.7527C42.7694 56.9251 43.3894 56.6386 43.6748 56.145C43.7136 56.0754 43.7489 56.005 43.781 55.9346C43.9943 55.4709 43.8528 54.9644 43.7263 54.4999C43.8369 54.4448 43.9435 54.3825 44.0613 54.3461C44.1941 54.3267 44.2737 54.457 44.3463 54.5452C44.4596 54.5379 44.573 54.5298 44.6856 54.5217C44.6277 54.3081 44.4121 54.2636 44.2262 54.211C44.1849 54.198 44.1041 54.1713 44.0625 54.1576C43.9685 54.1786 43.8718 54.1996 43.7763 54.2215C43.7842 53.9496 43.7965 53.6777 43.8349 53.4082C43.8928 53.4066 44.0089 53.4026 44.0668 53.4009C44.6479 53.2885 45.1485 53.7958 45.269 54.3299C45.3594 54.6285 45.2805 54.9361 45.1945 55.2249C45.2393 55.2565 45.3289 55.3188 45.3741 55.3503C45.5858 54.8568 45.5695 54.2725 45.315 53.7975C45.072 53.3847 44.6166 53.0643 44.1215 53.1226C44.1294 53.0627 44.1457 52.9429 44.1548 52.8822Z" fill="#322328"/>
<path d="M42.5921 53.4114C42.6807 53.3451 42.6799 53.1266 42.53 53.1468C42.0714 53.1331 41.6273 53.32 41.2461 53.5644C41.1122 53.7133 40.9867 53.8695 40.8632 54.0281C40.7025 54.2442 40.5738 54.4813 40.4343 54.7119L40.486 54.7135C40.8885 54.2968 41.311 53.8379 41.8931 53.6939C42.1296 53.6113 42.421 53.6194 42.5921 53.4114Z" fill="#271E27"/>
<path d="M45.2691 54.3299C45.1484 53.7958 44.6479 53.2884 44.0668 53.4009C44.1274 53.6696 44.1868 53.9382 44.2262 54.2109C44.412 54.2635 44.6275 54.308 44.6854 54.5216C44.5729 54.5297 44.4594 54.5378 44.3462 54.5451C44.5472 54.8607 44.9069 55.0056 45.1946 55.2249C45.2805 54.936 45.3592 54.6285 45.2691 54.3299Z" fill="#FBEBDB"/>
<path d="M44.0667 53.401C44.0084 53.4026 43.8927 53.4066 43.8344 53.4083C43.7959 53.6778 43.7837 53.9497 43.7757 54.2216C43.8713 54.1997 43.9681 54.1787 44.0625 54.1576C44.1037 54.1713 44.1848 54.1981 44.2263 54.211C44.1867 53.9383 44.1273 53.6696 44.0667 53.401Z" fill="#FF9462"/>
<path d="M40.8633 54.0279C40.805 53.9333 40.7442 53.8394 40.6839 53.7447C40.445 54.1825 40.1328 54.5742 39.7728 54.9181C39.9814 54.8889 40.1891 54.8493 40.3879 54.7822C40.3992 54.7651 40.4227 54.7296 40.4345 54.7118C40.5738 54.4811 40.7025 54.244 40.8633 54.0279Z" fill="#FF9462"/>
<path d="M43.6216 55.5972C43.7616 54.8899 43.2198 54.1519 42.5317 54.0103C42.0156 53.9335 41.5909 54.3097 41.3429 54.7248L41.3133 54.8018C41.3125 55.013 41.335 55.2225 41.3587 55.4321C41.6553 55.4321 41.9666 55.4588 42.2426 55.331C42.4704 55.2323 42.6919 55.0421 42.9525 55.1456C42.7029 55.3221 42.4281 55.4694 42.1307 55.5462C41.8693 55.615 41.6047 55.522 41.3516 55.4588C41.4623 55.7671 41.5754 56.1038 41.8483 56.3077C42.1524 56.5262 42.5681 56.6581 42.9291 56.5084C43.306 56.3636 43.5417 55.9808 43.6216 55.5972Z" fill="#FF9462"/>
<path d="M44.3464 54.5453C44.2736 54.4571 44.1941 54.3269 44.0612 54.3463C43.9436 54.3827 43.8366 54.445 43.7262 54.5C43.853 54.9645 43.9942 55.4711 43.7811 55.9348C43.8012 55.9712 43.8412 56.0432 43.8618 56.0796C43.9954 55.9655 44.0982 55.747 44.3045 55.7769C44.499 55.794 44.6166 55.9744 44.7525 56.0909C44.8812 56.027 45.0083 55.9574 45.1309 55.8846C45.2756 55.7947 45.4324 55.7252 45.5896 55.6653C45.5253 55.556 45.4545 55.4492 45.3741 55.3505C45.3288 55.3189 45.2394 55.2566 45.1945 55.225C44.9071 55.0057 44.5473 54.8609 44.3464 54.5453Z" fill="#FF9462"/>
<path d="M41.0743 54.9343C40.9027 54.969 40.7307 55.0047 40.5582 55.0403C40.7123 55.5282 40.9955 55.9595 41.1604 56.4426C41.3308 56.9031 41.4108 57.3967 41.3812 57.8879C41.4112 57.9794 41.4428 58.0707 41.4744 58.1614C41.5741 58.1122 41.6721 58.0628 41.7713 58.0133C41.8153 58.0716 41.8597 58.13 41.9033 58.1888C41.9726 58.1559 42.041 58.1235 42.1078 58.0918C42.3098 58.2456 42.5271 58.1403 42.7107 58.0148C42.7539 58.0417 42.796 58.0692 42.8368 58.0966C42.8544 58.0246 42.8716 57.9535 42.8884 57.883C42.8908 57.7051 43.034 57.5367 43.1772 57.718C43.8366 57.5133 44.5392 57.6905 45.1989 57.4866C45.2073 57.5982 45.2141 57.7099 45.2209 57.8224L45.2585 57.7949C45.2457 57.366 45.2545 56.933 45.1461 56.5147C45.0945 56.4952 44.9925 56.4572 44.9417 56.4378C44.7836 56.7534 44.3775 56.8902 44.0547 56.7696C43.8278 56.6466 43.7818 56.3593 43.6742 56.1448C43.3881 56.6385 42.7687 56.9249 42.2146 56.7526C41.6785 56.6142 41.2892 56.1343 41.1628 55.6059C41.1055 55.3866 41.0911 55.1592 41.0743 54.9343Z" fill="#FF9462" stroke="#FF9462" stroke-width="0.0637681"/>
<path d="M37.5505 55.5018C37.368 55.5366 37.1385 55.4961 37.0144 55.6709C36.8344 55.8586 36.9372 56.1418 36.9943 56.3595C37.1193 56.7747 37.5424 56.9584 37.8781 57.1712C37.2626 57.0749 36.6787 56.4267 36.8484 55.781C36.9427 55.4904 37.2908 55.4241 37.5505 55.5018ZM40.5599 55.0405C40.3329 55.0875 40.1026 55.1255 39.8731 55.1643C39.3839 55.2307 38.9693 55.5414 38.4779 55.6021C38.5427 55.764 38.6412 55.9202 38.6574 56.0974C38.6331 56.2212 38.4608 56.2463 38.3691 56.1718C38.0317 55.9533 37.8611 55.5495 37.5122 55.344C37.2439 55.17 36.8369 55.1732 36.6224 55.4322C36.2619 55.8538 36.2474 56.502 36.5281 56.9697C36.8681 57.5297 37.4452 57.9107 38.0654 58.0856C38.0999 58.0978 38.1686 58.1228 38.2032 58.1357C38.2966 58.1277 38.3879 58.114 38.4779 58.0944C38.5478 57.9626 38.489 57.8113 38.4881 57.6705C38.5551 57.7814 38.6741 57.8832 38.651 58.0267C38.5841 58.1076 38.5077 58.1787 38.4318 58.2523C38.9407 59.0106 39.5046 59.7405 40.1883 60.3489C40.7667 59.6376 41.2479 58.8091 41.3827 57.8881C41.4121 57.397 41.3323 56.9033 41.1617 56.4429C40.9971 55.9598 40.7138 55.5285 40.5599 55.0405Z" fill="#FFA378"/>
<path d="M45.5895 55.6651C45.4321 55.7249 45.2748 55.7945 45.1298 55.8844C45.1017 56.0786 45.03 56.2631 44.9414 56.4378C44.9922 56.4573 45.0943 56.4953 45.1462 56.5148C45.141 56.4872 45.1313 56.4314 45.1268 56.4031C45.4258 56.2777 45.5951 55.9871 45.5895 55.6651Z" fill="#E66D34"/>
<path d="M44.752 56.0907C44.616 55.9742 44.4986 55.7937 44.3037 55.7767C44.0979 55.7468 43.9949 55.9652 43.8612 56.0793C43.9923 56.2323 44.1526 56.433 44.3793 56.3909C44.5503 56.3666 44.6384 56.2 44.752 56.0907Z" fill="#F8854F"/>
<path d="M44.9419 56.4379C45.0303 56.2631 45.1019 56.0786 45.1301 55.8844C45.0078 55.9572 44.8806 56.0268 44.7518 56.0907C44.6383 56.2 44.5499 56.3667 44.3792 56.391C44.1522 56.433 43.9921 56.2324 43.8611 56.0794C43.8409 56.043 43.8009 55.971 43.7807 55.9345C43.7483 56.0049 43.7129 56.0753 43.6744 56.1449C43.7822 56.3594 43.8279 56.6467 44.055 56.7697C44.3781 56.8902 44.7842 56.7535 44.9419 56.4379Z" fill="#E66D34"/>
<path d="M45.1995 57.4866C44.5394 57.6906 43.8366 57.5133 43.1776 57.7181C43.3639 57.982 43.6961 58.0427 43.9906 58.0928C44.4165 58.1566 44.8647 58.0683 45.2214 57.8225C45.2145 57.71 45.2076 57.5983 45.1995 57.4866Z" fill="#FDFDFC"/>
<path d="M43.1784 57.7182C43.0352 57.537 42.8921 57.7053 42.8898 57.8832C43.4368 58.6165 44.5325 58.9376 45.3396 58.4522C45.3076 58.2337 45.2817 58.0145 45.2597 57.7951L45.2223 57.8226C44.8655 58.0685 44.4172 58.1568 43.9916 58.0929C43.6969 58.0429 43.3647 57.9821 43.1784 57.7182Z" fill="#D45F28"/>
<path d="M38.6509 58.0266C38.6737 57.8831 38.5547 57.7812 38.488 57.6704C38.4888 57.8112 38.5477 57.9625 38.4776 58.0943C38.3877 58.1139 38.2964 58.1276 38.2032 58.1356C38.3408 58.2983 38.4469 58.49 38.488 58.7012C38.8573 60.5084 39.024 62.3605 38.9324 64.204C38.8992 64.8149 38.8076 65.426 38.5958 66.0021C39.4199 65.9981 40.3166 65.9972 41.0271 65.5191C40.9836 65.1873 40.9139 64.8594 40.8252 64.5368C40.5707 63.5235 40.3406 62.5015 40.2233 61.4624C40.1872 61.0957 40.1076 60.7227 40.1831 60.3561L40.188 60.3488C39.5045 59.7404 38.9402 59.0105 38.432 58.2522C38.5075 58.1786 38.5837 58.1075 38.6509 58.0266Z" fill="#FF9462" stroke="#FF9462" stroke-width="0.637681"/>
<path d="M40.3231 60.3332C40.807 59.7242 41.2201 59.0271 41.4077 58.2573L41.4208 58.2951L41.518 58.2472C41.5932 58.2101 41.6676 58.1729 41.7418 58.1357C41.7427 58.1353 41.7436 58.1348 41.7444 58.1344C41.7725 58.1714 41.8003 58.2084 41.8277 58.2456L41.8745 58.3091L41.9458 58.2752L42.101 58.2015C42.2126 58.2674 42.3286 58.2757 42.4382 58.2514C42.5373 58.2294 42.6307 58.1809 42.713 58.1287C42.7372 58.1443 42.7612 58.1601 42.785 58.1761L42.8985 58.2521L42.9311 58.1195C42.9335 58.11 42.9358 58.1005 42.9381 58.0911C43.5097 58.7155 44.4865 58.9863 45.2673 58.6006C45.2823 58.6803 45.3003 58.7594 45.3189 58.8372C45.3262 58.8676 45.3335 58.8978 45.3408 58.9277C45.3629 59.019 45.3847 59.1084 45.403 59.1985C45.4511 59.4356 45.4717 59.661 45.4099 59.8833C45.2791 60.2385 44.899 60.4184 44.5159 60.5183L44.5159 60.5183L44.5153 60.5185C43.6949 60.7381 42.8775 60.9514 42.0415 61.0436L42.0415 61.0436L42.0401 61.0437C41.8604 61.0662 41.6798 61.0642 41.5058 61.0266C41.3559 60.9376 41.2062 60.8528 41.0575 60.7684C40.8089 60.6274 40.563 60.4879 40.3231 60.3332Z" fill="#FF9462" stroke="#FF9462" stroke-width="0.191304"/>
<path d="M38.2022 58.1354C38.1676 58.1226 38.0992 58.0976 38.0646 58.0854C38.1129 58.749 38.0454 59.424 37.8543 60.0614C37.6397 60.7525 37.2404 61.4485 36.5569 61.7584C36.5467 61.9583 36.5339 62.1589 36.5001 62.3573C36.4599 62.6153 36.4355 62.876 36.4069 63.1358C36.3971 63.6367 36.0983 64.2137 36.4518 64.6563C36.7172 65.0269 36.9917 65.392 37.2806 65.744C37.7145 65.8548 38.1531 65.9406 38.5951 66.002C38.8067 65.4259 38.8986 64.8148 38.9315 64.2039C39.0234 62.3604 38.8567 60.5083 38.4874 58.7011C38.4463 58.4898 38.3399 58.2982 38.2022 58.1354Z" fill="#FFA378"/>
<path d="M41.4691 61.1168C41.0409 60.8619 40.5981 60.633 40.1823 60.3561C40.1066 60.7228 40.186 61.0958 40.2222 61.4624C40.3399 62.5016 40.5699 63.5236 40.8245 64.5368C40.9131 64.8594 40.9828 65.1873 41.0263 65.5192C41.3216 65.3177 41.5859 65.0423 41.6504 64.6766C41.5811 64.382 41.5489 64.0801 41.538 63.7785C41.5102 63.2614 41.5013 62.7442 41.4828 62.228C41.4876 61.8574 41.3861 61.482 41.4691 61.1168Z" fill="#E66D34"/>
<path d="M36.5006 62.3575C35.7391 62.6521 35.0104 63.033 34.3211 63.4708C33.8453 63.7849 33.3462 64.1167 33.0534 64.6232C32.8732 64.9388 32.9074 65.3168 32.926 65.6657C32.3503 65.9148 31.7923 66.2045 31.2832 66.5726C30.4461 67.1579 29.6542 67.9088 29.3195 68.9034C29.0543 69.7093 29.0139 70.5671 28.9592 71.4079C28.8651 73.7005 28.7838 75.9936 28.6531 78.2847C28.5262 80.4421 28.4045 82.6009 28.2932 84.7601C28.6226 84.7836 28.9525 84.7769 29.282 84.7827C29.2796 83.8263 29.3167 82.8705 29.3675 81.9165C29.3984 80.4338 29.4973 78.9554 29.5367 77.4739C29.6827 75.1981 29.7887 72.9034 30.3049 70.6746C30.6315 69.3525 31.2318 68.0948 32.0856 67.0355C32.1735 66.907 32.3128 66.8373 32.4506 66.7814C32.1222 67.1108 31.8664 67.5016 31.6501 67.9137C30.9485 69.1305 30.6129 70.5162 30.3724 71.8902C29.8966 74.6965 29.8386 77.5499 29.7202 80.3886C29.6632 81.8518 29.618 83.3156 29.5786 84.7794C30.2018 84.7763 30.8245 84.7778 31.4467 84.7812C31.4362 83.6944 31.5199 82.6101 31.5413 81.523C31.6463 78.9838 31.7656 76.4445 31.961 73.9108C32.068 72.6646 32.183 71.4128 32.4616 70.1907C32.6455 69.3809 33.0177 68.633 33.4313 67.9192C33.1442 67.5761 32.7881 67.2995 32.4939 66.9634C32.8898 67.1698 33.233 67.458 33.5724 67.7446C33.8909 67.3343 34.1738 66.8874 34.5721 66.5492C34.3102 66.9982 33.9812 67.4039 33.7212 67.8545C35.5161 69.7423 36.7944 72.056 37.8468 74.4264C38.1377 75.0946 38.4234 75.7662 38.6525 76.4589C39.3256 75.9304 40.0025 75.4063 40.6903 74.898C40.2663 75.0058 39.8494 75.1594 39.405 75.1505C39.8375 74.7994 40.3424 74.5305 40.697 74.0897C40.919 73.8259 41.0473 73.4519 40.9137 73.1168C40.6946 72.48 40.2568 71.954 39.8898 71.3996C38.5855 69.5854 37.1879 67.8173 35.5209 66.3226C35.1758 65.9649 34.7489 65.6874 34.4537 65.2829C34.2203 64.9785 34.3263 64.5447 34.5455 64.2639C35.0089 63.6756 35.7077 63.3463 36.4074 63.1359C36.4359 62.8761 36.4602 62.6154 36.5006 62.3575Z" fill="#FF884D"/>
<path d="M43.5561 63.51C43.4045 63.2768 43.303 63.0121 43.1214 62.7993C43.0481 62.8915 42.9748 62.9865 42.8999 63.0802C43.2791 63.4071 43.5214 63.8733 43.936 64.1556C43.8408 63.9227 43.6911 63.7203 43.5561 63.51Z" fill="#BA4517"/>
<path d="M37.6967 80.5503C37.6557 80.9178 37.4918 81.2542 37.3981 81.6086C37.3049 81.9511 37.2139 82.2934 37.113 82.6331C36.9946 83.0153 36.9847 83.4335 36.7757 83.7855C36.5754 83.356 36.4114 82.8816 36.5137 82.4017C36.6199 81.9453 36.7911 81.4978 37.0518 81.1071C37.2112 80.8659 37.3927 80.6028 37.6967 80.5503ZM36.4083 63.1358C35.7085 63.3462 35.01 63.6756 34.5462 64.2638C34.3274 64.5446 34.2211 64.9784 34.4548 65.2828C34.7502 65.6873 35.1767 65.9648 35.5221 66.3225C37.1887 67.8172 38.5865 69.5853 39.8906 71.3995C40.2576 71.9539 40.6958 72.4799 40.9146 73.1166C41.0479 73.4518 40.92 73.8258 40.698 74.0895C40.3432 74.5304 39.8384 74.7993 39.4061 75.1503C39.8505 75.1592 40.2671 75.0056 40.6913 74.8979C40.0032 75.4061 39.3268 75.9303 38.6536 76.4587C38.8621 77.2567 39.1485 78.0351 39.2957 78.8478C39.085 78.0709 38.8887 77.2811 38.5257 76.5585C37.6548 77.29 36.574 77.6969 35.5099 78.0523C35.5121 79.1705 35.455 80.2969 35.2451 81.3977C35.2185 81.2802 35.1839 81.163 35.1857 81.0423C35.2726 78.8023 35.1794 76.5592 35.0731 74.3219C35.0411 73.9033 34.9965 73.4778 35.1186 73.07C35.1141 72.942 35.1064 72.815 35.097 72.6886C34.6944 74.9593 34.0581 77.1798 33.5051 79.4165C33.0971 81.1959 32.6688 82.9738 32.3734 84.7767C33.216 84.7639 34.059 84.7801 34.9006 84.7679C34.9704 84.06 35.0447 83.3526 35.1037 82.6447C35.2402 83.3414 35.3329 84.0487 35.4464 84.7511C38.2834 84.7899 41.1222 84.7599 43.9597 84.7673C43.9584 84.6473 43.9561 84.5292 43.953 84.411C43.9503 84.2889 43.948 84.1674 43.9449 84.0468C43.9295 83.508 43.9223 82.9683 43.9205 82.4292C43.9174 82.3135 43.9111 82.1972 43.9021 82.0821C43.8359 81.0085 43.803 79.933 43.7161 78.8606C43.6976 78.6438 43.6774 78.4262 43.6575 78.21C43.5688 77.311 43.5031 76.4053 43.309 75.5219C43.2878 75.4205 43.2644 75.3204 43.2374 75.2224C42.9258 74.1906 42.4381 73.2244 41.9166 72.2866C41.2074 71.0686 40.4526 69.8765 39.6137 68.7455C39.5511 68.6612 39.4907 68.5755 39.4263 68.4921C38.731 67.5613 38.0042 66.6544 37.2819 65.7441C36.9933 65.3921 36.719 65.027 36.4533 64.6564C36.0998 64.2137 36.3984 63.6368 36.4083 63.1358Z" fill="#F37435"/>
<path d="M41.934 64.1667C41.8225 64.0177 41.6846 63.8916 41.5388 63.7784C41.5494 64.08 41.5817 64.3819 41.6507 64.6765C42.1193 65.2064 42.5579 65.7617 42.9839 66.3265C43.0745 66.4464 43.1636 66.5661 43.2511 66.6876C43.9439 67.6739 44.6915 68.62 45.4134 69.5837C45.5029 69.7052 45.5857 69.8304 45.6696 69.9552C45.7725 70.1106 45.8804 70.2626 45.9849 70.4171C45.9616 70.0846 45.7717 69.8111 45.6058 69.5358C44.9594 68.3116 44.2036 67.1446 43.3646 66.045C42.9496 65.3725 42.4113 64.7922 41.934 64.1667Z" fill="#BA4517"/>
<path d="M42.9841 66.3266C42.5583 65.7619 42.1198 65.2066 41.6512 64.6767C41.5869 65.0423 41.3227 65.3177 41.0272 65.5192C40.3171 65.9972 39.4203 65.9982 38.596 66.0021C39.2768 66.2335 39.8382 66.7158 40.3715 67.1853C40.8092 67.5575 41.1113 68.0526 41.488 68.4809C41.7262 68.5035 41.9628 68.5246 42.201 68.5432C42.189 68.578 42.1655 68.6476 42.1544 68.6824C41.9966 68.7227 41.8391 68.7642 41.6796 68.8015C41.7699 69.0933 41.8643 69.3848 41.9244 69.6849C41.8828 69.7182 41.802 69.7844 41.7616 69.8177C41.7592 69.9099 41.8989 69.9026 41.9591 69.9398C41.9863 69.8622 42.0126 69.7853 42.0374 69.7084C42.9816 69.7521 43.9258 69.6794 44.87 69.6849C45.0571 69.6913 45.241 69.6501 45.4141 69.5839C44.692 68.6201 43.9444 67.6741 43.2515 66.6878C42.3807 66.801 41.5626 67.2354 40.6732 67.1884C41.3808 66.7564 42.208 66.5946 42.9841 66.3266Z" fill="#FCBD9E"/>
<path d="M38.5947 66.0021C38.1531 65.9407 37.7144 65.855 37.2803 65.7441C38.0022 66.6545 38.7292 67.5614 39.4246 68.4922C40.1096 68.4281 40.8004 68.4598 41.4866 68.4809C41.1101 68.0526 40.8079 67.5575 40.3701 67.1853C39.8368 66.7158 39.2759 66.2335 38.5947 66.0021Z" fill="#FFDBC7"/>
<path d="M43.2502 66.6877C43.1632 66.5662 43.0737 66.4465 42.983 66.3266C42.207 66.5946 41.3795 66.7564 40.6721 67.1884C41.5616 67.2354 42.3796 66.801 43.2502 66.6877Z" fill="#702105"/>
<path d="M34.5714 66.549C34.1728 66.8872 33.8905 67.3341 33.5712 67.7444C33.2319 67.4578 32.889 67.1696 32.4931 66.9632C32.7877 67.2993 33.1435 67.5759 33.4308 67.919C33.0171 68.6328 32.6445 69.3807 32.4607 70.1906C32.1825 71.4126 32.0671 72.6645 31.96 73.9106C31.7648 76.4444 31.6457 78.9836 31.5404 81.5229C31.5194 82.6099 31.4355 83.6943 31.446 84.781C31.5376 84.7792 31.6279 84.7792 31.7173 84.7792C31.9303 81.565 31.949 78.341 32.2309 75.1317C32.3472 73.6856 32.4949 72.2396 32.7521 70.8105C32.9245 69.8881 33.1886 68.9744 33.6109 68.1343C34.4441 69.0278 35.1155 70.0602 35.7535 71.1003C36.5229 72.3787 37.2184 73.7003 37.8687 75.0435C38.1196 75.5331 38.3184 76.0478 38.5237 76.5585C38.8871 77.2811 39.0832 78.0709 39.2939 78.8478C39.1466 78.0351 38.8602 77.2567 38.6518 76.4587C38.4224 75.766 38.1369 75.0945 37.8459 74.4262C36.7933 72.0558 35.5154 69.7421 33.7204 67.8543C33.9803 67.4038 34.3096 66.998 34.5714 66.549Z" fill="#FFCCB2"/>
<path d="M32.4512 66.7815C32.3137 66.8374 32.1743 66.907 32.0865 67.0355C31.2329 68.0948 30.6322 69.3525 30.3055 70.6746C29.7898 72.9034 29.6833 75.1981 29.5378 77.4739C29.4984 78.9554 29.3993 80.4338 29.3684 81.9165C29.3172 82.8705 29.2801 83.8263 29.2825 84.7827C29.382 84.7812 29.481 84.7803 29.5795 84.7794C29.619 83.3156 29.664 81.8518 29.7208 80.3887C29.8395 77.5499 29.8973 74.6966 30.3731 71.8902C30.6134 70.5162 30.9494 69.1306 31.651 67.9138C31.8669 67.5017 32.1231 67.1109 32.4512 66.7815Z" fill="#FFCCB2"/>
<path d="M35.7536 71.1004C35.1153 70.0604 34.4442 69.028 33.611 68.1344C33.1884 68.9746 32.9245 69.8882 32.7523 70.8108C32.4947 72.2397 32.3475 73.6858 32.2307 75.1319C31.949 78.3411 31.9304 81.5651 31.7173 84.7793C31.9363 84.7778 32.1544 84.7778 32.3715 84.7769C32.6669 82.9739 33.0953 81.196 33.5033 79.4166C34.0562 77.1799 34.6927 74.9594 35.0953 72.6888C35.1048 72.8152 35.1121 72.9421 35.1171 73.0701C35.3283 74.7225 35.4855 76.3853 35.5078 78.0523C36.5723 77.697 37.6532 77.2901 38.5237 76.5587C38.3188 76.048 38.1198 75.5333 37.8685 75.0437C37.2184 73.7004 36.5228 72.3789 35.7536 71.1004Z" fill="#F27436"/>
<path d="M42.2012 68.5432C41.963 68.5246 41.7263 68.5036 41.4881 68.481C41.4905 68.5457 41.4952 68.6751 41.498 68.7399C41.5429 68.7551 41.634 68.7859 41.6798 68.8015C41.8391 68.7643 41.9965 68.7228 42.1546 68.6825C42.1657 68.6477 42.1893 68.5781 42.2012 68.5432Z" fill="#702105" stroke="#702105" stroke-width="0.0637681"/>
<path d="M41.4871 68.4809C40.8008 68.4598 40.11 68.4281 39.4249 68.4922C39.4892 68.5755 39.5499 68.6613 39.6126 68.7456C40.2403 68.7462 40.8692 68.7364 41.4968 68.7398C41.4944 68.675 41.4895 68.5456 41.4871 68.4809Z" fill="#BA4517" stroke="#BA4517" stroke-width="0.0637681"/>
<path d="M41.678 68.8012C41.6321 68.7857 41.5412 68.7549 41.4962 68.7396C40.8682 68.7362 40.2399 68.746 39.612 68.7454C40.4506 69.8764 41.2055 71.0685 41.9147 72.2865C42.1529 71.5386 42.0778 70.7327 42.0263 69.9622L41.9573 69.9396C41.8976 69.9023 41.7576 69.9097 41.76 69.8175C41.8006 69.7842 41.8814 69.718 41.9228 69.6847C41.8631 69.3846 41.7681 69.0931 41.678 68.8012Z" fill="#FFDBC7"/>
<path d="M45.6692 69.9553C45.5854 69.8304 45.5024 69.7053 45.4131 69.5838C45.2401 69.65 45.0565 69.6912 44.8693 69.6848C43.925 69.6794 42.9811 69.752 42.0367 69.7083C42.0117 69.7853 41.9854 69.8622 41.958 69.9398L42.0269 69.9623C43.2399 70.0411 44.4578 70.0515 45.6692 69.9553Z" fill="#702105"/>
<path d="M45.6694 69.9553C44.458 70.0515 43.24 70.0411 42.0271 69.9623C42.0788 70.7328 42.1536 71.5387 41.9154 72.2866C42.4369 73.2244 42.9246 74.1906 43.2361 75.2224C43.7987 74.8503 44.4282 74.6042 45.0367 74.3234C45.6855 74.0401 46.3848 73.8969 47.0339 73.617C47.003 73.163 46.9321 72.7131 46.8533 72.2646C46.652 71.6093 46.335 71.003 45.9848 70.4172C45.8802 70.2627 45.7724 70.1107 45.6694 69.9553Z" fill="#FCBD9E"/>
<path d="M48.3579 83.2208C48.5106 83.6635 48.6087 84.1247 48.6933 84.5851C48.6627 84.7444 48.5074 84.6159 48.4957 84.5155C48.3874 84.0973 48.2339 83.6513 48.3579 83.2208ZM47.2293 73.4024C47.1079 73.0221 47.0587 72.6136 46.8537 72.2647C46.9325 72.7131 47.0032 73.1631 47.0346 73.617C47.0419 73.7147 47.0477 73.8136 47.0506 73.9132C47.1144 75.4053 47.0441 76.9039 46.8206 78.3817C46.7965 78.5411 46.7666 78.7004 46.737 78.8606C46.604 79.7517 46.3637 80.6306 46.3392 81.5351C46.3392 81.5855 46.3392 81.685 46.3392 81.7342C46.3779 82.6771 46.7265 83.5786 47.1666 84.4013C47.2093 84.4929 47.2479 84.586 47.2866 84.6797L47.3197 84.7536C48.9799 84.7722 50.6419 84.7801 52.3025 84.7527C51.5007 84.6217 50.6839 84.7145 49.8758 84.662C49.0634 82.5581 48.7134 80.3198 48.2725 78.1179C47.9287 76.5455 47.6446 74.9587 47.2293 73.4024Z" fill="#BA4517"/>
<path d="M35.1171 73.07C34.9945 73.4779 35.0393 73.9034 35.071 74.3219C35.1775 76.5593 35.271 78.8024 35.1841 81.0425C35.1823 81.163 35.2171 81.2803 35.2436 81.3978C35.4541 80.297 35.5111 79.1706 35.5085 78.0523C35.4863 76.3853 35.3289 74.7225 35.1171 73.07Z" fill="#702105"/>
<path d="M47.0347 73.6171C46.3851 73.897 45.6861 74.0402 45.0373 74.3235C44.4288 74.6043 43.7992 74.8504 43.2367 75.2225C43.2639 75.3205 43.2873 75.4206 43.3084 75.522C43.9492 75.2533 44.5496 74.9004 45.195 74.6455C45.7992 74.3632 46.4346 74.1623 47.0508 73.9132C47.0477 73.8137 47.042 73.7148 47.0347 73.6171Z" fill="#702105"/>
<path d="M47.0501 73.9131C46.4339 74.1622 45.7989 74.3631 45.1945 74.6455C44.5491 74.9004 43.9486 75.2533 43.3078 75.5219C43.5018 76.4054 43.5677 77.3111 43.6562 78.2101C44.7101 78.2758 45.764 78.3591 46.8202 78.3817C47.044 76.9039 47.1141 75.4053 47.0501 73.9131Z" fill="#FCBD9E"/>
</g>
</svg>
