<svg width="120" height="120" viewBox="0 0 120 120" fill="none" xmlns="http://www.w3.org/2000/svg">
<path fill-rule="evenodd" clip-rule="evenodd" d="M90 34.0868C90.0045 32.9913 89.5817 31.9627 88.8094 31.1904C88.0372 30.4182 87.0066 29.9961 85.9131 30C84.8207 30.0046 83.7923 30.4339 83.0173 31.2087C82.6892 31.5369 82.0924 32.2456 81.7659 32.639C81.423 33.0521 81.4797 33.665 81.8928 34.0077C82.3058 34.3506 82.9186 34.2939 83.2615 33.8808C83.7729 33.2649 84.1956 32.7799 84.3919 32.5835C84.8018 32.1736 85.3449 31.9465 85.9212 31.9441H85.9305C86.5002 31.9441 87.0343 32.1644 87.4348 32.5651C87.8376 32.9678 88.0582 33.5054 88.0558 34.0786C88.0533 34.6549 87.8262 35.1979 87.4164 35.6079C87.0495 35.9749 85.7883 36.9753 83.9814 38.2375C82.9126 36.4101 80.9302 35.179 78.6646 35.179H64.4306C62.5092 35.179 60.7029 35.9273 59.3441 37.2858L30.8921 65.7381C30.3169 66.3134 30 67.0782 30 67.8918C30 68.7053 30.3169 69.4703 30.8921 70.0454L49.9547 89.1079C50.5486 89.7017 51.3283 89.9986 52.1083 89.9986C52.8883 89.9986 53.6683 89.7016 54.262 89.1079L82.7142 60.6559C84.0727 59.2972 84.8209 57.4909 84.8209 55.5694V41.3355C84.8209 40.9154 84.7784 40.5052 84.6978 40.1085C86.7545 38.6932 88.2644 37.5093 88.791 36.9827C89.5661 36.2078 89.9954 35.1794 90 34.0868ZM82.8769 55.5694C82.8769 56.9716 82.3308 58.2898 81.3395 59.2811L52.8873 87.7334C52.458 88.1629 51.7588 88.1629 51.3293 87.7334L32.2668 68.6709C32.0588 68.4629 31.9441 68.1862 31.9441 67.8918C31.9441 67.5974 32.0587 67.3209 32.2668 67.1129L60.7188 38.6608C61.7104 37.6694 63.0285 37.1235 64.4305 37.1235H78.6644C80.2629 37.1235 81.6562 38.0184 82.3697 39.3335C81.2215 40.0938 79.9358 40.9023 78.5719 41.6973C78.5293 41.6506 78.4859 41.6045 78.4407 41.5593C76.8489 39.9675 74.2588 39.9675 72.6669 41.5593C71.075 43.1512 71.075 45.7413 72.6669 47.3332C73.4629 48.1291 74.5084 48.527 75.5538 48.527C76.5993 48.527 77.6448 48.1291 78.4407 47.3332C79.5033 46.2706 79.8554 44.7637 79.4996 43.4054C80.6859 42.7148 81.8251 42.009 82.8769 41.3261V41.3356V55.5694ZM75.5549 45.4187C75.1991 45.4187 74.8564 45.2228 74.6857 44.8833C74.4443 44.4037 74.6375 43.8193 75.1174 43.5783C75.6803 43.295 76.2387 43.0022 76.7888 42.7031C76.4201 42.4419 75.9878 42.309 75.5542 42.309C75.0065 42.309 74.4589 42.5174 74.042 42.9343C73.2082 43.7682 73.2082 45.1248 74.042 45.9587C74.8759 46.7925 76.2324 46.7925 77.0663 45.9587C77.4889 45.5361 77.6964 44.9795 77.6907 44.4246C77.1286 44.73 76.5608 45.0281 75.991 45.3147C75.8509 45.3853 75.7017 45.4187 75.5549 45.4187Z" fill="#6D3078"/>
<path d="M58.9643 49.7998C58.4274 49.7998 57.9922 50.2349 57.9922 50.7719V71.3006C57.9922 71.8375 58.4274 72.2727 58.9643 72.2727C59.5011 72.2727 59.9363 71.8375 59.9363 71.3006V50.7719C59.9363 50.2349 59.5011 49.7998 58.9643 49.7998Z" fill="#F37435"/>
<path fill-rule="evenodd" clip-rule="evenodd" d="M48.7455 58.1495C50.3372 56.5576 52.9274 56.5575 54.5191 58.1496C55.2903 58.9206 55.7151 59.9459 55.7151 61.0364C55.7151 62.127 55.2905 63.1521 54.5192 63.9233C53.7234 64.719 52.6778 65.1171 51.6325 65.1171C50.5869 65.1172 49.5416 64.7194 48.7455 63.9233C47.1537 62.3314 47.1537 59.7414 48.7455 58.1495ZM50.1202 62.5487C50.954 63.3825 52.3106 63.3826 53.1445 62.5487C53.5484 62.1448 53.7709 61.6078 53.771 61.0365C53.771 60.4652 53.5486 59.9283 53.1446 59.5243C52.7277 59.1074 52.18 58.899 51.6324 58.899C51.0848 58.899 50.5372 59.1074 50.1202 59.5243C49.2865 60.3583 49.2865 61.7148 50.1202 62.5487Z" fill="#F37435"/>
<path fill-rule="evenodd" clip-rule="evenodd" d="M63.4091 58.1495C65.0006 56.5576 67.5908 56.5575 69.1827 58.1495C70.7746 59.7414 70.7746 62.3315 69.1828 63.9233C68.387 64.7193 67.3415 65.1171 66.296 65.1171C65.2505 65.1171 64.2051 64.7193 63.4091 63.9233C61.8172 62.3315 61.8172 59.7414 63.4091 58.1495ZM64.7838 62.5487C65.6176 63.3825 66.9742 63.3826 67.8081 62.5487C68.642 61.7148 68.642 60.3583 67.8082 59.5243C67.3913 59.1074 66.8436 58.899 66.296 58.899C65.7484 58.899 65.2008 59.1074 64.7838 59.5243C63.95 60.3583 63.95 61.7148 64.7838 62.5487Z" fill="#F37435"/>
</svg>
