<svg width="120" height="120" viewBox="0 0 120 120" fill="none" xmlns="http://www.w3.org/2000/svg">
<path fill-rule="evenodd" clip-rule="evenodd" d="M79.3 33.75H69.8999L69.8975 33.7501C69.0392 32.6123 67.6744 31.875 66.14 31.875H63.7442C63.081 30.7315 61.849 30 60.5 30C59.151 30 57.919 30.7315 57.2558 31.875H54.86C53.3256 31.875 51.9608 32.6123 51.1025 33.7501L51.1 33.75H41.7C39.1084 33.75 37 35.8528 37 38.4375V85.3125C37 87.8972 39.1084 90 41.7 90H79.3C81.8916 90 84 87.8972 84 85.3125V38.4375C84 35.8528 81.8916 33.75 79.3 33.75ZM52.0401 36.5625C52.0401 35.0118 53.3052 33.75 54.8601 33.75H57.8528C58.2506 33.75 58.6053 33.5003 58.7385 33.1266C59.0053 32.378 59.7132 31.875 60.5001 31.875C61.287 31.875 61.9949 32.378 62.2617 33.1266C62.3949 33.5003 62.7496 33.75 63.1474 33.75H66.1401C67.695 33.75 68.9601 35.0118 68.9601 36.5625V39.375H52.0401V36.5625ZM79.3001 88.125C80.855 88.125 82.1201 86.8632 82.1201 85.3125V38.4375C82.1201 36.8868 80.855 35.625 79.3001 35.625H70.7455C70.8074 35.928 70.8401 36.2415 70.8401 36.5625V40.3125C70.8401 40.8302 70.4192 41.25 69.9001 41.25H51.1001C50.581 41.25 50.1601 40.8302 50.1601 40.3125V36.5625C50.1601 36.2415 50.1928 35.928 50.2547 35.625H41.7001C40.1452 35.625 38.8801 36.8868 38.8801 38.4375V85.3125C38.8801 86.8632 40.1452 88.125 41.7001 88.125H79.3001Z" fill="#6D3078"/>
<path d="M79.2999 37.5H73.6599C73.1408 37.5 72.7199 37.9198 72.7199 38.4375C72.7199 38.9552 73.1408 39.375 73.6599 39.375H78.3599V84.375H42.6399V39.375H47.3399C47.859 39.375 48.2799 38.9552 48.2799 38.4375C48.2799 37.9198 47.859 37.5 47.3399 37.5H41.6999C41.1808 37.5 40.7599 37.9198 40.7599 38.4375V85.3125C40.7599 85.8302 41.1808 86.25 41.6999 86.25H79.2999C79.819 86.25 80.2399 85.8302 80.2399 85.3125V38.4375C80.2399 37.9198 79.819 37.5 79.2999 37.5Z" fill="#6D3078"/>
<path d="M60.5001 33.75C60.2521 33.75 60.0101 33.8496 59.835 34.0242C59.6599 34.1988 59.5601 34.4402 59.5601 34.6875C59.5601 34.9336 59.6599 35.1762 59.835 35.3508C60.0101 35.5254 60.2521 35.625 60.5001 35.625C60.7468 35.625 60.99 35.5254 61.1651 35.3508C61.3402 35.1762 61.4401 34.9348 61.4401 34.6875C61.4401 34.4402 61.3402 34.1988 61.1651 34.0242C60.99 33.8495 60.7468 33.75 60.5001 33.75Z" fill="#6D3078"/>
<path d="M45.7355 51.8371C45.3683 52.2032 45.3683 52.7967 45.7355 53.1628L48.5555 55.9753C48.739 56.1584 48.9795 56.2499 49.2202 56.2499C49.4608 56.2499 49.7013 56.1584 49.8849 55.9753L54.5849 51.2878C54.9521 50.9217 54.9521 50.3282 54.5849 49.9621C54.2178 49.596 53.6227 49.596 53.2556 49.9621L49.2202 53.9866L47.0649 51.8371C46.6978 51.471 46.1025 51.471 45.7355 51.8371Z" fill="#F37435"/>
<path d="M54.5847 60.2746C54.2177 59.9085 53.6225 59.9085 53.2555 60.2746L49.2201 64.2991L47.0648 62.1496C46.6977 61.7835 46.1025 61.7835 45.7355 62.1496C45.3683 62.5157 45.3683 63.1092 45.7355 63.4753L48.5555 66.2878C48.739 66.4709 48.9795 66.5624 49.2202 66.5624C49.4608 66.5624 49.7013 66.4709 49.8849 66.2878L54.5849 61.6003C54.9518 61.2343 54.9518 60.6407 54.5847 60.2746Z" fill="#F37435"/>
<path d="M53.2554 70.5871L49.2201 74.6116L47.0648 72.4621C46.6977 72.096 46.1025 72.096 45.7355 72.4621C45.3683 72.8282 45.3683 73.4217 45.7355 73.7878L48.5555 76.6003C48.739 76.7834 48.9795 76.8749 49.2202 76.8749C49.4608 76.8749 49.7013 76.7834 49.8849 76.6003L54.5849 71.9128C54.9521 71.5467 54.9521 70.9532 54.5849 70.5871C54.2177 70.221 53.6224 70.221 53.2554 70.5871Z" fill="#F37435"/>
<path d="M58.6199 53.4375H74.5999C75.119 53.4375 75.5399 53.0177 75.5399 52.5C75.5399 51.9823 75.119 51.5625 74.5999 51.5625H58.6199C58.1008 51.5625 57.6799 51.9823 57.6799 52.5C57.6799 53.0177 58.1008 53.4375 58.6199 53.4375Z" fill="#F37435"/>
<path d="M58.6199 63.75H74.5999C75.119 63.75 75.5399 63.3302 75.5399 62.8125C75.5399 62.2948 75.119 61.875 74.5999 61.875H58.6199C58.1008 61.875 57.6799 62.2948 57.6799 62.8125C57.6799 63.3302 58.1008 63.75 58.6199 63.75Z" fill="#F37435"/>
<path d="M58.6199 74.0625H74.5999C75.119 74.0625 75.5399 73.6427 75.5399 73.125C75.5399 72.6073 75.119 72.1875 74.5999 72.1875H58.6199C58.1008 72.1875 57.6799 72.6073 57.6799 73.125C57.6799 73.6427 58.1008 74.0625 58.6199 74.0625Z" fill="#F37435"/>
</svg>
