<svg width="120" height="120" viewBox="0 0 120 120" fill="none" xmlns="http://www.w3.org/2000/svg">
<path fill-rule="evenodd" clip-rule="evenodd" d="M87.7767 63.5775C87.7767 64.0553 87.3879 64.4431 86.9101 64.4431H82.9191L82.7191 65.3031C82.1402 67.7886 81.1646 70.1474 79.8158 72.3152L79.3491 73.064L82.1702 75.8851C82.5091 76.224 82.5091 76.774 82.1702 77.1117L77.1114 82.1694C76.7736 82.5083 76.2236 82.5105 75.8848 82.1694L73.0637 79.3484L72.3148 79.8161C70.1482 81.165 67.7893 82.1417 65.3027 82.7194L64.4439 82.9194V86.9105C64.4439 87.3882 64.055 87.776 63.5772 87.776H56.4218C55.944 87.776 55.5551 87.3882 55.5551 86.9105V82.9194L54.6963 82.7194C52.2107 82.1405 49.8519 81.165 47.6842 79.8161L46.9353 79.3484L44.1142 82.1694C43.7742 82.5105 43.2243 82.5083 42.8876 82.1694L37.8288 77.1117C37.4899 76.7729 37.4899 76.2229 37.8288 75.8851L40.6499 73.064L40.1832 72.3152C38.8343 70.1485 37.8577 67.7897 37.2799 65.3031L37.0799 64.4431H33.0889C32.6111 64.4431 32.2222 64.0553 32.2222 63.5775V56.4221C32.2222 55.9444 32.6111 55.5555 33.0889 55.5555H37.0799L37.2799 54.6966C37.8588 52.21 38.8343 49.8511 40.1832 47.6845L40.6499 46.9356L37.8288 44.1146C37.4899 43.7757 37.4899 43.2257 37.8288 42.8879L42.8876 37.8291C43.2254 37.4914 43.7754 37.4891 44.1142 37.8291L46.9353 40.6502L47.6842 40.1835C49.8508 38.8347 52.2096 37.858 54.6963 37.2803L55.5551 37.0803V33.0892C55.5551 32.6114 55.944 32.2226 56.4218 32.2226H63.5761C64.055 32.2226 64.4439 32.6114 64.4439 33.0892V37.0803L65.3027 37.2803C67.7882 37.8591 70.1471 38.8347 72.3148 40.1835L73.0637 40.6502L75.8848 37.8291C76.2247 37.4891 76.7747 37.4914 77.1114 37.8291L82.1702 42.8879C82.5091 43.2268 82.5091 43.7768 82.1702 44.1146L79.3491 46.9356L79.8158 47.6845C81.1646 49.85 82.1413 52.2089 82.7191 54.6966L82.9191 55.5555H86.9101C87.3879 55.5555 87.7767 55.9444 87.7767 56.4221V63.5775ZM86.9101 53.3329H84.6679C84.0957 51.2085 83.2546 49.1752 82.1568 47.2697L83.7412 45.6853C84.3246 45.1019 84.6457 44.3253 84.6457 43.5009C84.6457 42.6753 84.3246 41.8998 83.7412 41.3153L78.6824 36.2566C77.5158 35.091 75.4814 35.0888 74.3125 36.2566L72.7281 37.841C70.8215 36.7443 68.7893 35.9032 66.666 35.331V33.0888C66.666 31.3855 65.2805 30 63.5772 30H56.4217C54.7184 30 53.3329 31.3855 53.3329 33.0888V35.331C51.2096 35.9032 49.1774 36.7443 47.2697 37.8421L45.6853 36.2577C44.5175 35.0888 42.482 35.091 41.3153 36.2577L36.2566 41.3165C35.6732 41.8998 35.3521 42.6764 35.3521 43.502C35.3521 44.3264 35.6732 45.1019 36.2566 45.6864L37.841 47.2708C36.7443 49.1752 35.9021 51.2085 35.331 53.3329H33.0888C31.3855 53.3329 30 54.7184 30 56.4217V63.576C30 65.2805 31.3855 66.6649 33.0888 66.6649H35.331C35.9032 68.7882 36.7443 70.8215 37.8421 72.7281L36.2577 74.3136C35.6743 74.8969 35.3532 75.6736 35.3532 76.498C35.3532 77.3236 35.6743 78.098 36.2577 78.6835L41.3165 83.7412C42.4831 84.9101 44.5186 84.9112 45.6864 83.7412L47.2708 82.1579C49.1785 83.2546 51.2107 84.0968 53.334 84.6679V86.9112C53.334 88.6145 54.7195 90 56.4228 90H63.5772C65.2805 90 66.666 88.6145 66.666 86.9112V84.6679C68.7893 84.0968 70.8215 83.2557 72.7292 82.1579L74.3136 83.7412C75.4825 84.9112 77.5158 84.909 78.6835 83.7412L83.7423 78.6835C84.3257 78.0991 84.6468 77.3236 84.6468 76.498C84.6468 75.6736 84.3257 74.8969 83.7423 74.3136L82.1579 72.7281C83.2546 70.8215 84.0968 68.7882 84.669 66.6649H86.9112C88.6145 66.6649 90 65.2805 90 63.5772V56.4217C89.9989 54.7184 88.6134 53.3329 86.9101 53.3329Z" fill="#6D3078"/>
<path fill-rule="evenodd" clip-rule="evenodd" d="M59.9995 68.8872C55.0984 68.8872 51.1107 64.8995 51.1107 59.9985C51.1107 55.0974 55.0984 51.1097 59.9995 51.1097C64.9005 51.1097 68.8882 55.0974 68.8882 59.9985C68.8882 64.8995 64.9005 68.8872 59.9995 68.8872ZM59.9993 48.8872C53.8728 48.8872 48.8884 53.8716 48.8884 59.9981C48.8884 66.1258 53.8728 71.109 59.9993 71.109C66.1259 71.109 71.1102 66.1258 71.1102 59.9981C71.1102 53.8716 66.1259 48.8872 59.9993 48.8872Z" fill="#F37435"/>
<path d="M59.9995 68.3872C55.3746 68.3872 51.6107 64.6233 51.6107 59.9985H50.6107C50.6107 65.1756 54.8223 69.3872 59.9995 69.3872V68.3872ZM51.6107 59.9985C51.6107 55.3736 55.3746 51.6097 59.9995 51.6097V50.6097C54.8223 50.6097 50.6107 54.8213 50.6107 59.9985H51.6107ZM59.9995 51.6097C64.6243 51.6097 68.3882 55.3736 68.3882 59.9985H69.3882C69.3882 54.8213 65.1766 50.6097 59.9995 50.6097V51.6097ZM68.3882 59.9985C68.3882 64.6233 64.6243 68.3872 59.9995 68.3872V69.3872C65.1766 69.3872 69.3882 65.1756 69.3882 59.9985H68.3882ZM59.9993 48.3872C53.5966 48.3872 48.3884 53.5954 48.3884 59.9981H49.3884C49.3884 54.1477 54.1489 49.3872 59.9993 49.3872V48.3872ZM48.3884 59.9981C48.3884 66.402 53.5967 71.609 59.9993 71.609V70.609C54.1489 70.609 49.3884 65.8496 49.3884 59.9981H48.3884ZM59.9993 71.609C66.402 71.609 71.6102 66.402 71.6102 59.9981H70.6102C70.6102 65.8496 65.8498 70.609 59.9993 70.609V71.609ZM71.6102 59.9981C71.6102 53.5954 66.402 48.3872 59.9993 48.3872V49.3872C65.8497 49.3872 70.6102 54.1477 70.6102 59.9981H71.6102Z" fill="#F37435"/>
</svg>
