<svg width="120" height="120" viewBox="0 0 120 120" fill="none" xmlns="http://www.w3.org/2000/svg">
<rect width="120" height="120" rx="20" fill="#FFF2F0"/>
<path fill-rule="evenodd" clip-rule="evenodd" d="M43.36 30H80.8C83.6673 30 86 32.243 86 35V81C86 83.446 84.1613 85.479 81.7443 85.908C81.2982 88.232 79.1838 90 76.64 90H39.2C36.3327 90 34 87.757 34 85V39C34 36.554 35.8387 34.521 38.2557 34.092C38.7018 31.768 40.8162 30 43.36 30ZM76.64 87.9997C78.3602 87.9997 79.76 86.6538 79.76 84.9997V44.9998H71.44C70.8659 44.9998 70.4 44.5528 70.4 43.9998V35.9998H39.2C37.4799 35.9998 36.08 37.3458 36.08 38.9998V84.9997C36.08 86.6538 37.4799 87.9997 39.2 87.9997H76.64ZM72.48 43.0001V37.4141L78.2894 43.0001H72.48ZM81.8402 83.8158C83.0476 83.4018 83.9202 82.3018 83.9202 80.9998V34.9998C83.9202 33.3458 82.5204 31.9998 80.8002 31.9998H43.3602C42.0061 31.9998 40.8621 32.8388 40.4315 33.9998H71.4402C71.7283 33.9998 71.9883 34.1118 72.1765 34.2938L81.5344 43.2918C81.7237 43.4728 81.8402 43.7228 81.8402 43.9998V83.8158Z" fill="#6D3078"/>
<path fill-rule="evenodd" clip-rule="evenodd" d="M43.4547 59.25C43.4547 51.3921 49.8163 45 57.6365 45C65.4568 45 71.8183 51.3921 71.8183 59.25C71.8183 67.1079 65.4568 73.5 57.6365 73.5C49.8163 73.5 43.4547 67.1079 43.4547 59.25ZM45.4807 59.2502C45.4807 65.9853 50.9336 71.4645 57.6365 71.4645C64.3395 71.4645 69.7924 65.9853 69.7924 59.2502C69.7924 52.515 64.3395 47.0359 57.6365 47.0359C50.9336 47.0359 45.4807 52.515 45.4807 59.2502Z" fill="#F37435"/>
<path d="M52.8972 64.4443L61.2174 52.4432L62.9483 53.5527L54.6281 65.5538L52.8972 64.4443Z" fill="#F37435"/>
<path fill-rule="evenodd" clip-rule="evenodd" d="M59.2122 61.5C59.2122 59.846 60.6261 58.5 62.3637 58.5C64.1012 58.5 65.5152 59.846 65.5152 61.5C65.5152 63.154 64.1012 64.5 62.3637 64.5C60.6261 64.5 59.2122 63.154 59.2122 61.5ZM61.3133 61.5C61.3133 62.052 61.785 62.5 62.3638 62.5C62.9426 62.5 63.4143 62.052 63.4143 61.5C63.4143 60.948 62.9426 60.5 62.3638 60.5C61.785 60.5 61.3133 60.948 61.3133 61.5Z" fill="#F37435"/>
<path fill-rule="evenodd" clip-rule="evenodd" d="M49.7577 55.5C49.7577 53.846 51.1717 52.5 52.9092 52.5C54.6467 52.5 56.0607 53.846 56.0607 55.5C56.0607 57.154 54.6467 58.5 52.9092 58.5C51.1717 58.5 49.7577 57.154 49.7577 55.5ZM51.8588 55.4998C51.8588 56.0518 52.3305 56.4998 52.9093 56.4998C53.4882 56.4998 53.9598 56.0518 53.9598 55.4998C53.9598 54.9478 53.4882 54.4998 52.9093 54.4998C52.3305 54.4998 51.8588 54.9478 51.8588 55.4998Z" fill="#F37435"/>
<path d="M64.0175 75L58.4112 80.1508L55.9825 77.9194L54.4849 79.2954L57.6624 82.2149C57.8689 82.4046 58.1401 82.5 58.4112 82.5C58.6824 82.5 58.9535 82.4046 59.1601 82.2149L65.5152 76.376L64.0175 75Z" fill="#F37435"/>
</svg>
