<svg width="120" height="120" viewBox="0 0 120 120" fill="none" xmlns="http://www.w3.org/2000/svg">
<rect width="120" height="120" rx="20" fill="#FFF2F0"/>
<path fill-rule="evenodd" clip-rule="evenodd" d="M47.8218 30H72.1794C75.114 30 77.5012 32.4142 77.5 35.3807V84.6205C77.5 87.587 75.1129 90 72.1782 90H47.8218C44.8871 90 42.5 87.587 42.5 84.6205V35.3795C42.5 32.413 44.8871 30 47.8218 30ZM74.4685 40.2344H45.5337V76.753H74.4685V40.2344ZM47.8217 33.0664H72.1781C73.4407 33.0664 74.4673 34.1041 74.4673 35.3804V37.1684H45.5337V35.3804C45.5337 34.1041 46.5603 33.0664 47.8217 33.0664ZM47.8218 86.9356H72.1794C73.4408 86.9356 74.4674 85.8966 74.4674 84.6215V79.8193H45.5326V84.6215C45.5326 85.8978 46.5592 86.9356 47.8218 86.9356Z" fill="#671773"/>
<path d="M77.5 35.3807L77.125 35.3806V35.3807H77.5ZM45.5337 40.2344V39.8594H45.1587V40.2344H45.5337ZM74.4685 40.2344H74.8435V39.8594H74.4685V40.2344ZM45.5337 76.753H45.1587V77.128H45.5337V76.753ZM74.4685 76.753V77.128H74.8435V76.753H74.4685ZM74.4673 37.1684V37.5434H74.8423V37.1684H74.4673ZM45.5337 37.1684H45.1587V37.5434H45.5337V37.1684ZM74.4674 79.8193H74.8424V79.4443H74.4674V79.8193ZM45.5326 79.8193V79.4443H45.1576V79.8193H45.5326ZM72.1794 29.625H47.8218V30.375H72.1794V29.625ZM77.875 35.3809C77.8763 32.211 75.325 29.625 72.1794 29.625V30.375C74.9031 30.375 77.1261 32.6174 77.125 35.3806L77.875 35.3809ZM77.875 84.6205V35.3807H77.125V84.6205H77.875ZM72.1782 90.375C75.3238 90.375 77.875 87.7903 77.875 84.6205H77.125C77.125 87.3837 74.9019 89.625 72.1782 89.625V90.375ZM47.8218 90.375H72.1782V89.625H47.8218V90.375ZM42.125 84.6205C42.125 87.7903 44.6762 90.375 47.8218 90.375V89.625C45.0981 89.625 42.875 87.3837 42.875 84.6205H42.125ZM42.125 35.3795V84.6205H42.875V35.3795H42.125ZM47.8218 29.625C44.6762 29.625 42.125 32.2097 42.125 35.3795H42.875C42.875 32.6163 45.0981 30.375 47.8218 30.375V29.625ZM45.5337 40.6094H74.4685V39.8594H45.5337V40.6094ZM45.9087 76.753V40.2344H45.1587V76.753H45.9087ZM74.4685 76.378H45.5337V77.128H74.4685V76.378ZM74.0935 40.2344V76.753H74.8435V40.2344H74.0935ZM72.1781 32.6914H47.8217V33.4414H72.1781V32.6914ZM74.8423 35.3804C74.8423 33.9009 73.6516 32.6914 72.1781 32.6914V33.4414C73.2298 33.4414 74.0923 34.3074 74.0923 35.3804H74.8423ZM74.8423 37.1684V35.3804H74.0923V37.1684H74.8423ZM45.5337 37.5434H74.4673V36.7934H45.5337V37.5434ZM45.1587 35.3804V37.1684H45.9087V35.3804H45.1587ZM47.8217 32.6914C46.3493 32.6914 45.1587 33.901 45.1587 35.3804H45.9087C45.9087 34.3073 46.7714 33.4414 47.8217 33.4414V32.6914ZM72.1794 86.5606H47.8218V87.3106H72.1794V86.5606ZM74.0924 84.6215C74.0924 85.6936 73.2297 86.5606 72.1794 86.5606V87.3106C73.652 87.3106 74.8424 86.0997 74.8424 84.6215H74.0924ZM74.0924 79.8193V84.6215H74.8424V79.8193H74.0924ZM45.5326 80.1943H74.4674V79.4443H45.5326V80.1943ZM45.9076 84.6215V79.8193H45.1576V84.6215H45.9076ZM47.8218 86.5606C46.7701 86.5606 45.9076 85.6945 45.9076 84.6215H45.1576C45.1576 86.1011 46.3483 87.3106 47.8218 87.3106V86.5606Z" fill="#FFF2F0"/>
<path d="M60.0005 80.9932C58.5515 80.9932 57.3691 82.1883 57.3691 83.6531C57.3691 85.1179 58.5515 86.313 60.0005 86.313C61.4496 86.313 62.6319 85.1179 62.6319 83.6531C62.6319 82.1883 61.4496 80.9932 60.0005 80.9932Z" fill="#671773"/>
<path d="M53.9175 35.8873H66.0833C66.5624 35.8873 66.9494 35.4948 66.9494 35.0117C66.9494 34.5275 66.5612 34.1362 66.0833 34.1362H53.9175C53.4384 34.1362 53.0514 34.5287 53.0514 35.0117C53.0502 35.4948 53.4384 35.8873 53.9175 35.8873Z" fill="#671773"/>
<path fill-rule="evenodd" clip-rule="evenodd" d="M60.4396 61.2324C63.2114 61.2324 65.8263 61.6749 67.8016 62.4801C69.9339 63.3484 71.1092 64.5651 71.1092 65.907V70.0305C71.1092 70.3346 70.8649 70.5816 70.564 70.5816H50.3152C50.0143 70.5816 49.77 70.3346 49.77 70.0305V65.907C49.77 64.5651 50.9453 63.3484 53.0776 62.4801C55.0529 61.6749 57.6678 61.2324 60.4396 61.2324ZM50.8602 69.4781H70.0175H70.0187V65.9069C70.0187 64.2167 66.0845 62.3345 60.4394 62.3345C54.7943 62.3345 50.8602 64.2179 50.8602 65.9069V69.4781Z" fill="#F37021"/>
<path d="M67.8016 62.4801L67.7072 62.7116L67.7073 62.7116L67.8016 62.4801ZM53.0776 62.4801L53.1719 62.7116L53.1719 62.7116L53.0776 62.4801ZM50.8602 69.4781H50.6102V69.7281H50.8602V69.4781ZM70.0187 69.4781V69.7281H70.2687V69.4781H70.0187ZM67.896 62.2486C65.8831 61.4282 63.2345 60.9824 60.4396 60.9824V61.4824C63.1884 61.4824 65.7694 61.9217 67.7072 62.7116L67.896 62.2486ZM71.3592 65.907C71.3592 64.4024 70.0487 63.1253 67.8959 62.2485L67.7073 62.7116C69.819 63.5716 70.8592 64.7278 70.8592 65.907H71.3592ZM71.3592 70.0305V65.907H70.8592V70.0305H71.3592ZM70.564 70.8316C71.0055 70.8316 71.3592 70.4702 71.3592 70.0305H70.8592C70.8592 70.1991 70.7243 70.3316 70.564 70.3316V70.8316ZM50.3152 70.8316H70.564V70.3316H50.3152V70.8316ZM49.52 70.0305C49.52 70.4702 49.8737 70.8316 50.3152 70.8316V70.3316C50.1549 70.3316 50.02 70.1991 50.02 70.0305H49.52ZM49.52 65.907V70.0305H50.02V65.907H49.52ZM52.9833 62.2485C50.8304 63.1253 49.52 64.4024 49.52 65.907H50.02C50.02 64.7278 51.0602 63.5716 53.1719 62.7116L52.9833 62.2485ZM60.4396 60.9824C57.6447 60.9824 54.996 61.4282 52.9832 62.2486L53.1719 62.7116C55.1097 61.9217 57.6908 61.4824 60.4396 61.4824V60.9824ZM70.0175 69.2281H50.8602V69.7281H70.0175V69.2281ZM70.0187 69.2281H70.0175V69.7281H70.0187V69.2281ZM69.7687 65.9069V69.4781H70.2687V65.9069H69.7687ZM60.4394 62.5845C63.2367 62.5845 65.5987 63.0512 67.2524 63.7187C68.0802 64.0528 68.7197 64.4329 69.1479 64.8209C69.5795 65.212 69.7687 65.5845 69.7687 65.9069H70.2687C70.2687 65.3842 69.9661 64.8876 69.4836 64.4504C68.9977 64.0101 68.3009 63.6027 67.4395 63.255C65.7149 62.5589 63.2873 62.0845 60.4394 62.0845V62.5845ZM51.1102 65.9069C51.1102 65.5848 51.2993 65.2125 51.7309 64.8214C52.1591 64.4335 52.7987 64.0533 53.6265 63.7191C55.2802 63.0515 57.6422 62.5845 60.4394 62.5845V62.0845C57.5916 62.0845 55.1639 62.5592 53.4393 63.2555C52.5779 63.6033 51.8811 64.0106 51.3952 64.4509C50.9128 64.888 50.6102 65.3845 50.6102 65.9069H51.1102ZM51.1102 69.4781V65.9069H50.6102V69.4781H51.1102Z" fill="#F37021"/>
<path fill-rule="evenodd" clip-rule="evenodd" d="M66.0304 53.5396C66.0304 56.6564 63.5218 59.1911 60.4396 59.1911C57.3563 59.1911 54.8488 56.6564 54.8488 53.5396C54.8488 50.4229 57.3574 47.8882 60.4396 47.8882C63.5229 47.8882 66.0304 50.4241 66.0304 53.5396ZM64.94 53.5415C64.94 51.0331 62.9211 48.9922 60.4395 48.9922C57.958 48.9922 55.939 51.0319 55.939 53.5415C55.939 56.05 57.958 58.0908 60.4395 58.0908C62.9211 58.0908 64.94 56.05 64.94 53.5415Z" fill="#F37021"/>
<path d="M60.4396 59.4411C63.6623 59.4411 66.2804 56.792 66.2804 53.5396H65.7804C65.7804 56.5209 63.3812 58.9411 60.4396 58.9411V59.4411ZM54.5988 53.5396C54.5988 56.7919 57.2157 59.4411 60.4396 59.4411V58.9411C57.4969 58.9411 55.0988 56.5209 55.0988 53.5396H54.5988ZM60.4396 47.6382C57.2169 47.6382 54.5988 50.2873 54.5988 53.5396H55.0988C55.0988 50.5584 57.498 48.1382 60.4396 48.1382V47.6382ZM66.2804 53.5396C66.2804 50.2886 63.6636 47.6382 60.4396 47.6382V48.1382C63.3823 48.1382 65.7804 50.5596 65.7804 53.5396H66.2804ZM60.4395 49.2422C62.7805 49.2422 64.69 51.1686 64.69 53.5415H65.19C65.19 50.8975 63.0617 48.7422 60.4395 48.7422V49.2422ZM56.189 53.5415C56.189 51.1674 58.0985 49.2422 60.4395 49.2422V48.7422C57.8174 48.7422 55.689 50.8963 55.689 53.5415H56.189ZM60.4395 57.8408C58.0986 57.8408 56.189 55.9144 56.189 53.5415H55.689C55.689 56.1855 57.8174 58.3408 60.4395 58.3408V57.8408ZM64.69 53.5415C64.69 55.9144 62.7805 57.8408 60.4395 57.8408V58.3408C63.0617 58.3408 65.19 56.1855 65.19 53.5415H64.69Z" fill="#F37021"/>
</svg>
