<svg width="30" height="16" viewBox="0 0 30 16" fill="none" xmlns="http://www.w3.org/2000/svg">
<rect width="30" height="16" rx="4" fill="#DB5E2B"/>
<path d="M11.1313 12H9.82129L6.21129 6.23H6.17129C6.17796 6.36333 6.18462 6.50667 6.19129 6.66C6.20462 6.81333 6.21462 6.97667 6.22129 7.15C6.22796 7.31667 6.23462 7.49 6.24129 7.67C6.24796 7.84333 6.25129 8.02 6.25129 8.2V12H5.27129V4.86H6.57129L10.1713 10.6H10.2013C10.1946 10.5 10.188 10.3767 10.1813 10.23C10.1746 10.0767 10.168 9.91333 10.1613 9.74C10.1613 9.56667 10.158 9.39 10.1513 9.21C10.1446 9.03 10.138 8.86 10.1313 8.7V4.86H11.1313V12ZM15.035 6.51C15.5083 6.51 15.915 6.61 16.255 6.81C16.595 7.00333 16.855 7.28333 17.035 7.65C17.2216 8.01667 17.315 8.45 17.315 8.95V9.53H13.695C13.7083 10.0833 13.8516 10.5067 14.125 10.8C14.405 11.0933 14.795 11.24 15.295 11.24C15.6416 11.24 15.9483 11.21 16.215 11.15C16.4883 11.0833 16.7683 10.9867 17.055 10.86V11.74C16.7883 11.86 16.515 11.95 16.235 12.01C15.9616 12.07 15.635 12.1 15.255 12.1C14.735 12.1 14.275 11.9967 13.875 11.79C13.475 11.5833 13.1616 11.2767 12.935 10.87C12.715 10.4567 12.605 9.95 12.605 9.35C12.605 8.74333 12.705 8.23 12.905 7.81C13.1116 7.39 13.395 7.07 13.755 6.85C14.1216 6.62333 14.5483 6.51 15.035 6.51ZM15.035 7.33C14.655 7.33 14.3483 7.45333 14.115 7.7C13.8883 7.94667 13.755 8.29667 13.715 8.75H16.255C16.255 8.47 16.2116 8.22333 16.125 8.01C16.0383 7.79667 15.905 7.63 15.725 7.51C15.545 7.39 15.315 7.33 15.035 7.33ZM22.0823 9.3C22.049 9.16667 22.009 9.02 21.9623 8.86C21.9223 8.7 21.8823 8.54 21.8423 8.38C21.8023 8.21333 21.7656 8.06 21.7323 7.92C21.699 7.78 21.6723 7.67 21.6523 7.59H21.6123C21.599 7.67 21.5756 7.78 21.5423 7.92C21.5156 8.06 21.4823 8.21333 21.4423 8.38C21.4023 8.54 21.3623 8.70333 21.3223 8.87C21.2823 9.03 21.239 9.17667 21.1923 9.31L20.3923 11.99H19.2123L17.7223 6.6H18.8023L19.5023 9.33C19.5556 9.51667 19.6023 9.71333 19.6423 9.92C19.689 10.1267 19.729 10.3267 19.7623 10.52C19.8023 10.7067 19.829 10.8633 19.8423 10.99H19.8823C19.8956 10.9033 19.9156 10.7967 19.9423 10.67C19.969 10.5367 19.9956 10.4 20.0223 10.26C20.0556 10.1133 20.0856 9.97333 20.1123 9.84C20.1456 9.70667 20.179 9.59667 20.2123 9.51L21.0723 6.6H22.2323L23.0723 9.51C23.1123 9.64333 23.1556 9.80333 23.2023 9.99C23.249 10.17 23.289 10.35 23.3223 10.53C23.3623 10.7033 23.389 10.8533 23.4023 10.98H23.4423C23.4556 10.8667 23.479 10.72 23.5123 10.54C23.5456 10.3533 23.5856 10.1533 23.6323 9.94C23.6856 9.72667 23.7356 9.52333 23.7823 9.33L24.5023 6.6H25.5723L24.0623 11.99H22.8523L22.0823 9.3Z" fill="white"/>
</svg>
