<?xml version="1.0" encoding="UTF-8"?>
<svg width="45px" height="56px" viewBox="0 0 45 56" version="1.1" xmlns="http://www.w3.org/2000/svg" xmlns:xlink="http://www.w3.org/1999/xlink">
    <!-- Generator: Sketch 63.1 (92452) - https://sketch.com -->
    <title>services_iconib</title>
    <desc>Created with Sketch.</desc>
    <g id="services_iconib" stroke="none" stroke-width="1" fill="none" fill-rule="evenodd">
        <g id="Service-Request" fill-rule="nonzero">
            <path d="M40.32,3.5 L31.359888,3.5 C31.359104,3.5 31.358432,3.50010937 31.357648,3.50010937 C30.539488,2.4381875 29.238608,1.75 27.776,1.75 L25.49232,1.75 C24.860192,0.68271875 23.685872,0 22.4,0 C21.114128,0 19.939808,0.68271875 19.30768,1.75 L17.024,1.75 C15.561392,1.75 14.260512,2.4381875 13.442352,3.50010938 C13.441568,3.50010938 13.440784,3.5 13.44,3.5 L4.48,3.5 C2.009728,3.5 0,5.462625 0,7.875 L0,51.625 C0,54.037375 2.009728,56 4.48,56 L40.32,56 C42.790272,56 44.8,54.037375 44.8,51.625 L44.8,7.875 C44.8,5.462625 42.790272,3.5 40.32,3.5 Z M14.336,6.125 C14.336,4.67764062 15.541904,3.5 17.024,3.5 L19.87664,3.5 C20.25576,3.5 20.593888,3.26692187 20.720896,2.918125 C20.975136,2.2194375 21.649936,1.75 22.4,1.75 C23.150064,1.75 23.824864,2.2194375 24.079104,2.918125 C24.206112,3.26692187 24.54424,3.5 24.92336,3.5 L27.776,3.5 C29.258096,3.5 30.464,4.67764062 30.464,6.125 L30.464,8.75 L14.336,8.75 L14.336,6.125 Z M43.008,51.625 C43.008,53.0723593 41.802096,54.25 40.32,54.25 L4.48,54.25 C2.997904,54.25 1.792,53.0723593 1.792,51.625 L1.792,7.875 C1.792,6.42764062 2.997904,5.25 4.48,5.25 L12.63416,5.25 C12.575136,5.53284375 12.544,5.82542188 12.544,6.125 L12.544,9.625 C12.544,10.1082187 12.945184,10.5 13.44,10.5 L31.36,10.5 C31.854816,10.5 32.256,10.1082187 32.256,9.625 L32.256,6.125 C32.256,5.82542188 32.224864,5.53284375 32.16584,5.25 L40.32,5.25 C41.802096,5.25 43.008,6.42764062 43.008,7.875 L43.008,51.625 Z" id="Shape" fill="#6D3078"></path>
            <path d="M40.32,7 L34.944,7 C34.449184,7 34.048,7.39178125 34.048,7.875 C34.048,8.35821875 34.449184,8.75 34.944,8.75 L39.424,8.75 L39.424,50.75 L5.376,50.75 L5.376,8.75 L9.856,8.75 C10.350816,8.75 10.752,8.35821875 10.752,7.875 C10.752,7.39178125 10.350816,7 9.856,7 L4.48,7 C3.985184,7 3.584,7.39178125 3.584,7.875 L3.584,51.625 C3.584,52.1082188 3.985184,52.5 4.48,52.5 L40.32,52.5 C40.814816,52.5 41.216,52.1082188 41.216,51.625 L41.216,7.875 C41.216,7.39178125 40.814816,7 40.32,7 Z" id="Path" fill="#6D3078"></path>
            <path d="M22.4,3.5 C22.16368,3.5 21.93296,3.59296875 21.76608,3.7559375 C21.5992,3.91890625 21.504,4.14421875 21.504,4.375 C21.504,4.6046875 21.5992,4.83109375 21.76608,4.9940625 C21.93296,5.15703125 22.16368,5.25 22.4,5.25 C22.6352,5.25 22.86704,5.15703125 23.03392,4.9940625 C23.2008,4.83109375 23.296,4.60578125 23.296,4.375 C23.296,4.14421875 23.2008,3.91890625 23.03392,3.7559375 C22.86704,3.59285937 22.6352,3.5 22.4,3.5 Z" id="Path" fill="#6D3078"></path>
            <path d="M8.326416,20.3812657 C7.976416,20.7229532 7.976416,21.2769375 8.326416,21.618625 L11.014416,24.243625 C11.18936,24.4144687 11.418624,24.4998907 11.648,24.4998907 C11.877376,24.4998907 12.10664,24.4144687 12.281584,24.243625 L16.761584,19.868625 C17.111584,19.5269375 17.111584,18.9729532 16.761584,18.6312657 C16.411696,18.2895782 15.844416,18.2895782 15.494528,18.6312657 L11.648,22.3875312 L9.593584,20.3812657 C9.243696,20.0395782 8.676304,20.0395782 8.326416,20.3812657 Z" id="Path" fill="#F37435"></path>
            <path d="M16.761584,28.2562657 C16.411696,27.9145782 15.844416,27.9145782 15.494528,28.2562657 L11.648,32.0125312 L9.593584,30.0062657 C9.243696,29.6645782 8.676416,29.6645782 8.326528,30.0062657 C7.976528,30.3479532 7.976528,30.9019375 8.326528,31.243625 L11.014528,33.868625 C11.189472,34.0394687 11.418736,34.1248907 11.648112,34.1248907 C11.877488,34.1248907 12.106752,34.0394687 12.281696,33.868625 L16.761696,29.493625 C17.111472,29.1520468 17.111472,28.5979532 16.761584,28.2562657 Z" id="Path" fill="#F37435"></path>
            <path d="M15.494416,37.8812657 L11.648,41.6375312 L9.593584,39.6312657 C9.243696,39.2895782 8.676416,39.2895782 8.326528,39.6312657 C7.976528,39.9729532 7.976528,40.5269375 8.326528,40.868625 L11.014528,43.493625 C11.189472,43.6644687 11.418736,43.7498907 11.648112,43.7498907 C11.877488,43.7498907 12.106752,43.6644687 12.281696,43.493625 L16.761696,39.118625 C17.111696,38.7769375 17.111696,38.2229532 16.761696,37.8812657 C16.411696,37.5395782 15.844304,37.5395782 15.494416,37.8812657 Z" id="Path" fill="#F37435"></path>
            <path d="M20.608,21.875 L35.84,21.875 C36.334816,21.875 36.736,21.4832188 36.736,21 C36.736,20.5167812 36.334816,20.125 35.84,20.125 L20.608,20.125 C20.113184,20.125 19.712,20.5167812 19.712,21 C19.712,21.4832188 20.113184,21.875 20.608,21.875 Z" id="Path" fill="#F37435"></path>
            <path d="M20.608,31.5 L35.84,31.5 C36.334816,31.5 36.736,31.1082188 36.736,30.625 C36.736,30.1417812 36.334816,29.75 35.84,29.75 L20.608,29.75 C20.113184,29.75 19.712,30.1417812 19.712,30.625 C19.712,31.1082188 20.113184,31.5 20.608,31.5 Z" id="Path" fill="#F37435"></path>
            <path d="M20.608,41.125 L35.84,41.125 C36.334816,41.125 36.736,40.7332188 36.736,40.25 C36.736,39.7667812 36.334816,39.375 35.84,39.375 L20.608,39.375 C20.113184,39.375 19.712,39.7667812 19.712,40.25 C19.712,40.7332188 20.113184,41.125 20.608,41.125 Z" id="Path" fill="#F37435"></path>
        </g>
    </g>
</svg>