<?xml version="1.0" encoding="UTF-8"?>
<svg width="24px" height="24px" viewBox="0 0 24 24" version="1.1" xmlns="http://www.w3.org/2000/svg" xmlns:xlink="http://www.w3.org/1999/xlink">
    <!-- Generator: Sketch 58 (84663) - https://sketch.com -->
    <title>settings_fill_icon</title>
    <desc>Created with Sketch.</desc>
    <g id="Symbols" stroke="none" stroke-width="1" fill="none" fill-rule="evenodd">
        <g id="Side-Bar-Menu" transform="translate(-52.000000, -1066.000000)" fill="#6D3078" fill-rule="nonzero" stroke="#6D3078" stroke-width="0.25">
            <g id="sidebar">
                <g>
                    <g id="Group-17" transform="translate(0.000000, 29.000000)">
                        <g id="Group-6" transform="translate(53.000000, 1032.000000)">
                            <g id="settings_solid" transform="translate(0.000000, 5.500000)">
                                <path d="M7.32421875,7.265625 C8.41797422,6.17186953 9.74608594,5.625 11.3085938,5.625 C12.8711016,5.625 14.1992133,6.17186953 15.2929688,7.265625 C16.3867242,8.35938047 16.9335938,9.68749219 16.9335938,11.25 C16.9335938,12.8125078 16.3867242,14.1406195 15.2929688,15.234375 C14.1992133,16.3281305 12.8711016,16.875 11.3085938,16.875 C9.74608594,16.875 8.41797422,16.3281305 7.32421875,15.234375 C6.23046328,14.1406195 5.68359375,12.8125078 5.68359375,11.25 C5.68359375,9.68749219 6.23046328,8.35938047 7.32421875,7.265625 Z M7.96875,14.5898438 C8.90625469,15.4882857 10.0195248,15.9375 11.3085938,15.9375 C12.5976627,15.9375 13.7011673,15.4785202 14.6191406,14.5605469 C15.537114,13.6425735 15.9960938,12.5390689 15.9960938,11.25 C15.9960938,9.96093105 15.537114,8.85742646 14.6191406,7.93945312 C13.7011673,7.02147979 12.5976627,6.5625 11.3085938,6.5625 C10.0195248,6.5625 8.91602021,7.02147979 7.99804688,7.93945312 C7.08007354,8.85742646 6.62109375,9.96093105 6.62109375,11.25 C6.62109375,12.5390689 7.07030801,13.6523391 7.96875,14.5898438 Z M8.0859375,1.11328125 C7.49999707,1.30859473 6.91406543,1.54296738 6.328125,1.81640625 C6.40625039,2.12890781 6.40625039,2.59765313 6.328125,3.22265625 C6.21093691,4.00391016 5.85937793,4.68749707 5.2734375,5.2734375 C4.53124629,6.01562871 3.63281777,6.38671875 2.578125,6.38671875 C2.22656074,6.38671875 1.97265703,6.3671877 1.81640625,6.328125 C1.54296738,6.91406543 1.30859473,7.49999707 1.11328125,8.0859375 C1.42578281,8.28125098 1.75781074,8.61328125 2.109375,9.08203125 C2.57812734,9.70703437 2.8125,10.4296834 2.8125,11.25 C2.8125,12.0312539 2.57812734,12.7539029 2.109375,13.4179688 C1.75781074,13.8867211 1.42578281,14.218749 1.11328125,14.4140625 C1.30859473,15.0000029 1.54296738,15.5859346 1.81640625,16.171875 C1.97265703,16.1328123 2.22656074,16.1132812 2.578125,16.1132812 C3.63281777,16.1132812 4.53124629,16.4843713 5.2734375,17.2265625 C5.85937793,17.8125029 6.21093691,18.4960898 6.328125,19.2773438 C6.40625039,19.9023469 6.40625039,20.3710922 6.328125,20.6835938 C6.91406543,20.9570326 7.49999707,21.1914053 8.0859375,21.3867188 C8.28125098,21.0742172 8.61328125,20.7421893 9.08203125,20.390625 C9.74609707,19.9218727 10.4687461,19.6875 11.25,19.6875 C12.0703166,19.6875 12.7929656,19.9218727 13.4179688,20.390625 C13.8867211,20.7421893 14.218749,21.0742172 14.4140625,21.3867188 C15.0000029,21.1914053 15.5859346,20.9570326 16.171875,20.6835938 C16.0937496,20.3710922 16.0937496,19.9023469 16.171875,19.2773438 C16.2890631,18.4960898 16.6406221,17.8125029 17.2265625,17.2265625 C17.9687537,16.4843713 18.8671822,16.1132812 19.921875,16.1132812 C20.2734393,16.1132812 20.527343,16.1328123 20.6835938,16.171875 C20.9570326,15.5859346 21.1914053,15.0000029 21.3867188,14.4140625 C21.0742172,14.218749 20.7421893,13.8867211 20.390625,13.4179688 C19.9218727,12.7539029 19.6875,12.0312539 19.6875,11.25 C19.6875,10.4296834 19.9218727,9.70703437 20.390625,9.08203125 C20.7421893,8.61328125 21.0742172,8.28125098 21.3867188,8.0859375 C21.1914053,7.49999707 20.9570326,6.91406543 20.6835938,6.328125 C20.527343,6.3671877 20.2734393,6.38671875 19.921875,6.38671875 C18.8671822,6.38671875 17.9687537,6.01562871 17.2265625,5.2734375 C16.6406221,4.68749707 16.2890631,4.00391016 16.171875,3.22265625 C16.0937496,2.59765313 16.0937496,2.12890781 16.171875,1.81640625 C15.5859346,1.54296738 15.0000029,1.30859473 14.4140625,1.11328125 C14.218749,1.42578281 13.8867211,1.75781074 13.4179688,2.109375 C12.7929656,2.57812734 12.0703166,2.8125 11.25,2.8125 C10.4687461,2.8125 9.74609707,2.57812734 9.08203125,2.109375 C8.61328125,1.75781074 8.28125098,1.42578281 8.0859375,1.11328125 Z M13.9453125,0 C15.1953187,0.312501563 16.3085889,0.781246875 17.2851562,1.40625 C16.7382785,2.61719355 16.9335891,3.69140156 17.8710938,4.62890625 C18.4179715,5.17578398 19.1015584,5.44921875 19.921875,5.44921875 C20.3906273,5.44921875 20.7812484,5.37109453 21.09375,5.21484375 C21.7187531,6.19141113 22.1874984,7.30468125 22.5,8.5546875 C21.2499938,9.02343984 20.625,9.92186836 20.625,11.25 C20.625,12.5781316 21.2499938,13.4765602 22.5,13.9453125 C22.1874984,15.1953187 21.7187531,16.3085889 21.09375,17.2851562 C20.7812484,17.1289055 20.3906273,17.0507812 19.921875,17.0507812 C19.1015584,17.0507812 18.4179715,17.324216 17.8710938,17.8710938 C16.9335891,18.8085984 16.7382785,19.8828064 17.2851562,21.09375 C16.3085889,21.7187531 15.1953187,22.1874984 13.9453125,22.5 C13.4765602,21.2499938 12.5781316,20.625 11.25,20.625 C9.92186836,20.625 9.02343984,21.2499938 8.5546875,22.5 C7.30468125,22.1874984 6.19141113,21.7187531 5.21484375,21.09375 C5.76172148,19.8828064 5.56641094,18.8085984 4.62890625,17.8710938 C4.08202852,17.324216 3.3984416,17.0507812 2.578125,17.0507812 C2.10937266,17.0507812 1.71875156,17.1289055 1.40625,17.2851562 C0.781246875,16.3085889 0.312501563,15.1953187 0,13.9453125 C1.25000625,13.4765602 1.875,12.5781316 1.875,11.25 C1.875,9.92186836 1.25000625,9.02343984 0,8.5546875 C0.312501563,7.30468125 0.781246875,6.19141113 1.40625,5.21484375 C1.71875156,5.37109453 2.10937266,5.44921875 2.578125,5.44921875 C3.3984416,5.44921875 4.08202852,5.17578398 4.62890625,4.62890625 C5.56641094,3.69140156 5.76172148,2.61719355 5.21484375,1.40625 C6.19141113,0.781246875 7.30468125,0.312501563 8.5546875,0 C9.02343984,1.25000625 9.92186836,1.875 11.25,1.875 C12.5781316,1.875 13.4765602,1.25000625 13.9453125,0 Z" id=""></path>
                            </g>
                        </g>
                    </g>
                </g>
            </g>
        </g>
    </g>
</svg>