<?xml version="1.0" encoding="UTF-8"?>
<svg width="49px" height="60px" viewBox="0 0 49 60" version="1.1" xmlns="http://www.w3.org/2000/svg" xmlns:xlink="http://www.w3.org/1999/xlink">
    <!-- Generator: Sketch 53.2 (72643) - https://sketchapp.com -->
    <title>tax-icon</title>
    <desc>Created with Sketch.</desc>
    <g id="Dashboard" stroke="none" stroke-width="1" fill="none" fill-rule="evenodd">
        <g id="02" transform="translate(-772.000000, -710.000000)" fill-rule="nonzero">
            <g id="tax-icon" transform="translate(772.000000, 710.000000)">
                <path d="M44.1,0 L8.82,0 C6.42292,0 4.43058,1.768 4.01016,4.092 C1.73264,4.521 0,6.554 0,9 L0,55 C0,57.757 2.19814,60 4.9,60 L40.18,60 C42.57708,60 44.56942,58.232 44.98984,55.908 C47.26736,55.479 49,53.446 49,51 L49,5 C49,2.243 46.80186,0 44.1,0 Z M43.12,55 C43.12,56.654 41.80092,58 40.18,58 L4.9,58 C3.27908,58 1.96,56.654 1.96,55 L1.96,9 C1.96,7.346 3.27908,6 4.9,6 L34.3,6 L34.3,14 C34.3,14.553 34.73904,15 35.28,15 L43.12,15 L43.12,55 Z M36.26,13 L36.26,7.414 L41.73428,13 L36.26,13 Z M47.04,51 C47.04,52.302 46.21778,53.402 45.08,53.816 L45.08,14 C45.08,13.723 44.97024,13.473 44.79188,13.292 L35.97384,4.294 C35.79646,4.112 35.55146,4 35.28,4 L6.06032,4 C6.46604,2.839 7.54404,2 8.82,2 L44.1,2 C45.72092,2 47.04,3.346 47.04,5 L47.04,51 Z" id="Shape" fill="#6D3078"></path>
                <path d="M22.54,15 C14.9744,15 8.82,21.28 8.82,29 C8.82,36.72 14.9744,43 22.54,43 C30.1056,43 36.26,36.72 36.26,29 C36.26,21.28 30.1056,15 22.54,15 Z M22.54,41 C16.05534,41 10.78,35.617 10.78,29 C10.78,22.383 16.05534,17 22.54,17 C29.02466,17 34.3,22.383 34.3,29 C34.3,35.617 29.02466,41 22.54,41 Z" id="Shape" fill="#F37435"></path>
                <polygon id="Rectangle" fill="#F37435" transform="translate(22.542656, 28.998438) rotate(-56.311522) translate(-22.542656, -28.998438) " points="15.3846525 28.0787494 29.7191216 27.945615 29.7006585 29.9181263 15.3661895 30.0512607"></polygon>
                <path d="M27.44,29 C25.81908,29 24.5,30.346 24.5,32 C24.5,33.654 25.81908,35 27.44,35 C29.06092,35 30.38,33.654 30.38,32 C30.38,30.346 29.06092,29 27.44,29 Z M27.44,33 C26.90002,33 26.46,32.552 26.46,32 C26.46,31.448 26.90002,31 27.44,31 C27.97998,31 28.42,31.448 28.42,32 C28.42,32.552 27.97998,33 27.44,33 Z" id="Shape" fill="#F37435"></path>
                <path d="M17.64,23 C16.01908,23 14.7,24.346 14.7,26 C14.7,27.654 16.01908,29 17.64,29 C19.26092,29 20.58,27.654 20.58,26 C20.58,24.346 19.26092,23 17.64,23 Z M17.64,27 C17.10002,27 16.66,26.552 16.66,26 C16.66,25.448 17.10002,25 17.64,25 C18.17998,25 18.62,25.448 18.62,26 C18.62,26.552 18.17998,27 17.64,27 Z" id="Shape" fill="#F37435"></path>
                <path d="M27.72714,44.293 L22.54,49.586 L20.29286,47.293 L18.90714,48.707 L21.84714,51.707 C22.03824,51.902 22.28912,52 22.54,52 C22.79088,52 23.04176,51.902 23.23286,51.707 L29.11286,45.707 L27.72714,44.293 Z" id="Path" fill="#F37435"></path>
            </g>
        </g>
    </g>
</svg>