<?xml version="1.0" encoding="UTF-8"?>
<svg width="31px" height="26px" viewBox="0 0 31 26" version="1.1" xmlns="http://www.w3.org/2000/svg" xmlns:xlink="http://www.w3.org/1999/xlink">
    <!-- Generator: Sketch 58 (84663) - https://sketch.com -->
    <title>transfer_fill_icon</title>
    <desc>Created with Sketch.</desc>
    <g id="Symbols" stroke="none" stroke-width="1" fill="none" fill-rule="evenodd">
        <g id="Side-Bar-Menu" transform="translate(-52.000000, -222.000000)" stroke="#6D3078">
            <g id="sidebar">
                <g>
                    <g id="Group-17" transform="translate(0.000000, 29.000000)">
                        <g id="money-transfer-icon" transform="translate(53.000000, 190.000000)">
                            <g id="transfer_solid" transform="translate(0.000000, 4.000000)">
                                <g id="4">
                                    <polyline id="Path" stroke-linecap="round" stroke-linejoin="round" points="29.4840295 2.23457908 29.4840295 9.683176 22.1130221 9.683176"></polyline>
                                    <polyline id="Path" stroke-linecap="round" stroke-linejoin="round" points="0 21.6009311 0 14.1523342 7.37100737 14.1523342"></polyline>
                                    <path d="M3.36385973,7.94710796 C4.74542993,4.08853723 8.0334159,1.20030177 12.0727541,0.297033424 C16.1120924,-0.60623492 20.3378702,0.601788443 23.2655796,3.4967271 L29.4840295,9.27162607 M0,14.5696985 L6.21844985,20.3445975 C9.14615924,23.2395361 13.3719371,24.4475595 17.4112753,23.5442912 C21.4506136,22.6410228 24.7385995,19.7527874 26.1201698,15.8942166" id="Shape" stroke-linecap="round" stroke-linejoin="round"></path>
                                    <path d="M18.4261658,10.3781501 L16.7810881,10.3781501 C16.6871762,9.45369849 16.1981865,8.59527917 15.482513,8.06702112 L18.4261658,8.06702112 C18.6042746,8.06702112 18.75,7.91844855 18.75,7.73685984 C18.75,7.55527114 18.6042746,7.40669856 18.4261658,7.40669856 L11.5738342,7.40669856 C11.3957254,7.40669856 11.25,7.55527114 11.25,7.73685984 C11.25,7.91844855 11.3957254,8.06702112 11.5738342,8.06702112 L13.5362694,8.06702112 C14.8704663,8.06702112 15.9715026,9.09052109 16.1301813,10.3781501 L11.5738342,10.3781501 C11.3957254,10.3781501 11.25,10.5267227 11.25,10.7083114 C11.25,10.8899001 11.3957254,11.0384726 11.5738342,11.0384726 L16.1301813,11.0384726 C15.9682642,12.3756258 14.8542746,13.3793161 13.5362694,13.3826177 L11.5770725,13.3826177 C11.3957254,13.3859193 11.25,13.5377935 11.2532383,13.7226838 C11.2532383,13.8118274 11.2920984,13.8976693 11.3536269,13.9604 L16.2532383,18.6850079 C16.382772,18.8104691 16.5867876,18.8038659 16.7098446,18.6718014 C16.8329016,18.5364353 16.8264249,18.3284337 16.6968912,18.1996708 L12.386658,14.0429403 L13.5330311,14.0429403 C15.2234456,14.0429403 16.619171,12.7222952 16.7810881,11.0384726 L18.4261658,11.0384726 C18.6042746,11.0384726 18.75,10.8899001 18.75,10.7083114 C18.75,10.5267227 18.6042746,10.3781501 18.4261658,10.3781501 Z" id="Path" stroke-width="0.4" fill="#6D3078" fill-rule="nonzero"></path>
                                </g>
                            </g>
                        </g>
                    </g>
                </g>
            </g>
        </g>
    </g>
</svg>