<?xml version="1.0" encoding="UTF-8"?>
<svg width="44px" height="56px" viewBox="0 0 44 56" version="1.1" xmlns="http://www.w3.org/2000/svg" xmlns:xlink="http://www.w3.org/1999/xlink">
    <!-- Generator: Sketch 63.1 (92452) - https://sketch.com -->
    <title>videobank</title>
    <desc>Created with Sketch.</desc>
    <g id="videobank" stroke="none" stroke-width="1" fill="none" fill-rule="evenodd">
        <g id="Video-Banking-Copy" transform="translate(6.000000, 0.000000)" fill-rule="nonzero">
            <g id="Group">
                <g fill="#671773">
                    <path d="M27.8672835,0.957547556 L5.05944615,0.957547556 C2.31150062,0.957547556 0.850768181,2.26888889 0.850768181,5.03222222 L0.850768181,50.9 C0.850768181,53.6633333 2.31150062,54.980009 5.05944615,54.980009 C18.4319708,54.980009 26.0342149,54.980009 27.8661786,54.980009 C30.6141241,54.980009 31.8389875,54.6008809 31.8389875,51.8375476 C31.8381956,22.4762196 31.8381956,6.87444444 31.8389875,5.03222222 C31.8400095,2.26888889 30.6152291,0.957547556 27.8672835,0.957547556 Z M2.91699887,9.55333333 L30.0108357,9.55333333 L30.0108357,44.5533333 L2.91699887,44.5533333 L2.91699887,9.55333333 Z M5.05944615,2.87666667 L27.8661786,2.87666667 C29.0484471,2.87666667 30.0097308,4.1162712 30.0097308,5.6408423 L30.0097308,7.77666667 L2.91699887,7.77666667 L2.91699887,5.6408423 C2.91699887,4.1162712 3.87828259,2.87666667 5.05944615,2.87666667 Z M27.8672835,53.0566667 L5.05944615,53.0566667 C3.87717767,53.0566667 2.91589395,52.09 2.91589395,50.9011111 L2.91589395,46.4277778 L30.0097308,46.4277778 L30.0097308,50.9011111 C30.0097308,52.0888889 29.0484471,53.0566667 27.8672835,53.0566667 Z" id="Shape"></path>
                    <path d="M16,47.6 C14.8507701,47.6 13.9130435,48.5435874 13.9130435,49.7 C13.9130435,50.8564126 14.8507701,51.8 16,51.8 C17.1492299,51.8 18.0869565,50.8564126 18.0869565,49.7 C18.0869565,48.5435874 17.1492299,47.6 16,47.6 Z" id="Path"></path>
                    <path d="M10.7674826,5.50444444 L22.1592471,5.50444444 C22.6078462,5.50444444 22.9702612,5.13888889 22.9702612,4.68888889 C22.9702612,4.23777778 22.6067412,3.87333333 22.1592471,3.87333333 L10.7674826,3.87333333 C10.3188835,3.87333333 9.95646598,4.23888889 9.95646598,4.68888889 C9.95536357,5.13888889 10.3188835,5.50444444 10.7674826,5.50444444 Z" id="Path"></path>
                </g>
                <g transform="translate(6.408558, 16.666667)" fill="#F37021" id="Shape">
                    <path d="M16.9484264,12.2288889 C15.0987839,11.4788889 12.6502728,11.0666667 10.0548067,11.0666667 C7.45934067,11.0666667 5.0108295,11.4788889 3.16118703,12.2288889 C1.1645897,13.0377778 0.0640855813,14.1711111 0.0640855813,15.4211111 L0.0640855813,19.2622222 C0.0640855813,19.5455556 0.292804811,19.7755556 0.574560384,19.7755556 L19.535053,19.7755556 C19.8168086,19.7755556 20.0455278,19.5455556 20.0455278,19.2622222 L20.0455278,15.4211111 C20.0455278,14.1711111 18.9450237,13.0377778 16.9484264,12.2288889 Z M19.0234733,18.7477778 L1.08503519,18.7477778 L1.08503519,15.4211111 C1.08503519,13.8477778 4.76885118,12.0933333 10.0548067,12.0933333 C15.3407622,12.0933333 19.0245782,13.8466667 19.0245782,15.4211111 L19.0245782,18.7477778 L19.0234733,18.7477778 Z"></path>
                    <path d="M10.0548067,10.5455556 C12.9408677,10.5455556 15.2899357,8.18444444 15.2899357,5.28111111 C15.2899357,2.37888889 12.9419726,0.0166666667 10.0548067,0.0166666667 C7.16874571,0.0166666667 4.81967768,2.37777778 4.81967768,5.28111111 C4.81967768,8.18444444 7.16764079,10.5455556 10.0548067,10.5455556 Z M10.0548067,1.04444444 C12.3784615,1.04444444 14.2689861,2.94555556 14.2689861,5.28222222 C14.2689861,7.61888889 12.3784615,9.52 10.0548067,9.52 C7.73115193,9.52 5.84062728,7.61888889 5.84062728,5.28222222 C5.84062728,2.94444444 7.73115193,1.04444444 10.0548067,1.04444444 Z"></path>
                </g>
            </g>
        </g>
    </g>
</svg>